<?xml version="1.0" encoding="UTF-8" standalone="no"?><svg xmlns="http://www.w3.org/2000/svg" xmlns:xlink="http://www.w3.org/1999/xlink" clip-rule="evenodd" stroke-miterlimit="4.00" viewBox="0 0 720 540"><desc>SVG generated by Keynote</desc><defs></defs><g transform="matrix(1.00, 0.00, -0.00, -1.00, 0.0, 540.0)"><path d="M 0.0 540.0 L 720.0 540.0 L 720.0 0.0 L 0.0 0.0 Z M 0.0 540.0 " fill="#FFFFFF"></path><text xml:space="preserve" font-family="TrebuchetMS" font-size="12.0" fill="#888888" transform="matrix(1.00, 0.00, -0.00, -1.00, 264.0, 21.0)">M</text><text xml:space="preserve" font-family="TrebuchetMS" font-size="12.0" fill="#888888" transform="matrix(1.00, 0.00, -0.00, -1.00, 272.5, 21.0)">o</text><text xml:space="preserve" font-family="TrebuchetMS" font-size="12.0" fill="#888888" transform="matrix(1.00, 0.00, -0.00, -1.00, 279.0, 21.0)">u</text><text xml:space="preserve" font-family="TrebuchetMS" font-size="12.0" fill="#888888" transform="matrix(1.00, 0.00, -0.00, -1.00, 285.5, 21.0)">s</text><text xml:space="preserve" font-family="TrebuchetMS" font-size="12.0" fill="#888888" transform="matrix(1.00, 0.00, -0.00, -1.00, 290.4, 21.0)">e</text><text xml:space="preserve" font-family="TrebuchetMS" font-size="12.0" fill="#888888" transform="matrix(1.00, 0.00, -0.00, -1.00, 296.9, 21.0)"> </text><text xml:space="preserve" font-family="TrebuchetMS" font-size="12.0" fill="#888888" transform="matrix(1.00, 0.00, -0.00, -1.00, 300.5, 21.0)">I</text><text xml:space="preserve" font-family="TrebuchetMS" font-size="12.0" fill="#888888" transform="matrix(1.00, 0.00, -0.00, -1.00, 303.9, 21.0)">m</text><text xml:space="preserve" font-family="TrebuchetMS" font-size="12.0" fill="#888888" transform="matrix(1.00, 0.00, -0.00, -1.00, 313.8, 21.0)">a</text><text xml:space="preserve" font-family="TrebuchetMS" font-size="12.0" fill="#888888" transform="matrix(1.00, 0.00, -0.00, -1.00, 320.2, 21.0)">g</text><text xml:space="preserve" font-family="TrebuchetMS" font-size="12.0" fill="#888888" transform="matrix(1.00, 0.00, -0.00, -1.00, 326.2, 21.0)">i</text><text xml:space="preserve" font-family="TrebuchetMS" font-size="12.0" fill="#888888" transform="matrix(1.00, 0.00, -0.00, -1.00, 329.6, 21.0)">n</text><text xml:space="preserve" font-family="TrebuchetMS" font-size="12.0" fill="#888888" transform="matrix(1.00, 0.00, -0.00, -1.00, 336.2, 21.0)">g</text><text xml:space="preserve" font-family="TrebuchetMS" font-size="12.0" fill="#888888" transform="matrix(1.00, 0.00, -0.00, -1.00, 342.2, 21.0)"> </text><text xml:space="preserve" font-family="TrebuchetMS" font-size="12.0" fill="#888888" transform="matrix(1.00, 0.00, -0.00, -1.00, 345.8, 21.0)">S</text><text xml:space="preserve" font-family="TrebuchetMS" font-size="12.0" fill="#888888" transform="matrix(1.00, 0.00, -0.00, -1.00, 351.6, 21.0)">u</text><text xml:space="preserve" font-family="TrebuchetMS" font-size="12.0" fill="#888888" transform="matrix(1.00, 0.00, -0.00, -1.00, 358.1, 21.0)">m</text><text xml:space="preserve" font-family="TrebuchetMS" font-size="12.0" fill="#888888" transform="matrix(1.00, 0.00, -0.00, -1.00, 368.1, 21.0)">m</text><text xml:space="preserve" font-family="TrebuchetMS" font-size="12.0" fill="#888888" transform="matrix(1.00, 0.00, -0.00, -1.00, 378.1, 21.0)">e</text><text xml:space="preserve" font-family="TrebuchetMS" font-size="12.0" fill="#888888" transform="matrix(1.00, 0.00, -0.00, -1.00, 384.6, 21.0)">r</text><text xml:space="preserve" font-family="TrebuchetMS" font-size="12.0" fill="#888888" transform="matrix(1.00, 0.00, -0.00, -1.00, 389.3, 21.0)"> </text><text xml:space="preserve" font-family="TrebuchetMS" font-size="12.0" fill="#888888" transform="matrix(1.00, 0.00, -0.00, -1.00, 392.9, 21.0)">S</text><text xml:space="preserve" font-family="TrebuchetMS" font-size="12.0" fill="#888888" transform="matrix(1.00, 0.00, -0.00, -1.00, 398.7, 21.0)">c</text><text xml:space="preserve" font-family="TrebuchetMS" font-size="12.0" fill="#888888" transform="matrix(1.00, 0.00, -0.00, -1.00, 404.6, 21.0)">h</text><text xml:space="preserve" font-family="TrebuchetMS" font-size="12.0" fill="#888888" transform="matrix(1.00, 0.00, -0.00, -1.00, 411.2, 21.0)">o</text><text xml:space="preserve" font-family="TrebuchetMS" font-size="12.0" fill="#888888" transform="matrix(1.00, 0.00, -0.00, -1.00, 417.6, 21.0)">o</text><text xml:space="preserve" font-family="TrebuchetMS" font-size="12.0" fill="#888888" transform="matrix(1.00, 0.00, -0.00, -1.00, 424.0, 21.0)">l</text><text xml:space="preserve" font-family="TrebuchetMS" font-size="12.0" fill="#888888" transform="matrix(1.00, 0.00, -0.00, -1.00, 427.6, 21.0)"> </text><text xml:space="preserve" font-family="TrebuchetMS" font-size="12.0" fill="#888888" transform="matrix(1.00, 0.00, -0.00, -1.00, 431.2, 21.0)">2</text><text xml:space="preserve" font-family="TrebuchetMS" font-size="12.0" fill="#888888" transform="matrix(1.00, 0.00, -0.00, -1.00, 437.5, 21.0)">0</text><text xml:space="preserve" font-family="TrebuchetMS" font-size="12.0" fill="#888888" transform="matrix(1.00, 0.00, -0.00, -1.00, 443.8, 21.0)">1</text><text xml:space="preserve" font-family="TrebuchetMS" font-size="12.0" fill="#888888" transform="matrix(1.00, 0.00, -0.00, -1.00, 450.1, 21.0)">7</text><g><clipPath id="clip-2830"><path d="M 108.7 453.7 L 721.0 453.7 L 721.0 541.0 L 108.7 541.0 Z M 108.7 453.7 "></path></clipPath><g clip-path="url(#clip-2830)"><path d="M 109.7 540.0 L 720.0 540.0 L 720.0 454.7 L 109.7 454.7 Z M 109.7 540.0 " fill="#93B3D7"></path></g></g><g><clipPath id="clip-2831"><path d="M 104.0 453.1 L 725.7 453.1 L 725.7 545.7 L 104.0 545.7 Z M 104.0 453.1 "></path></clipPath><g clip-path="url(#clip-2831)"><text xml:space="preserve" font-family="TrebuchetMS-Bold" font-weight="bold" font-size="32.0" fill="#000000" transform="matrix(1.00, 0.00, -0.00, -1.00, 113.0, 507.0)">G</text><text xml:space="preserve" font-family="TrebuchetMS-Bold" font-weight="bold" font-size="32.0" fill="#000000" transform="matrix(1.00, 0.00, -0.00, -1.00, 134.5, 507.0)">e</text><text xml:space="preserve" font-family="TrebuchetMS-Bold" font-weight="bold" font-size="32.0" fill="#000000" transform="matrix(1.00, 0.00, -0.00, -1.00, 152.9, 507.0)">t</text><text xml:space="preserve" font-family="TrebuchetMS-Bold" font-weight="bold" font-size="32.0" fill="#000000" transform="matrix(1.00, 0.00, -0.00, -1.00, 165.6, 507.0)">t</text><text xml:space="preserve" font-family="TrebuchetMS-Bold" font-weight="bold" font-size="32.0" fill="#000000" transform="matrix(1.00, 0.00, -0.00, -1.00, 178.3, 507.0)">i</text><text xml:space="preserve" font-family="TrebuchetMS-Bold" font-weight="bold" font-size="32.0" fill="#000000" transform="matrix(1.00, 0.00, -0.00, -1.00, 187.8, 507.0)">n</text><text xml:space="preserve" font-family="TrebuchetMS-Bold" font-weight="bold" font-size="32.0" fill="#000000" transform="matrix(1.00, 0.00, -0.00, -1.00, 206.7, 507.0)">g</text><text xml:space="preserve" font-family="TrebuchetMS-Bold" font-weight="bold" font-size="32.0" fill="#000000" transform="matrix(1.00, 0.00, -0.00, -1.00, 222.8, 507.0)"> </text><text xml:space="preserve" font-family="TrebuchetMS-Bold" font-weight="bold" font-size="32.0" fill="#000000" transform="matrix(1.00, 0.00, -0.00, -1.00, 232.5, 507.0)">t</text><text xml:space="preserve" font-family="TrebuchetMS-Bold" font-weight="bold" font-size="32.0" fill="#000000" transform="matrix(1.00, 0.00, -0.00, -1.00, 245.2, 507.0)">h</text><text xml:space="preserve" font-family="TrebuchetMS-Bold" font-weight="bold" font-size="32.0" fill="#000000" transform="matrix(1.00, 0.00, -0.00, -1.00, 264.1, 507.0)">e</text><text xml:space="preserve" font-family="TrebuchetMS-Bold" font-weight="bold" font-size="32.0" fill="#000000" transform="matrix(1.00, 0.00, -0.00, -1.00, 282.5, 507.0)"> </text><text xml:space="preserve" font-family="TrebuchetMS-Bold" font-weight="bold" font-size="32.0" fill="#000000" transform="matrix(1.00, 0.00, -0.00, -1.00, 292.2, 507.0)">M</text><text xml:space="preserve" font-family="TrebuchetMS-Bold" font-weight="bold" font-size="32.0" fill="#000000" transform="matrix(1.00, 0.00, -0.00, -1.00, 316.0, 507.0)">o</text><text xml:space="preserve" font-family="TrebuchetMS-Bold" font-weight="bold" font-size="32.0" fill="#000000" transform="matrix(1.00, 0.00, -0.00, -1.00, 334.1, 507.0)">s</text><text xml:space="preserve" font-family="TrebuchetMS-Bold" font-weight="bold" font-size="32.0" fill="#000000" transform="matrix(1.00, 0.00, -0.00, -1.00, 347.9, 507.0)">t</text><text xml:space="preserve" font-family="TrebuchetMS-Bold" font-weight="bold" font-size="32.0" fill="#000000" transform="matrix(1.00, 0.00, -0.00, -1.00, 360.6, 507.0)"> </text><text xml:space="preserve" font-family="TrebuchetMS-Bold" font-weight="bold" font-size="32.0" fill="#000000" transform="matrix(1.00, 0.00, -0.00, -1.00, 370.2, 507.0)">O</text><text xml:space="preserve" font-family="TrebuchetMS-Bold" font-weight="bold" font-size="32.0" fill="#000000" transform="matrix(1.00, 0.00, -0.00, -1.00, 392.7, 507.0)">u</text><text xml:space="preserve" font-family="TrebuchetMS-Bold" font-weight="bold" font-size="32.0" fill="#000000" transform="matrix(1.00, 0.00, -0.00, -1.00, 411.6, 507.0)">t</text><text xml:space="preserve" font-family="TrebuchetMS-Bold" font-weight="bold" font-size="32.0" fill="#000000" transform="matrix(1.00, 0.00, -0.00, -1.00, 424.3, 507.0)"> </text><text xml:space="preserve" font-family="TrebuchetMS-Bold" font-weight="bold" font-size="32.0" fill="#000000" transform="matrix(1.00, 0.00, -0.00, -1.00, 434.0, 507.0)">o</text><text xml:space="preserve" font-family="TrebuchetMS-Bold" font-weight="bold" font-size="32.0" fill="#000000" transform="matrix(1.00, 0.00, -0.00, -1.00, 452.1, 507.0)">f</text><text xml:space="preserve" font-family="TrebuchetMS-Bold" font-weight="bold" font-size="32.0" fill="#000000" transform="matrix(1.00, 0.00, -0.00, -1.00, 463.9, 507.0)"> </text><text xml:space="preserve" font-family="TrebuchetMS-Bold" font-weight="bold" font-size="32.0" fill="#000000" transform="matrix(1.00, 0.00, -0.00, -1.00, 473.6, 507.0)">M</text><text xml:space="preserve" font-family="TrebuchetMS-Bold" font-weight="bold" font-size="32.0" fill="#000000" transform="matrix(1.00, 0.00, -0.00, -1.00, 497.4, 507.0)">o</text><text xml:space="preserve" font-family="TrebuchetMS-Bold" font-weight="bold" font-size="32.0" fill="#000000" transform="matrix(1.00, 0.00, -0.00, -1.00, 515.5, 507.0)">u</text><text xml:space="preserve" font-family="TrebuchetMS-Bold" font-weight="bold" font-size="32.0" fill="#000000" transform="matrix(1.00, 0.00, -0.00, -1.00, 534.4, 507.0)">s</text><text xml:space="preserve" font-family="TrebuchetMS-Bold" font-weight="bold" font-size="32.0" fill="#000000" transform="matrix(1.00, 0.00, -0.00, -1.00, 548.2, 507.0)">e</text><text xml:space="preserve" font-family="TrebuchetMS-Bold" font-weight="bold" font-size="32.0" fill="#000000" transform="matrix(1.00, 0.00, -0.00, -1.00, 566.6, 507.0)"> </text><text xml:space="preserve" font-family="TrebuchetMS-Bold" font-weight="bold" font-size="32.0" fill="#000000" transform="matrix(1.00, 0.00, -0.00, -1.00, 576.2, 507.0)">M</text><text xml:space="preserve" font-family="TrebuchetMS-Bold" font-weight="bold" font-size="32.0" fill="#000000" transform="matrix(1.00, 0.00, -0.00, -1.00, 600.1, 507.0)">R</text><text xml:space="preserve" font-family="TrebuchetMS-Bold" font-weight="bold" font-size="32.0" fill="#000000" transform="matrix(1.00, 0.00, -0.00, -1.00, 619.6, 507.0)">I</text><text xml:space="preserve" font-family="TrebuchetMS-Bold" font-weight="bold" font-size="32.0" fill="#000000" transform="matrix(1.00, 0.00, -0.00, -1.00, 628.5, 507.0)">:</text><text xml:space="preserve" font-family="TrebuchetMS-Bold" font-weight="bold" font-size="32.0" fill="#000000" transform="matrix(1.00, 0.00, -0.00, -1.00, 640.3, 507.0)"> </text><text xml:space="preserve" font-family="TrebuchetMS-Bold" font-weight="bold" font-size="32.0" fill="#000000" transform="matrix(1.00, 0.00, -0.00, -1.00, 113.0, 470.0)">M</text><text xml:space="preserve" font-family="TrebuchetMS-Bold" font-weight="bold" font-size="32.0" fill="#000000" transform="matrix(1.00, 0.00, -0.00, -1.00, 136.8, 470.0)">u</text><text xml:space="preserve" font-family="TrebuchetMS-Bold" font-weight="bold" font-size="32.0" fill="#000000" transform="matrix(1.00, 0.00, -0.00, -1.00, 155.8, 470.0)">l</text><text xml:space="preserve" font-family="TrebuchetMS-Bold" font-weight="bold" font-size="32.0" fill="#000000" transform="matrix(1.00, 0.00, -0.00, -1.00, 165.2, 470.0)">t</text><text xml:space="preserve" font-family="TrebuchetMS-Bold" font-weight="bold" font-size="32.0" fill="#000000" transform="matrix(1.00, 0.00, -0.00, -1.00, 177.9, 470.0)">i</text><text xml:space="preserve" font-family="TrebuchetMS-Bold" font-weight="bold" font-size="32.0" fill="#000000" transform="matrix(1.00, 0.00, -0.00, -1.00, 187.4, 470.0)">p</text><text xml:space="preserve" font-family="TrebuchetMS-Bold" font-weight="bold" font-size="32.0" fill="#000000" transform="matrix(1.00, 0.00, -0.00, -1.00, 206.0, 470.0)">l</text><text xml:space="preserve" font-family="TrebuchetMS-Bold" font-weight="bold" font-size="32.0" fill="#000000" transform="matrix(1.00, 0.00, -0.00, -1.00, 215.5, 470.0)">e</text><text xml:space="preserve" font-family="TrebuchetMS-Bold" font-weight="bold" font-size="32.0" fill="#000000" transform="matrix(1.00, 0.00, -0.00, -1.00, 233.9, 470.0)">-</text><text xml:space="preserve" font-family="TrebuchetMS-Bold" font-weight="bold" font-size="32.0" fill="#000000" transform="matrix(1.00, 0.00, -0.00, -1.00, 245.6, 470.0)">m</text><text xml:space="preserve" font-family="TrebuchetMS-Bold" font-weight="bold" font-size="32.0" fill="#000000" transform="matrix(1.00, 0.00, -0.00, -1.00, 273.1, 470.0)">o</text><text xml:space="preserve" font-family="TrebuchetMS-Bold" font-weight="bold" font-size="32.0" fill="#000000" transform="matrix(1.00, 0.00, -0.00, -1.00, 291.3, 470.0)">u</text><text xml:space="preserve" font-family="TrebuchetMS-Bold" font-weight="bold" font-size="32.0" fill="#000000" transform="matrix(1.00, 0.00, -0.00, -1.00, 310.2, 470.0)">s</text><text xml:space="preserve" font-family="TrebuchetMS-Bold" font-weight="bold" font-size="32.0" fill="#000000" transform="matrix(1.00, 0.00, -0.00, -1.00, 323.9, 470.0)">e</text><text xml:space="preserve" font-family="TrebuchetMS-Bold" font-weight="bold" font-size="32.0" fill="#000000" transform="matrix(1.00, 0.00, -0.00, -1.00, 342.3, 470.0)"> </text><text xml:space="preserve" font-family="TrebuchetMS-Bold" font-weight="bold" font-size="32.0" fill="#000000" transform="matrix(1.00, 0.00, -0.00, -1.00, 352.0, 470.0)">M</text><text xml:space="preserve" font-family="TrebuchetMS-Bold" font-weight="bold" font-size="32.0" fill="#000000" transform="matrix(1.00, 0.00, -0.00, -1.00, 375.8, 470.0)">R</text><text xml:space="preserve" font-family="TrebuchetMS-Bold" font-weight="bold" font-size="32.0" fill="#000000" transform="matrix(1.00, 0.00, -0.00, -1.00, 395.4, 470.0)">I</text></g></g><image xlink:href="../../BC75728B-7687-45CD-9C61-CC08C37E6F5D/assets/5D3AE6C864802F0CC118C87FB0C84F5B.png" width="240.00" height="95.00" transform="matrix(0.41, 0.00, -0.00, -0.41, 0.0, 502.0)"></image><image xlink:href="../../BC75728B-7687-45CD-9C61-CC08C37E6F5D/assets/6D8835745C7812B9191B39FDD8C55B36.jpeg" width="236.00" height="71.00" transform="matrix(0.40, 0.00, -0.00, -0.41, 0.0, 540.0)"></image><path d="M 0.0 0.0 L 720.0 0.0 " fill="none" stroke="#000000" stroke-width="2.00" stroke-linejoin="round" transform="matrix(-1.00, 0.00, 0.00, 1.00, 720.0, 454.6)"></path><path d="M 0.0 0.0 L 720.0 0.0 " fill="none" stroke="#000000" stroke-width="2.00" stroke-linejoin="round" transform="matrix(-1.00, 0.00, 0.00, 1.00, 720.0, 32.2)"></path><text xml:space="preserve" font-family="TrebuchetMS" font-size="12.0" fill="#888888" transform="matrix(1.00, 0.00, -0.00, -1.00, 667.8, 20.8)">1</text><text xml:space="preserve" font-family="TrebuchetMS" font-size="12.0" fill="#888888" transform="matrix(1.00, 0.00, -0.00, -1.00, 674.1, 20.8)">8</text><text xml:space="preserve" font-family="ArialMT" font-size="28.0" fill="#000000" transform="matrix(1.00, 0.00, -0.00, -1.00, 288.0, 247.0)">A</text><text xml:space="preserve" font-family="ArialMT" font-size="28.0" fill="#000000" transform="matrix(1.00, 0.00, -0.00, -1.00, 306.7, 247.0)">i</text><text xml:space="preserve" font-family="ArialMT" font-size="28.0" fill="#000000" transform="matrix(1.00, 0.00, -0.00, -1.00, 312.9, 247.0)">d</text><text xml:space="preserve" font-family="ArialMT" font-size="28.0" fill="#000000" transform="matrix(1.00, 0.00, -0.00, -1.00, 328.5, 247.0)">i</text><text xml:space="preserve" font-family="ArialMT" font-size="28.0" fill="#000000" transform="matrix(1.00, 0.00, -0.00, -1.00, 334.7, 247.0)">n</text><text xml:space="preserve" font-family="ArialMT" font-size="28.0" fill="#000000" transform="matrix(1.00, 0.00, -0.00, -1.00, 350.3, 247.0)"> </text><text xml:space="preserve" font-family="ArialMT" font-size="28.0" fill="#000000" transform="matrix(1.00, 0.00, -0.00, -1.00, 356.5, 247.0)">A</text><text xml:space="preserve" font-family="ArialMT" font-size="28.0" fill="#000000" transform="matrix(1.00, 0.00, -0.00, -1.00, 375.2, 247.0)">r</text><text xml:space="preserve" font-family="ArialMT" font-size="28.0" fill="#000000" transform="matrix(1.00, 0.00, -0.00, -1.00, 384.5, 247.0)">b</text><text xml:space="preserve" font-family="ArialMT" font-size="28.0" fill="#000000" transform="matrix(1.00, 0.00, -0.00, -1.00, 400.1, 247.0)">a</text><text xml:space="preserve" font-family="ArialMT" font-size="28.0" fill="#000000" transform="matrix(1.00, 0.00, -0.00, -1.00, 415.7, 247.0)">b</text><text xml:space="preserve" font-family="ArialMT" font-size="28.0" fill="#000000" transform="matrix(1.00, 0.00, -0.00, -1.00, 431.2, 247.0)">i</text><text xml:space="preserve" font-family="ArialMT" font-size="28.0" fill="#000000" transform="matrix(1.00, 0.00, -0.00, -1.00, 437.5, 247.0)"> </text></g></svg>