<?xml version="1.0" encoding="UTF-8" standalone="no"?><svg xmlns="http://www.w3.org/2000/svg" xmlns:xlink="http://www.w3.org/1999/xlink" clip-rule="evenodd" stroke-miterlimit="4.00" viewBox="0 0 720 540"><desc>SVG generated by Keynote</desc><defs></defs><g transform="matrix(1.00, 0.00, -0.00, -1.00, 0.0, 540.0)"><path d="M 0.0 540.0 L 720.0 540.0 L 720.0 0.0 L 0.0 0.0 Z M 0.0 540.0 " fill="#FFFFFF"></path><text xml:space="preserve" font-family="TrebuchetMS" font-size="12.0" fill="#888888" transform="matrix(1.00, 0.00, -0.00, -1.00, 264.0, 21.0)">M</text><text xml:space="preserve" font-family="TrebuchetMS" font-size="12.0" fill="#888888" transform="matrix(1.00, 0.00, -0.00, -1.00, 272.5, 21.0)">o</text><text xml:space="preserve" font-family="TrebuchetMS" font-size="12.0" fill="#888888" transform="matrix(1.00, 0.00, -0.00, -1.00, 279.0, 21.0)">u</text><text xml:space="preserve" font-family="TrebuchetMS" font-size="12.0" fill="#888888" transform="matrix(1.00, 0.00, -0.00, -1.00, 285.5, 21.0)">s</text><text xml:space="preserve" font-family="TrebuchetMS" font-size="12.0" fill="#888888" transform="matrix(1.00, 0.00, -0.00, -1.00, 290.4, 21.0)">e</text><text xml:space="preserve" font-family="TrebuchetMS" font-size="12.0" fill="#888888" transform="matrix(1.00, 0.00, -0.00, -1.00, 296.9, 21.0)"> </text><text xml:space="preserve" font-family="TrebuchetMS" font-size="12.0" fill="#888888" transform="matrix(1.00, 0.00, -0.00, -1.00, 300.5, 21.0)">I</text><text xml:space="preserve" font-family="TrebuchetMS" font-size="12.0" fill="#888888" transform="matrix(1.00, 0.00, -0.00, -1.00, 303.9, 21.0)">m</text><text xml:space="preserve" font-family="TrebuchetMS" font-size="12.0" fill="#888888" transform="matrix(1.00, 0.00, -0.00, -1.00, 313.8, 21.0)">a</text><text xml:space="preserve" font-family="TrebuchetMS" font-size="12.0" fill="#888888" transform="matrix(1.00, 0.00, -0.00, -1.00, 320.2, 21.0)">g</text><text xml:space="preserve" font-family="TrebuchetMS" font-size="12.0" fill="#888888" transform="matrix(1.00, 0.00, -0.00, -1.00, 326.2, 21.0)">i</text><text xml:space="preserve" font-family="TrebuchetMS" font-size="12.0" fill="#888888" transform="matrix(1.00, 0.00, -0.00, -1.00, 329.6, 21.0)">n</text><text xml:space="preserve" font-family="TrebuchetMS" font-size="12.0" fill="#888888" transform="matrix(1.00, 0.00, -0.00, -1.00, 336.2, 21.0)">g</text><text xml:space="preserve" font-family="TrebuchetMS" font-size="12.0" fill="#888888" transform="matrix(1.00, 0.00, -0.00, -1.00, 342.2, 21.0)"> </text><text xml:space="preserve" font-family="TrebuchetMS" font-size="12.0" fill="#888888" transform="matrix(1.00, 0.00, -0.00, -1.00, 345.8, 21.0)">S</text><text xml:space="preserve" font-family="TrebuchetMS" font-size="12.0" fill="#888888" transform="matrix(1.00, 0.00, -0.00, -1.00, 351.6, 21.0)">u</text><text xml:space="preserve" font-family="TrebuchetMS" font-size="12.0" fill="#888888" transform="matrix(1.00, 0.00, -0.00, -1.00, 358.1, 21.0)">m</text><text xml:space="preserve" font-family="TrebuchetMS" font-size="12.0" fill="#888888" transform="matrix(1.00, 0.00, -0.00, -1.00, 368.1, 21.0)">m</text><text xml:space="preserve" font-family="TrebuchetMS" font-size="12.0" fill="#888888" transform="matrix(1.00, 0.00, -0.00, -1.00, 378.1, 21.0)">e</text><text xml:space="preserve" font-family="TrebuchetMS" font-size="12.0" fill="#888888" transform="matrix(1.00, 0.00, -0.00, -1.00, 384.6, 21.0)">r</text><text xml:space="preserve" font-family="TrebuchetMS" font-size="12.0" fill="#888888" transform="matrix(1.00, 0.00, -0.00, -1.00, 389.3, 21.0)"> </text><text xml:space="preserve" font-family="TrebuchetMS" font-size="12.0" fill="#888888" transform="matrix(1.00, 0.00, -0.00, -1.00, 392.9, 21.0)">S</text><text xml:space="preserve" font-family="TrebuchetMS" font-size="12.0" fill="#888888" transform="matrix(1.00, 0.00, -0.00, -1.00, 398.7, 21.0)">c</text><text xml:space="preserve" font-family="TrebuchetMS" font-size="12.0" fill="#888888" transform="matrix(1.00, 0.00, -0.00, -1.00, 404.6, 21.0)">h</text><text xml:space="preserve" font-family="TrebuchetMS" font-size="12.0" fill="#888888" transform="matrix(1.00, 0.00, -0.00, -1.00, 411.2, 21.0)">o</text><text xml:space="preserve" font-family="TrebuchetMS" font-size="12.0" fill="#888888" transform="matrix(1.00, 0.00, -0.00, -1.00, 417.6, 21.0)">o</text><text xml:space="preserve" font-family="TrebuchetMS" font-size="12.0" fill="#888888" transform="matrix(1.00, 0.00, -0.00, -1.00, 424.0, 21.0)">l</text><text xml:space="preserve" font-family="TrebuchetMS" font-size="12.0" fill="#888888" transform="matrix(1.00, 0.00, -0.00, -1.00, 427.6, 21.0)"> </text><text xml:space="preserve" font-family="TrebuchetMS" font-size="12.0" fill="#888888" transform="matrix(1.00, 0.00, -0.00, -1.00, 431.2, 21.0)">2</text><text xml:space="preserve" font-family="TrebuchetMS" font-size="12.0" fill="#888888" transform="matrix(1.00, 0.00, -0.00, -1.00, 437.5, 21.0)">0</text><text xml:space="preserve" font-family="TrebuchetMS" font-size="12.0" fill="#888888" transform="matrix(1.00, 0.00, -0.00, -1.00, 443.8, 21.0)">1</text><text xml:space="preserve" font-family="TrebuchetMS" font-size="12.0" fill="#888888" transform="matrix(1.00, 0.00, -0.00, -1.00, 450.1, 21.0)">7</text><g><clipPath id="clip-5340"><path d="M 108.7 453.7 L 721.0 453.7 L 721.0 541.0 L 108.7 541.0 Z M 108.7 453.7 "></path></clipPath><g clip-path="url(#clip-5340)"><path d="M 109.7 540.0 L 720.0 540.0 L 720.0 454.7 L 109.7 454.7 Z M 109.7 540.0 " fill="#93B3D7"></path></g></g><g><clipPath id="clip-5341"><path d="M 104.0 490.1 L 725.7 490.1 L 725.7 545.7 L 104.0 545.7 Z M 104.0 490.1 "></path></clipPath><g clip-path="url(#clip-5341)"><text xml:space="preserve" font-family="TrebuchetMS-Bold" font-weight="bold" font-size="32.0" fill="#000000" transform="matrix(1.00, 0.00, -0.00, -1.00, 113.0, 507.0)">E</text><text xml:space="preserve" font-family="TrebuchetMS-Bold" font-weight="bold" font-size="32.0" fill="#000000" transform="matrix(1.00, 0.00, -0.00, -1.00, 131.2, 507.0)">x</text><text xml:space="preserve" font-family="TrebuchetMS-Bold" font-weight="bold" font-size="32.0" fill="#000000" transform="matrix(1.00, 0.00, -0.00, -1.00, 148.9, 507.0)"> </text><text xml:space="preserve" font-family="TrebuchetMS-Bold" font-weight="bold" font-size="32.0" fill="#000000" transform="matrix(1.00, 0.00, -0.00, -1.00, 158.5, 507.0)">V</text><text xml:space="preserve" font-family="TrebuchetMS-Bold" font-weight="bold" font-size="32.0" fill="#000000" transform="matrix(1.00, 0.00, -0.00, -1.00, 177.8, 507.0)">i</text><text xml:space="preserve" font-family="TrebuchetMS-Bold" font-weight="bold" font-size="32.0" fill="#000000" transform="matrix(1.00, 0.00, -0.00, -1.00, 187.4, 507.0)">v</text><text xml:space="preserve" font-family="TrebuchetMS-Bold" font-weight="bold" font-size="32.0" fill="#000000" transform="matrix(1.00, 0.00, -0.00, -1.00, 204.3, 507.0)">o</text><text xml:space="preserve" font-family="TrebuchetMS-Bold" font-weight="bold" font-size="32.0" fill="#000000" transform="matrix(1.00, 0.00, -0.00, -1.00, 222.4, 507.0)"> </text><text xml:space="preserve" font-family="TrebuchetMS-Bold" font-weight="bold" font-size="32.0" fill="#000000" transform="matrix(1.00, 0.00, -0.00, -1.00, 232.0, 507.0)">a</text><text xml:space="preserve" font-family="TrebuchetMS-Bold" font-weight="bold" font-size="32.0" fill="#000000" transform="matrix(1.00, 0.00, -0.00, -1.00, 249.1, 507.0)">n</text><text xml:space="preserve" font-family="TrebuchetMS-Bold" font-weight="bold" font-size="32.0" fill="#000000" transform="matrix(1.00, 0.00, -0.00, -1.00, 268.0, 507.0)">d</text><text xml:space="preserve" font-family="TrebuchetMS-Bold" font-weight="bold" font-size="32.0" fill="#000000" transform="matrix(1.00, 0.00, -0.00, -1.00, 286.5, 507.0)"> </text><text xml:space="preserve" font-family="TrebuchetMS-Bold" font-weight="bold" font-size="32.0" fill="#000000" transform="matrix(1.00, 0.00, -0.00, -1.00, 296.2, 507.0)">I</text><text xml:space="preserve" font-family="TrebuchetMS-Bold" font-weight="bold" font-size="32.0" fill="#000000" transform="matrix(1.00, 0.00, -0.00, -1.00, 305.1, 507.0)">n</text><text xml:space="preserve" font-family="TrebuchetMS-Bold" font-weight="bold" font-size="32.0" fill="#000000" transform="matrix(1.00, 0.00, -0.00, -1.00, 324.0, 507.0)"> </text><text xml:space="preserve" font-family="TrebuchetMS-Bold" font-weight="bold" font-size="32.0" fill="#000000" transform="matrix(1.00, 0.00, -0.00, -1.00, 333.6, 507.0)">V</text><text xml:space="preserve" font-family="TrebuchetMS-Bold" font-weight="bold" font-size="32.0" fill="#000000" transform="matrix(1.00, 0.00, -0.00, -1.00, 352.9, 507.0)">i</text><text xml:space="preserve" font-family="TrebuchetMS-Bold" font-weight="bold" font-size="32.0" fill="#000000" transform="matrix(1.00, 0.00, -0.00, -1.00, 362.5, 507.0)">v</text><text xml:space="preserve" font-family="TrebuchetMS-Bold" font-weight="bold" font-size="32.0" fill="#000000" transform="matrix(1.00, 0.00, -0.00, -1.00, 379.4, 507.0)">o</text><text xml:space="preserve" font-family="TrebuchetMS-Bold" font-weight="bold" font-size="32.0" fill="#000000" transform="matrix(1.00, 0.00, -0.00, -1.00, 397.5, 507.0)"> </text><text xml:space="preserve" font-family="TrebuchetMS-Bold" font-weight="bold" font-size="32.0" fill="#000000" transform="matrix(1.00, 0.00, -0.00, -1.00, 407.1, 507.0)">I</text><text xml:space="preserve" font-family="TrebuchetMS-Bold" font-weight="bold" font-size="32.0" fill="#000000" transform="matrix(1.00, 0.00, -0.00, -1.00, 416.1, 507.0)">m</text><text xml:space="preserve" font-family="TrebuchetMS-Bold" font-weight="bold" font-size="32.0" fill="#000000" transform="matrix(1.00, 0.00, -0.00, -1.00, 443.6, 507.0)">a</text><text xml:space="preserve" font-family="TrebuchetMS-Bold" font-weight="bold" font-size="32.0" fill="#000000" transform="matrix(1.00, 0.00, -0.00, -1.00, 460.6, 507.0)">g</text><text xml:space="preserve" font-family="TrebuchetMS-Bold" font-weight="bold" font-size="32.0" fill="#000000" transform="matrix(1.00, 0.00, -0.00, -1.00, 476.7, 507.0)">i</text><text xml:space="preserve" font-family="TrebuchetMS-Bold" font-weight="bold" font-size="32.0" fill="#000000" transform="matrix(1.00, 0.00, -0.00, -1.00, 486.2, 507.0)">n</text><text xml:space="preserve" font-family="TrebuchetMS-Bold" font-weight="bold" font-size="32.0" fill="#000000" transform="matrix(1.00, 0.00, -0.00, -1.00, 505.1, 507.0)">g</text><text xml:space="preserve" font-family="TrebuchetMS-Bold" font-weight="bold" font-size="32.0" fill="#000000" transform="matrix(1.00, 0.00, -0.00, -1.00, 521.2, 507.0)"> </text><text xml:space="preserve" font-family="TrebuchetMS-Bold" font-weight="bold" font-size="32.0" fill="#000000" transform="matrix(1.00, 0.00, -0.00, -1.00, 530.8, 507.0)">i</text><text xml:space="preserve" font-family="TrebuchetMS-Bold" font-weight="bold" font-size="32.0" fill="#000000" transform="matrix(1.00, 0.00, -0.00, -1.00, 540.4, 507.0)">n</text><text xml:space="preserve" font-family="TrebuchetMS-Bold" font-weight="bold" font-size="32.0" fill="#000000" transform="matrix(1.00, 0.00, -0.00, -1.00, 559.3, 507.0)"> </text><text xml:space="preserve" font-family="TrebuchetMS-Bold" font-weight="bold" font-size="32.0" fill="#000000" transform="matrix(1.00, 0.00, -0.00, -1.00, 568.9, 507.0)">M</text><text xml:space="preserve" font-family="TrebuchetMS-Bold" font-weight="bold" font-size="32.0" fill="#000000" transform="matrix(1.00, 0.00, -0.00, -1.00, 592.8, 507.0)">i</text><text xml:space="preserve" font-family="TrebuchetMS-Bold" font-weight="bold" font-size="32.0" fill="#000000" transform="matrix(1.00, 0.00, -0.00, -1.00, 602.3, 507.0)">c</text><text xml:space="preserve" font-family="TrebuchetMS-Bold" font-weight="bold" font-size="32.0" fill="#000000" transform="matrix(1.00, 0.00, -0.00, -1.00, 618.7, 507.0)">e</text></g></g><image xlink:href="../../BC75728B-7687-45CD-9C61-CC08C37E6F5D/assets/5D3AE6C864802F0CC118C87FB0C84F5B.png" width="240.00" height="95.00" transform="matrix(0.41, 0.00, -0.00, -0.41, 0.0, 502.0)"></image><image xlink:href="../../BC75728B-7687-45CD-9C61-CC08C37E6F5D/assets/6D8835745C7812B9191B39FDD8C55B36.jpeg" width="236.00" height="71.00" transform="matrix(0.40, 0.00, -0.00, -0.41, 0.0, 540.0)"></image><path d="M 0.0 0.0 L 720.0 0.0 " fill="none" stroke="#000000" stroke-width="2.00" stroke-linejoin="round" transform="matrix(-1.00, 0.00, 0.00, 1.00, 720.0, 454.6)"></path><path d="M 0.0 0.0 L 720.0 0.0 " fill="none" stroke="#000000" stroke-width="2.00" stroke-linejoin="round" transform="matrix(-1.00, 0.00, 0.00, 1.00, 720.0, 32.2)"></path><text xml:space="preserve" font-family="TrebuchetMS" font-size="12.0" fill="#888888" transform="matrix(1.00, 0.00, -0.00, -1.00, 667.8, 20.8)">7</text><text xml:space="preserve" font-family="TrebuchetMS" font-size="12.0" fill="#888888" transform="matrix(1.00, 0.00, -0.00, -1.00, 674.1, 20.8)">5</text><g><clipPath id="clip-5342"><path d="M 74.5 330.5 L 645.5 330.5 L 645.5 141.2 L 74.5 141.2 Z M 74.5 330.5 "></path></clipPath><g clip-path="url(#clip-5342)"><path d="M 75.0 330.0 L 265.0 330.0 L 265.0 299.1 L 75.0 299.1 Z M 75.0 330.0 " fill="#E6E6E6"></path><path d="M 265.0 330.0 L 455.0 330.0 L 455.0 299.1 L 265.0 299.1 Z M 265.0 330.0 " fill="#E6E6E6"></path><path d="M 455.0 330.0 L 645.0 330.0 L 645.0 299.1 L 455.0 299.1 Z M 455.0 330.0 " fill="#E6E6E6"></path><path d="M 75.0 299.1 L 265.0 299.1 L 265.0 268.1 L 75.0 268.1 Z M 75.0 299.1 " fill="#E6E6E6"></path><path d="M 265.0 299.1 L 455.0 299.1 L 455.0 268.1 L 265.0 268.1 Z M 265.0 299.1 " fill="#E6E6E6"></path><path d="M 455.0 299.1 L 645.0 299.1 L 645.0 268.1 L 455.0 268.1 Z M 455.0 299.1 " fill="#E6E6E6"></path><path d="M 75.0 268.1 L 265.0 268.1 L 265.0 234.5 L 75.0 234.5 Z M 75.0 268.1 " fill="#E6E6E6"></path><path d="M 265.0 268.1 L 455.0 268.1 L 455.0 234.5 L 265.0 234.5 Z M 265.0 268.1 " fill="#E6E6E6"></path><path d="M 455.0 268.1 L 645.0 268.1 L 645.0 234.5 L 455.0 234.5 Z M 455.0 268.1 " fill="#E6E6E6"></path><path d="M 75.0 234.5 L 265.0 234.5 L 265.0 203.6 L 75.0 203.6 Z M 75.0 234.5 " fill="#E6E6E6"></path><path d="M 265.0 234.5 L 455.0 234.5 L 455.0 203.6 L 265.0 203.6 Z M 265.0 234.5 " fill="#E6E6E6"></path><path d="M 455.0 234.5 L 645.0 234.5 L 645.0 203.6 L 455.0 203.6 Z M 455.0 234.5 " fill="#E6E6E6"></path><path d="M 75.0 203.6 L 265.0 203.6 L 265.0 172.6 L 75.0 172.6 Z M 75.0 203.6 " fill="#E6E6E6"></path><path d="M 265.0 203.6 L 455.0 203.6 L 455.0 172.6 L 265.0 172.6 Z M 265.0 203.6 " fill="#E6E6E6"></path><path d="M 455.0 203.6 L 645.0 203.6 L 645.0 172.6 L 455.0 172.6 Z M 455.0 203.6 " fill="#E6E6E6"></path><path d="M 75.0 172.6 L 265.0 172.6 L 265.0 141.7 L 75.0 141.7 Z M 75.0 172.6 " fill="#E6E6E6"></path><path d="M 265.0 172.6 L 455.0 172.6 L 455.0 141.7 L 265.0 141.7 Z M 265.0 172.6 " fill="#E6E6E6"></path><path d="M 455.0 172.6 L 645.0 172.6 L 645.0 141.7 L 455.0 141.7 Z M 455.0 172.6 " fill="#E6E6E6"></path></g></g><g><clipPath id="clip-5343"><path d="M 74.5 330.5 L 645.5 330.5 L 645.5 141.2 L 74.5 141.2 Z M 74.5 330.5 "></path></clipPath><g clip-path="url(#clip-5343)"><g><clipPath id="clip-5344"><path d="M 265.5 299.6 L 454.5 299.6 L 454.5 329.5 L 265.5 329.5 Z M 265.5 299.6 "></path></clipPath><g clip-path="url(#clip-5344)"><text xml:space="preserve" font-family="Arial-BoldMT" font-weight="bold" font-size="14.0" fill="#000000" transform="matrix(1.00, 0.00, -0.00, -1.00, 273.0, 310.0)">I</text><text xml:space="preserve" font-family="Arial-BoldMT" font-weight="bold" font-size="14.0" fill="#000000" transform="matrix(1.00, 0.00, -0.00, -1.00, 276.9, 310.0)">n</text><text xml:space="preserve" font-family="Arial-BoldMT" font-weight="bold" font-size="14.0" fill="#000000" transform="matrix(1.00, 0.00, -0.00, -1.00, 285.4, 310.0)"> </text><text xml:space="preserve" font-family="Arial-BoldMT" font-weight="bold" font-size="14.0" fill="#000000" transform="matrix(1.00, 0.00, -0.00, -1.00, 289.3, 310.0)">V</text><text xml:space="preserve" font-family="Arial-BoldMT" font-weight="bold" font-size="14.0" fill="#000000" transform="matrix(1.00, 0.00, -0.00, -1.00, 298.4, 310.0)">i</text><text xml:space="preserve" font-family="Arial-BoldMT" font-weight="bold" font-size="14.0" fill="#000000" transform="matrix(1.00, 0.00, -0.00, -1.00, 302.3, 310.0)">v</text><text xml:space="preserve" font-family="Arial-BoldMT" font-weight="bold" font-size="14.0" fill="#000000" transform="matrix(1.00, 0.00, -0.00, -1.00, 310.1, 310.0)">o</text><text xml:space="preserve" font-family="Arial-BoldMT" font-weight="bold" font-size="14.0" fill="#000000" transform="matrix(1.00, 0.00, -0.00, -1.00, 318.6, 310.0)"> </text><text xml:space="preserve" font-family="Arial-BoldMT" font-weight="bold" font-size="14.0" fill="#000000" transform="matrix(1.00, 0.00, -0.00, -1.00, 322.5, 310.0)">M</text><text xml:space="preserve" font-family="Arial-BoldMT" font-weight="bold" font-size="14.0" fill="#000000" transform="matrix(1.00, 0.00, -0.00, -1.00, 334.2, 310.0)">M</text><text xml:space="preserve" font-family="Arial-BoldMT" font-weight="bold" font-size="14.0" fill="#000000" transform="matrix(1.00, 0.00, -0.00, -1.00, 345.8, 310.0)">M</text><text xml:space="preserve" font-family="Arial-BoldMT" font-weight="bold" font-size="14.0" fill="#000000" transform="matrix(1.00, 0.00, -0.00, -1.00, 357.5, 310.0)">R</text><text xml:space="preserve" font-family="Arial-BoldMT" font-weight="bold" font-size="14.0" fill="#000000" transform="matrix(1.00, 0.00, -0.00, -1.00, 367.6, 310.0)">I</text></g></g></g></g><g><clipPath id="clip-5345"><path d="M 74.5 330.5 L 645.5 330.5 L 645.5 141.2 L 74.5 141.2 Z M 74.5 330.5 "></path></clipPath><g clip-path="url(#clip-5345)"><g><clipPath id="clip-5346"><path d="M 455.5 299.6 L 644.5 299.6 L 644.5 329.5 L 455.5 329.5 Z M 455.5 299.6 "></path></clipPath><g clip-path="url(#clip-5346)"><text xml:space="preserve" font-family="Arial-BoldMT" font-weight="bold" font-size="14.0" fill="#000000" transform="matrix(1.00, 0.00, -0.00, -1.00, 463.0, 310.0)">E</text><text xml:space="preserve" font-family="Arial-BoldMT" font-weight="bold" font-size="14.0" fill="#000000" transform="matrix(1.00, 0.00, -0.00, -1.00, 472.3, 310.0)">x</text><text xml:space="preserve" font-family="Arial-BoldMT" font-weight="bold" font-size="14.0" fill="#000000" transform="matrix(1.00, 0.00, -0.00, -1.00, 480.1, 310.0)"> </text><text xml:space="preserve" font-family="Arial-BoldMT" font-weight="bold" font-size="14.0" fill="#000000" transform="matrix(1.00, 0.00, -0.00, -1.00, 484.0, 310.0)">V</text><text xml:space="preserve" font-family="Arial-BoldMT" font-weight="bold" font-size="14.0" fill="#000000" transform="matrix(1.00, 0.00, -0.00, -1.00, 493.1, 310.0)">i</text><text xml:space="preserve" font-family="Arial-BoldMT" font-weight="bold" font-size="14.0" fill="#000000" transform="matrix(1.00, 0.00, -0.00, -1.00, 497.0, 310.0)">v</text><text xml:space="preserve" font-family="Arial-BoldMT" font-weight="bold" font-size="14.0" fill="#000000" transform="matrix(1.00, 0.00, -0.00, -1.00, 504.8, 310.0)">o</text><text xml:space="preserve" font-family="Arial-BoldMT" font-weight="bold" font-size="14.0" fill="#000000" transform="matrix(1.00, 0.00, -0.00, -1.00, 513.3, 310.0)"> </text><text xml:space="preserve" font-family="Arial-BoldMT" font-weight="bold" font-size="14.0" fill="#000000" transform="matrix(1.00, 0.00, -0.00, -1.00, 517.2, 310.0)">M</text><text xml:space="preserve" font-family="Arial-BoldMT" font-weight="bold" font-size="14.0" fill="#000000" transform="matrix(1.00, 0.00, -0.00, -1.00, 528.9, 310.0)">M</text><text xml:space="preserve" font-family="Arial-BoldMT" font-weight="bold" font-size="14.0" fill="#000000" transform="matrix(1.00, 0.00, -0.00, -1.00, 540.5, 310.0)">M</text><text xml:space="preserve" font-family="Arial-BoldMT" font-weight="bold" font-size="14.0" fill="#000000" transform="matrix(1.00, 0.00, -0.00, -1.00, 552.2, 310.0)">R</text><text xml:space="preserve" font-family="Arial-BoldMT" font-weight="bold" font-size="14.0" fill="#000000" transform="matrix(1.00, 0.00, -0.00, -1.00, 562.3, 310.0)">I</text></g></g></g></g><g><clipPath id="clip-5347"><path d="M 74.5 330.5 L 645.5 330.5 L 645.5 141.2 L 74.5 141.2 Z M 74.5 330.5 "></path></clipPath><g clip-path="url(#clip-5347)"><g><clipPath id="clip-5348"><path d="M 75.5 268.6 L 264.5 268.6 L 264.5 298.6 L 75.5 298.6 Z M 75.5 268.6 "></path></clipPath><g clip-path="url(#clip-5348)"><text xml:space="preserve" font-family="Arial-BoldMT" font-weight="bold" font-size="14.0" fill="#000000" transform="matrix(1.00, 0.00, -0.00, -1.00, 83.0, 279.0)">E</text><text xml:space="preserve" font-family="Arial-BoldMT" font-weight="bold" font-size="14.0" fill="#000000" transform="matrix(1.00, 0.00, -0.00, -1.00, 92.3, 279.0)">x</text><text xml:space="preserve" font-family="Arial-BoldMT" font-weight="bold" font-size="14.0" fill="#000000" transform="matrix(1.00, 0.00, -0.00, -1.00, 100.1, 279.0)">p</text><text xml:space="preserve" font-family="Arial-BoldMT" font-weight="bold" font-size="14.0" fill="#000000" transform="matrix(1.00, 0.00, -0.00, -1.00, 108.7, 279.0)">t</text><text xml:space="preserve" font-family="Arial-BoldMT" font-weight="bold" font-size="14.0" fill="#000000" transform="matrix(1.00, 0.00, -0.00, -1.00, 113.3, 279.0)">.</text><text xml:space="preserve" font-family="Arial-BoldMT" font-weight="bold" font-size="14.0" fill="#000000" transform="matrix(1.00, 0.00, -0.00, -1.00, 117.2, 279.0)"> </text><text xml:space="preserve" font-family="Arial-BoldMT" font-weight="bold" font-size="14.0" fill="#000000" transform="matrix(1.00, 0.00, -0.00, -1.00, 121.1, 279.0)">T</text><text xml:space="preserve" font-family="Arial-BoldMT" font-weight="bold" font-size="14.0" fill="#000000" transform="matrix(1.00, 0.00, -0.00, -1.00, 129.4, 279.0)">i</text><text xml:space="preserve" font-family="Arial-BoldMT" font-weight="bold" font-size="14.0" fill="#000000" transform="matrix(1.00, 0.00, -0.00, -1.00, 133.3, 279.0)">m</text><text xml:space="preserve" font-family="Arial-BoldMT" font-weight="bold" font-size="14.0" fill="#000000" transform="matrix(1.00, 0.00, -0.00, -1.00, 145.7, 279.0)">e</text></g></g></g></g><g><clipPath id="clip-5349"><path d="M 74.5 330.5 L 645.5 330.5 L 645.5 141.2 L 74.5 141.2 Z M 74.5 330.5 "></path></clipPath><g clip-path="url(#clip-5349)"><g><clipPath id="clip-5350"><path d="M 265.5 268.6 L 454.5 268.6 L 454.5 298.6 L 265.5 298.6 Z M 265.5 268.6 "></path></clipPath><g clip-path="url(#clip-5350)"><text xml:space="preserve" font-family="ArialMT" font-size="14.0" fill="#000000" transform="matrix(1.00, 0.00, -0.00, -1.00, 273.0, 279.0)">9</text><text xml:space="preserve" font-family="ArialMT" font-size="14.0" fill="#000000" transform="matrix(1.00, 0.00, -0.00, -1.00, 280.8, 279.0)">0</text><text xml:space="preserve" font-family="ArialMT" font-size="14.0" fill="#000000" transform="matrix(1.00, 0.00, -0.00, -1.00, 288.6, 279.0)"> </text><text xml:space="preserve" font-family="ArialMT" font-size="14.0" fill="#000000" transform="matrix(1.00, 0.00, -0.00, -1.00, 292.5, 279.0)">m</text><text xml:space="preserve" font-family="ArialMT" font-size="14.0" fill="#000000" transform="matrix(1.00, 0.00, -0.00, -1.00, 304.1, 279.0)">i</text><text xml:space="preserve" font-family="ArialMT" font-size="14.0" fill="#000000" transform="matrix(1.00, 0.00, -0.00, -1.00, 307.2, 279.0)">n</text></g></g></g></g><g><clipPath id="clip-5351"><path d="M 74.5 330.5 L 645.5 330.5 L 645.5 141.2 L 74.5 141.2 Z M 74.5 330.5 "></path></clipPath><g clip-path="url(#clip-5351)"><g><clipPath id="clip-5352"><path d="M 455.5 268.6 L 644.5 268.6 L 644.5 298.6 L 455.5 298.6 Z M 455.5 268.6 "></path></clipPath><g clip-path="url(#clip-5352)"><text xml:space="preserve" font-family="ArialMT" font-size="14.0" fill="#000000" transform="matrix(1.00, 0.00, -0.00, -1.00, 463.0, 279.0)">1</text><text xml:space="preserve" font-family="ArialMT" font-size="14.0" fill="#000000" transform="matrix(1.00, 0.00, -0.00, -1.00, 470.8, 279.0)">4</text><text xml:space="preserve" font-family="ArialMT" font-size="14.0" fill="#000000" transform="matrix(1.00, 0.00, -0.00, -1.00, 478.6, 279.0)"> </text><text xml:space="preserve" font-family="ArialMT" font-size="14.0" fill="#000000" transform="matrix(1.00, 0.00, -0.00, -1.00, 482.5, 279.0)">h</text><text xml:space="preserve" font-family="ArialMT" font-size="14.0" fill="#000000" transform="matrix(1.00, 0.00, -0.00, -1.00, 490.3, 279.0)">o</text><text xml:space="preserve" font-family="ArialMT" font-size="14.0" fill="#000000" transform="matrix(1.00, 0.00, -0.00, -1.00, 498.0, 279.0)">u</text><text xml:space="preserve" font-family="ArialMT" font-size="14.0" fill="#000000" transform="matrix(1.00, 0.00, -0.00, -1.00, 505.8, 279.0)">r</text><text xml:space="preserve" font-family="ArialMT" font-size="14.0" fill="#000000" transform="matrix(1.00, 0.00, -0.00, -1.00, 510.5, 279.0)">s</text></g></g></g></g><g><clipPath id="clip-5353"><path d="M 74.5 330.5 L 645.5 330.5 L 645.5 141.2 L 74.5 141.2 Z M 74.5 330.5 "></path></clipPath><g clip-path="url(#clip-5353)"><g><clipPath id="clip-5354"><path d="M 75.5 235.0 L 264.5 235.0 L 264.5 267.6 L 75.5 267.6 Z M 75.5 235.0 "></path></clipPath><g clip-path="url(#clip-5354)"><text xml:space="preserve" font-family="Arial-BoldMT" font-weight="bold" font-size="14.0" fill="#000000" transform="matrix(1.00, 0.00, -0.00, -1.00, 83.0, 248.0)">C</text><text xml:space="preserve" font-family="Arial-BoldMT" font-weight="bold" font-size="14.0" fill="#000000" transform="matrix(1.00, 0.00, -0.00, -1.00, 93.1, 248.0)">o</text><text xml:space="preserve" font-family="Arial-BoldMT" font-weight="bold" font-size="14.0" fill="#000000" transform="matrix(1.00, 0.00, -0.00, -1.00, 101.7, 248.0)">n</text><text xml:space="preserve" font-family="Arial-BoldMT" font-weight="bold" font-size="14.0" fill="#000000" transform="matrix(1.00, 0.00, -0.00, -1.00, 110.2, 248.0)">t</text><text xml:space="preserve" font-family="Arial-BoldMT" font-weight="bold" font-size="14.0" fill="#000000" transform="matrix(1.00, 0.00, -0.00, -1.00, 114.9, 248.0)">r</text><text xml:space="preserve" font-family="Arial-BoldMT" font-weight="bold" font-size="14.0" fill="#000000" transform="matrix(1.00, 0.00, -0.00, -1.00, 120.3, 248.0)">a</text><text xml:space="preserve" font-family="Arial-BoldMT" font-weight="bold" font-size="14.0" fill="#000000" transform="matrix(1.00, 0.00, -0.00, -1.00, 128.1, 248.0)">s</text><text xml:space="preserve" font-family="Arial-BoldMT" font-weight="bold" font-size="14.0" fill="#000000" transform="matrix(1.00, 0.00, -0.00, -1.00, 135.9, 248.0)">t</text><text xml:space="preserve" font-family="Arial-BoldMT" font-weight="bold" font-size="14.0" fill="#000000" transform="matrix(1.00, 0.00, -0.00, -1.00, 140.6, 248.0)"> </text><text xml:space="preserve" font-family="Arial-BoldMT" font-weight="bold" font-size="14.0" fill="#000000" transform="matrix(1.00, 0.00, -0.00, -1.00, 143.9, 248.0)">A</text><text xml:space="preserve" font-family="Arial-BoldMT" font-weight="bold" font-size="14.0" fill="#000000" transform="matrix(1.00, 0.00, -0.00, -1.00, 154.0, 248.0)">g</text><text xml:space="preserve" font-family="Arial-BoldMT" font-weight="bold" font-size="14.0" fill="#000000" transform="matrix(1.00, 0.00, -0.00, -1.00, 162.6, 248.0)">e</text><text xml:space="preserve" font-family="Arial-BoldMT" font-weight="bold" font-size="14.0" fill="#000000" transform="matrix(1.00, 0.00, -0.00, -1.00, 170.4, 248.0)">n</text><text xml:space="preserve" font-family="Arial-BoldMT" font-weight="bold" font-size="14.0" fill="#000000" transform="matrix(1.00, 0.00, -0.00, -1.00, 178.9, 248.0)">t</text></g></g></g></g><g><clipPath id="clip-5355"><path d="M 74.5 330.5 L 645.5 330.5 L 645.5 141.2 L 74.5 141.2 Z M 74.5 330.5 "></path></clipPath><g clip-path="url(#clip-5355)"><g><clipPath id="clip-5356"><path d="M 265.5 235.0 L 454.5 235.0 L 454.5 267.6 L 265.5 267.6 Z M 265.5 235.0 "></path></clipPath><g clip-path="url(#clip-5356)"><text xml:space="preserve" font-family="ArialMT" font-size="14.0" fill="#000000" transform="matrix(1.00, 0.00, -0.00, -1.00, 273.0, 248.0)">M</text><text xml:space="preserve" font-family="ArialMT" font-size="14.0" fill="#000000" transform="matrix(1.00, 0.00, -0.00, -1.00, 284.7, 248.0)">n</text><text xml:space="preserve" font-family="ArialMT" font-size="14.0" fill="#000000" transform="matrix(1.00, 0.00, -0.00, -1.00, 292.5, 248.0)">C</text><text xml:space="preserve" font-family="ArialMT" font-size="14.0" fill="#000000" transform="matrix(1.00, 0.00, -0.00, -1.00, 302.6, 248.0)">l</text><text xml:space="preserve" font-family="ArialMT" font-size="9.3" fill="#000000" transform="matrix(1.00, 0.00, -0.00, -1.00, 305.7, 244.4)">2</text></g></g></g></g><g><clipPath id="clip-5357"><path d="M 74.5 330.5 L 645.5 330.5 L 645.5 141.2 L 74.5 141.2 Z M 74.5 330.5 "></path></clipPath><g clip-path="url(#clip-5357)"><g><clipPath id="clip-5358"><path d="M 455.5 235.0 L 644.5 235.0 L 644.5 267.6 L 455.5 267.6 Z M 455.5 235.0 "></path></clipPath><g clip-path="url(#clip-5358)"><text xml:space="preserve" font-family="ArialMT" font-size="14.0" fill="#000000" transform="matrix(1.00, 0.00, -0.00, -1.00, 463.0, 248.0)">G</text><text xml:space="preserve" font-family="ArialMT" font-size="14.0" fill="#000000" transform="matrix(1.00, 0.00, -0.00, -1.00, 473.9, 248.0)">d</text><text xml:space="preserve" font-family="ArialMT" font-size="14.0" fill="#000000" transform="matrix(1.00, 0.00, -0.00, -1.00, 481.7, 248.0)"> </text><text xml:space="preserve" font-family="ArialMT" font-size="14.0" fill="#000000" transform="matrix(1.00, 0.00, -0.00, -1.00, 485.6, 248.0)">(</text><text xml:space="preserve" font-family="ArialMT" font-size="14.0" fill="#000000" transform="matrix(1.00, 0.00, -0.00, -1.00, 490.2, 248.0)">P</text><text xml:space="preserve" font-family="ArialMT" font-size="14.0" fill="#000000" transform="matrix(1.00, 0.00, -0.00, -1.00, 499.6, 248.0)">r</text><text xml:space="preserve" font-family="ArialMT" font-size="14.0" fill="#000000" transform="matrix(1.00, 0.00, -0.00, -1.00, 504.2, 248.0)">o</text><text xml:space="preserve" font-family="ArialMT" font-size="14.0" fill="#000000" transform="matrix(1.00, 0.00, -0.00, -1.00, 512.0, 248.0)">H</text><text xml:space="preserve" font-family="ArialMT" font-size="14.0" fill="#000000" transform="matrix(1.00, 0.00, -0.00, -1.00, 522.1, 248.0)">a</text><text xml:space="preserve" font-family="ArialMT" font-size="14.0" fill="#000000" transform="matrix(1.00, 0.00, -0.00, -1.00, 529.9, 248.0)">n</text><text xml:space="preserve" font-family="ArialMT" font-size="14.0" fill="#000000" transform="matrix(1.00, 0.00, -0.00, -1.00, 537.7, 248.0)">c</text><text xml:space="preserve" font-family="ArialMT" font-size="14.0" fill="#000000" transform="matrix(1.00, 0.00, -0.00, -1.00, 544.7, 248.0)">e</text><text xml:space="preserve" font-family="ArialMT" font-size="14.0" fill="#000000" transform="matrix(1.00, 0.00, -0.00, -1.00, 552.5, 248.0)">)</text></g></g></g></g><g><clipPath id="clip-5359"><path d="M 74.5 330.5 L 645.5 330.5 L 645.5 141.2 L 74.5 141.2 Z M 74.5 330.5 "></path></clipPath><g clip-path="url(#clip-5359)"><g><clipPath id="clip-5360"><path d="M 75.5 204.1 L 264.5 204.1 L 264.5 234.0 L 75.5 234.0 Z M 75.5 204.1 "></path></clipPath><g clip-path="url(#clip-5360)"><text xml:space="preserve" font-family="Arial-BoldMT" font-weight="bold" font-size="14.0" fill="#000000" transform="matrix(1.00, 0.00, -0.00, -1.00, 83.0, 214.0)">A</text><text xml:space="preserve" font-family="Arial-BoldMT" font-weight="bold" font-size="14.0" fill="#000000" transform="matrix(1.00, 0.00, -0.00, -1.00, 93.1, 214.0)">n</text><text xml:space="preserve" font-family="Arial-BoldMT" font-weight="bold" font-size="14.0" fill="#000000" transform="matrix(1.00, 0.00, -0.00, -1.00, 101.7, 214.0)">e</text><text xml:space="preserve" font-family="Arial-BoldMT" font-weight="bold" font-size="14.0" fill="#000000" transform="matrix(1.00, 0.00, -0.00, -1.00, 109.5, 214.0)">s</text><text xml:space="preserve" font-family="Arial-BoldMT" font-weight="bold" font-size="14.0" fill="#000000" transform="matrix(1.00, 0.00, -0.00, -1.00, 117.2, 214.0)">t</text><text xml:space="preserve" font-family="Arial-BoldMT" font-weight="bold" font-size="14.0" fill="#000000" transform="matrix(1.00, 0.00, -0.00, -1.00, 121.9, 214.0)">h</text><text xml:space="preserve" font-family="Arial-BoldMT" font-weight="bold" font-size="14.0" fill="#000000" transform="matrix(1.00, 0.00, -0.00, -1.00, 130.5, 214.0)">e</text><text xml:space="preserve" font-family="Arial-BoldMT" font-weight="bold" font-size="14.0" fill="#000000" transform="matrix(1.00, 0.00, -0.00, -1.00, 138.2, 214.0)">s</text><text xml:space="preserve" font-family="Arial-BoldMT" font-weight="bold" font-size="14.0" fill="#000000" transform="matrix(1.00, 0.00, -0.00, -1.00, 146.0, 214.0)">i</text><text xml:space="preserve" font-family="Arial-BoldMT" font-weight="bold" font-size="14.0" fill="#000000" transform="matrix(1.00, 0.00, -0.00, -1.00, 149.9, 214.0)">a</text></g></g></g></g><g><clipPath id="clip-5361"><path d="M 74.5 330.5 L 645.5 330.5 L 645.5 141.2 L 74.5 141.2 Z M 74.5 330.5 "></path></clipPath><g clip-path="url(#clip-5361)"><g><clipPath id="clip-5362"><path d="M 265.5 204.1 L 454.5 204.1 L 454.5 234.0 L 265.5 234.0 Z M 265.5 204.1 "></path></clipPath><g clip-path="url(#clip-5362)"><text xml:space="preserve" font-family="ArialMT" font-size="14.0" fill="#000000" transform="matrix(1.00, 0.00, -0.00, -1.00, 273.0, 214.0)">I</text><text xml:space="preserve" font-family="ArialMT" font-size="14.0" fill="#000000" transform="matrix(1.00, 0.00, -0.00, -1.00, 276.9, 214.0)">s</text><text xml:space="preserve" font-family="ArialMT" font-size="14.0" fill="#000000" transform="matrix(1.00, 0.00, -0.00, -1.00, 283.9, 214.0)">o</text><text xml:space="preserve" font-family="ArialMT" font-size="14.0" fill="#000000" transform="matrix(1.00, 0.00, -0.00, -1.00, 291.7, 214.0)">f</text><text xml:space="preserve" font-family="ArialMT" font-size="14.0" fill="#000000" transform="matrix(1.00, 0.00, -0.00, -1.00, 295.6, 214.0)">l</text><text xml:space="preserve" font-family="ArialMT" font-size="14.0" fill="#000000" transform="matrix(1.00, 0.00, -0.00, -1.00, 298.7, 214.0)">u</text><text xml:space="preserve" font-family="ArialMT" font-size="14.0" fill="#000000" transform="matrix(1.00, 0.00, -0.00, -1.00, 306.5, 214.0)">r</text><text xml:space="preserve" font-family="ArialMT" font-size="14.0" fill="#000000" transform="matrix(1.00, 0.00, -0.00, -1.00, 311.1, 214.0)">a</text><text xml:space="preserve" font-family="ArialMT" font-size="14.0" fill="#000000" transform="matrix(1.00, 0.00, -0.00, -1.00, 318.9, 214.0)">n</text><text xml:space="preserve" font-family="ArialMT" font-size="14.0" fill="#000000" transform="matrix(1.00, 0.00, -0.00, -1.00, 326.7, 214.0)">e</text><text xml:space="preserve" font-family="ArialMT" font-size="14.0" fill="#000000" transform="matrix(1.00, 0.00, -0.00, -1.00, 334.5, 214.0)">,</text><text xml:space="preserve" font-family="ArialMT" font-size="14.0" fill="#000000" transform="matrix(1.00, 0.00, -0.00, -1.00, 338.4, 214.0)"> </text><text xml:space="preserve" font-family="ArialMT" font-size="14.0" fill="#000000" transform="matrix(1.00, 0.00, -0.00, -1.00, 342.3, 214.0)">k</text><text xml:space="preserve" font-family="ArialMT" font-size="14.0" fill="#000000" transform="matrix(1.00, 0.00, -0.00, -1.00, 349.3, 214.0)">e</text><text xml:space="preserve" font-family="ArialMT" font-size="14.0" fill="#000000" transform="matrix(1.00, 0.00, -0.00, -1.00, 357.1, 214.0)">t</text><text xml:space="preserve" font-family="ArialMT" font-size="14.0" fill="#000000" transform="matrix(1.00, 0.00, -0.00, -1.00, 360.9, 214.0)">a</text><text xml:space="preserve" font-family="ArialMT" font-size="14.0" fill="#000000" transform="matrix(1.00, 0.00, -0.00, -1.00, 368.7, 214.0)">m</text><text xml:space="preserve" font-family="ArialMT" font-size="14.0" fill="#000000" transform="matrix(1.00, 0.00, -0.00, -1.00, 380.4, 214.0)">i</text><text xml:space="preserve" font-family="ArialMT" font-size="14.0" fill="#000000" transform="matrix(1.00, 0.00, -0.00, -1.00, 383.5, 214.0)">n</text><text xml:space="preserve" font-family="ArialMT" font-size="14.0" fill="#000000" transform="matrix(1.00, 0.00, -0.00, -1.00, 391.3, 214.0)">e</text><text xml:space="preserve" font-family="ArialMT" font-size="14.0" fill="#000000" transform="matrix(1.00, 0.00, -0.00, -1.00, 399.1, 214.0)">…</text></g></g></g></g><g><clipPath id="clip-5363"><path d="M 74.5 330.5 L 645.5 330.5 L 645.5 141.2 L 74.5 141.2 Z M 74.5 330.5 "></path></clipPath><g clip-path="url(#clip-5363)"><g><clipPath id="clip-5364"><path d="M 455.5 204.1 L 644.5 204.1 L 644.5 234.0 L 455.5 234.0 Z M 455.5 204.1 "></path></clipPath><g clip-path="url(#clip-5364)"><text xml:space="preserve" font-family="ArialMT" font-size="14.0" fill="#000000" transform="matrix(1.00, 0.00, -0.00, -1.00, 463.0, 214.0)">N</text><text xml:space="preserve" font-family="ArialMT" font-size="14.0" fill="#000000" transform="matrix(1.00, 0.00, -0.00, -1.00, 473.1, 214.0)">o</text><text xml:space="preserve" font-family="ArialMT" font-size="14.0" fill="#000000" transform="matrix(1.00, 0.00, -0.00, -1.00, 480.9, 214.0)">n</text><text xml:space="preserve" font-family="ArialMT" font-size="14.0" fill="#000000" transform="matrix(1.00, 0.00, -0.00, -1.00, 488.7, 214.0)">e</text><text xml:space="preserve" font-family="ArialMT" font-size="14.0" fill="#000000" transform="matrix(1.00, 0.00, -0.00, -1.00, 496.5, 214.0)"> </text></g></g></g></g><g><clipPath id="clip-5365"><path d="M 74.5 330.5 L 645.5 330.5 L 645.5 141.2 L 74.5 141.2 Z M 74.5 330.5 "></path></clipPath><g clip-path="url(#clip-5365)"><g><clipPath id="clip-5366"><path d="M 75.5 173.1 L 264.5 173.1 L 264.5 203.1 L 75.5 203.1 Z M 75.5 173.1 "></path></clipPath><g clip-path="url(#clip-5366)"><text xml:space="preserve" font-family="Arial-BoldMT" font-weight="bold" font-size="14.0" fill="#000000" transform="matrix(1.00, 0.00, -0.00, -1.00, 83.0, 183.0)">R</text><text xml:space="preserve" font-family="Arial-BoldMT" font-weight="bold" font-size="14.0" fill="#000000" transform="matrix(1.00, 0.00, -0.00, -1.00, 93.1, 183.0)">e</text><text xml:space="preserve" font-family="Arial-BoldMT" font-weight="bold" font-size="14.0" fill="#000000" transform="matrix(1.00, 0.00, -0.00, -1.00, 100.9, 183.0)">s</text><text xml:space="preserve" font-family="Arial-BoldMT" font-weight="bold" font-size="14.0" fill="#000000" transform="matrix(1.00, 0.00, -0.00, -1.00, 108.7, 183.0)">o</text><text xml:space="preserve" font-family="Arial-BoldMT" font-weight="bold" font-size="14.0" fill="#000000" transform="matrix(1.00, 0.00, -0.00, -1.00, 117.2, 183.0)">l</text><text xml:space="preserve" font-family="Arial-BoldMT" font-weight="bold" font-size="14.0" fill="#000000" transform="matrix(1.00, 0.00, -0.00, -1.00, 121.1, 183.0)">u</text><text xml:space="preserve" font-family="Arial-BoldMT" font-weight="bold" font-size="14.0" fill="#000000" transform="matrix(1.00, 0.00, -0.00, -1.00, 129.7, 183.0)">t</text><text xml:space="preserve" font-family="Arial-BoldMT" font-weight="bold" font-size="14.0" fill="#000000" transform="matrix(1.00, 0.00, -0.00, -1.00, 134.3, 183.0)">i</text><text xml:space="preserve" font-family="Arial-BoldMT" font-weight="bold" font-size="14.0" fill="#000000" transform="matrix(1.00, 0.00, -0.00, -1.00, 138.2, 183.0)">o</text><text xml:space="preserve" font-family="Arial-BoldMT" font-weight="bold" font-size="14.0" fill="#000000" transform="matrix(1.00, 0.00, -0.00, -1.00, 146.8, 183.0)">n</text></g></g></g></g><g><clipPath id="clip-5367"><path d="M 74.5 330.5 L 645.5 330.5 L 645.5 141.2 L 74.5 141.2 Z M 74.5 330.5 "></path></clipPath><g clip-path="url(#clip-5367)"><g><clipPath id="clip-5368"><path d="M 265.5 173.1 L 454.5 173.1 L 454.5 203.1 L 265.5 203.1 Z M 265.5 173.1 "></path></clipPath><g clip-path="url(#clip-5368)"><text xml:space="preserve" font-family="ArialMT" font-size="14.0" fill="#000000" transform="matrix(1.00, 0.00, -0.00, -1.00, 273.0, 183.0)">9</text><text xml:space="preserve" font-family="ArialMT" font-size="14.0" fill="#000000" transform="matrix(1.00, 0.00, -0.00, -1.00, 280.8, 183.0)">0</text><text xml:space="preserve" font-family="ArialMT" font-size="14.0" fill="#000000" transform="matrix(1.00, 0.00, -0.00, -1.00, 288.6, 183.0)"> </text><text xml:space="preserve" font-family="ArialMT" font-size="14.0" fill="#000000" transform="matrix(1.00, 0.00, -0.00, -1.00, 292.5, 183.0)">u</text><text xml:space="preserve" font-family="ArialMT" font-size="14.0" fill="#000000" transform="matrix(1.00, 0.00, -0.00, -1.00, 300.3, 183.0)">m</text></g></g></g></g><g><clipPath id="clip-5369"><path d="M 74.5 330.5 L 645.5 330.5 L 645.5 141.2 L 74.5 141.2 Z M 74.5 330.5 "></path></clipPath><g clip-path="url(#clip-5369)"><g><clipPath id="clip-5370"><path d="M 455.5 173.1 L 644.5 173.1 L 644.5 203.1 L 455.5 203.1 Z M 455.5 173.1 "></path></clipPath><g clip-path="url(#clip-5370)"><text xml:space="preserve" font-family="ArialMT" font-size="14.0" fill="#000000" transform="matrix(1.00, 0.00, -0.00, -1.00, 463.0, 183.0)">4</text><text xml:space="preserve" font-family="ArialMT" font-size="14.0" fill="#000000" transform="matrix(1.00, 0.00, -0.00, -1.00, 470.8, 183.0)">0</text><text xml:space="preserve" font-family="ArialMT" font-size="14.0" fill="#000000" transform="matrix(1.00, 0.00, -0.00, -1.00, 478.6, 183.0)"> </text><text xml:space="preserve" font-family="ArialMT" font-size="14.0" fill="#000000" transform="matrix(1.00, 0.00, -0.00, -1.00, 482.5, 183.0)">u</text><text xml:space="preserve" font-family="ArialMT" font-size="14.0" fill="#000000" transform="matrix(1.00, 0.00, -0.00, -1.00, 490.3, 183.0)">m</text></g></g></g></g><g><clipPath id="clip-5371"><path d="M 74.5 330.5 L 645.5 330.5 L 645.5 141.2 L 74.5 141.2 Z M 74.5 330.5 "></path></clipPath><g clip-path="url(#clip-5371)"><g><clipPath id="clip-5372"><path d="M 75.5 142.2 L 264.5 142.2 L 264.5 172.1 L 75.5 172.1 Z M 75.5 142.2 "></path></clipPath><g clip-path="url(#clip-5372)"><text xml:space="preserve" font-family="Arial-BoldMT" font-weight="bold" font-size="14.0" fill="#000000" transform="matrix(1.00, 0.00, -0.00, -1.00, 83.0, 152.0)">…</text></g></g></g></g><g><clipPath id="clip-5373"><path d="M 74.5 330.5 L 645.5 330.5 L 645.5 141.2 L 74.5 141.2 Z M 74.5 330.5 "></path></clipPath><g clip-path="url(#clip-5373)"><path d="M 192.0 1.5 L 192.0 190.8 " fill="none" stroke="#000000" stroke-width="1.00" stroke-linejoin="round" transform="matrix(1.00, 0.00, 0.00, -1.00, 73.0, 332.0)"></path><path d="M 382.0 1.5 L 382.0 190.8 " fill="none" stroke="#000000" stroke-width="1.00" stroke-linejoin="round" transform="matrix(1.00, 0.00, 0.00, -1.00, 73.0, 332.0)"></path><path d="M 1.5 32.9 L 572.5 32.9 " fill="none" stroke="#000000" stroke-width="1.00" stroke-linejoin="round" transform="matrix(1.00, 0.00, 0.00, -1.00, 73.0, 332.0)"></path><path d="M 1.5 63.9 L 572.5 63.9 " fill="none" stroke="#000000" stroke-width="1.00" stroke-linejoin="round" transform="matrix(1.00, 0.00, 0.00, -1.00, 73.0, 332.0)"></path><path d="M 1.5 97.5 L 572.5 97.5 " fill="none" stroke="#000000" stroke-width="1.00" stroke-linejoin="round" transform="matrix(1.00, 0.00, 0.00, -1.00, 73.0, 332.0)"></path><path d="M 1.5 128.4 L 572.5 128.4 " fill="none" stroke="#000000" stroke-width="1.00" stroke-linejoin="round" transform="matrix(1.00, 0.00, 0.00, -1.00, 73.0, 332.0)"></path><path d="M 1.5 159.4 L 572.5 159.4 " fill="none" stroke="#000000" stroke-width="1.00" stroke-linejoin="round" transform="matrix(1.00, 0.00, 0.00, -1.00, 73.0, 332.0)"></path><path d="M 2.0 1.5 L 2.0 190.8 " fill="none" stroke="#000000" stroke-width="1.00" stroke-linejoin="round" transform="matrix(1.00, 0.00, 0.00, -1.00, 73.0, 332.0)"></path><path d="M 572.0 1.5 L 572.0 190.8 " fill="none" stroke="#000000" stroke-width="1.00" stroke-linejoin="round" transform="matrix(1.00, 0.00, 0.00, -1.00, 73.0, 332.0)"></path><path d="M 1.5 2.0 L 572.5 2.0 " fill="none" stroke="#000000" stroke-width="1.00" stroke-linejoin="round" transform="matrix(1.00, 0.00, 0.00, -1.00, 73.0, 332.0)"></path><path d="M 1.5 190.3 L 572.5 190.3 " fill="none" stroke="#000000" stroke-width="1.00" stroke-linejoin="round" transform="matrix(1.00, 0.00, 0.00, -1.00, 73.0, 332.0)"></path></g></g></g></svg>