<?xml version="1.0" encoding="UTF-8" standalone="no"?><svg xmlns="http://www.w3.org/2000/svg" xmlns:xlink="http://www.w3.org/1999/xlink" clip-rule="evenodd" stroke-miterlimit="4.00" viewBox="0 0 720 540"><desc>SVG generated by Keynote</desc><defs></defs><g transform="matrix(1.00, 0.00, -0.00, -1.00, 0.0, 540.0)"><path d="M 0.0 540.0 L 720.0 540.0 L 720.0 0.0 L 0.0 0.0 Z M 0.0 540.0 " fill="#FFFFFF"></path><text xml:space="preserve" font-family="TrebuchetMS" font-size="12.0" fill="#888888" transform="matrix(1.00, 0.00, -0.00, -1.00, 264.0, 21.0)">M</text><text xml:space="preserve" font-family="TrebuchetMS" font-size="12.0" fill="#888888" transform="matrix(1.00, 0.00, -0.00, -1.00, 272.5, 21.0)">o</text><text xml:space="preserve" font-family="TrebuchetMS" font-size="12.0" fill="#888888" transform="matrix(1.00, 0.00, -0.00, -1.00, 279.0, 21.0)">u</text><text xml:space="preserve" font-family="TrebuchetMS" font-size="12.0" fill="#888888" transform="matrix(1.00, 0.00, -0.00, -1.00, 285.5, 21.0)">s</text><text xml:space="preserve" font-family="TrebuchetMS" font-size="12.0" fill="#888888" transform="matrix(1.00, 0.00, -0.00, -1.00, 290.4, 21.0)">e</text><text xml:space="preserve" font-family="TrebuchetMS" font-size="12.0" fill="#888888" transform="matrix(1.00, 0.00, -0.00, -1.00, 296.9, 21.0)"> </text><text xml:space="preserve" font-family="TrebuchetMS" font-size="12.0" fill="#888888" transform="matrix(1.00, 0.00, -0.00, -1.00, 300.5, 21.0)">I</text><text xml:space="preserve" font-family="TrebuchetMS" font-size="12.0" fill="#888888" transform="matrix(1.00, 0.00, -0.00, -1.00, 303.9, 21.0)">m</text><text xml:space="preserve" font-family="TrebuchetMS" font-size="12.0" fill="#888888" transform="matrix(1.00, 0.00, -0.00, -1.00, 313.8, 21.0)">a</text><text xml:space="preserve" font-family="TrebuchetMS" font-size="12.0" fill="#888888" transform="matrix(1.00, 0.00, -0.00, -1.00, 320.2, 21.0)">g</text><text xml:space="preserve" font-family="TrebuchetMS" font-size="12.0" fill="#888888" transform="matrix(1.00, 0.00, -0.00, -1.00, 326.2, 21.0)">i</text><text xml:space="preserve" font-family="TrebuchetMS" font-size="12.0" fill="#888888" transform="matrix(1.00, 0.00, -0.00, -1.00, 329.6, 21.0)">n</text><text xml:space="preserve" font-family="TrebuchetMS" font-size="12.0" fill="#888888" transform="matrix(1.00, 0.00, -0.00, -1.00, 336.2, 21.0)">g</text><text xml:space="preserve" font-family="TrebuchetMS" font-size="12.0" fill="#888888" transform="matrix(1.00, 0.00, -0.00, -1.00, 342.2, 21.0)"> </text><text xml:space="preserve" font-family="TrebuchetMS" font-size="12.0" fill="#888888" transform="matrix(1.00, 0.00, -0.00, -1.00, 345.8, 21.0)">S</text><text xml:space="preserve" font-family="TrebuchetMS" font-size="12.0" fill="#888888" transform="matrix(1.00, 0.00, -0.00, -1.00, 351.6, 21.0)">u</text><text xml:space="preserve" font-family="TrebuchetMS" font-size="12.0" fill="#888888" transform="matrix(1.00, 0.00, -0.00, -1.00, 358.1, 21.0)">m</text><text xml:space="preserve" font-family="TrebuchetMS" font-size="12.0" fill="#888888" transform="matrix(1.00, 0.00, -0.00, -1.00, 368.1, 21.0)">m</text><text xml:space="preserve" font-family="TrebuchetMS" font-size="12.0" fill="#888888" transform="matrix(1.00, 0.00, -0.00, -1.00, 378.1, 21.0)">e</text><text xml:space="preserve" font-family="TrebuchetMS" font-size="12.0" fill="#888888" transform="matrix(1.00, 0.00, -0.00, -1.00, 384.6, 21.0)">r</text><text xml:space="preserve" font-family="TrebuchetMS" font-size="12.0" fill="#888888" transform="matrix(1.00, 0.00, -0.00, -1.00, 389.3, 21.0)"> </text><text xml:space="preserve" font-family="TrebuchetMS" font-size="12.0" fill="#888888" transform="matrix(1.00, 0.00, -0.00, -1.00, 392.9, 21.0)">S</text><text xml:space="preserve" font-family="TrebuchetMS" font-size="12.0" fill="#888888" transform="matrix(1.00, 0.00, -0.00, -1.00, 398.7, 21.0)">c</text><text xml:space="preserve" font-family="TrebuchetMS" font-size="12.0" fill="#888888" transform="matrix(1.00, 0.00, -0.00, -1.00, 404.6, 21.0)">h</text><text xml:space="preserve" font-family="TrebuchetMS" font-size="12.0" fill="#888888" transform="matrix(1.00, 0.00, -0.00, -1.00, 411.2, 21.0)">o</text><text xml:space="preserve" font-family="TrebuchetMS" font-size="12.0" fill="#888888" transform="matrix(1.00, 0.00, -0.00, -1.00, 417.6, 21.0)">o</text><text xml:space="preserve" font-family="TrebuchetMS" font-size="12.0" fill="#888888" transform="matrix(1.00, 0.00, -0.00, -1.00, 424.0, 21.0)">l</text><text xml:space="preserve" font-family="TrebuchetMS" font-size="12.0" fill="#888888" transform="matrix(1.00, 0.00, -0.00, -1.00, 427.6, 21.0)"> </text><text xml:space="preserve" font-family="TrebuchetMS" font-size="12.0" fill="#888888" transform="matrix(1.00, 0.00, -0.00, -1.00, 431.2, 21.0)">2</text><text xml:space="preserve" font-family="TrebuchetMS" font-size="12.0" fill="#888888" transform="matrix(1.00, 0.00, -0.00, -1.00, 437.5, 21.0)">0</text><text xml:space="preserve" font-family="TrebuchetMS" font-size="12.0" fill="#888888" transform="matrix(1.00, 0.00, -0.00, -1.00, 443.8, 21.0)">1</text><text xml:space="preserve" font-family="TrebuchetMS" font-size="12.0" fill="#888888" transform="matrix(1.00, 0.00, -0.00, -1.00, 450.1, 21.0)">7</text><g><clipPath id="clip-5490"><path d="M 108.7 453.7 L 721.0 453.7 L 721.0 541.0 L 108.7 541.0 Z M 108.7 453.7 "></path></clipPath><g clip-path="url(#clip-5490)"><path d="M 109.7 540.0 L 720.0 540.0 L 720.0 454.7 L 109.7 454.7 Z M 109.7 540.0 " fill="#93B3D7"></path></g></g><g><clipPath id="clip-5491"><path d="M 104.0 490.1 L 725.7 490.1 L 725.7 545.7 L 104.0 545.7 Z M 104.0 490.1 "></path></clipPath><g clip-path="url(#clip-5491)"><text xml:space="preserve" font-family="TrebuchetMS-Bold" font-weight="bold" font-size="32.0" fill="#000000" transform="matrix(1.00, 0.00, -0.00, -1.00, 113.0, 507.0)">M</text><text xml:space="preserve" font-family="TrebuchetMS-Bold" font-weight="bold" font-size="32.0" fill="#000000" transform="matrix(1.00, 0.00, -0.00, -1.00, 136.8, 507.0)">T</text><text xml:space="preserve" font-family="TrebuchetMS-Bold" font-weight="bold" font-size="32.0" fill="#000000" transform="matrix(1.00, 0.00, -0.00, -1.00, 156.4, 507.0)">X</text><text xml:space="preserve" font-family="TrebuchetMS-Bold" font-weight="bold" font-size="32.0" fill="#000000" transform="matrix(1.00, 0.00, -0.00, -1.00, 175.6, 507.0)">,</text><text xml:space="preserve" font-family="TrebuchetMS-Bold" font-weight="bold" font-size="32.0" fill="#000000" transform="matrix(1.00, 0.00, -0.00, -1.00, 187.4, 507.0)"> </text><text xml:space="preserve" font-family="TrebuchetMS-Bold" font-weight="bold" font-size="32.0" fill="#000000" transform="matrix(1.00, 0.00, -0.00, -1.00, 197.0, 507.0)">M</text><text xml:space="preserve" font-family="TrebuchetMS-Bold" font-weight="bold" font-size="32.0" fill="#000000" transform="matrix(1.00, 0.00, -0.00, -1.00, 220.9, 507.0)">T</text><text xml:space="preserve" font-family="TrebuchetMS-Bold" font-weight="bold" font-size="32.0" fill="#000000" transform="matrix(1.00, 0.00, -0.00, -1.00, 240.4, 507.0)">H</text><text xml:space="preserve" font-family="TrebuchetMS-Bold" font-weight="bold" font-size="32.0" fill="#000000" transform="matrix(1.00, 0.00, -0.00, -1.00, 262.3, 507.0)">F</text><text xml:space="preserve" font-family="TrebuchetMS-Bold" font-weight="bold" font-size="32.0" fill="#000000" transform="matrix(1.00, 0.00, -0.00, -1.00, 281.0, 507.0)">R</text><text xml:space="preserve" font-family="TrebuchetMS-Bold" font-weight="bold" font-size="32.0" fill="#000000" transform="matrix(1.00, 0.00, -0.00, -1.00, 300.5, 507.0)"> </text><text xml:space="preserve" font-family="TrebuchetMS-Bold" font-weight="bold" font-size="32.0" fill="#000000" transform="matrix(1.00, 0.00, -0.00, -1.00, 310.2, 507.0)">a</text><text xml:space="preserve" font-family="TrebuchetMS-Bold" font-weight="bold" font-size="32.0" fill="#000000" transform="matrix(1.00, 0.00, -0.00, -1.00, 327.2, 507.0)">n</text><text xml:space="preserve" font-family="TrebuchetMS-Bold" font-weight="bold" font-size="32.0" fill="#000000" transform="matrix(1.00, 0.00, -0.00, -1.00, 346.1, 507.0)">d</text><text xml:space="preserve" font-family="TrebuchetMS-Bold" font-weight="bold" font-size="32.0" fill="#000000" transform="matrix(1.00, 0.00, -0.00, -1.00, 364.7, 507.0)"> </text><text xml:space="preserve" font-family="TrebuchetMS-Bold" font-weight="bold" font-size="32.0" fill="#000000" transform="matrix(1.00, 0.00, -0.00, -1.00, 374.3, 507.0)">C</text><text xml:space="preserve" font-family="TrebuchetMS-Bold" font-weight="bold" font-size="32.0" fill="#000000" transform="matrix(1.00, 0.00, -0.00, -1.00, 393.9, 507.0)">h</text><text xml:space="preserve" font-family="TrebuchetMS-Bold" font-weight="bold" font-size="32.0" fill="#000000" transform="matrix(1.00, 0.00, -0.00, -1.00, 412.8, 507.0)">o</text><text xml:space="preserve" font-family="TrebuchetMS-Bold" font-weight="bold" font-size="32.0" fill="#000000" transform="matrix(1.00, 0.00, -0.00, -1.00, 431.0, 507.0)">l</text><text xml:space="preserve" font-family="TrebuchetMS-Bold" font-weight="bold" font-size="32.0" fill="#000000" transform="matrix(1.00, 0.00, -0.00, -1.00, 440.4, 507.0)">i</text><text xml:space="preserve" font-family="TrebuchetMS-Bold" font-weight="bold" font-size="32.0" fill="#000000" transform="matrix(1.00, 0.00, -0.00, -1.00, 450.0, 507.0)">n</text><text xml:space="preserve" font-family="TrebuchetMS-Bold" font-weight="bold" font-size="32.0" fill="#000000" transform="matrix(1.00, 0.00, -0.00, -1.00, 468.8, 507.0)">e</text></g></g><image xlink:href="../../11E978FA-FCFF-46C3-9412-4AEE41C64080/assets/5D3AE6C864802F0CC118C87FB0C84F5B.png" width="240.00" height="95.00" transform="matrix(0.41, 0.00, -0.00, -0.41, 0.0, 502.0)"></image><image xlink:href="../../11E978FA-FCFF-46C3-9412-4AEE41C64080/assets/6D8835745C7812B9191B39FDD8C55B36.jpeg" width="236.00" height="71.00" transform="matrix(0.40, 0.00, -0.00, -0.41, 0.0, 540.0)"></image><path d="M 0.0 0.0 L 720.0 0.0 " fill="none" stroke="#000000" stroke-width="2.00" stroke-linejoin="round" transform="matrix(-1.00, 0.00, 0.00, 1.00, 720.0, 454.6)"></path><path d="M 0.0 0.0 L 720.0 0.0 " fill="none" stroke="#000000" stroke-width="2.00" stroke-linejoin="round" transform="matrix(-1.00, 0.00, 0.00, 1.00, 720.0, 32.2)"></path><text xml:space="preserve" font-family="TrebuchetMS" font-size="12.0" fill="#878787" transform="matrix(1.00, 0.00, -0.00, -1.00, 674.1, 20.8)">6</text><text xml:space="preserve" font-family="TrebuchetMS" font-size="14.0" fill="#000000" transform="matrix(1.00, 0.00, -0.00, -1.00, 4.0, 42.0)">T</text><text xml:space="preserve" font-family="TrebuchetMS" font-size="14.0" fill="#000000" transform="matrix(1.00, 0.00, -0.00, -1.00, 10.6, 42.0)">r</text><text xml:space="preserve" font-family="TrebuchetMS" font-size="14.0" fill="#000000" transform="matrix(1.00, 0.00, -0.00, -1.00, 16.0, 42.0)">o</text><text xml:space="preserve" font-family="TrebuchetMS" font-size="14.0" fill="#000000" transform="matrix(1.00, 0.00, -0.00, -1.00, 23.5, 42.0)">e</text><text xml:space="preserve" font-family="TrebuchetMS" font-size="14.0" fill="#000000" transform="matrix(1.00, 0.00, -0.00, -1.00, 31.2, 42.0)">n</text><text xml:space="preserve" font-family="TrebuchetMS" font-size="14.0" fill="#000000" transform="matrix(1.00, 0.00, -0.00, -1.00, 38.8, 42.0)">,</text><text xml:space="preserve" font-family="TrebuchetMS" font-size="14.0" fill="#000000" transform="matrix(1.00, 0.00, -0.00, -1.00, 44.0, 42.0)"> </text><text xml:space="preserve" font-family="TrebuchetMS" font-size="14.0" fill="#000000" transform="matrix(1.00, 0.00, -0.00, -1.00, 47.4, 42.0)">A</text><text xml:space="preserve" font-family="TrebuchetMS" font-size="14.0" fill="#000000" transform="matrix(1.00, 0.00, -0.00, -1.00, 55.7, 42.0)">.</text><text xml:space="preserve" font-family="TrebuchetMS" font-size="14.0" fill="#000000" transform="matrix(1.00, 0.00, -0.00, -1.00, 60.8, 42.0)"> </text><text xml:space="preserve" font-family="TrebuchetMS" font-size="14.0" fill="#000000" transform="matrix(1.00, 0.00, -0.00, -1.00, 65.1, 42.0)">M</text><text xml:space="preserve" font-family="TrebuchetMS" font-size="14.0" fill="#000000" transform="matrix(1.00, 0.00, -0.00, -1.00, 75.0, 42.0)">.</text><text xml:space="preserve" font-family="TrebuchetMS" font-size="14.0" fill="#000000" transform="matrix(1.00, 0.00, -0.00, -1.00, 80.2, 42.0)"> </text><text xml:space="preserve" font-family="TrebuchetMS" font-size="14.0" fill="#000000" transform="matrix(1.00, 0.00, -0.00, -1.00, 84.4, 42.0)">e</text><text xml:space="preserve" font-family="TrebuchetMS" font-size="14.0" fill="#000000" transform="matrix(1.00, 0.00, -0.00, -1.00, 92.0, 42.0)">t</text><text xml:space="preserve" font-family="TrebuchetMS" font-size="14.0" fill="#000000" transform="matrix(1.00, 0.00, -0.00, -1.00, 97.6, 42.0)"> </text><text xml:space="preserve" font-family="TrebuchetMS" font-size="14.0" fill="#000000" transform="matrix(1.00, 0.00, -0.00, -1.00, 101.8, 42.0)">a</text><text xml:space="preserve" font-family="TrebuchetMS" font-size="14.0" fill="#000000" transform="matrix(1.00, 0.00, -0.00, -1.00, 109.2, 42.0)">l</text><text xml:space="preserve" font-family="TrebuchetMS" font-size="14.0" fill="#000000" transform="matrix(1.00, 0.00, -0.00, -1.00, 113.3, 42.0)">.</text><text xml:space="preserve" font-family="TrebuchetMS" font-size="14.0" fill="#000000" transform="matrix(1.00, 0.00, -0.00, -1.00, 118.5, 42.0)">,</text><text xml:space="preserve" font-family="TrebuchetMS" font-size="14.0" fill="#000000" transform="matrix(1.00, 0.00, -0.00, -1.00, 123.6, 42.0)"> </text><text xml:space="preserve" font-family="TrebuchetMS" font-size="14.0" fill="#000000" transform="matrix(1.00, 0.00, -0.00, -1.00, 127.8, 42.0)">2</text><text xml:space="preserve" font-family="TrebuchetMS" font-size="14.0" fill="#000000" transform="matrix(1.00, 0.00, -0.00, -1.00, 135.2, 42.0)">0</text><text xml:space="preserve" font-family="TrebuchetMS" font-size="14.0" fill="#000000" transform="matrix(1.00, 0.00, -0.00, -1.00, 142.5, 42.0)">0</text><text xml:space="preserve" font-family="TrebuchetMS" font-size="14.0" fill="#000000" transform="matrix(1.00, 0.00, -0.00, -1.00, 149.9, 42.0)">8</text><text xml:space="preserve" font-family="TrebuchetMS" font-size="14.0" fill="#000000" transform="matrix(1.00, 0.00, -0.00, -1.00, 157.2, 42.0)">.</text><text xml:space="preserve" font-family="TrebuchetMS" font-size="14.0" fill="#000000" transform="matrix(1.00, 0.00, -0.00, -1.00, 162.4, 42.0)"> </text><text xml:space="preserve" font-family="TrebuchetMS-Bold" font-weight="bold" font-size="20.0" fill="#000000" transform="matrix(1.00, 0.00, -0.00, -1.00, 451.0, 42.0)">F</text><text xml:space="preserve" font-family="TrebuchetMS-Bold" font-weight="bold" font-size="20.0" fill="#000000" transform="matrix(1.00, 0.00, -0.00, -1.00, 462.7, 42.0)">i</text><text xml:space="preserve" font-family="TrebuchetMS-Bold" font-weight="bold" font-size="20.0" fill="#000000" transform="matrix(1.00, 0.00, -0.00, -1.00, 468.7, 42.0)">g</text><text xml:space="preserve" font-family="TrebuchetMS-Bold" font-weight="bold" font-size="20.0" fill="#000000" transform="matrix(1.00, 0.00, -0.00, -1.00, 478.7, 42.0)">u</text><text xml:space="preserve" font-family="TrebuchetMS-Bold" font-weight="bold" font-size="20.0" fill="#000000" transform="matrix(1.00, 0.00, -0.00, -1.00, 490.5, 42.0)">r</text><text xml:space="preserve" font-family="TrebuchetMS-Bold" font-weight="bold" font-size="20.0" fill="#000000" transform="matrix(1.00, 0.00, -0.00, -1.00, 499.1, 42.0)">e</text><text xml:space="preserve" font-family="TrebuchetMS-Bold" font-weight="bold" font-size="20.0" fill="#000000" transform="matrix(1.00, 0.00, -0.00, -1.00, 510.5, 42.0)"> </text><text xml:space="preserve" font-family="TrebuchetMS-Bold" font-weight="bold" font-size="20.0" fill="#000000" transform="matrix(1.00, 0.00, -0.00, -1.00, 516.6, 42.0)">b</text><text xml:space="preserve" font-family="TrebuchetMS-Bold" font-weight="bold" font-size="20.0" fill="#000000" transform="matrix(1.00, 0.00, -0.00, -1.00, 528.2, 42.0)">y</text><text xml:space="preserve" font-family="TrebuchetMS-Bold" font-weight="bold" font-size="20.0" fill="#000000" transform="matrix(1.00, 0.00, -0.00, -1.00, 538.9, 42.0)"> </text><text xml:space="preserve" font-family="TrebuchetMS-Bold" font-weight="bold" font-size="20.0" fill="#000000" transform="matrix(1.00, 0.00, -0.00, -1.00, 544.9, 42.0)">D</text><text xml:space="preserve" font-family="TrebuchetMS-Bold" font-weight="bold" font-size="20.0" fill="#000000" transform="matrix(1.00, 0.00, -0.00, -1.00, 557.7, 42.0)">r</text><text xml:space="preserve" font-family="TrebuchetMS-Bold" font-weight="bold" font-size="20.0" fill="#000000" transform="matrix(1.00, 0.00, -0.00, -1.00, 563.9, 42.0)">.</text><text xml:space="preserve" font-family="TrebuchetMS-Bold" font-weight="bold" font-size="20.0" fill="#000000" transform="matrix(1.00, 0.00, -0.00, -1.00, 571.3, 42.0)"> </text><text xml:space="preserve" font-family="TrebuchetMS-Bold" font-weight="bold" font-size="20.0" fill="#000000" transform="matrix(1.00, 0.00, -0.00, -1.00, 577.3, 42.0)">E</text><text xml:space="preserve" font-family="TrebuchetMS-Bold" font-weight="bold" font-size="20.0" fill="#000000" transform="matrix(1.00, 0.00, -0.00, -1.00, 588.7, 42.0)">l</text><text xml:space="preserve" font-family="TrebuchetMS-Bold" font-weight="bold" font-size="20.0" fill="#000000" transform="matrix(1.00, 0.00, -0.00, -1.00, 594.6, 42.0)">l</text><text xml:space="preserve" font-family="TrebuchetMS-Bold" font-weight="bold" font-size="20.0" fill="#000000" transform="matrix(1.00, 0.00, -0.00, -1.00, 600.5, 42.0)">e</text><text xml:space="preserve" font-family="TrebuchetMS-Bold" font-weight="bold" font-size="20.0" fill="#000000" transform="matrix(1.00, 0.00, -0.00, -1.00, 612.0, 42.0)">n</text><text xml:space="preserve" font-family="TrebuchetMS-Bold" font-weight="bold" font-size="20.0" fill="#000000" transform="matrix(1.00, 0.00, -0.00, -1.00, 623.8, 42.0)"> </text><text xml:space="preserve" font-family="TrebuchetMS-Bold" font-weight="bold" font-size="20.0" fill="#000000" transform="matrix(1.00, 0.00, -0.00, -1.00, 629.8, 42.0)">v</text><text xml:space="preserve" font-family="TrebuchetMS-Bold" font-weight="bold" font-size="20.0" fill="#000000" transform="matrix(1.00, 0.00, -0.00, -1.00, 640.4, 42.0)">a</text><text xml:space="preserve" font-family="TrebuchetMS-Bold" font-weight="bold" font-size="20.0" fill="#000000" transform="matrix(1.00, 0.00, -0.00, -1.00, 651.0, 42.0)">n</text><text xml:space="preserve" font-family="TrebuchetMS-Bold" font-weight="bold" font-size="20.0" fill="#000000" transform="matrix(1.00, 0.00, -0.00, -1.00, 662.8, 42.0)"> </text><text xml:space="preserve" font-family="TrebuchetMS-Bold" font-weight="bold" font-size="20.0" fill="#000000" transform="matrix(1.00, 0.00, -0.00, -1.00, 668.8, 42.0)">d</text><text xml:space="preserve" font-family="TrebuchetMS-Bold" font-weight="bold" font-size="20.0" fill="#000000" transform="matrix(1.00, 0.00, -0.00, -1.00, 680.4, 42.0)">e</text><text xml:space="preserve" font-family="TrebuchetMS-Bold" font-weight="bold" font-size="20.0" fill="#000000" transform="matrix(1.00, 0.00, -0.00, -1.00, 691.9, 42.0)">r</text><text xml:space="preserve" font-family="TrebuchetMS-Bold" font-weight="bold" font-size="20.0" fill="#000000" transform="matrix(1.00, 0.00, -0.00, -1.00, 700.5, 42.0)"> </text><text xml:space="preserve" font-family="TrebuchetMS-Bold" font-weight="bold" font-size="20.0" fill="#000000" transform="matrix(1.00, 0.00, -0.00, -1.00, 706.5, 42.0)">P</text><text xml:space="preserve" font-family="TrebuchetMS-Bold" font-weight="bold" font-size="20.0" fill="#000000" transform="matrix(1.00, 0.00, -0.00, -1.00, 718.3, 42.0)">l</text><text xml:space="preserve" font-family="TrebuchetMS-Bold" font-weight="bold" font-size="20.0" fill="#000000" transform="matrix(1.00, 0.00, -0.00, -1.00, 724.2, 42.0)">a</text><text xml:space="preserve" font-family="TrebuchetMS-Bold" font-weight="bold" font-size="20.0" fill="#000000" transform="matrix(1.00, 0.00, -0.00, -1.00, 734.8, 42.0)">s</text><path d="M 288.4 457.4 C 314.8 441.3 314.8 415.3 288.4 399.3 C 262.0 383.2 219.2 383.2 192.8 399.3 C 166.4 415.3 166.4 441.3 192.8 457.4 C 219.2 473.4 262.0 473.4 288.4 457.4 Z M 288.4 457.4 " fill="#FFFFFF"></path><path d="M 115.4 12.0 C 141.8 28.1 141.8 54.1 115.4 70.1 C 89.0 86.2 46.2 86.2 19.8 70.1 C -6.6 54.1 -6.6 28.1 19.8 12.0 C 46.2 -4.0 89.0 -4.0 115.4 12.0 Z M 115.4 12.0 " fill="none" stroke="#27D417" stroke-width="5.00" stroke-linejoin="round" transform="matrix(1.00, 0.00, 0.00, -1.00, 173.0, 469.4)"></path><text xml:space="preserve" font-family="Trebuchet-BoldItalic" font-style="italic" font-weight="bold" font-size="18.0" fill="#000000" transform="matrix(1.00, 0.00, -0.00, -1.00, 4.0, 113.0)">T</text><text xml:space="preserve" font-family="Trebuchet-BoldItalic" font-style="italic" font-weight="bold" font-size="18.0" fill="#000000" transform="matrix(1.00, 0.00, -0.00, -1.00, 16.3, 113.0)">h</text><text xml:space="preserve" font-family="Trebuchet-BoldItalic" font-style="italic" font-weight="bold" font-size="18.0" fill="#000000" transform="matrix(1.00, 0.00, -0.00, -1.00, 26.4, 113.0)">e</text><text xml:space="preserve" font-family="Trebuchet-BoldItalic" font-style="italic" font-weight="bold" font-size="18.0" fill="#000000" transform="matrix(1.00, 0.00, -0.00, -1.00, 36.4, 113.0)">r</text><text xml:space="preserve" font-family="Trebuchet-BoldItalic" font-style="italic" font-weight="bold" font-size="18.0" fill="#000000" transform="matrix(1.00, 0.00, -0.00, -1.00, 44.4, 113.0)">e</text><text xml:space="preserve" font-family="Trebuchet-BoldItalic" font-style="italic" font-weight="bold" font-size="18.0" fill="#000000" transform="matrix(1.00, 0.00, -0.00, -1.00, 54.3, 113.0)"> </text><text xml:space="preserve" font-family="Trebuchet-BoldItalic" font-style="italic" font-weight="bold" font-size="18.0" fill="#000000" transform="matrix(1.00, 0.00, -0.00, -1.00, 59.8, 113.0)">i</text><text xml:space="preserve" font-family="Trebuchet-BoldItalic" font-style="italic" font-weight="bold" font-size="18.0" fill="#000000" transform="matrix(1.00, 0.00, -0.00, -1.00, 65.6, 113.0)">s</text><text xml:space="preserve" font-family="Trebuchet-BoldItalic" font-style="italic" font-weight="bold" font-size="18.0" fill="#000000" transform="matrix(1.00, 0.00, -0.00, -1.00, 73.9, 113.0)"> </text><text xml:space="preserve" font-family="Trebuchet-BoldItalic" font-style="italic" font-weight="bold" font-size="18.0" fill="#000000" transform="matrix(1.00, 0.00, -0.00, -1.00, 79.3, 113.0)">a</text><text xml:space="preserve" font-family="Trebuchet-BoldItalic" font-style="italic" font-weight="bold" font-size="18.0" fill="#000000" transform="matrix(1.00, 0.00, -0.00, -1.00, 90.0, 113.0)"> </text><text xml:space="preserve" font-family="Trebuchet-BoldItalic" font-style="italic" font-weight="bold" font-size="18.0" fill="#000000" transform="matrix(1.00, 0.00, -0.00, -1.00, 95.4, 113.0)">l</text><text xml:space="preserve" font-family="Trebuchet-BoldItalic" font-style="italic" font-weight="bold" font-size="18.0" fill="#000000" transform="matrix(1.00, 0.00, -0.00, -1.00, 101.2, 113.0)">i</text><text xml:space="preserve" font-family="Trebuchet-BoldItalic" font-style="italic" font-weight="bold" font-size="18.0" fill="#000000" transform="matrix(1.00, 0.00, -0.00, -1.00, 107.1, 113.0)">n</text><text xml:space="preserve" font-family="Trebuchet-BoldItalic" font-style="italic" font-weight="bold" font-size="18.0" fill="#000000" transform="matrix(1.00, 0.00, -0.00, -1.00, 117.2, 113.0)">k</text><text xml:space="preserve" font-family="Trebuchet-BoldItalic" font-style="italic" font-weight="bold" font-size="18.0" fill="#000000" transform="matrix(1.00, 0.00, -0.00, -1.00, 126.9, 113.0)"> </text><text xml:space="preserve" font-family="Trebuchet-BoldItalic" font-style="italic" font-weight="bold" font-size="18.0" fill="#000000" transform="matrix(1.00, 0.00, -0.00, -1.00, 132.3, 113.0)">b</text><text xml:space="preserve" font-family="Trebuchet-BoldItalic" font-style="italic" font-weight="bold" font-size="18.0" fill="#000000" transform="matrix(1.00, 0.00, -0.00, -1.00, 143.0, 113.0)">e</text><text xml:space="preserve" font-family="Trebuchet-BoldItalic" font-style="italic" font-weight="bold" font-size="18.0" fill="#000000" transform="matrix(1.00, 0.00, -0.00, -1.00, 152.9, 113.0)">t</text><text xml:space="preserve" font-family="Trebuchet-BoldItalic" font-style="italic" font-weight="bold" font-size="18.0" fill="#000000" transform="matrix(1.00, 0.00, -0.00, -1.00, 160.8, 113.0)">w</text><text xml:space="preserve" font-family="Trebuchet-BoldItalic" font-style="italic" font-weight="bold" font-size="18.0" fill="#000000" transform="matrix(1.00, 0.00, -0.00, -1.00, 174.7, 113.0)">e</text><text xml:space="preserve" font-family="Trebuchet-BoldItalic" font-style="italic" font-weight="bold" font-size="18.0" fill="#000000" transform="matrix(1.00, 0.00, -0.00, -1.00, 184.7, 113.0)">e</text><text xml:space="preserve" font-family="Trebuchet-BoldItalic" font-style="italic" font-weight="bold" font-size="18.0" fill="#000000" transform="matrix(1.00, 0.00, -0.00, -1.00, 194.6, 113.0)">n</text><text xml:space="preserve" font-family="Trebuchet-BoldItalic" font-style="italic" font-weight="bold" font-size="18.0" fill="#000000" transform="matrix(1.00, 0.00, -0.00, -1.00, 204.7, 113.0)"> </text><text xml:space="preserve" font-family="Trebuchet-BoldItalic" font-style="italic" font-weight="bold" font-size="18.0" fill="#000000" transform="matrix(1.00, 0.00, -0.00, -1.00, 210.1, 113.0)">l</text><text xml:space="preserve" font-family="Trebuchet-BoldItalic" font-style="italic" font-weight="bold" font-size="18.0" fill="#000000" transform="matrix(1.00, 0.00, -0.00, -1.00, 215.9, 113.0)">o</text><text xml:space="preserve" font-family="Trebuchet-BoldItalic" font-style="italic" font-weight="bold" font-size="18.0" fill="#000000" transform="matrix(1.00, 0.00, -0.00, -1.00, 226.1, 113.0)">w</text><text xml:space="preserve" font-family="Trebuchet-BoldItalic" font-style="italic" font-weight="bold" font-size="18.0" fill="#000000" transform="matrix(1.00, 0.00, -0.00, -1.00, 240.1, 113.0)"> </text><text xml:space="preserve" font-family="Trebuchet-BoldItalic" font-style="italic" font-weight="bold" font-size="18.0" fill="#000000" transform="matrix(1.00, 0.00, -0.00, -1.00, 4.0, 92.0)">f</text><text xml:space="preserve" font-family="Trebuchet-BoldItalic" font-style="italic" font-weight="bold" font-size="18.0" fill="#000000" transform="matrix(1.00, 0.00, -0.00, -1.00, 11.4, 92.0)">o</text><text xml:space="preserve" font-family="Trebuchet-BoldItalic" font-style="italic" font-weight="bold" font-size="18.0" fill="#000000" transform="matrix(1.00, 0.00, -0.00, -1.00, 21.6, 92.0)">l</text><text xml:space="preserve" font-family="Trebuchet-BoldItalic" font-style="italic" font-weight="bold" font-size="18.0" fill="#000000" transform="matrix(1.00, 0.00, -0.00, -1.00, 27.4, 92.0)">a</text><text xml:space="preserve" font-family="Trebuchet-BoldItalic" font-style="italic" font-weight="bold" font-size="18.0" fill="#000000" transform="matrix(1.00, 0.00, -0.00, -1.00, 38.1, 92.0)">t</text><text xml:space="preserve" font-family="Trebuchet-BoldItalic" font-style="italic" font-weight="bold" font-size="18.0" fill="#000000" transform="matrix(1.00, 0.00, -0.00, -1.00, 45.9, 92.0)">e</text><text xml:space="preserve" font-family="Trebuchet-BoldItalic" font-style="italic" font-weight="bold" font-size="18.0" fill="#000000" transform="matrix(1.00, 0.00, -0.00, -1.00, 55.9, 92.0)"> </text><text xml:space="preserve" font-family="Trebuchet-BoldItalic" font-style="italic" font-weight="bold" font-size="18.0" fill="#000000" transform="matrix(1.00, 0.00, -0.00, -1.00, 61.3, 92.0)">d</text><text xml:space="preserve" font-family="Trebuchet-BoldItalic" font-style="italic" font-weight="bold" font-size="18.0" fill="#000000" transform="matrix(1.00, 0.00, -0.00, -1.00, 72.0, 92.0)">i</text><text xml:space="preserve" font-family="Trebuchet-BoldItalic" font-style="italic" font-weight="bold" font-size="18.0" fill="#000000" transform="matrix(1.00, 0.00, -0.00, -1.00, 77.9, 92.0)">e</text><text xml:space="preserve" font-family="Trebuchet-BoldItalic" font-style="italic" font-weight="bold" font-size="18.0" fill="#000000" transform="matrix(1.00, 0.00, -0.00, -1.00, 87.8, 92.0)">t</text><text xml:space="preserve" font-family="Trebuchet-BoldItalic" font-style="italic" font-weight="bold" font-size="18.0" fill="#000000" transform="matrix(1.00, 0.00, -0.00, -1.00, 95.7, 92.0)">,</text><text xml:space="preserve" font-family="Trebuchet-BoldItalic" font-style="italic" font-weight="bold" font-size="18.0" fill="#000000" transform="matrix(1.00, 0.00, -0.00, -1.00, 102.3, 92.0)"> </text><text xml:space="preserve" font-family="Trebuchet-BoldItalic" font-style="italic" font-weight="bold" font-size="18.0" fill="#000000" transform="matrix(1.00, 0.00, -0.00, -1.00, 107.7, 92.0)">a</text><text xml:space="preserve" font-family="Trebuchet-BoldItalic" font-style="italic" font-weight="bold" font-size="18.0" fill="#000000" transform="matrix(1.00, 0.00, -0.00, -1.00, 118.4, 92.0)">b</text><text xml:space="preserve" font-family="Trebuchet-BoldItalic" font-style="italic" font-weight="bold" font-size="18.0" fill="#000000" transform="matrix(1.00, 0.00, -0.00, -1.00, 129.1, 92.0)">n</text><text xml:space="preserve" font-family="Trebuchet-BoldItalic" font-style="italic" font-weight="bold" font-size="18.0" fill="#000000" transform="matrix(1.00, 0.00, -0.00, -1.00, 139.2, 92.0)">o</text><text xml:space="preserve" font-family="Trebuchet-BoldItalic" font-style="italic" font-weight="bold" font-size="18.0" fill="#000000" transform="matrix(1.00, 0.00, -0.00, -1.00, 149.4, 92.0)">r</text><text xml:space="preserve" font-family="Trebuchet-BoldItalic" font-style="italic" font-weight="bold" font-size="18.0" fill="#000000" transform="matrix(1.00, 0.00, -0.00, -1.00, 157.5, 92.0)">m</text><text xml:space="preserve" font-family="Trebuchet-BoldItalic" font-style="italic" font-weight="bold" font-size="18.0" fill="#000000" transform="matrix(1.00, 0.00, -0.00, -1.00, 172.4, 92.0)">a</text><text xml:space="preserve" font-family="Trebuchet-BoldItalic" font-style="italic" font-weight="bold" font-size="18.0" fill="#000000" transform="matrix(1.00, 0.00, -0.00, -1.00, 183.1, 92.0)">l</text><text xml:space="preserve" font-family="Trebuchet-BoldItalic" font-style="italic" font-weight="bold" font-size="18.0" fill="#000000" transform="matrix(1.00, 0.00, -0.00, -1.00, 188.8, 92.0)"> </text><text xml:space="preserve" font-family="Trebuchet-BoldItalic" font-style="italic" font-weight="bold" font-size="18.0" fill="#000000" transform="matrix(1.00, 0.00, -0.00, -1.00, 194.3, 92.0)">c</text><text xml:space="preserve" font-family="Trebuchet-BoldItalic" font-style="italic" font-weight="bold" font-size="18.0" fill="#000000" transform="matrix(1.00, 0.00, -0.00, -1.00, 203.1, 92.0)">h</text><text xml:space="preserve" font-family="Trebuchet-BoldItalic" font-style="italic" font-weight="bold" font-size="18.0" fill="#000000" transform="matrix(1.00, 0.00, -0.00, -1.00, 213.2, 92.0)">o</text><text xml:space="preserve" font-family="Trebuchet-BoldItalic" font-style="italic" font-weight="bold" font-size="18.0" fill="#000000" transform="matrix(1.00, 0.00, -0.00, -1.00, 223.5, 92.0)">l</text><text xml:space="preserve" font-family="Trebuchet-BoldItalic" font-style="italic" font-weight="bold" font-size="18.0" fill="#000000" transform="matrix(1.00, 0.00, -0.00, -1.00, 229.2, 92.0)">i</text><text xml:space="preserve" font-family="Trebuchet-BoldItalic" font-style="italic" font-weight="bold" font-size="18.0" fill="#000000" transform="matrix(1.00, 0.00, -0.00, -1.00, 235.1, 92.0)">n</text><text xml:space="preserve" font-family="Trebuchet-BoldItalic" font-style="italic" font-weight="bold" font-size="18.0" fill="#000000" transform="matrix(1.00, 0.00, -0.00, -1.00, 245.2, 92.0)">e</text><text xml:space="preserve" font-family="Trebuchet-BoldItalic" font-style="italic" font-weight="bold" font-size="18.0" fill="#000000" transform="matrix(1.00, 0.00, -0.00, -1.00, 255.2, 92.0)"> </text><text xml:space="preserve" font-family="Trebuchet-BoldItalic" font-style="italic" font-weight="bold" font-size="18.0" fill="#000000" transform="matrix(1.00, 0.00, -0.00, -1.00, 4.0, 71.0)">l</text><text xml:space="preserve" font-family="Trebuchet-BoldItalic" font-style="italic" font-weight="bold" font-size="18.0" fill="#000000" transform="matrix(1.00, 0.00, -0.00, -1.00, 9.8, 71.0)">e</text><text xml:space="preserve" font-family="Trebuchet-BoldItalic" font-style="italic" font-weight="bold" font-size="18.0" fill="#000000" transform="matrix(1.00, 0.00, -0.00, -1.00, 19.7, 71.0)">v</text><text xml:space="preserve" font-family="Trebuchet-BoldItalic" font-style="italic" font-weight="bold" font-size="18.0" fill="#000000" transform="matrix(1.00, 0.00, -0.00, -1.00, 29.6, 71.0)">e</text><text xml:space="preserve" font-family="Trebuchet-BoldItalic" font-style="italic" font-weight="bold" font-size="18.0" fill="#000000" transform="matrix(1.00, 0.00, -0.00, -1.00, 39.6, 71.0)">l</text><text xml:space="preserve" font-family="Trebuchet-BoldItalic" font-style="italic" font-weight="bold" font-size="18.0" fill="#000000" transform="matrix(1.00, 0.00, -0.00, -1.00, 45.3, 71.0)">s</text><text xml:space="preserve" font-family="Trebuchet-BoldItalic" font-style="italic" font-weight="bold" font-size="18.0" fill="#000000" transform="matrix(1.00, 0.00, -0.00, -1.00, 53.6, 71.0)"> </text><text xml:space="preserve" font-family="Trebuchet-BoldItalic" font-style="italic" font-weight="bold" font-size="18.0" fill="#000000" transform="matrix(1.00, 0.00, -0.00, -1.00, 59.0, 71.0)">a</text><text xml:space="preserve" font-family="Trebuchet-BoldItalic" font-style="italic" font-weight="bold" font-size="18.0" fill="#000000" transform="matrix(1.00, 0.00, -0.00, -1.00, 69.7, 71.0)">n</text><text xml:space="preserve" font-family="Trebuchet-BoldItalic" font-style="italic" font-weight="bold" font-size="18.0" fill="#000000" transform="matrix(1.00, 0.00, -0.00, -1.00, 79.8, 71.0)">d</text><text xml:space="preserve" font-family="Trebuchet-BoldItalic" font-style="italic" font-weight="bold" font-size="18.0" fill="#000000" transform="matrix(1.00, 0.00, -0.00, -1.00, 90.5, 71.0)"> </text><text xml:space="preserve" font-family="Trebuchet-BoldItalic" font-style="italic" font-weight="bold" font-size="18.0" fill="#000000" transform="matrix(1.00, 0.00, -0.00, -1.00, 95.9, 71.0)">c</text><text xml:space="preserve" font-family="Trebuchet-BoldItalic" font-style="italic" font-weight="bold" font-size="18.0" fill="#000000" transform="matrix(1.00, 0.00, -0.00, -1.00, 104.8, 71.0)">o</text><text xml:space="preserve" font-family="Trebuchet-BoldItalic" font-style="italic" font-weight="bold" font-size="18.0" fill="#000000" transform="matrix(1.00, 0.00, -0.00, -1.00, 115.0, 71.0)">g</text><text xml:space="preserve" font-family="Trebuchet-BoldItalic" font-style="italic" font-weight="bold" font-size="18.0" fill="#000000" transform="matrix(1.00, 0.00, -0.00, -1.00, 124.6, 71.0)">n</text><text xml:space="preserve" font-family="Trebuchet-BoldItalic" font-style="italic" font-weight="bold" font-size="18.0" fill="#000000" transform="matrix(1.00, 0.00, -0.00, -1.00, 134.8, 71.0)">i</text><text xml:space="preserve" font-family="Trebuchet-BoldItalic" font-style="italic" font-weight="bold" font-size="18.0" fill="#000000" transform="matrix(1.00, 0.00, -0.00, -1.00, 140.6, 71.0)">t</text><text xml:space="preserve" font-family="Trebuchet-BoldItalic" font-style="italic" font-weight="bold" font-size="18.0" fill="#000000" transform="matrix(1.00, 0.00, -0.00, -1.00, 148.5, 71.0)">i</text><text xml:space="preserve" font-family="Trebuchet-BoldItalic" font-style="italic" font-weight="bold" font-size="18.0" fill="#000000" transform="matrix(1.00, 0.00, -0.00, -1.00, 154.4, 71.0)">v</text><text xml:space="preserve" font-family="Trebuchet-BoldItalic" font-style="italic" font-weight="bold" font-size="18.0" fill="#000000" transform="matrix(1.00, 0.00, -0.00, -1.00, 164.3, 71.0)">e</text><text xml:space="preserve" font-family="Trebuchet-BoldItalic" font-style="italic" font-weight="bold" font-size="18.0" fill="#000000" transform="matrix(1.00, 0.00, -0.00, -1.00, 174.3, 71.0)"> </text><text xml:space="preserve" font-family="Trebuchet-BoldItalic" font-style="italic" font-weight="bold" font-size="18.0" fill="#000000" transform="matrix(1.00, 0.00, -0.00, -1.00, 179.7, 71.0)">d</text><text xml:space="preserve" font-family="Trebuchet-BoldItalic" font-style="italic" font-weight="bold" font-size="18.0" fill="#000000" transform="matrix(1.00, 0.00, -0.00, -1.00, 190.4, 71.0)">e</text><text xml:space="preserve" font-family="Trebuchet-BoldItalic" font-style="italic" font-weight="bold" font-size="18.0" fill="#000000" transform="matrix(1.00, 0.00, -0.00, -1.00, 200.3, 71.0)">c</text><text xml:space="preserve" font-family="Trebuchet-BoldItalic" font-style="italic" font-weight="bold" font-size="18.0" fill="#000000" transform="matrix(1.00, 0.00, -0.00, -1.00, 209.2, 71.0)">l</text><text xml:space="preserve" font-family="Trebuchet-BoldItalic" font-style="italic" font-weight="bold" font-size="18.0" fill="#000000" transform="matrix(1.00, 0.00, -0.00, -1.00, 214.9, 71.0)">i</text><text xml:space="preserve" font-family="Trebuchet-BoldItalic" font-style="italic" font-weight="bold" font-size="18.0" fill="#000000" transform="matrix(1.00, 0.00, -0.00, -1.00, 220.8, 71.0)">n</text><text xml:space="preserve" font-family="Trebuchet-BoldItalic" font-style="italic" font-weight="bold" font-size="18.0" fill="#000000" transform="matrix(1.00, 0.00, -0.00, -1.00, 230.9, 71.0)">e</text><text xml:space="preserve" font-family="Trebuchet-BoldItalic" font-style="italic" font-weight="bold" font-size="18.0" fill="#000000" transform="matrix(1.00, 0.00, -0.00, -1.00, 240.8, 71.0)"> </text><text xml:space="preserve" font-family="Trebuchet-BoldItalic" font-style="italic" font-weight="bold" font-size="18.0" fill="#000000" transform="matrix(1.00, 0.00, -0.00, -1.00, 246.3, 71.0)">i</text><text xml:space="preserve" font-family="Trebuchet-BoldItalic" font-style="italic" font-weight="bold" font-size="18.0" fill="#000000" transform="matrix(1.00, 0.00, -0.00, -1.00, 252.1, 71.0)">n</text><text xml:space="preserve" font-family="Trebuchet-BoldItalic" font-style="italic" font-weight="bold" font-size="18.0" fill="#000000" transform="matrix(1.00, 0.00, -0.00, -1.00, 262.3, 71.0)"> </text><text xml:space="preserve" font-family="Trebuchet-BoldItalic" font-style="italic" font-weight="bold" font-size="18.0" fill="#000000" transform="matrix(1.00, 0.00, -0.00, -1.00, 4.0, 50.0)">a</text><text xml:space="preserve" font-family="Trebuchet-BoldItalic" font-style="italic" font-weight="bold" font-size="18.0" fill="#000000" transform="matrix(1.00, 0.00, -0.00, -1.00, 14.7, 50.0)">d</text><text xml:space="preserve" font-family="Trebuchet-BoldItalic" font-style="italic" font-weight="bold" font-size="18.0" fill="#000000" transform="matrix(1.00, 0.00, -0.00, -1.00, 25.4, 50.0)">u</text><text xml:space="preserve" font-family="Trebuchet-BoldItalic" font-style="italic" font-weight="bold" font-size="18.0" fill="#000000" transform="matrix(1.00, 0.00, -0.00, -1.00, 35.4, 50.0)">l</text><text xml:space="preserve" font-family="Trebuchet-BoldItalic" font-style="italic" font-weight="bold" font-size="18.0" fill="#000000" transform="matrix(1.00, 0.00, -0.00, -1.00, 41.1, 50.0)">t</text><text xml:space="preserve" font-family="Trebuchet-BoldItalic" font-style="italic" font-weight="bold" font-size="18.0" fill="#000000" transform="matrix(1.00, 0.00, -0.00, -1.00, 49.0, 50.0)">s</text><text xml:space="preserve" font-family="Trebuchet-BoldItalic" font-style="italic" font-weight="bold" font-size="18.0" fill="#000000" transform="matrix(1.00, 0.00, -0.00, -1.00, 57.3, 50.0)">.</text><text xml:space="preserve" font-family="Trebuchet-BoldItalic" font-style="italic" font-weight="bold" font-size="18.0" fill="#000000" transform="matrix(1.00, 0.00, -0.00, -1.00, 63.9, 50.0)"> </text><path d="M 115.4 12.0 C 141.8 28.1 141.8 54.1 115.4 70.1 C 89.0 86.2 46.2 86.2 19.8 70.1 C -6.6 54.1 -6.6 28.1 19.8 12.0 C 46.2 -4.0 89.0 -4.0 115.4 12.0 Z M 115.4 12.0 " fill="none" stroke="#FF0000" stroke-width="5.00" stroke-linejoin="round" transform="matrix(1.00, 0.00, 0.00, -1.00, 400.4, 212.6)"></path><path d="M 115.4 12.0 C 141.8 28.1 141.8 54.1 115.4 70.1 C 89.0 86.2 46.2 86.2 19.8 70.1 C -6.6 54.1 -6.6 28.1 19.8 12.0 C 46.2 -4.0 89.0 -4.0 115.4 12.0 Z M 115.4 12.0 " fill="none" stroke="#FF6600" stroke-width="5.00" stroke-linejoin="round" transform="matrix(1.00, 0.00, 0.00, -1.00, 203.4, 211.6)"></path><image xlink:href="3DC03DBFDDA75B21E00B759E404296A7.png" width="712.00" height="449.00" transform="matrix(1.00, 0.00, -0.00, -1.00, 6.0, 483.0)"></image></g></svg>