<?xml version="1.0" encoding="UTF-8" standalone="no"?><svg xmlns="http://www.w3.org/2000/svg" xmlns:xlink="http://www.w3.org/1999/xlink" clip-rule="evenodd" stroke-miterlimit="4.00" viewBox="0 0 720 540"><desc>SVG generated by Keynote</desc><defs></defs><g transform="matrix(1.00, 0.00, -0.00, -1.00, 0.0, 540.0)"><path d="M 0.0 540.0 L 720.0 540.0 L 720.0 0.0 L 0.0 0.0 Z M 0.0 540.0 " fill="#FFFFFF"></path><text xml:space="preserve" font-family="TrebuchetMS" font-size="12.0" fill="#888888" transform="matrix(1.00, 0.00, -0.00, -1.00, 264.0, 21.0)">M</text><text xml:space="preserve" font-family="TrebuchetMS" font-size="12.0" fill="#888888" transform="matrix(1.00, 0.00, -0.00, -1.00, 272.5, 21.0)">o</text><text xml:space="preserve" font-family="TrebuchetMS" font-size="12.0" fill="#888888" transform="matrix(1.00, 0.00, -0.00, -1.00, 279.0, 21.0)">u</text><text xml:space="preserve" font-family="TrebuchetMS" font-size="12.0" fill="#888888" transform="matrix(1.00, 0.00, -0.00, -1.00, 285.5, 21.0)">s</text><text xml:space="preserve" font-family="TrebuchetMS" font-size="12.0" fill="#888888" transform="matrix(1.00, 0.00, -0.00, -1.00, 290.4, 21.0)">e</text><text xml:space="preserve" font-family="TrebuchetMS" font-size="12.0" fill="#888888" transform="matrix(1.00, 0.00, -0.00, -1.00, 296.9, 21.0)"> </text><text xml:space="preserve" font-family="TrebuchetMS" font-size="12.0" fill="#888888" transform="matrix(1.00, 0.00, -0.00, -1.00, 300.5, 21.0)">I</text><text xml:space="preserve" font-family="TrebuchetMS" font-size="12.0" fill="#888888" transform="matrix(1.00, 0.00, -0.00, -1.00, 303.9, 21.0)">m</text><text xml:space="preserve" font-family="TrebuchetMS" font-size="12.0" fill="#888888" transform="matrix(1.00, 0.00, -0.00, -1.00, 313.8, 21.0)">a</text><text xml:space="preserve" font-family="TrebuchetMS" font-size="12.0" fill="#888888" transform="matrix(1.00, 0.00, -0.00, -1.00, 320.2, 21.0)">g</text><text xml:space="preserve" font-family="TrebuchetMS" font-size="12.0" fill="#888888" transform="matrix(1.00, 0.00, -0.00, -1.00, 326.2, 21.0)">i</text><text xml:space="preserve" font-family="TrebuchetMS" font-size="12.0" fill="#888888" transform="matrix(1.00, 0.00, -0.00, -1.00, 329.6, 21.0)">n</text><text xml:space="preserve" font-family="TrebuchetMS" font-size="12.0" fill="#888888" transform="matrix(1.00, 0.00, -0.00, -1.00, 336.2, 21.0)">g</text><text xml:space="preserve" font-family="TrebuchetMS" font-size="12.0" fill="#888888" transform="matrix(1.00, 0.00, -0.00, -1.00, 342.2, 21.0)"> </text><text xml:space="preserve" font-family="TrebuchetMS" font-size="12.0" fill="#888888" transform="matrix(1.00, 0.00, -0.00, -1.00, 345.8, 21.0)">S</text><text xml:space="preserve" font-family="TrebuchetMS" font-size="12.0" fill="#888888" transform="matrix(1.00, 0.00, -0.00, -1.00, 351.6, 21.0)">u</text><text xml:space="preserve" font-family="TrebuchetMS" font-size="12.0" fill="#888888" transform="matrix(1.00, 0.00, -0.00, -1.00, 358.1, 21.0)">m</text><text xml:space="preserve" font-family="TrebuchetMS" font-size="12.0" fill="#888888" transform="matrix(1.00, 0.00, -0.00, -1.00, 368.1, 21.0)">m</text><text xml:space="preserve" font-family="TrebuchetMS" font-size="12.0" fill="#888888" transform="matrix(1.00, 0.00, -0.00, -1.00, 378.1, 21.0)">e</text><text xml:space="preserve" font-family="TrebuchetMS" font-size="12.0" fill="#888888" transform="matrix(1.00, 0.00, -0.00, -1.00, 384.6, 21.0)">r</text><text xml:space="preserve" font-family="TrebuchetMS" font-size="12.0" fill="#888888" transform="matrix(1.00, 0.00, -0.00, -1.00, 389.3, 21.0)"> </text><text xml:space="preserve" font-family="TrebuchetMS" font-size="12.0" fill="#888888" transform="matrix(1.00, 0.00, -0.00, -1.00, 392.9, 21.0)">S</text><text xml:space="preserve" font-family="TrebuchetMS" font-size="12.0" fill="#888888" transform="matrix(1.00, 0.00, -0.00, -1.00, 398.7, 21.0)">c</text><text xml:space="preserve" font-family="TrebuchetMS" font-size="12.0" fill="#888888" transform="matrix(1.00, 0.00, -0.00, -1.00, 404.6, 21.0)">h</text><text xml:space="preserve" font-family="TrebuchetMS" font-size="12.0" fill="#888888" transform="matrix(1.00, 0.00, -0.00, -1.00, 411.2, 21.0)">o</text><text xml:space="preserve" font-family="TrebuchetMS" font-size="12.0" fill="#888888" transform="matrix(1.00, 0.00, -0.00, -1.00, 417.6, 21.0)">o</text><text xml:space="preserve" font-family="TrebuchetMS" font-size="12.0" fill="#888888" transform="matrix(1.00, 0.00, -0.00, -1.00, 424.0, 21.0)">l</text><text xml:space="preserve" font-family="TrebuchetMS" font-size="12.0" fill="#888888" transform="matrix(1.00, 0.00, -0.00, -1.00, 427.6, 21.0)"> </text><text xml:space="preserve" font-family="TrebuchetMS" font-size="12.0" fill="#888888" transform="matrix(1.00, 0.00, -0.00, -1.00, 431.2, 21.0)">2</text><text xml:space="preserve" font-family="TrebuchetMS" font-size="12.0" fill="#888888" transform="matrix(1.00, 0.00, -0.00, -1.00, 437.5, 21.0)">0</text><text xml:space="preserve" font-family="TrebuchetMS" font-size="12.0" fill="#888888" transform="matrix(1.00, 0.00, -0.00, -1.00, 443.8, 21.0)">1</text><text xml:space="preserve" font-family="TrebuchetMS" font-size="12.0" fill="#888888" transform="matrix(1.00, 0.00, -0.00, -1.00, 450.1, 21.0)">7</text><image xlink:href="../../545FC697-22DA-4400-98EA-C29714E77E73/assets/E0794E2D47C9DC5ED434E1B4FA7F1DF1.jpeg" width="281.00" height="273.00" transform="matrix(0.71, 0.00, -0.00, -0.62, 18.0, 447.0)"></image><path d="M 0.0 66.6 C 2.2 62.4 4.4 58.3 6.5 60.0 C 8.5 61.7 10.1 78.1 12.3 76.9 C 14.5 75.6 17.2 51.9 19.4 52.5 C 21.7 53.1 24.0 81.2 25.9 80.6 C 27.8 80.0 29.0 47.8 31.1 48.8 C 33.1 49.7 35.8 88.0 38.2 86.2 C 40.6 84.5 43.2 35.3 45.3 38.4 C 47.5 41.6 49.1 107.6 51.2 105.0 C 53.2 102.3 56.0 19.4 57.6 22.5 C 59.2 25.6 58.8 127.5 60.9 123.7 C 62.9 120.0 67.8 1.9 69.9 0.0 C 72.1 -1.9 71.8 108.0 73.8 112.5 C 75.9 117.0 80.2 29.7 82.2 27.2 C 84.3 24.7 84.4 95.0 86.1 97.5 C 87.8 100.0 90.8 43.6 92.6 42.2 C 94.4 40.8 95.2 87.8 97.1 89.1 C 99.1 90.3 102.4 50.6 104.2 49.7 C 106.1 48.8 106.3 82.0 108.1 83.4 C 110.0 84.8 113.2 59.8 115.3 58.1 C 117.3 56.4 118.7 72.5 120.4 73.1 C 122.2 73.7 124.1 62.3 125.6 61.9 C 127.1 61.4 127.9 69.7 129.5 70.3 C 131.1 70.9 133.2 68.3 135.3 65.6 " fill="none" stroke="#000000" stroke-width="1.00" stroke-linejoin="round" transform="matrix(1.00, 0.00, 0.00, -1.00, 324.3, 411.3)"></path><image xlink:href="../../D93149FF-959E-4809-A090-6097109DCF5C/assets/6C0AFC02CE7C02EF6147645AB88644EA.png" width="122.00" height="66.00" transform="matrix(1.00, 0.00, -0.00, -1.01, 586.2, 404.3)" opacity="0.38"></image><path d="M 0.0 58.0 L 29.3 58.0 C 37.5 58.0 45.2 58.8 49.2 58.0 C 53.2 57.1 52.0 56.3 53.4 53.0 C 54.8 49.6 55.9 46.5 57.6 38.0 C 59.4 29.4 62.0 6.5 63.9 1.7 C 65.8 -3.1 67.7 3.2 69.1 9.2 C 70.5 15.2 71.4 30.9 72.3 38.0 C 73.1 45.0 73.5 48.6 74.4 51.7 C 75.2 54.8 75.8 56.1 77.5 56.7 C 79.3 57.3 78.4 55.7 84.8 55.5 C 91.3 55.2 116.3 55.5 116.3 55.5 " fill="none" stroke="#000000" stroke-width="2.00" stroke-linejoin="round" transform="matrix(1.00, 0.00, 0.00, -1.00, 589.2, 401.9)"></path><image xlink:href="../../D93149FF-959E-4809-A090-6097109DCF5C/assets/3450F74D21BD8D9DC79B5B4F50495F46.png" width="77.00" height="18.00" transform="matrix(1.01, 0.00, -0.00, -1.02, 481.3, 351.4)" opacity="0.38"></image><path d="M 0.0 0.0 L 61.9 0.0 L 62.9 0.0 " fill="none" stroke="#000000" stroke-width="2.00" stroke-linejoin="round" transform="matrix(1.00, 0.00, 0.00, -1.00, 484.3, 343.8)"></path><path d="M 543.3 350.0 L 555.7 343.8 L 543.3 337.6 L 547.4 343.8 Z M 543.3 350.0 " fill="#000000"></path><text xml:space="preserve" font-family="TrebuchetMS" font-size="18.0" fill="#000000" transform="matrix(1.00, 0.00, -0.00, -1.00, 489.0, 387.0)">F</text><text xml:space="preserve" font-family="TrebuchetMS" font-size="18.0" fill="#000000" transform="matrix(1.00, 0.00, -0.00, -1.00, 498.4, 387.0)">o</text><text xml:space="preserve" font-family="TrebuchetMS" font-size="18.0" fill="#000000" transform="matrix(1.00, 0.00, -0.00, -1.00, 508.1, 387.0)">u</text><text xml:space="preserve" font-family="TrebuchetMS" font-size="18.0" fill="#000000" transform="matrix(1.00, 0.00, -0.00, -1.00, 518.0, 387.0)">r</text><text xml:space="preserve" font-family="TrebuchetMS" font-size="18.0" fill="#000000" transform="matrix(1.00, 0.00, -0.00, -1.00, 524.9, 387.0)">i</text><text xml:space="preserve" font-family="TrebuchetMS" font-size="18.0" fill="#000000" transform="matrix(1.00, 0.00, -0.00, -1.00, 530.1, 387.0)">e</text><text xml:space="preserve" font-family="TrebuchetMS" font-size="18.0" fill="#000000" transform="matrix(1.00, 0.00, -0.00, -1.00, 539.9, 387.0)">r</text><text xml:space="preserve" font-family="TrebuchetMS" font-size="18.0" fill="#000000" transform="matrix(1.00, 0.00, -0.00, -1.00, 546.9, 387.0)"> </text><text xml:space="preserve" font-family="TrebuchetMS" font-size="18.0" fill="#000000" transform="matrix(1.00, 0.00, -0.00, -1.00, 478.0, 366.0)">T</text><text xml:space="preserve" font-family="TrebuchetMS" font-size="18.0" fill="#000000" transform="matrix(1.00, 0.00, -0.00, -1.00, 486.5, 366.0)">r</text><text xml:space="preserve" font-family="TrebuchetMS" font-size="18.0" fill="#000000" transform="matrix(1.00, 0.00, -0.00, -1.00, 493.5, 366.0)">a</text><text xml:space="preserve" font-family="TrebuchetMS" font-size="18.0" fill="#000000" transform="matrix(1.00, 0.00, -0.00, -1.00, 502.9, 366.0)">n</text><text xml:space="preserve" font-family="TrebuchetMS" font-size="18.0" fill="#000000" transform="matrix(1.00, 0.00, -0.00, -1.00, 512.8, 366.0)">s</text><text xml:space="preserve" font-family="TrebuchetMS" font-size="18.0" fill="#000000" transform="matrix(1.00, 0.00, -0.00, -1.00, 520.1, 366.0)">f</text><text xml:space="preserve" font-family="TrebuchetMS" font-size="18.0" fill="#000000" transform="matrix(1.00, 0.00, -0.00, -1.00, 526.7, 366.0)">o</text><text xml:space="preserve" font-family="TrebuchetMS" font-size="18.0" fill="#000000" transform="matrix(1.00, 0.00, -0.00, -1.00, 536.4, 366.0)">r</text><text xml:space="preserve" font-family="TrebuchetMS" font-size="18.0" fill="#000000" transform="matrix(1.00, 0.00, -0.00, -1.00, 543.3, 366.0)">m</text><image xlink:href="../../D93149FF-959E-4809-A090-6097109DCF5C/assets/3450F74D21BD8D9DC79B5B4F50495F46.png" width="77.00" height="18.00" transform="matrix(1.01, 0.00, -0.00, -1.02, 235.5, 350.9)" opacity="0.38"></image><path d="M 0.0 0.0 L 61.9 0.0 L 62.9 0.0 " fill="none" stroke="#000000" stroke-width="2.00" stroke-linejoin="round" transform="matrix(1.00, 0.00, 0.00, -1.00, 238.5, 343.3)"></path><path d="M 297.6 349.4 L 310.0 343.3 L 297.6 337.1 L 301.7 343.3 Z M 297.6 349.4 " fill="#000000"></path><text xml:space="preserve" font-family="TrebuchetMS" font-size="18.0" fill="#000000" transform="matrix(1.00, 0.00, -0.00, -1.00, 242.0, 368.0)">D</text><text xml:space="preserve" font-family="TrebuchetMS" font-size="18.0" fill="#000000" transform="matrix(1.00, 0.00, -0.00, -1.00, 253.0, 368.0)">e</text><text xml:space="preserve" font-family="TrebuchetMS" font-size="18.0" fill="#000000" transform="matrix(1.00, 0.00, -0.00, -1.00, 262.9, 368.0)">t</text><text xml:space="preserve" font-family="TrebuchetMS" font-size="18.0" fill="#000000" transform="matrix(1.00, 0.00, -0.00, -1.00, 270.0, 368.0)">e</text><text xml:space="preserve" font-family="TrebuchetMS" font-size="18.0" fill="#000000" transform="matrix(1.00, 0.00, -0.00, -1.00, 279.8, 368.0)">c</text><text xml:space="preserve" font-family="TrebuchetMS" font-size="18.0" fill="#000000" transform="matrix(1.00, 0.00, -0.00, -1.00, 288.7, 368.0)">t</text><text xml:space="preserve" font-family="TrebuchetMS" font-size="12.0" fill="#888888" transform="matrix(1.00, 0.00, -0.00, -1.00, 674.1, 20.8)">9</text><g><clipPath id="clip-2746"><path d="M 108.7 453.7 L 721.0 453.7 L 721.0 541.0 L 108.7 541.0 Z M 108.7 453.7 "></path></clipPath><g clip-path="url(#clip-2746)"><path d="M 109.7 540.0 L 720.0 540.0 L 720.0 454.7 L 109.7 454.7 Z M 109.7 540.0 " fill="#93B3D7"></path></g></g><g><clipPath id="clip-2747"><path d="M 104.0 453.1 L 725.7 453.1 L 725.7 545.7 L 104.0 545.7 Z M 104.0 453.1 "></path></clipPath><g clip-path="url(#clip-2747)"><text xml:space="preserve" font-family="TrebuchetMS-Bold" font-weight="bold" font-size="32.0" fill="#000000" transform="matrix(1.00, 0.00, -0.00, -1.00, 113.0, 507.0)">T</text><text xml:space="preserve" font-family="TrebuchetMS-Bold" font-weight="bold" font-size="32.0" fill="#000000" transform="matrix(1.00, 0.00, -0.00, -1.00, 132.6, 507.0)">h</text><text xml:space="preserve" font-family="TrebuchetMS-Bold" font-weight="bold" font-size="32.0" fill="#000000" transform="matrix(1.00, 0.00, -0.00, -1.00, 151.5, 507.0)">e</text><text xml:space="preserve" font-family="TrebuchetMS-Bold" font-weight="bold" font-size="32.0" fill="#000000" transform="matrix(1.00, 0.00, -0.00, -1.00, 169.9, 507.0)"> </text><text xml:space="preserve" font-family="TrebuchetMS-Bold" font-weight="bold" font-size="32.0" fill="#000000" transform="matrix(1.00, 0.00, -0.00, -1.00, 179.6, 507.0)">B</text><text xml:space="preserve" font-family="TrebuchetMS-Bold" font-weight="bold" font-size="32.0" fill="#000000" transform="matrix(1.00, 0.00, -0.00, -1.00, 198.6, 507.0)">a</text><text xml:space="preserve" font-family="TrebuchetMS-Bold" font-weight="bold" font-size="32.0" fill="#000000" transform="matrix(1.00, 0.00, -0.00, -1.00, 215.7, 507.0)">s</text><text xml:space="preserve" font-family="TrebuchetMS-Bold" font-weight="bold" font-size="32.0" fill="#000000" transform="matrix(1.00, 0.00, -0.00, -1.00, 229.4, 507.0)">i</text><text xml:space="preserve" font-family="TrebuchetMS-Bold" font-weight="bold" font-size="32.0" fill="#000000" transform="matrix(1.00, 0.00, -0.00, -1.00, 239.0, 507.0)">c</text><text xml:space="preserve" font-family="TrebuchetMS-Bold" font-weight="bold" font-size="32.0" fill="#000000" transform="matrix(1.00, 0.00, -0.00, -1.00, 255.4, 507.0)">s</text><text xml:space="preserve" font-family="TrebuchetMS-Bold" font-weight="bold" font-size="32.0" fill="#000000" transform="matrix(1.00, 0.00, -0.00, -1.00, 269.2, 507.0)"> </text><text xml:space="preserve" font-family="TrebuchetMS-Bold" font-weight="bold" font-size="32.0" fill="#000000" transform="matrix(1.00, 0.00, -0.00, -1.00, 278.8, 507.0)">o</text><text xml:space="preserve" font-family="TrebuchetMS-Bold" font-weight="bold" font-size="32.0" fill="#000000" transform="matrix(1.00, 0.00, -0.00, -1.00, 296.9, 507.0)">f</text><text xml:space="preserve" font-family="TrebuchetMS-Bold" font-weight="bold" font-size="32.0" fill="#000000" transform="matrix(1.00, 0.00, -0.00, -1.00, 308.7, 507.0)"> </text><text xml:space="preserve" font-family="TrebuchetMS-Bold" font-weight="bold" font-size="32.0" fill="#000000" transform="matrix(1.00, 0.00, -0.00, -1.00, 318.4, 507.0)">M</text><text xml:space="preserve" font-family="TrebuchetMS-Bold" font-weight="bold" font-size="32.0" fill="#000000" transform="matrix(1.00, 0.00, -0.00, -1.00, 342.3, 507.0)">R</text><text xml:space="preserve" font-family="TrebuchetMS-Bold" font-weight="bold" font-size="32.0" fill="#000000" transform="matrix(1.00, 0.00, -0.00, -1.00, 361.8, 507.0)">I</text><text xml:space="preserve" font-family="TrebuchetMS-Bold" font-weight="bold" font-size="32.0" fill="#000000" transform="matrix(1.00, 0.00, -0.00, -1.00, 370.7, 507.0)">:</text><text xml:space="preserve" font-family="TrebuchetMS-Bold" font-weight="bold" font-size="32.0" fill="#000000" transform="matrix(1.00, 0.00, -0.00, -1.00, 382.5, 507.0)"> </text><text xml:space="preserve" font-family="TrebuchetMS-Bold" font-weight="bold" font-size="32.0" fill="#000000" transform="matrix(1.00, 0.00, -0.00, -1.00, 113.0, 470.0)">M</text><text xml:space="preserve" font-family="TrebuchetMS-Bold" font-weight="bold" font-size="32.0" fill="#000000" transform="matrix(1.00, 0.00, -0.00, -1.00, 136.8, 470.0)">e</text><text xml:space="preserve" font-family="TrebuchetMS-Bold" font-weight="bold" font-size="32.0" fill="#000000" transform="matrix(1.00, 0.00, -0.00, -1.00, 155.2, 470.0)">a</text><text xml:space="preserve" font-family="TrebuchetMS-Bold" font-weight="bold" font-size="32.0" fill="#000000" transform="matrix(1.00, 0.00, -0.00, -1.00, 172.3, 470.0)">s</text><text xml:space="preserve" font-family="TrebuchetMS-Bold" font-weight="bold" font-size="32.0" fill="#000000" transform="matrix(1.00, 0.00, -0.00, -1.00, 186.0, 470.0)">u</text><text xml:space="preserve" font-family="TrebuchetMS-Bold" font-weight="bold" font-size="32.0" fill="#000000" transform="matrix(1.00, 0.00, -0.00, -1.00, 204.9, 470.0)">r</text><text xml:space="preserve" font-family="TrebuchetMS-Bold" font-weight="bold" font-size="32.0" fill="#000000" transform="matrix(1.00, 0.00, -0.00, -1.00, 218.6, 470.0)">i</text><text xml:space="preserve" font-family="TrebuchetMS-Bold" font-weight="bold" font-size="32.0" fill="#000000" transform="matrix(1.00, 0.00, -0.00, -1.00, 228.2, 470.0)">n</text><text xml:space="preserve" font-family="TrebuchetMS-Bold" font-weight="bold" font-size="32.0" fill="#000000" transform="matrix(1.00, 0.00, -0.00, -1.00, 247.1, 470.0)">g</text><text xml:space="preserve" font-family="TrebuchetMS-Bold" font-weight="bold" font-size="32.0" fill="#000000" transform="matrix(1.00, 0.00, -0.00, -1.00, 263.1, 470.0)"> </text><text xml:space="preserve" font-family="TrebuchetMS-Bold" font-weight="bold" font-size="32.0" fill="#000000" transform="matrix(1.00, 0.00, -0.00, -1.00, 272.8, 470.0)">S</text><text xml:space="preserve" font-family="TrebuchetMS-Bold" font-weight="bold" font-size="32.0" fill="#000000" transform="matrix(1.00, 0.00, -0.00, -1.00, 289.2, 470.0)">i</text><text xml:space="preserve" font-family="TrebuchetMS-Bold" font-weight="bold" font-size="32.0" fill="#000000" transform="matrix(1.00, 0.00, -0.00, -1.00, 298.7, 470.0)">g</text><text xml:space="preserve" font-family="TrebuchetMS-Bold" font-weight="bold" font-size="32.0" fill="#000000" transform="matrix(1.00, 0.00, -0.00, -1.00, 314.8, 470.0)">n</text><text xml:space="preserve" font-family="TrebuchetMS-Bold" font-weight="bold" font-size="32.0" fill="#000000" transform="matrix(1.00, 0.00, -0.00, -1.00, 333.7, 470.0)">a</text><text xml:space="preserve" font-family="TrebuchetMS-Bold" font-weight="bold" font-size="32.0" fill="#000000" transform="matrix(1.00, 0.00, -0.00, -1.00, 350.7, 470.0)">l</text></g></g><image xlink:href="../../BC75728B-7687-45CD-9C61-CC08C37E6F5D/assets/5D3AE6C864802F0CC118C87FB0C84F5B.png" width="240.00" height="95.00" transform="matrix(0.41, 0.00, -0.00, -0.41, 0.0, 502.0)"></image><image xlink:href="../../BC75728B-7687-45CD-9C61-CC08C37E6F5D/assets/6D8835745C7812B9191B39FDD8C55B36.jpeg" width="236.00" height="71.00" transform="matrix(0.40, 0.00, -0.00, -0.41, 0.0, 540.0)"></image><path d="M 0.0 0.0 L 720.0 0.0 " fill="none" stroke="#000000" stroke-width="2.00" stroke-linejoin="round" transform="matrix(-1.00, 0.00, 0.00, 1.00, 720.0, 454.6)"></path><path d="M 0.0 0.0 L 720.0 0.0 " fill="none" stroke="#000000" stroke-width="2.00" stroke-linejoin="round" transform="matrix(-1.00, 0.00, 0.00, 1.00, 720.0, 32.2)"></path><text xml:space="preserve" font-family="TrebuchetMS" font-size="18.0" fill="#000000" transform="matrix(1.00, 0.00, -0.00, -1.00, 80.0, 256.0)">M</text><text xml:space="preserve" font-family="TrebuchetMS" font-size="18.0" fill="#000000" transform="matrix(1.00, 0.00, -0.00, -1.00, 92.8, 256.0)">u</text><text xml:space="preserve" font-family="TrebuchetMS" font-size="18.0" fill="#000000" transform="matrix(1.00, 0.00, -0.00, -1.00, 102.6, 256.0)">l</text><text xml:space="preserve" font-family="TrebuchetMS" font-size="18.0" fill="#000000" transform="matrix(1.00, 0.00, -0.00, -1.00, 107.9, 256.0)">t</text><text xml:space="preserve" font-family="TrebuchetMS" font-size="18.0" fill="#000000" transform="matrix(1.00, 0.00, -0.00, -1.00, 115.1, 256.0)">i</text><text xml:space="preserve" font-family="TrebuchetMS" font-size="18.0" fill="#000000" transform="matrix(1.00, 0.00, -0.00, -1.00, 120.2, 256.0)">e</text><text xml:space="preserve" font-family="TrebuchetMS" font-size="18.0" fill="#000000" transform="matrix(1.00, 0.00, -0.00, -1.00, 130.0, 256.0)">c</text><text xml:space="preserve" font-family="TrebuchetMS" font-size="18.0" fill="#000000" transform="matrix(1.00, 0.00, -0.00, -1.00, 138.9, 256.0)">h</text><text xml:space="preserve" font-family="TrebuchetMS" font-size="18.0" fill="#000000" transform="matrix(1.00, 0.00, -0.00, -1.00, 148.8, 256.0)">o</text><text xml:space="preserve" font-family="TrebuchetMS" font-size="18.0" fill="#000000" transform="matrix(1.00, 0.00, -0.00, -1.00, 158.4, 256.0)"> </text><text xml:space="preserve" font-family="TrebuchetMS" font-size="18.0" fill="#000000" transform="matrix(1.00, 0.00, -0.00, -1.00, 163.9, 256.0)">S</text><text xml:space="preserve" font-family="TrebuchetMS" font-size="18.0" fill="#000000" transform="matrix(1.00, 0.00, -0.00, -1.00, 172.5, 256.0)">p</text><text xml:space="preserve" font-family="TrebuchetMS" font-size="18.0" fill="#000000" transform="matrix(1.00, 0.00, -0.00, -1.00, 182.6, 256.0)">i</text><text xml:space="preserve" font-family="TrebuchetMS" font-size="18.0" fill="#000000" transform="matrix(1.00, 0.00, -0.00, -1.00, 187.7, 256.0)">n</text><text xml:space="preserve" font-family="TrebuchetMS" font-size="18.0" fill="#000000" transform="matrix(1.00, 0.00, -0.00, -1.00, 197.5, 256.0)"> </text><text xml:space="preserve" font-family="TrebuchetMS" font-size="18.0" fill="#000000" transform="matrix(1.00, 0.00, -0.00, -1.00, 203.0, 256.0)">E</text><text xml:space="preserve" font-family="TrebuchetMS" font-size="18.0" fill="#000000" transform="matrix(1.00, 0.00, -0.00, -1.00, 212.6, 256.0)">c</text><text xml:space="preserve" font-family="TrebuchetMS" font-size="18.0" fill="#000000" transform="matrix(1.00, 0.00, -0.00, -1.00, 221.5, 256.0)">h</text><text xml:space="preserve" font-family="TrebuchetMS" font-size="18.0" fill="#000000" transform="matrix(1.00, 0.00, -0.00, -1.00, 231.4, 256.0)">o</text><text xml:space="preserve" font-family="TrebuchetMS" font-size="18.0" fill="#000000" transform="matrix(1.00, 0.00, -0.00, -1.00, 241.0, 256.0)"> </text><text xml:space="preserve" font-family="TrebuchetMS" font-size="18.0" fill="#000000" transform="matrix(1.00, 0.00, -0.00, -1.00, 246.4, 256.0)">:</text><text xml:space="preserve" font-family="TrebuchetMS" font-size="18.0" fill="#000000" transform="matrix(1.00, 0.00, -0.00, -1.00, 253.0, 256.0)"> </text><text xml:space="preserve" font-family="TrebuchetMS" font-size="18.0" fill="#000000" transform="matrix(1.00, 0.00, -0.00, -1.00, 258.5, 256.0)">R</text><text xml:space="preserve" font-family="TrebuchetMS" font-size="18.0" fill="#000000" transform="matrix(1.00, 0.00, -0.00, -1.00, 268.2, 256.0)">e</text><text xml:space="preserve" font-family="TrebuchetMS" font-size="18.0" fill="#000000" transform="matrix(1.00, 0.00, -0.00, -1.00, 278.0, 256.0)">f</text><text xml:space="preserve" font-family="TrebuchetMS" font-size="18.0" fill="#000000" transform="matrix(1.00, 0.00, -0.00, -1.00, 284.7, 256.0)">o</text><text xml:space="preserve" font-family="TrebuchetMS" font-size="18.0" fill="#000000" transform="matrix(1.00, 0.00, -0.00, -1.00, 294.3, 256.0)">c</text><text xml:space="preserve" font-family="TrebuchetMS" font-size="18.0" fill="#000000" transform="matrix(1.00, 0.00, -0.00, -1.00, 303.3, 256.0)">u</text><text xml:space="preserve" font-family="TrebuchetMS" font-size="18.0" fill="#000000" transform="matrix(1.00, 0.00, -0.00, -1.00, 313.1, 256.0)">s</text><text xml:space="preserve" font-family="TrebuchetMS" font-size="18.0" fill="#000000" transform="matrix(1.00, 0.00, -0.00, -1.00, 320.4, 256.0)">e</text><text xml:space="preserve" font-family="TrebuchetMS" font-size="18.0" fill="#000000" transform="matrix(1.00, 0.00, -0.00, -1.00, 330.2, 256.0)">s</text><text xml:space="preserve" font-family="TrebuchetMS" font-size="18.0" fill="#000000" transform="matrix(1.00, 0.00, -0.00, -1.00, 337.5, 256.0)"> </text><text xml:space="preserve" font-family="TrebuchetMS" font-size="18.0" fill="#000000" transform="matrix(1.00, 0.00, -0.00, -1.00, 342.9, 256.0)">f</text><text xml:space="preserve" font-family="TrebuchetMS" font-size="18.0" fill="#000000" transform="matrix(1.00, 0.00, -0.00, -1.00, 349.6, 256.0)">i</text><text xml:space="preserve" font-family="TrebuchetMS" font-size="18.0" fill="#000000" transform="matrix(1.00, 0.00, -0.00, -1.00, 354.7, 256.0)">e</text><text xml:space="preserve" font-family="TrebuchetMS" font-size="18.0" fill="#000000" transform="matrix(1.00, 0.00, -0.00, -1.00, 364.5, 256.0)">l</text><text xml:space="preserve" font-family="TrebuchetMS" font-size="18.0" fill="#000000" transform="matrix(1.00, 0.00, -0.00, -1.00, 369.8, 256.0)">d</text><text xml:space="preserve" font-family="TrebuchetMS" font-size="18.0" fill="#000000" transform="matrix(1.00, 0.00, -0.00, -1.00, 379.9, 256.0)"> </text><text xml:space="preserve" font-family="TrebuchetMS" font-size="18.0" fill="#000000" transform="matrix(1.00, 0.00, -0.00, -1.00, 385.3, 256.0)">i</text><text xml:space="preserve" font-family="TrebuchetMS" font-size="18.0" fill="#000000" transform="matrix(1.00, 0.00, -0.00, -1.00, 390.4, 256.0)">n</text><text xml:space="preserve" font-family="TrebuchetMS" font-size="18.0" fill="#000000" transform="matrix(1.00, 0.00, -0.00, -1.00, 400.3, 256.0)">h</text><text xml:space="preserve" font-family="TrebuchetMS" font-size="18.0" fill="#000000" transform="matrix(1.00, 0.00, -0.00, -1.00, 410.1, 256.0)">o</text><text xml:space="preserve" font-family="TrebuchetMS" font-size="18.0" fill="#000000" transform="matrix(1.00, 0.00, -0.00, -1.00, 419.8, 256.0)">m</text><text xml:space="preserve" font-family="TrebuchetMS" font-size="18.0" fill="#000000" transform="matrix(1.00, 0.00, -0.00, -1.00, 434.7, 256.0)">o</text><text xml:space="preserve" font-family="TrebuchetMS" font-size="18.0" fill="#000000" transform="matrix(1.00, 0.00, -0.00, -1.00, 444.4, 256.0)">g</text><text xml:space="preserve" font-family="TrebuchetMS" font-size="18.0" fill="#000000" transform="matrix(1.00, 0.00, -0.00, -1.00, 453.4, 256.0)">e</text><text xml:space="preserve" font-family="TrebuchetMS" font-size="18.0" fill="#000000" transform="matrix(1.00, 0.00, -0.00, -1.00, 463.2, 256.0)">n</text><text xml:space="preserve" font-family="TrebuchetMS" font-size="18.0" fill="#000000" transform="matrix(1.00, 0.00, -0.00, -1.00, 473.1, 256.0)">e</text><text xml:space="preserve" font-family="TrebuchetMS" font-size="18.0" fill="#000000" transform="matrix(1.00, 0.00, -0.00, -1.00, 482.9, 256.0)">i</text><text xml:space="preserve" font-family="TrebuchetMS" font-size="18.0" fill="#000000" transform="matrix(1.00, 0.00, -0.00, -1.00, 488.0, 256.0)">t</text><text xml:space="preserve" font-family="TrebuchetMS" font-size="18.0" fill="#000000" transform="matrix(1.00, 0.00, -0.00, -1.00, 495.2, 256.0)">i</text><text xml:space="preserve" font-family="TrebuchetMS" font-size="18.0" fill="#000000" transform="matrix(1.00, 0.00, -0.00, -1.00, 500.3, 256.0)">e</text><text xml:space="preserve" font-family="TrebuchetMS" font-size="18.0" fill="#000000" transform="matrix(1.00, 0.00, -0.00, -1.00, 510.1, 256.0)">s</text><text xml:space="preserve" font-family="TrebuchetMS" font-size="18.0" fill="#000000" transform="matrix(1.00, 0.00, -0.00, -1.00, 517.4, 256.0)"> </text><text xml:space="preserve" font-family="TrebuchetMS" font-size="18.0" fill="#000000" transform="matrix(1.00, 0.00, -0.00, -1.00, 522.8, 256.0)">t</text><text xml:space="preserve" font-family="TrebuchetMS" font-size="18.0" fill="#000000" transform="matrix(1.00, 0.00, -0.00, -1.00, 530.0, 256.0)">h</text><text xml:space="preserve" font-family="TrebuchetMS" font-size="18.0" fill="#000000" transform="matrix(1.00, 0.00, -0.00, -1.00, 539.8, 256.0)">a</text><text xml:space="preserve" font-family="TrebuchetMS" font-size="18.0" fill="#000000" transform="matrix(1.00, 0.00, -0.00, -1.00, 549.3, 256.0)">t</text><text xml:space="preserve" font-family="TrebuchetMS" font-size="18.0" fill="#000000" transform="matrix(1.00, 0.00, -0.00, -1.00, 556.4, 256.0)"> </text><text xml:space="preserve" font-family="TrebuchetMS" font-size="18.0" fill="#000000" transform="matrix(1.00, 0.00, -0.00, -1.00, 561.9, 256.0)">m</text><text xml:space="preserve" font-family="TrebuchetMS" font-size="18.0" fill="#000000" transform="matrix(1.00, 0.00, -0.00, -1.00, 576.8, 256.0)">i</text><text xml:space="preserve" font-family="TrebuchetMS" font-size="18.0" fill="#000000" transform="matrix(1.00, 0.00, -0.00, -1.00, 581.9, 256.0)">g</text><text xml:space="preserve" font-family="TrebuchetMS" font-size="18.0" fill="#000000" transform="matrix(1.00, 0.00, -0.00, -1.00, 591.0, 256.0)">h</text><text xml:space="preserve" font-family="TrebuchetMS" font-size="18.0" fill="#000000" transform="matrix(1.00, 0.00, -0.00, -1.00, 600.8, 256.0)">t</text><text xml:space="preserve" font-family="TrebuchetMS" font-size="18.0" fill="#000000" transform="matrix(1.00, 0.00, -0.00, -1.00, 608.0, 256.0)"> </text><text xml:space="preserve" font-family="TrebuchetMS" font-size="18.0" fill="#000000" transform="matrix(1.00, 0.00, -0.00, -1.00, 80.0, 235.0)">a</text><text xml:space="preserve" font-family="TrebuchetMS" font-size="18.0" fill="#000000" transform="matrix(1.00, 0.00, -0.00, -1.00, 89.5, 235.0)">r</text><text xml:space="preserve" font-family="TrebuchetMS" font-size="18.0" fill="#000000" transform="matrix(1.00, 0.00, -0.00, -1.00, 96.4, 235.0)">i</text><text xml:space="preserve" font-family="TrebuchetMS" font-size="18.0" fill="#000000" transform="matrix(1.00, 0.00, -0.00, -1.00, 101.6, 235.0)">s</text><text xml:space="preserve" font-family="TrebuchetMS" font-size="18.0" fill="#000000" transform="matrix(1.00, 0.00, -0.00, -1.00, 108.9, 235.0)">e</text><text xml:space="preserve" font-family="TrebuchetMS" font-size="18.0" fill="#000000" transform="matrix(1.00, 0.00, -0.00, -1.00, 118.7, 235.0)">.</text><path d="M 0.0 0.0 L 720.0 0.0 " fill="none" stroke="#000000" stroke-width="2.00" stroke-linejoin="round" transform="matrix(-1.00, 0.00, 0.00, 1.00, 720.0, 278.2)"></path><image xlink:href="../../D93149FF-959E-4809-A090-6097109DCF5C/assets/64C5FDE2DD06A102F2BD2EE260900686.png" width="284.00" height="207.00" transform="matrix(1.00, 0.00, -0.00, -1.00, 218.0, 239.0)"></image><text xml:space="preserve" font-family="TrebuchetMS" font-size="18.0" fill="#000000" transform="matrix(1.00, 0.00, -0.00, -1.00, 547.0, 48.0)">P</text><text xml:space="preserve" font-family="TrebuchetMS" font-size="18.0" fill="#000000" transform="matrix(1.00, 0.00, -0.00, -1.00, 556.2, 48.0)">o</text><text xml:space="preserve" font-family="TrebuchetMS" font-size="18.0" fill="#000000" transform="matrix(1.00, 0.00, -0.00, -1.00, 565.8, 48.0)">o</text><text xml:space="preserve" font-family="TrebuchetMS" font-size="18.0" fill="#000000" transform="matrix(1.00, 0.00, -0.00, -1.00, 575.5, 48.0)">l</text><text xml:space="preserve" font-family="TrebuchetMS" font-size="18.0" fill="#000000" transform="matrix(1.00, 0.00, -0.00, -1.00, 580.8, 48.0)">e</text><text xml:space="preserve" font-family="TrebuchetMS" font-size="18.0" fill="#000000" transform="matrix(1.00, 0.00, -0.00, -1.00, 590.6, 48.0)">y</text><text xml:space="preserve" font-family="TrebuchetMS" font-size="18.0" fill="#000000" transform="matrix(1.00, 0.00, -0.00, -1.00, 597.3, 48.0)">,</text><text xml:space="preserve" font-family="TrebuchetMS" font-size="18.0" fill="#000000" transform="matrix(1.00, 0.00, -0.00, -1.00, 603.9, 48.0)"> </text><text xml:space="preserve" font-family="TrebuchetMS" font-size="18.0" fill="#000000" transform="matrix(1.00, 0.00, -0.00, -1.00, 609.4, 48.0)"> </text><text xml:space="preserve" font-family="TrebuchetMS" font-size="18.0" fill="#000000" transform="matrix(1.00, 0.00, -0.00, -1.00, 614.8, 48.0)">2</text><text xml:space="preserve" font-family="TrebuchetMS" font-size="18.0" fill="#000000" transform="matrix(1.00, 0.00, -0.00, -1.00, 624.2, 48.0)">0</text><text xml:space="preserve" font-family="TrebuchetMS" font-size="18.0" fill="#000000" transform="matrix(1.00, 0.00, -0.00, -1.00, 633.7, 48.0)">0</text><text xml:space="preserve" font-family="TrebuchetMS" font-size="18.0" fill="#000000" transform="matrix(1.00, 0.00, -0.00, -1.00, 643.2, 48.0)">5</text><text xml:space="preserve" font-family="TrebuchetMS" font-size="18.0" fill="#000000" transform="matrix(1.00, 0.00, -0.00, -1.00, 652.6, 48.0)">.</text><text xml:space="preserve" font-family="TrebuchetMS" font-size="18.0" fill="#000000" transform="matrix(1.00, 0.00, -0.00, -1.00, 659.2, 48.0)"> </text><text xml:space="preserve" font-family="TrebuchetMS" font-size="18.0" fill="#000000" transform="matrix(1.00, 0.00, -0.00, -1.00, 664.7, 48.0)"> </text></g></svg>