<?xml version="1.0" encoding="UTF-8" standalone="no"?><svg xmlns="http://www.w3.org/2000/svg" xmlns:xlink="http://www.w3.org/1999/xlink" clip-rule="evenodd" stroke-miterlimit="4.00" viewBox="0 0 720 540"><desc>SVG generated by Keynote</desc><defs></defs><g transform="matrix(1.00, 0.00, -0.00, -1.00, 0.0, 540.0)"><path d="M 0.0 540.0 L 720.0 540.0 L 720.0 0.0 L 0.0 0.0 Z M 0.0 540.0 " fill="#FFFFFF"></path><image xlink:href="../../82AFB8F8-CDF7-4BEB-B452-96CF232CA04A/assets/4485473B74D3238D2E1800F48044B503.jpeg" width="144.00" height="144.00" transform="matrix(1.00, 0.00, -0.00, -1.00, 24.0, 348.0)"></image><image xlink:href="../../82AFB8F8-CDF7-4BEB-B452-96CF232CA04A/assets/175CD4ADD1405AE8B9808B046FD88C19.jpeg" width="144.00" height="144.00" transform="matrix(1.00, 0.00, -0.00, -1.00, 192.0, 432.0)"></image><image xlink:href="../../82AFB8F8-CDF7-4BEB-B452-96CF232CA04A/assets/63B7D950CC2EC2CA16D2A19D924E3712.jpeg" width="144.00" height="144.00" transform="matrix(1.00, 0.00, -0.00, -1.00, 360.0, 432.0)"></image><image xlink:href="../../82AFB8F8-CDF7-4BEB-B452-96CF232CA04A/assets/42B24796CC6E70A0A90B3A2150DDE5B7.jpeg" width="144.00" height="144.00" transform="matrix(1.00, 0.00, -0.00, -1.00, 528.0, 432.0)"></image><image xlink:href="../../82AFB8F8-CDF7-4BEB-B452-96CF232CA04A/assets/388CA3CD1DA1FF333C449E7089F78643.jpeg" width="144.00" height="144.00" transform="matrix(1.00, 0.00, -0.00, -1.00, 192.0, 246.0)"></image><image xlink:href="../../82AFB8F8-CDF7-4BEB-B452-96CF232CA04A/assets/1E62920EABEC62112FA60C4214B9E9DF.jpeg" width="144.00" height="144.00" transform="matrix(1.00, 0.00, -0.00, -1.00, 360.0, 246.0)"></image><image xlink:href="../../82AFB8F8-CDF7-4BEB-B452-96CF232CA04A/assets/82F9AA709D07E25FB1DDDEFF2344E9ED.jpeg" width="144.00" height="144.00" transform="matrix(1.00, 0.00, -0.00, -1.00, 528.0, 246.0)"></image><text xml:space="preserve" font-family="ArialMT" font-size="14.0" fill="#1B1B1B" transform="matrix(1.00, 0.00, -0.00, -1.00, 82.0, 176.0)">b</text><text xml:space="preserve" font-family="ArialMT" font-size="14.0" fill="#1B1B1B" transform="matrix(1.00, 0.00, -0.00, -1.00, 89.8, 176.0)">0</text><text xml:space="preserve" font-family="ArialMT" font-size="14.0" fill="#1B1B1B" transform="matrix(1.00, 0.00, -0.00, -1.00, 406.0, 266.0)">(</text><text xml:space="preserve" font-family="ArialMT" font-size="14.0" fill="#1B1B1B" transform="matrix(1.00, 0.00, -0.00, -1.00, 410.7, 266.0)">1</text><text xml:space="preserve" font-family="ArialMT" font-size="14.0" fill="#1B1B1B" transform="matrix(1.00, 0.00, -0.00, -1.00, 418.5, 266.0)">,</text><text xml:space="preserve" font-family="ArialMT" font-size="14.0" fill="#1B1B1B" transform="matrix(1.00, 0.00, -0.00, -1.00, 422.3, 266.0)">0</text><text xml:space="preserve" font-family="ArialMT" font-size="14.0" fill="#1B1B1B" transform="matrix(1.00, 0.00, -0.00, -1.00, 430.1, 266.0)">,</text><text xml:space="preserve" font-family="ArialMT" font-size="14.0" fill="#1B1B1B" transform="matrix(1.00, 0.00, -0.00, -1.00, 434.0, 266.0)">1</text><text xml:space="preserve" font-family="ArialMT" font-size="14.0" fill="#1B1B1B" transform="matrix(1.00, 0.00, -0.00, -1.00, 441.8, 266.0)">)</text><text xml:space="preserve" font-family="ArialMT" font-size="14.0" fill="#1B1B1B" transform="matrix(1.00, 0.00, -0.00, -1.00, 232.0, 266.0)">(</text><text xml:space="preserve" font-family="ArialMT" font-size="14.0" fill="#1B1B1B" transform="matrix(1.00, 0.00, -0.00, -1.00, 236.7, 266.0)">1</text><text xml:space="preserve" font-family="ArialMT" font-size="14.0" fill="#1B1B1B" transform="matrix(1.00, 0.00, -0.00, -1.00, 244.5, 266.0)">,</text><text xml:space="preserve" font-family="ArialMT" font-size="14.0" fill="#1B1B1B" transform="matrix(1.00, 0.00, -0.00, -1.00, 248.3, 266.0)">1</text><text xml:space="preserve" font-family="ArialMT" font-size="14.0" fill="#1B1B1B" transform="matrix(1.00, 0.00, -0.00, -1.00, 256.1, 266.0)">,</text><text xml:space="preserve" font-family="ArialMT" font-size="14.0" fill="#1B1B1B" transform="matrix(1.00, 0.00, -0.00, -1.00, 260.0, 266.0)">0</text><text xml:space="preserve" font-family="ArialMT" font-size="14.0" fill="#1B1B1B" transform="matrix(1.00, 0.00, -0.00, -1.00, 267.8, 266.0)">)</text><text xml:space="preserve" font-family="ArialMT" font-size="14.0" fill="#1B1B1B" transform="matrix(1.00, 0.00, -0.00, -1.00, 574.0, 266.0)">(</text><text xml:space="preserve" font-family="ArialMT" font-size="14.0" fill="#1B1B1B" transform="matrix(1.00, 0.00, -0.00, -1.00, 578.7, 266.0)">0</text><text xml:space="preserve" font-family="ArialMT" font-size="14.0" fill="#1B1B1B" transform="matrix(1.00, 0.00, -0.00, -1.00, 586.5, 266.0)">,</text><text xml:space="preserve" font-family="ArialMT" font-size="14.0" fill="#1B1B1B" transform="matrix(1.00, 0.00, -0.00, -1.00, 590.3, 266.0)">1</text><text xml:space="preserve" font-family="ArialMT" font-size="14.0" fill="#1B1B1B" transform="matrix(1.00, 0.00, -0.00, -1.00, 598.1, 266.0)">,</text><text xml:space="preserve" font-family="ArialMT" font-size="14.0" fill="#1B1B1B" transform="matrix(1.00, 0.00, -0.00, -1.00, 602.0, 266.0)">1</text><text xml:space="preserve" font-family="ArialMT" font-size="14.0" fill="#1B1B1B" transform="matrix(1.00, 0.00, -0.00, -1.00, 609.8, 266.0)">)</text><text xml:space="preserve" font-family="ArialMT" font-size="14.0" fill="#1B1B1B" transform="matrix(1.00, 0.00, -0.00, -1.00, 406.0, 80.0)">(</text><text xml:space="preserve" font-family="ArialMT" font-size="14.0" fill="#1B1B1B" transform="matrix(1.00, 0.00, -0.00, -1.00, 410.7, 80.0)">-</text><text xml:space="preserve" font-family="ArialMT" font-size="14.0" fill="#1B1B1B" transform="matrix(1.00, 0.00, -0.00, -1.00, 415.3, 80.0)">1</text><text xml:space="preserve" font-family="ArialMT" font-size="14.0" fill="#1B1B1B" transform="matrix(1.00, 0.00, -0.00, -1.00, 423.1, 80.0)">,</text><text xml:space="preserve" font-family="ArialMT" font-size="14.0" fill="#1B1B1B" transform="matrix(1.00, 0.00, -0.00, -1.00, 427.0, 80.0)">0</text><text xml:space="preserve" font-family="ArialMT" font-size="14.0" fill="#1B1B1B" transform="matrix(1.00, 0.00, -0.00, -1.00, 434.8, 80.0)">,</text><text xml:space="preserve" font-family="ArialMT" font-size="14.0" fill="#1B1B1B" transform="matrix(1.00, 0.00, -0.00, -1.00, 438.7, 80.0)">1</text><text xml:space="preserve" font-family="ArialMT" font-size="14.0" fill="#1B1B1B" transform="matrix(1.00, 0.00, -0.00, -1.00, 446.5, 80.0)">)</text><text xml:space="preserve" font-family="ArialMT" font-size="14.0" fill="#1B1B1B" transform="matrix(1.00, 0.00, -0.00, -1.00, 232.0, 80.0)">(</text><text xml:space="preserve" font-family="ArialMT" font-size="14.0" fill="#1B1B1B" transform="matrix(1.00, 0.00, -0.00, -1.00, 236.7, 80.0)">-</text><text xml:space="preserve" font-family="ArialMT" font-size="14.0" fill="#1B1B1B" transform="matrix(1.00, 0.00, -0.00, -1.00, 241.3, 80.0)">1</text><text xml:space="preserve" font-family="ArialMT" font-size="14.0" fill="#1B1B1B" transform="matrix(1.00, 0.00, -0.00, -1.00, 249.1, 80.0)">,</text><text xml:space="preserve" font-family="ArialMT" font-size="14.0" fill="#1B1B1B" transform="matrix(1.00, 0.00, -0.00, -1.00, 253.0, 80.0)">1</text><text xml:space="preserve" font-family="ArialMT" font-size="14.0" fill="#1B1B1B" transform="matrix(1.00, 0.00, -0.00, -1.00, 260.8, 80.0)">,</text><text xml:space="preserve" font-family="ArialMT" font-size="14.0" fill="#1B1B1B" transform="matrix(1.00, 0.00, -0.00, -1.00, 264.7, 80.0)">0</text><text xml:space="preserve" font-family="ArialMT" font-size="14.0" fill="#1B1B1B" transform="matrix(1.00, 0.00, -0.00, -1.00, 272.5, 80.0)">)</text><text xml:space="preserve" font-family="ArialMT" font-size="14.0" fill="#1B1B1B" transform="matrix(1.00, 0.00, -0.00, -1.00, 574.0, 80.0)">(</text><text xml:space="preserve" font-family="ArialMT" font-size="14.0" fill="#1B1B1B" transform="matrix(1.00, 0.00, -0.00, -1.00, 578.7, 80.0)">0</text><text xml:space="preserve" font-family="ArialMT" font-size="14.0" fill="#1B1B1B" transform="matrix(1.00, 0.00, -0.00, -1.00, 586.5, 80.0)">,</text><text xml:space="preserve" font-family="ArialMT" font-size="14.0" fill="#1B1B1B" transform="matrix(1.00, 0.00, -0.00, -1.00, 590.3, 80.0)">1</text><text xml:space="preserve" font-family="ArialMT" font-size="14.0" fill="#1B1B1B" transform="matrix(1.00, 0.00, -0.00, -1.00, 598.1, 80.0)">,</text><text xml:space="preserve" font-family="ArialMT" font-size="14.0" fill="#1B1B1B" transform="matrix(1.00, 0.00, -0.00, -1.00, 602.0, 80.0)">-</text><text xml:space="preserve" font-family="ArialMT" font-size="14.0" fill="#1B1B1B" transform="matrix(1.00, 0.00, -0.00, -1.00, 606.7, 80.0)">1</text><text xml:space="preserve" font-family="ArialMT" font-size="14.0" fill="#1B1B1B" transform="matrix(1.00, 0.00, -0.00, -1.00, 614.5, 80.0)">)</text><text xml:space="preserve" font-family="ArialMT" font-size="14.0" fill="#1B1B1B" transform="matrix(1.00, 0.00, -0.00, -1.00, 358.0, 458.0)">b</text><text xml:space="preserve" font-family="ArialMT" font-size="14.0" fill="#1B1B1B" transform="matrix(1.00, 0.00, -0.00, -1.00, 365.8, 458.0)"> </text><text xml:space="preserve" font-family="ArialMT" font-size="14.0" fill="#1B1B1B" transform="matrix(1.00, 0.00, -0.00, -1.00, 369.7, 458.0)">=</text><text xml:space="preserve" font-family="ArialMT" font-size="14.0" fill="#1B1B1B" transform="matrix(1.00, 0.00, -0.00, -1.00, 377.9, 458.0)"> </text><text xml:space="preserve" font-family="ArialMT" font-size="14.0" fill="#1B1B1B" transform="matrix(1.00, 0.00, -0.00, -1.00, 381.7, 458.0)">4</text><text xml:space="preserve" font-family="ArialMT" font-size="14.0" fill="#1B1B1B" transform="matrix(1.00, 0.00, -0.00, -1.00, 389.5, 458.0)">3</text><text xml:space="preserve" font-family="ArialMT" font-size="14.0" fill="#1B1B1B" transform="matrix(1.00, 0.00, -0.00, -1.00, 397.3, 458.0)">0</text><text xml:space="preserve" font-family="ArialMT" font-size="14.0" fill="#1B1B1B" transform="matrix(1.00, 0.00, -0.00, -1.00, 405.1, 458.0)">9</text><text xml:space="preserve" font-family="ArialMT" font-size="14.0" fill="#1B1B1B" transform="matrix(1.00, 0.00, -0.00, -1.00, 412.9, 458.0)"> </text><text xml:space="preserve" font-family="ArialMT" font-size="14.0" fill="#1B1B1B" transform="matrix(1.00, 0.00, -0.00, -1.00, 416.8, 458.0)">s</text><text xml:space="preserve" font-family="ArialMT" font-size="14.0" fill="#1B1B1B" transform="matrix(1.00, 0.00, -0.00, -1.00, 423.8, 458.0)">/</text><text xml:space="preserve" font-family="ArialMT" font-size="14.0" fill="#1B1B1B" transform="matrix(1.00, 0.00, -0.00, -1.00, 427.7, 458.0)">m</text><text xml:space="preserve" font-family="ArialMT" font-size="14.0" fill="#1B1B1B" transform="matrix(1.00, 0.00, -0.00, -1.00, 439.3, 458.0)">m</text><text xml:space="preserve" font-family="ArialMT" font-size="9.3" fill="#1B1B1B" transform="matrix(1.00, 0.00, -0.00, -1.00, 451.0, 461.9)">2</text><g><clipPath id="clip-5210"><path d="M -1.0 485.0 L 721.0 485.0 L 721.0 541.0 L -1.0 541.0 Z M -1.0 485.0 "></path></clipPath><g clip-path="url(#clip-5210)"><path d="M -0.0 540.0 L 720.0 540.0 L 720.0 486.0 L -0.0 486.0 Z M -0.0 540.0 " fill="#93B3D7"></path></g></g><g><clipPath id="clip-5211"><path d="M -5.7 490.1 L 725.7 490.1 L 725.7 545.7 L -5.7 545.7 Z M -5.7 490.1 "></path></clipPath><g clip-path="url(#clip-5211)"><text xml:space="preserve" font-family="TrebuchetMS-Bold" font-weight="bold" font-size="32.0" fill="#000000" transform="matrix(1.00, 0.00, -0.00, -1.00, 4.0, 507.0)">D</text><text xml:space="preserve" font-family="TrebuchetMS-Bold" font-weight="bold" font-size="32.0" fill="#000000" transform="matrix(1.00, 0.00, -0.00, -1.00, 24.5, 507.0)">i</text><text xml:space="preserve" font-family="TrebuchetMS-Bold" font-weight="bold" font-size="32.0" fill="#000000" transform="matrix(1.00, 0.00, -0.00, -1.00, 34.1, 507.0)">f</text><text xml:space="preserve" font-family="TrebuchetMS-Bold" font-weight="bold" font-size="32.0" fill="#000000" transform="matrix(1.00, 0.00, -0.00, -1.00, 45.9, 507.0)">f</text><text xml:space="preserve" font-family="TrebuchetMS-Bold" font-weight="bold" font-size="32.0" fill="#000000" transform="matrix(1.00, 0.00, -0.00, -1.00, 57.7, 507.0)">u</text><text xml:space="preserve" font-family="TrebuchetMS-Bold" font-weight="bold" font-size="32.0" fill="#000000" transform="matrix(1.00, 0.00, -0.00, -1.00, 76.6, 507.0)">s</text><text xml:space="preserve" font-family="TrebuchetMS-Bold" font-weight="bold" font-size="32.0" fill="#000000" transform="matrix(1.00, 0.00, -0.00, -1.00, 90.4, 507.0)">i</text><text xml:space="preserve" font-family="TrebuchetMS-Bold" font-weight="bold" font-size="32.0" fill="#000000" transform="matrix(1.00, 0.00, -0.00, -1.00, 100.0, 507.0)">o</text><text xml:space="preserve" font-family="TrebuchetMS-Bold" font-weight="bold" font-size="32.0" fill="#000000" transform="matrix(1.00, 0.00, -0.00, -1.00, 118.1, 507.0)">n</text><text xml:space="preserve" font-family="TrebuchetMS-Bold" font-weight="bold" font-size="32.0" fill="#000000" transform="matrix(1.00, 0.00, -0.00, -1.00, 137.0, 507.0)"> </text><text xml:space="preserve" font-family="TrebuchetMS-Bold" font-weight="bold" font-size="32.0" fill="#000000" transform="matrix(1.00, 0.00, -0.00, -1.00, 146.0, 507.0)">T</text><text xml:space="preserve" font-family="TrebuchetMS-Bold" font-weight="bold" font-size="32.0" fill="#000000" transform="matrix(1.00, 0.00, -0.00, -1.00, 162.1, 507.0)">e</text><text xml:space="preserve" font-family="TrebuchetMS-Bold" font-weight="bold" font-size="32.0" fill="#000000" transform="matrix(1.00, 0.00, -0.00, -1.00, 180.4, 507.0)">n</text><text xml:space="preserve" font-family="TrebuchetMS-Bold" font-weight="bold" font-size="32.0" fill="#000000" transform="matrix(1.00, 0.00, -0.00, -1.00, 199.3, 507.0)">s</text><text xml:space="preserve" font-family="TrebuchetMS-Bold" font-weight="bold" font-size="32.0" fill="#000000" transform="matrix(1.00, 0.00, -0.00, -1.00, 213.1, 507.0)">o</text><text xml:space="preserve" font-family="TrebuchetMS-Bold" font-weight="bold" font-size="32.0" fill="#000000" transform="matrix(1.00, 0.00, -0.00, -1.00, 231.2, 507.0)">r</text><text xml:space="preserve" font-family="TrebuchetMS-Bold" font-weight="bold" font-size="32.0" fill="#000000" transform="matrix(1.00, 0.00, -0.00, -1.00, 244.9, 507.0)"> </text><text xml:space="preserve" font-family="TrebuchetMS-Bold" font-weight="bold" font-size="32.0" fill="#000000" transform="matrix(1.00, 0.00, -0.00, -1.00, 254.6, 507.0)">I</text><text xml:space="preserve" font-family="TrebuchetMS-Bold" font-weight="bold" font-size="32.0" fill="#000000" transform="matrix(1.00, 0.00, -0.00, -1.00, 263.5, 507.0)">m</text><text xml:space="preserve" font-family="TrebuchetMS-Bold" font-weight="bold" font-size="32.0" fill="#000000" transform="matrix(1.00, 0.00, -0.00, -1.00, 291.0, 507.0)">a</text><text xml:space="preserve" font-family="TrebuchetMS-Bold" font-weight="bold" font-size="32.0" fill="#000000" transform="matrix(1.00, 0.00, -0.00, -1.00, 308.0, 507.0)">g</text><text xml:space="preserve" font-family="TrebuchetMS-Bold" font-weight="bold" font-size="32.0" fill="#000000" transform="matrix(1.00, 0.00, -0.00, -1.00, 324.1, 507.0)">i</text><text xml:space="preserve" font-family="TrebuchetMS-Bold" font-weight="bold" font-size="32.0" fill="#000000" transform="matrix(1.00, 0.00, -0.00, -1.00, 333.6, 507.0)">n</text><text xml:space="preserve" font-family="TrebuchetMS-Bold" font-weight="bold" font-size="32.0" fill="#000000" transform="matrix(1.00, 0.00, -0.00, -1.00, 352.5, 507.0)">g</text></g></g><path d="M 0.0 0.0 L 720.0 0.0 " fill="none" stroke="#000000" stroke-width="2.00" stroke-linejoin="round" transform="matrix(-1.00, 0.00, 0.00, 1.00, 720.0, 485.8)"></path></g></svg>