<?xml version="1.0" encoding="UTF-8" standalone="no"?><svg xmlns="http://www.w3.org/2000/svg" xmlns:xlink="http://www.w3.org/1999/xlink" clip-rule="evenodd" stroke-miterlimit="4.00" viewBox="0 0 720 540"><desc>SVG generated by Keynote</desc><defs></defs><g transform="matrix(1.00, 0.00, -0.00, -1.00, 0.0, 540.0)"><path d="M 0.0 540.0 L 720.0 540.0 L 720.0 0.0 L 0.0 0.0 Z M 0.0 540.0 " fill="#FFFFFF"></path><text xml:space="preserve" font-family="ArialMT" font-size="32.0" fill="#000000" transform="matrix(1.00, 0.00, -0.00, -1.00, 59.2, 377.1)">•</text><text xml:space="preserve" font-family="TrebuchetMS" font-size="32.0" fill="#000000" transform="matrix(1.00, 0.00, -0.00, -1.00, 70.0, 377.0)">S</text><text xml:space="preserve" font-family="TrebuchetMS" font-size="32.0" fill="#000000" transform="matrix(1.00, 0.00, -0.00, -1.00, 85.4, 377.0)">e</text><text xml:space="preserve" font-family="TrebuchetMS" font-size="32.0" fill="#000000" transform="matrix(1.00, 0.00, -0.00, -1.00, 102.9, 377.0)">r</text><text xml:space="preserve" font-family="TrebuchetMS" font-size="32.0" fill="#000000" transform="matrix(1.00, 0.00, -0.00, -1.00, 115.3, 377.0)">i</text><text xml:space="preserve" font-family="TrebuchetMS" font-size="32.0" fill="#000000" transform="matrix(1.00, 0.00, -0.00, -1.00, 124.4, 377.0)">a</text><text xml:space="preserve" font-family="TrebuchetMS" font-size="32.0" fill="#000000" transform="matrix(1.00, 0.00, -0.00, -1.00, 141.2, 377.0)">l</text><text xml:space="preserve" font-family="TrebuchetMS" font-size="32.0" fill="#000000" transform="matrix(1.00, 0.00, -0.00, -1.00, 150.7, 377.0)"> </text><text xml:space="preserve" font-family="TrebuchetMS" font-size="32.0" fill="#000000" transform="matrix(1.00, 0.00, -0.00, -1.00, 160.3, 377.0)">S</text><text xml:space="preserve" font-family="TrebuchetMS" font-size="32.0" fill="#000000" transform="matrix(1.00, 0.00, -0.00, -1.00, 175.7, 377.0)">c</text><text xml:space="preserve" font-family="TrebuchetMS" font-size="32.0" fill="#000000" transform="matrix(1.00, 0.00, -0.00, -1.00, 191.6, 377.0)">a</text><text xml:space="preserve" font-family="TrebuchetMS" font-size="32.0" fill="#000000" transform="matrix(1.00, 0.00, -0.00, -1.00, 208.4, 377.0)">n</text><text xml:space="preserve" font-family="TrebuchetMS" font-size="32.0" fill="#000000" transform="matrix(1.00, 0.00, -0.00, -1.00, 225.9, 377.0)">n</text><text xml:space="preserve" font-family="TrebuchetMS" font-size="32.0" fill="#000000" transform="matrix(1.00, 0.00, -0.00, -1.00, 243.4, 377.0)">i</text><text xml:space="preserve" font-family="TrebuchetMS" font-size="32.0" fill="#000000" transform="matrix(1.00, 0.00, -0.00, -1.00, 252.5, 377.0)">n</text><text xml:space="preserve" font-family="TrebuchetMS" font-size="32.0" fill="#000000" transform="matrix(1.00, 0.00, -0.00, -1.00, 270.0, 377.0)">g</text><text xml:space="preserve" font-family="TrebuchetMS" font-size="32.0" fill="#000000" transform="matrix(1.00, 0.00, -0.00, -1.00, 286.1, 377.0)"> </text><text xml:space="preserve" font-family="TrebuchetMS" font-size="32.0" fill="#000000" transform="matrix(1.00, 0.00, -0.00, -1.00, 295.1, 377.0)">T</text><text xml:space="preserve" font-family="TrebuchetMS" font-size="32.0" fill="#000000" transform="matrix(1.00, 0.00, -0.00, -1.00, 309.3, 377.0)">w</text><text xml:space="preserve" font-family="TrebuchetMS" font-size="32.0" fill="#000000" transform="matrix(1.00, 0.00, -0.00, -1.00, 333.1, 377.0)">o</text><text xml:space="preserve" font-family="TrebuchetMS" font-size="32.0" fill="#000000" transform="matrix(1.00, 0.00, -0.00, -1.00, 350.3, 377.0)"> </text><text xml:space="preserve" font-family="TrebuchetMS" font-size="32.0" fill="#000000" transform="matrix(1.00, 0.00, -0.00, -1.00, 359.9, 377.0)">P</text><text xml:space="preserve" font-family="TrebuchetMS" font-size="32.0" fill="#000000" transform="matrix(1.00, 0.00, -0.00, -1.00, 376.2, 377.0)">h</text><text xml:space="preserve" font-family="TrebuchetMS" font-size="32.0" fill="#000000" transform="matrix(1.00, 0.00, -0.00, -1.00, 393.7, 377.0)">o</text><text xml:space="preserve" font-family="TrebuchetMS" font-size="32.0" fill="#000000" transform="matrix(1.00, 0.00, -0.00, -1.00, 410.9, 377.0)">t</text><text xml:space="preserve" font-family="TrebuchetMS" font-size="32.0" fill="#000000" transform="matrix(1.00, 0.00, -0.00, -1.00, 423.6, 377.0)">o</text><text xml:space="preserve" font-family="TrebuchetMS" font-size="32.0" fill="#000000" transform="matrix(1.00, 0.00, -0.00, -1.00, 440.8, 377.0)">n</text><text xml:space="preserve" font-family="TrebuchetMS" font-size="32.0" fill="#000000" transform="matrix(1.00, 0.00, -0.00, -1.00, 458.3, 377.0)"> </text><text xml:space="preserve" font-family="TrebuchetMS" font-size="32.0" fill="#000000" transform="matrix(1.00, 0.00, -0.00, -1.00, 467.9, 377.0)">M</text><text xml:space="preserve" font-family="TrebuchetMS" font-size="32.0" fill="#000000" transform="matrix(1.00, 0.00, -0.00, -1.00, 490.6, 377.0)">i</text><text xml:space="preserve" font-family="TrebuchetMS" font-size="32.0" fill="#000000" transform="matrix(1.00, 0.00, -0.00, -1.00, 499.8, 377.0)">c</text><text xml:space="preserve" font-family="TrebuchetMS" font-size="32.0" fill="#000000" transform="matrix(1.00, 0.00, -0.00, -1.00, 515.6, 377.0)">r</text><text xml:space="preserve" font-family="TrebuchetMS" font-size="32.0" fill="#000000" transform="matrix(1.00, 0.00, -0.00, -1.00, 528.0, 377.0)">o</text><text xml:space="preserve" font-family="TrebuchetMS" font-size="32.0" fill="#000000" transform="matrix(1.00, 0.00, -0.00, -1.00, 545.2, 377.0)">s</text><text xml:space="preserve" font-family="TrebuchetMS" font-size="32.0" fill="#000000" transform="matrix(1.00, 0.00, -0.00, -1.00, 558.1, 377.0)">c</text><text xml:space="preserve" font-family="TrebuchetMS" font-size="32.0" fill="#000000" transform="matrix(1.00, 0.00, -0.00, -1.00, 574.0, 377.0)">o</text><text xml:space="preserve" font-family="TrebuchetMS" font-size="32.0" fill="#000000" transform="matrix(1.00, 0.00, -0.00, -1.00, 591.1, 377.0)">p</text><text xml:space="preserve" font-family="TrebuchetMS" font-size="32.0" fill="#000000" transform="matrix(1.00, 0.00, -0.00, -1.00, 609.0, 377.0)">e</text><text xml:space="preserve" font-family="TrebuchetMS" font-size="32.0" fill="#000000" transform="matrix(1.00, 0.00, -0.00, -1.00, 626.4, 377.0)"> </text><text xml:space="preserve" font-family="ArialMT" font-size="28.0" fill="#000000" transform="matrix(1.00, 0.00, -0.00, -1.00, 93.2, 339.2)">–</text><text xml:space="preserve" font-family="TrebuchetMS" font-size="28.0" fill="#000000" transform="matrix(1.00, 0.00, -0.00, -1.00, 109.0, 339.0)">F</text><text xml:space="preserve" font-family="TrebuchetMS" font-size="28.0" fill="#000000" transform="matrix(1.00, 0.00, -0.00, -1.00, 123.7, 339.0)">u</text><text xml:space="preserve" font-family="TrebuchetMS" font-size="28.0" fill="#000000" transform="matrix(1.00, 0.00, -0.00, -1.00, 139.0, 339.0)">l</text><text xml:space="preserve" font-family="TrebuchetMS" font-size="28.0" fill="#000000" transform="matrix(1.00, 0.00, -0.00, -1.00, 147.3, 339.0)">l</text><text xml:space="preserve" font-family="TrebuchetMS" font-size="28.0" fill="#000000" transform="matrix(1.00, 0.00, -0.00, -1.00, 155.5, 339.0)"> </text><text xml:space="preserve" font-family="TrebuchetMS" font-size="28.0" fill="#000000" transform="matrix(1.00, 0.00, -0.00, -1.00, 164.0, 339.0)">b</text><text xml:space="preserve" font-family="TrebuchetMS" font-size="28.0" fill="#000000" transform="matrix(1.00, 0.00, -0.00, -1.00, 179.6, 339.0)">r</text><text xml:space="preserve" font-family="TrebuchetMS" font-size="28.0" fill="#000000" transform="matrix(1.00, 0.00, -0.00, -1.00, 190.4, 339.0)">a</text><text xml:space="preserve" font-family="TrebuchetMS" font-size="28.0" fill="#000000" transform="matrix(1.00, 0.00, -0.00, -1.00, 205.2, 339.0)">i</text><text xml:space="preserve" font-family="TrebuchetMS" font-size="28.0" fill="#000000" transform="matrix(1.00, 0.00, -0.00, -1.00, 213.1, 339.0)">n</text><text xml:space="preserve" font-family="TrebuchetMS" font-size="28.0" fill="#000000" transform="matrix(1.00, 0.00, -0.00, -1.00, 228.5, 339.0)"> </text><text xml:space="preserve" font-family="TrebuchetMS" font-size="28.0" fill="#000000" transform="matrix(1.00, 0.00, -0.00, -1.00, 236.9, 339.0)">c</text><text xml:space="preserve" font-family="TrebuchetMS" font-size="28.0" fill="#000000" transform="matrix(1.00, 0.00, -0.00, -1.00, 250.8, 339.0)">o</text><text xml:space="preserve" font-family="TrebuchetMS" font-size="28.0" fill="#000000" transform="matrix(1.00, 0.00, -0.00, -1.00, 265.8, 339.0)">v</text><text xml:space="preserve" font-family="TrebuchetMS" font-size="28.0" fill="#000000" transform="matrix(1.00, 0.00, -0.00, -1.00, 279.5, 339.0)">e</text><text xml:space="preserve" font-family="TrebuchetMS" font-size="28.0" fill="#000000" transform="matrix(1.00, 0.00, -0.00, -1.00, 294.8, 339.0)">r</text><text xml:space="preserve" font-family="TrebuchetMS" font-size="28.0" fill="#000000" transform="matrix(1.00, 0.00, -0.00, -1.00, 305.6, 339.0)">a</text><text xml:space="preserve" font-family="TrebuchetMS" font-size="28.0" fill="#000000" transform="matrix(1.00, 0.00, -0.00, -1.00, 320.4, 339.0)">g</text><text xml:space="preserve" font-family="TrebuchetMS" font-size="28.0" fill="#000000" transform="matrix(1.00, 0.00, -0.00, -1.00, 334.4, 339.0)">e</text><text xml:space="preserve" font-family="TrebuchetMS" font-size="28.0" fill="#000000" transform="matrix(1.00, 0.00, -0.00, -1.00, 349.7, 339.0)"> </text><text xml:space="preserve" font-family="TrebuchetMS" font-size="28.0" fill="#000000" transform="matrix(1.00, 0.00, -0.00, -1.00, 358.1, 339.0)">i</text><text xml:space="preserve" font-family="TrebuchetMS" font-size="28.0" fill="#000000" transform="matrix(1.00, 0.00, -0.00, -1.00, 366.1, 339.0)">n</text><text xml:space="preserve" font-family="TrebuchetMS" font-size="28.0" fill="#000000" transform="matrix(1.00, 0.00, -0.00, -1.00, 381.4, 339.0)"> </text><text xml:space="preserve" font-family="TrebuchetMS" font-size="28.0" fill="#000000" transform="matrix(1.00, 0.00, -0.00, -1.00, 389.9, 339.0)">3</text><text xml:space="preserve" font-family="TrebuchetMS" font-size="28.0" fill="#000000" transform="matrix(1.00, 0.00, -0.00, -1.00, 404.6, 339.0)">D</text><text xml:space="preserve" font-family="TrebuchetMS" font-size="28.0" fill="#000000" transform="matrix(1.00, 0.00, -0.00, -1.00, 421.7, 339.0)"> </text><text xml:space="preserve" font-family="ArialMT" font-size="32.0" fill="#000000" transform="matrix(1.00, 0.00, -0.00, -1.00, 59.2, 260.1)">•</text><text xml:space="preserve" font-family="TrebuchetMS" font-size="32.0" fill="#000000" transform="matrix(1.00, 0.00, -0.00, -1.00, 70.0, 260.0)">P</text><text xml:space="preserve" font-family="TrebuchetMS" font-size="32.0" fill="#000000" transform="matrix(1.00, 0.00, -0.00, -1.00, 86.3, 260.0)">r</text><text xml:space="preserve" font-family="TrebuchetMS" font-size="32.0" fill="#000000" transform="matrix(1.00, 0.00, -0.00, -1.00, 98.8, 260.0)">o</text><text xml:space="preserve" font-family="TrebuchetMS" font-size="32.0" fill="#000000" transform="matrix(1.00, 0.00, -0.00, -1.00, 115.9, 260.0)">b</text><text xml:space="preserve" font-family="TrebuchetMS" font-size="32.0" fill="#000000" transform="matrix(1.00, 0.00, -0.00, -1.00, 133.7, 260.0)">l</text><text xml:space="preserve" font-family="TrebuchetMS" font-size="32.0" fill="#000000" transform="matrix(1.00, 0.00, -0.00, -1.00, 143.2, 260.0)">e</text><text xml:space="preserve" font-family="TrebuchetMS" font-size="32.0" fill="#000000" transform="matrix(1.00, 0.00, -0.00, -1.00, 160.6, 260.0)">m</text><text xml:space="preserve" font-family="TrebuchetMS" font-size="32.0" fill="#000000" transform="matrix(1.00, 0.00, -0.00, -1.00, 187.2, 260.0)">s</text><text xml:space="preserve" font-family="TrebuchetMS" font-size="32.0" fill="#000000" transform="matrix(1.00, 0.00, -0.00, -1.00, 200.1, 260.0)"> </text><text xml:space="preserve" font-family="ArialMT" font-size="28.0" fill="#000000" transform="matrix(1.00, 0.00, -0.00, -1.00, 93.2, 222.2)">–</text><text xml:space="preserve" font-family="TrebuchetMS" font-size="28.0" fill="#000000" transform="matrix(1.00, 0.00, -0.00, -1.00, 109.0, 222.0)">S</text><text xml:space="preserve" font-family="TrebuchetMS" font-size="28.0" fill="#000000" transform="matrix(1.00, 0.00, -0.00, -1.00, 122.5, 222.0)">i</text><text xml:space="preserve" font-family="TrebuchetMS" font-size="28.0" fill="#000000" transform="matrix(1.00, 0.00, -0.00, -1.00, 130.5, 222.0)">n</text><text xml:space="preserve" font-family="TrebuchetMS" font-size="28.0" fill="#000000" transform="matrix(1.00, 0.00, -0.00, -1.00, 145.8, 222.0)">g</text><text xml:space="preserve" font-family="TrebuchetMS" font-size="28.0" fill="#000000" transform="matrix(1.00, 0.00, -0.00, -1.00, 159.8, 222.0)">l</text><text xml:space="preserve" font-family="TrebuchetMS" font-size="28.0" fill="#000000" transform="matrix(1.00, 0.00, -0.00, -1.00, 168.1, 222.0)">e</text><text xml:space="preserve" font-family="TrebuchetMS" font-size="28.0" fill="#000000" transform="matrix(1.00, 0.00, -0.00, -1.00, 183.4, 222.0)"> </text><text xml:space="preserve" font-family="TrebuchetMS" font-size="28.0" fill="#000000" transform="matrix(1.00, 0.00, -0.00, -1.00, 191.8, 222.0)">S</text><text xml:space="preserve" font-family="TrebuchetMS" font-size="28.0" fill="#000000" transform="matrix(1.00, 0.00, -0.00, -1.00, 205.3, 222.0)">t</text><text xml:space="preserve" font-family="TrebuchetMS" font-size="28.0" fill="#000000" transform="matrix(1.00, 0.00, -0.00, -1.00, 216.4, 222.0)">a</text><text xml:space="preserve" font-family="TrebuchetMS" font-size="28.0" fill="#000000" transform="matrix(1.00, 0.00, -0.00, -1.00, 231.1, 222.0)">i</text><text xml:space="preserve" font-family="TrebuchetMS" font-size="28.0" fill="#000000" transform="matrix(1.00, 0.00, -0.00, -1.00, 239.1, 222.0)">n</text><text xml:space="preserve" font-family="TrebuchetMS" font-size="28.0" fill="#000000" transform="matrix(1.00, 0.00, -0.00, -1.00, 254.4, 222.0)">?</text><text xml:space="preserve" font-family="TrebuchetMS" font-size="28.0" fill="#000000" transform="matrix(1.00, 0.00, -0.00, -1.00, 264.6, 222.0)"> </text><text xml:space="preserve" font-family="ArialMT" font-size="28.0" fill="#000000" transform="matrix(1.00, 0.00, -0.00, -1.00, 93.2, 185.2)">–</text><text xml:space="preserve" font-family="TrebuchetMS" font-size="28.0" fill="#000000" transform="matrix(1.00, 0.00, -0.00, -1.00, 109.0, 185.0)">H</text><text xml:space="preserve" font-family="TrebuchetMS" font-size="28.0" fill="#000000" transform="matrix(1.00, 0.00, -0.00, -1.00, 127.3, 185.0)">u</text><text xml:space="preserve" font-family="TrebuchetMS" font-size="28.0" fill="#000000" transform="matrix(1.00, 0.00, -0.00, -1.00, 142.6, 185.0)">g</text><text xml:space="preserve" font-family="TrebuchetMS" font-size="28.0" fill="#000000" transform="matrix(1.00, 0.00, -0.00, -1.00, 156.7, 185.0)">e</text><text xml:space="preserve" font-family="TrebuchetMS" font-size="28.0" fill="#000000" transform="matrix(1.00, 0.00, -0.00, -1.00, 172.0, 185.0)"> </text><text xml:space="preserve" font-family="TrebuchetMS" font-size="28.0" fill="#000000" transform="matrix(1.00, 0.00, -0.00, -1.00, 180.4, 185.0)">F</text><text xml:space="preserve" font-family="TrebuchetMS" font-size="28.0" fill="#000000" transform="matrix(1.00, 0.00, -0.00, -1.00, 195.1, 185.0)">i</text><text xml:space="preserve" font-family="TrebuchetMS" font-size="28.0" fill="#000000" transform="matrix(1.00, 0.00, -0.00, -1.00, 203.1, 185.0)">l</text><text xml:space="preserve" font-family="TrebuchetMS" font-size="28.0" fill="#000000" transform="matrix(1.00, 0.00, -0.00, -1.00, 211.4, 185.0)">e</text><text xml:space="preserve" font-family="TrebuchetMS" font-size="28.0" fill="#000000" transform="matrix(1.00, 0.00, -0.00, -1.00, 226.6, 185.0)"> </text><text xml:space="preserve" font-family="TrebuchetMS" font-size="28.0" fill="#000000" transform="matrix(1.00, 0.00, -0.00, -1.00, 235.1, 185.0)">s</text><text xml:space="preserve" font-family="TrebuchetMS" font-size="28.0" fill="#000000" transform="matrix(1.00, 0.00, -0.00, -1.00, 246.4, 185.0)">i</text><text xml:space="preserve" font-family="TrebuchetMS" font-size="28.0" fill="#000000" transform="matrix(1.00, 0.00, -0.00, -1.00, 254.4, 185.0)">z</text><text xml:space="preserve" font-family="TrebuchetMS" font-size="28.0" fill="#000000" transform="matrix(1.00, 0.00, -0.00, -1.00, 267.7, 185.0)">e</text><text xml:space="preserve" font-family="TrebuchetMS" font-size="28.0" fill="#000000" transform="matrix(1.00, 0.00, -0.00, -1.00, 283.0, 185.0)"> </text><text xml:space="preserve" font-family="TrebuchetMS" font-size="28.0" fill="#000000" transform="matrix(1.00, 0.00, -0.00, -1.00, 291.4, 185.0)">(</text><text xml:space="preserve" font-family="TrebuchetMS" font-size="28.0" fill="#000000" transform="matrix(1.00, 0.00, -0.00, -1.00, 301.7, 185.0)">X</text><text xml:space="preserve" font-family="TrebuchetMS" font-size="28.0" fill="#000000" transform="matrix(1.00, 0.00, -0.00, -1.00, 317.3, 185.0)">X</text><text xml:space="preserve" font-family="TrebuchetMS" font-size="28.0" fill="#000000" transform="matrix(1.00, 0.00, -0.00, -1.00, 332.8, 185.0)"> </text><text xml:space="preserve" font-family="TrebuchetMS" font-size="28.0" fill="#000000" transform="matrix(1.00, 0.00, -0.00, -1.00, 341.3, 185.0)">G</text><text xml:space="preserve" font-family="TrebuchetMS" font-size="28.0" fill="#000000" transform="matrix(1.00, 0.00, -0.00, -1.00, 360.2, 185.0)">B</text><text xml:space="preserve" font-family="TrebuchetMS" font-size="28.0" fill="#000000" transform="matrix(1.00, 0.00, -0.00, -1.00, 376.1, 185.0)">)</text><text xml:space="preserve" font-family="TrebuchetMS" font-size="28.0" fill="#000000" transform="matrix(1.00, 0.00, -0.00, -1.00, 386.3, 185.0)"> </text><text xml:space="preserve" font-family="ArialMT" font-size="28.0" fill="#000000" transform="matrix(1.00, 0.00, -0.00, -1.00, 93.2, 148.2)">–</text><text xml:space="preserve" font-family="TrebuchetMS" font-size="28.0" fill="#000000" transform="matrix(1.00, 0.00, -0.00, -1.00, 109.0, 148.0)">L</text><text xml:space="preserve" font-family="TrebuchetMS" font-size="28.0" fill="#000000" transform="matrix(1.00, 0.00, -0.00, -1.00, 123.2, 148.0)">o</text><text xml:space="preserve" font-family="TrebuchetMS" font-size="28.0" fill="#000000" transform="matrix(1.00, 0.00, -0.00, -1.00, 138.2, 148.0)">n</text><text xml:space="preserve" font-family="TrebuchetMS" font-size="28.0" fill="#000000" transform="matrix(1.00, 0.00, -0.00, -1.00, 153.5, 148.0)">g</text><text xml:space="preserve" font-family="TrebuchetMS" font-size="28.0" fill="#000000" transform="matrix(1.00, 0.00, -0.00, -1.00, 167.6, 148.0)"> </text><text xml:space="preserve" font-family="TrebuchetMS" font-size="28.0" fill="#000000" transform="matrix(1.00, 0.00, -0.00, -1.00, 175.5, 148.0)">T</text><text xml:space="preserve" font-family="TrebuchetMS" font-size="28.0" fill="#000000" transform="matrix(1.00, 0.00, -0.00, -1.00, 190.6, 148.0)">i</text><text xml:space="preserve" font-family="TrebuchetMS" font-size="28.0" fill="#000000" transform="matrix(1.00, 0.00, -0.00, -1.00, 198.6, 148.0)">m</text><text xml:space="preserve" font-family="TrebuchetMS" font-size="28.0" fill="#000000" transform="matrix(1.00, 0.00, -0.00, -1.00, 221.8, 148.0)">e</text><text xml:space="preserve" font-family="TrebuchetMS" font-size="28.0" fill="#000000" transform="matrix(1.00, 0.00, -0.00, -1.00, 237.1, 148.0)"> </text><text xml:space="preserve" font-family="TrebuchetMS" font-size="28.0" fill="#000000" transform="matrix(1.00, 0.00, -0.00, -1.00, 245.5, 148.0)">(</text><text xml:space="preserve" font-family="TrebuchetMS" font-size="28.0" fill="#000000" transform="matrix(1.00, 0.00, -0.00, -1.00, 255.8, 148.0)">X</text><text xml:space="preserve" font-family="TrebuchetMS" font-size="28.0" fill="#000000" transform="matrix(1.00, 0.00, -0.00, -1.00, 271.4, 148.0)">X</text><text xml:space="preserve" font-family="TrebuchetMS" font-size="28.0" fill="#000000" transform="matrix(1.00, 0.00, -0.00, -1.00, 287.0, 148.0)"> </text><text xml:space="preserve" font-family="TrebuchetMS" font-size="28.0" fill="#000000" transform="matrix(1.00, 0.00, -0.00, -1.00, 295.4, 148.0)">h</text><text xml:space="preserve" font-family="TrebuchetMS" font-size="28.0" fill="#000000" transform="matrix(1.00, 0.00, -0.00, -1.00, 310.7, 148.0)">r</text><text xml:space="preserve" font-family="TrebuchetMS" font-size="28.0" fill="#000000" transform="matrix(1.00, 0.00, -0.00, -1.00, 321.6, 148.0)">s</text><text xml:space="preserve" font-family="TrebuchetMS" font-size="28.0" fill="#000000" transform="matrix(1.00, 0.00, -0.00, -1.00, 332.9, 148.0)">)</text><text xml:space="preserve" font-family="TrebuchetMS" font-size="28.0" fill="#000000" transform="matrix(1.00, 0.00, -0.00, -1.00, 343.2, 148.0)"> </text><text xml:space="preserve" font-family="TrebuchetMS" font-size="28.0" fill="#000000" transform="matrix(1.00, 0.00, -0.00, -1.00, 351.6, 148.0)"> </text><text xml:space="preserve" font-family="ArialMT" font-size="28.0" fill="#000000" transform="matrix(1.00, 0.00, -0.00, -1.00, 93.2, 111.2)">–</text><text xml:space="preserve" font-family="TrebuchetMS" font-size="28.0" fill="#000000" transform="matrix(1.00, 0.00, -0.00, -1.00, 109.0, 111.0)">N</text><text xml:space="preserve" font-family="TrebuchetMS" font-size="28.0" fill="#000000" transform="matrix(1.00, 0.00, -0.00, -1.00, 126.9, 111.0)">o</text><text xml:space="preserve" font-family="TrebuchetMS" font-size="28.0" fill="#000000" transform="matrix(1.00, 0.00, -0.00, -1.00, 141.9, 111.0)">t</text><text xml:space="preserve" font-family="TrebuchetMS" font-size="28.0" fill="#000000" transform="matrix(1.00, 0.00, -0.00, -1.00, 153.0, 111.0)"> </text><text xml:space="preserve" font-family="TrebuchetMS" font-size="28.0" fill="#000000" transform="matrix(1.00, 0.00, -0.00, -1.00, 161.4, 111.0)">H</text><text xml:space="preserve" font-family="TrebuchetMS" font-size="28.0" fill="#000000" transform="matrix(1.00, 0.00, -0.00, -1.00, 179.8, 111.0)">i</text><text xml:space="preserve" font-family="TrebuchetMS" font-size="28.0" fill="#000000" transform="matrix(1.00, 0.00, -0.00, -1.00, 187.8, 111.0)">g</text><text xml:space="preserve" font-family="TrebuchetMS" font-size="28.0" fill="#000000" transform="matrix(1.00, 0.00, -0.00, -1.00, 201.8, 111.0)">h</text><text xml:space="preserve" font-family="TrebuchetMS" font-size="28.0" fill="#000000" transform="matrix(1.00, 0.00, -0.00, -1.00, 217.1, 111.0)"> </text><text xml:space="preserve" font-family="TrebuchetMS" font-size="28.0" fill="#000000" transform="matrix(1.00, 0.00, -0.00, -1.00, 225.1, 111.0)">T</text><text xml:space="preserve" font-family="TrebuchetMS" font-size="28.0" fill="#000000" transform="matrix(1.00, 0.00, -0.00, -1.00, 241.3, 111.0)">h</text><text xml:space="preserve" font-family="TrebuchetMS" font-size="28.0" fill="#000000" transform="matrix(1.00, 0.00, -0.00, -1.00, 256.6, 111.0)">r</text><text xml:space="preserve" font-family="TrebuchetMS" font-size="28.0" fill="#000000" transform="matrix(1.00, 0.00, -0.00, -1.00, 267.5, 111.0)">o</text><text xml:space="preserve" font-family="TrebuchetMS" font-size="28.0" fill="#000000" transform="matrix(1.00, 0.00, -0.00, -1.00, 282.5, 111.0)">u</text><text xml:space="preserve" font-family="TrebuchetMS" font-size="28.0" fill="#000000" transform="matrix(1.00, 0.00, -0.00, -1.00, 297.8, 111.0)">g</text><text xml:space="preserve" font-family="TrebuchetMS" font-size="28.0" fill="#000000" transform="matrix(1.00, 0.00, -0.00, -1.00, 311.9, 111.0)">h</text><text xml:space="preserve" font-family="TrebuchetMS" font-size="28.0" fill="#000000" transform="matrix(1.00, 0.00, -0.00, -1.00, 327.2, 111.0)">p</text><text xml:space="preserve" font-family="TrebuchetMS" font-size="28.0" fill="#000000" transform="matrix(1.00, 0.00, -0.00, -1.00, 342.8, 111.0)">u</text><text xml:space="preserve" font-family="TrebuchetMS" font-size="28.0" fill="#000000" transform="matrix(1.00, 0.00, -0.00, -1.00, 358.1, 111.0)">t</text><g><clipPath id="clip-5310"><path d="M -1.0 485.0 L 721.0 485.0 L 721.0 541.0 L -1.0 541.0 Z M -1.0 485.0 "></path></clipPath><g clip-path="url(#clip-5310)"><path d="M -0.0 540.0 L 720.0 540.0 L 720.0 486.0 L -0.0 486.0 Z M -0.0 540.0 " fill="#93B3D7"></path></g></g><g><clipPath id="clip-5311"><path d="M -5.7 490.1 L 725.7 490.1 L 725.7 545.7 L -5.7 545.7 Z M -5.7 490.1 "></path></clipPath><g clip-path="url(#clip-5311)"><text xml:space="preserve" font-family="TrebuchetMS-Bold" font-weight="bold" font-size="32.0" fill="#000000" transform="matrix(1.00, 0.00, -0.00, -1.00, 4.0, 507.0)">T</text><text xml:space="preserve" font-family="TrebuchetMS-Bold" font-weight="bold" font-size="32.0" fill="#000000" transform="matrix(1.00, 0.00, -0.00, -1.00, 22.4, 507.0)">i</text><text xml:space="preserve" font-family="TrebuchetMS-Bold" font-weight="bold" font-size="32.0" fill="#000000" transform="matrix(1.00, 0.00, -0.00, -1.00, 32.0, 507.0)">s</text><text xml:space="preserve" font-family="TrebuchetMS-Bold" font-weight="bold" font-size="32.0" fill="#000000" transform="matrix(1.00, 0.00, -0.00, -1.00, 45.7, 507.0)">s</text><text xml:space="preserve" font-family="TrebuchetMS-Bold" font-weight="bold" font-size="32.0" fill="#000000" transform="matrix(1.00, 0.00, -0.00, -1.00, 59.5, 507.0)">u</text><text xml:space="preserve" font-family="TrebuchetMS-Bold" font-weight="bold" font-size="32.0" fill="#000000" transform="matrix(1.00, 0.00, -0.00, -1.00, 78.4, 507.0)">e</text><text xml:space="preserve" font-family="TrebuchetMS-Bold" font-weight="bold" font-size="32.0" fill="#000000" transform="matrix(1.00, 0.00, -0.00, -1.00, 96.8, 507.0)"> </text><text xml:space="preserve" font-family="TrebuchetMS-Bold" font-weight="bold" font-size="32.0" fill="#000000" transform="matrix(1.00, 0.00, -0.00, -1.00, 106.4, 507.0)">V</text><text xml:space="preserve" font-family="TrebuchetMS-Bold" font-weight="bold" font-size="32.0" fill="#000000" transform="matrix(1.00, 0.00, -0.00, -1.00, 125.7, 507.0)">i</text><text xml:space="preserve" font-family="TrebuchetMS-Bold" font-weight="bold" font-size="32.0" fill="#000000" transform="matrix(1.00, 0.00, -0.00, -1.00, 135.3, 507.0)">s</text><text xml:space="preserve" font-family="TrebuchetMS-Bold" font-weight="bold" font-size="32.0" fill="#000000" transform="matrix(1.00, 0.00, -0.00, -1.00, 149.1, 507.0)">i</text><text xml:space="preserve" font-family="TrebuchetMS-Bold" font-weight="bold" font-size="32.0" fill="#000000" transform="matrix(1.00, 0.00, -0.00, -1.00, 158.7, 507.0)">o</text><text xml:space="preserve" font-family="TrebuchetMS-Bold" font-weight="bold" font-size="32.0" fill="#000000" transform="matrix(1.00, 0.00, -0.00, -1.00, 176.8, 507.0)">n</text></g></g><path d="M 0.0 0.0 L 720.0 0.0 " fill="none" stroke="#000000" stroke-width="2.00" stroke-linejoin="round" transform="matrix(-1.00, 0.00, 0.00, 1.00, 720.0, 485.8)"></path></g></svg>