<?xml version="1.0" encoding="UTF-8" standalone="no"?><svg xmlns="http://www.w3.org/2000/svg" xmlns:xlink="http://www.w3.org/1999/xlink" clip-rule="evenodd" stroke-miterlimit="4.00" viewBox="0 0 720 540"><desc>SVG generated by Keynote</desc><defs></defs><g transform="matrix(1.00, 0.00, -0.00, -1.00, 0.0, 540.0)"><path d="M 0.0 540.0 L 720.0 540.0 L 720.0 0.0 L 0.0 0.0 Z M 0.0 540.0 " fill="#FFFFFF"></path><g><clipPath id="clip-5236"><path d="M 150.0 368.0 L 532.0 368.0 L 532.0 458.0 L 150.0 458.0 Z M 150.0 368.0 "></path></clipPath><g clip-path="url(#clip-5236)"><text xml:space="preserve" font-family="Symbol" font-size="384.0" fill="#000000" transform="matrix(0.05, 0.00, -0.00, -0.05, 520.8, 381.4)">⎥</text><text xml:space="preserve" font-family="Symbol" font-size="384.0" fill="#000000" transform="matrix(0.05, 0.00, -0.00, -0.05, 520.8, 399.2)">⎥</text><text xml:space="preserve" font-family="Symbol" font-size="384.0" fill="#000000" transform="matrix(0.05, 0.00, -0.00, -0.05, 520.8, 417.1)">⎥</text><text xml:space="preserve" font-family="Symbol" font-size="384.0" fill="#000000" transform="matrix(0.05, 0.00, -0.00, -0.05, 520.8, 375.4)">⎦</text><text xml:space="preserve" font-family="Symbol" font-size="384.0" fill="#000000" transform="matrix(0.05, 0.00, -0.00, -0.05, 520.8, 434.9)">⎤</text><text xml:space="preserve" font-family="Symbol" font-size="384.0" fill="#000000" transform="matrix(0.05, 0.00, -0.00, -0.05, 427.9, 381.4)">⎢</text><text xml:space="preserve" font-family="Symbol" font-size="384.0" fill="#000000" transform="matrix(0.05, 0.00, -0.00, -0.05, 427.9, 399.2)">⎢</text><text xml:space="preserve" font-family="Symbol" font-size="384.0" fill="#000000" transform="matrix(0.05, 0.00, -0.00, -0.05, 427.9, 417.1)">⎢</text><text xml:space="preserve" font-family="Symbol" font-size="384.0" fill="#000000" transform="matrix(0.05, 0.00, -0.00, -0.05, 427.9, 375.4)">⎣</text><text xml:space="preserve" font-family="Symbol" font-size="384.0" fill="#000000" transform="matrix(0.05, 0.00, -0.00, -0.05, 427.9, 434.9)">⎡</text><text xml:space="preserve" font-family="Symbol" font-size="384.0" fill="#000000" transform="matrix(0.05, 0.00, -0.00, -0.05, 404.8, 408.3)">⇒</text><text xml:space="preserve" font-family="Symbol" font-size="384.0" fill="#000000" transform="matrix(0.05, 0.00, -0.00, -0.05, 393.4, 383.5)">⎥</text><text xml:space="preserve" font-family="Symbol" font-size="384.0" fill="#000000" transform="matrix(0.05, 0.00, -0.00, -0.05, 393.4, 401.3)">⎥</text><text xml:space="preserve" font-family="Symbol" font-size="384.0" fill="#000000" transform="matrix(0.05, 0.00, -0.00, -0.05, 393.4, 419.2)">⎥</text><text xml:space="preserve" font-family="Symbol" font-size="384.0" fill="#000000" transform="matrix(0.05, 0.00, -0.00, -0.05, 393.4, 373.3)">⎦</text><text xml:space="preserve" font-family="Symbol" font-size="384.0" fill="#000000" transform="matrix(0.05, 0.00, -0.00, -0.05, 393.4, 437.0)">⎤</text><text xml:space="preserve" font-family="Symbol" font-size="384.0" fill="#000000" transform="matrix(0.05, 0.00, -0.00, -0.05, 194.5, 383.5)">⎢</text><text xml:space="preserve" font-family="Symbol" font-size="384.0" fill="#000000" transform="matrix(0.05, 0.00, -0.00, -0.05, 194.5, 401.3)">⎢</text><text xml:space="preserve" font-family="Symbol" font-size="384.0" fill="#000000" transform="matrix(0.05, 0.00, -0.00, -0.05, 194.5, 419.2)">⎢</text><text xml:space="preserve" font-family="Symbol" font-size="384.0" fill="#000000" transform="matrix(0.05, 0.00, -0.00, -0.05, 194.5, 373.3)">⎣</text><text xml:space="preserve" font-family="Symbol" font-size="384.0" fill="#000000" transform="matrix(0.05, 0.00, -0.00, -0.05, 194.5, 437.0)">⎡</text><text xml:space="preserve" font-family="Symbol" font-size="384.0" fill="#000000" transform="matrix(0.05, 0.00, -0.00, -0.05, 179.6, 408.3)">=</text><text xml:space="preserve" font-family="TimesNewRomanPSMT" font-size="224.0" fill="#000000" transform="matrix(0.05, 0.00, -0.00, -0.05, 513.3, 375.8)">3</text><text xml:space="preserve" font-family="TimesNewRomanPSMT" font-size="224.0" fill="#000000" transform="matrix(0.05, 0.00, -0.00, -0.05, 478.5, 403.7)">2</text><text xml:space="preserve" font-family="TimesNewRomanPSMT" font-size="224.0" fill="#000000" transform="matrix(0.05, 0.00, -0.00, -0.05, 444.3, 431.6)">1</text><text xml:space="preserve" font-family="TimesNewRomanPSMT" font-size="384.0" fill="#000000" transform="matrix(0.05, 0.00, -0.00, -0.05, 472.5, 380.4)">0</text><text xml:space="preserve" font-family="TimesNewRomanPSMT" font-size="384.0" fill="#000000" transform="matrix(0.05, 0.00, -0.00, -0.05, 438.4, 380.4)">0</text><text xml:space="preserve" font-family="TimesNewRomanPSMT" font-size="384.0" fill="#000000" transform="matrix(0.05, 0.00, -0.00, -0.05, 507.2, 408.3)">0</text><text xml:space="preserve" font-family="TimesNewRomanPSMT" font-size="384.0" fill="#000000" transform="matrix(0.05, 0.00, -0.00, -0.05, 438.4, 408.3)">0</text><text xml:space="preserve" font-family="TimesNewRomanPSMT" font-size="384.0" fill="#000000" transform="matrix(0.05, 0.00, -0.00, -0.05, 507.2, 436.3)">0</text><text xml:space="preserve" font-family="TimesNewRomanPSMT" font-size="384.0" fill="#000000" transform="matrix(0.05, 0.00, -0.00, -0.05, 472.5, 436.3)">0</text><text xml:space="preserve" font-family="Symbol" font-size="384.0" fill="#000000" transform="matrix(0.05, 0.00, -0.00, -0.05, 503.4, 380.4)">λ</text><text xml:space="preserve" font-family="Symbol" font-size="384.0" fill="#000000" transform="matrix(0.05, 0.00, -0.00, -0.05, 468.3, 408.3)">λ</text><text xml:space="preserve" font-family="Symbol" font-size="384.0" fill="#000000" transform="matrix(0.05, 0.00, -0.00, -0.05, 435.2, 436.3)">λ</text><text xml:space="preserve" font-family="TimesNewRomanPS-ItalicMT" font-style="italic" font-size="224.0" fill="#000000" transform="matrix(0.05, 0.00, -0.00, -0.05, 381.5, 375.8)">z</text><text xml:space="preserve" font-family="TimesNewRomanPS-ItalicMT" font-style="italic" font-size="224.0" fill="#000000" transform="matrix(0.05, 0.00, -0.00, -0.05, 385.7, 375.8)">z</text><text xml:space="preserve" font-family="TimesNewRomanPS-ItalicMT" font-style="italic" font-size="224.0" fill="#000000" transform="matrix(0.05, 0.00, -0.00, -0.05, 311.9, 375.8)">y</text><text xml:space="preserve" font-family="TimesNewRomanPS-ItalicMT" font-style="italic" font-size="224.0" fill="#000000" transform="matrix(0.05, 0.00, -0.00, -0.05, 316.8, 375.8)">z</text><text xml:space="preserve" font-family="TimesNewRomanPS-ItalicMT" font-style="italic" font-size="224.0" fill="#000000" transform="matrix(0.05, 0.00, -0.00, -0.05, 242.0, 375.8)">x</text><text xml:space="preserve" font-family="TimesNewRomanPS-ItalicMT" font-style="italic" font-size="224.0" fill="#000000" transform="matrix(0.05, 0.00, -0.00, -0.05, 246.9, 375.8)">z</text><text xml:space="preserve" font-family="TimesNewRomanPS-ItalicMT" font-style="italic" font-size="224.0" fill="#000000" transform="matrix(0.05, 0.00, -0.00, -0.05, 381.5, 403.7)">y</text><text xml:space="preserve" font-family="TimesNewRomanPS-ItalicMT" font-style="italic" font-size="224.0" fill="#000000" transform="matrix(0.05, 0.00, -0.00, -0.05, 386.3, 403.7)">z</text><text xml:space="preserve" font-family="TimesNewRomanPS-ItalicMT" font-style="italic" font-size="224.0" fill="#000000" transform="matrix(0.05, 0.00, -0.00, -0.05, 311.6, 403.7)">y</text><text xml:space="preserve" font-family="TimesNewRomanPS-ItalicMT" font-style="italic" font-size="224.0" fill="#000000" transform="matrix(0.05, 0.00, -0.00, -0.05, 316.5, 403.7)">y</text><text xml:space="preserve" font-family="TimesNewRomanPS-ItalicMT" font-style="italic" font-size="224.0" fill="#000000" transform="matrix(0.05, 0.00, -0.00, -0.05, 241.7, 403.7)">x</text><text xml:space="preserve" font-family="TimesNewRomanPS-ItalicMT" font-style="italic" font-size="224.0" fill="#000000" transform="matrix(0.05, 0.00, -0.00, -0.05, 246.6, 403.7)">y</text><text xml:space="preserve" font-family="TimesNewRomanPS-ItalicMT" font-style="italic" font-size="224.0" fill="#000000" transform="matrix(0.05, 0.00, -0.00, -0.05, 381.2, 431.6)">x</text><text xml:space="preserve" font-family="TimesNewRomanPS-ItalicMT" font-style="italic" font-size="224.0" fill="#000000" transform="matrix(0.05, 0.00, -0.00, -0.05, 386.1, 431.6)">z</text><text xml:space="preserve" font-family="TimesNewRomanPS-ItalicMT" font-style="italic" font-size="224.0" fill="#000000" transform="matrix(0.05, 0.00, -0.00, -0.05, 311.4, 431.6)">x</text><text xml:space="preserve" font-family="TimesNewRomanPS-ItalicMT" font-style="italic" font-size="224.0" fill="#000000" transform="matrix(0.05, 0.00, -0.00, -0.05, 316.2, 431.6)">y</text><text xml:space="preserve" font-family="TimesNewRomanPS-ItalicMT" font-style="italic" font-size="224.0" fill="#000000" transform="matrix(0.05, 0.00, -0.00, -0.05, 241.8, 431.6)">x</text><text xml:space="preserve" font-family="TimesNewRomanPS-ItalicMT" font-style="italic" font-size="224.0" fill="#000000" transform="matrix(0.05, 0.00, -0.00, -0.05, 246.7, 431.6)">x</text><text xml:space="preserve" font-family="TimesNewRomanPS-ItalicMT" font-style="italic" font-size="224.0" fill="#000000" transform="matrix(0.05, 0.00, -0.00, -0.05, 165.9, 403.7)">T</text><text xml:space="preserve" font-family="TimesNewRomanPS-ItalicMT" font-style="italic" font-size="384.0" fill="#000000" transform="matrix(0.05, 0.00, -0.00, -0.05, 343.3, 380.4)">A</text><text xml:space="preserve" font-family="TimesNewRomanPS-ItalicMT" font-style="italic" font-size="384.0" fill="#000000" transform="matrix(0.05, 0.00, -0.00, -0.05, 354.7, 380.4)">D</text><text xml:space="preserve" font-family="TimesNewRomanPS-ItalicMT" font-style="italic" font-size="384.0" fill="#000000" transform="matrix(0.05, 0.00, -0.00, -0.05, 368.2, 380.4)">C</text><text xml:space="preserve" font-family="TimesNewRomanPS-ItalicMT" font-style="italic" font-size="384.0" fill="#000000" transform="matrix(0.05, 0.00, -0.00, -0.05, 273.2, 380.4)">A</text><text xml:space="preserve" font-family="TimesNewRomanPS-ItalicMT" font-style="italic" font-size="384.0" fill="#000000" transform="matrix(0.05, 0.00, -0.00, -0.05, 284.7, 380.4)">D</text><text xml:space="preserve" font-family="TimesNewRomanPS-ItalicMT" font-style="italic" font-size="384.0" fill="#000000" transform="matrix(0.05, 0.00, -0.00, -0.05, 298.2, 380.4)">C</text><text xml:space="preserve" font-family="TimesNewRomanPS-ItalicMT" font-style="italic" font-size="384.0" fill="#000000" transform="matrix(0.05, 0.00, -0.00, -0.05, 203.8, 380.4)">A</text><text xml:space="preserve" font-family="TimesNewRomanPS-ItalicMT" font-style="italic" font-size="384.0" fill="#000000" transform="matrix(0.05, 0.00, -0.00, -0.05, 215.3, 380.4)">D</text><text xml:space="preserve" font-family="TimesNewRomanPS-ItalicMT" font-style="italic" font-size="384.0" fill="#000000" transform="matrix(0.05, 0.00, -0.00, -0.05, 228.8, 380.4)">C</text><text xml:space="preserve" font-family="TimesNewRomanPS-ItalicMT" font-style="italic" font-size="384.0" fill="#000000" transform="matrix(0.05, 0.00, -0.00, -0.05, 342.8, 408.3)">A</text><text xml:space="preserve" font-family="TimesNewRomanPS-ItalicMT" font-style="italic" font-size="384.0" fill="#000000" transform="matrix(0.05, 0.00, -0.00, -0.05, 354.2, 408.3)">D</text><text xml:space="preserve" font-family="TimesNewRomanPS-ItalicMT" font-style="italic" font-size="384.0" fill="#000000" transform="matrix(0.05, 0.00, -0.00, -0.05, 367.7, 408.3)">C</text><text xml:space="preserve" font-family="TimesNewRomanPS-ItalicMT" font-style="italic" font-size="384.0" fill="#000000" transform="matrix(0.05, 0.00, -0.00, -0.05, 272.9, 408.3)">A</text><text xml:space="preserve" font-family="TimesNewRomanPS-ItalicMT" font-style="italic" font-size="384.0" fill="#000000" transform="matrix(0.05, 0.00, -0.00, -0.05, 284.4, 408.3)">D</text><text xml:space="preserve" font-family="TimesNewRomanPS-ItalicMT" font-style="italic" font-size="384.0" fill="#000000" transform="matrix(0.05, 0.00, -0.00, -0.05, 297.9, 408.3)">C</text><text xml:space="preserve" font-family="TimesNewRomanPS-ItalicMT" font-style="italic" font-size="384.0" fill="#000000" transform="matrix(0.05, 0.00, -0.00, -0.05, 203.5, 408.3)">A</text><text xml:space="preserve" font-family="TimesNewRomanPS-ItalicMT" font-style="italic" font-size="384.0" fill="#000000" transform="matrix(0.05, 0.00, -0.00, -0.05, 215.0, 408.3)">D</text><text xml:space="preserve" font-family="TimesNewRomanPS-ItalicMT" font-style="italic" font-size="384.0" fill="#000000" transform="matrix(0.05, 0.00, -0.00, -0.05, 228.5, 408.3)">C</text><text xml:space="preserve" font-family="TimesNewRomanPS-ItalicMT" font-style="italic" font-size="384.0" fill="#000000" transform="matrix(0.05, 0.00, -0.00, -0.05, 343.0, 436.3)">A</text><text xml:space="preserve" font-family="TimesNewRomanPS-ItalicMT" font-style="italic" font-size="384.0" fill="#000000" transform="matrix(0.05, 0.00, -0.00, -0.05, 354.5, 436.3)">D</text><text xml:space="preserve" font-family="TimesNewRomanPS-ItalicMT" font-style="italic" font-size="384.0" fill="#000000" transform="matrix(0.05, 0.00, -0.00, -0.05, 368.0, 436.3)">C</text><text xml:space="preserve" font-family="TimesNewRomanPS-ItalicMT" font-style="italic" font-size="384.0" fill="#000000" transform="matrix(0.05, 0.00, -0.00, -0.05, 273.2, 436.3)">A</text><text xml:space="preserve" font-family="TimesNewRomanPS-ItalicMT" font-style="italic" font-size="384.0" fill="#000000" transform="matrix(0.05, 0.00, -0.00, -0.05, 284.6, 436.3)">D</text><text xml:space="preserve" font-family="TimesNewRomanPS-ItalicMT" font-style="italic" font-size="384.0" fill="#000000" transform="matrix(0.05, 0.00, -0.00, -0.05, 298.1, 436.3)">C</text><text xml:space="preserve" font-family="TimesNewRomanPS-ItalicMT" font-style="italic" font-size="384.0" fill="#000000" transform="matrix(0.05, 0.00, -0.00, -0.05, 203.6, 436.3)">A</text><text xml:space="preserve" font-family="TimesNewRomanPS-ItalicMT" font-style="italic" font-size="384.0" fill="#000000" transform="matrix(0.05, 0.00, -0.00, -0.05, 215.1, 436.3)">D</text><text xml:space="preserve" font-family="TimesNewRomanPS-ItalicMT" font-style="italic" font-size="384.0" fill="#000000" transform="matrix(0.05, 0.00, -0.00, -0.05, 228.6, 436.3)">C</text><text xml:space="preserve" font-family="TimesNewRomanPS-ItalicMT" font-style="italic" font-size="384.0" fill="#000000" transform="matrix(0.05, 0.00, -0.00, -0.05, 153.4, 408.3)">D</text></g></g><g><clipPath id="clip-5237"><path d="M 69.5 47.6 L 308.5 47.6 L 308.5 286.6 L 69.5 286.6 Z M 69.5 47.6 "></path></clipPath><g clip-path="url(#clip-5237)"><path d="M 199.7 34.3 C 245.4 80.0 245.4 154.0 199.7 199.7 C 154.0 245.4 80.0 245.4 34.3 199.7 C -11.4 154.0 -11.4 80.0 34.3 34.3 C 80.0 -11.4 154.0 -11.4 199.7 34.3 Z M 199.7 34.3 " fill="none" stroke="#000000" stroke-width="3.00" stroke-linejoin="round" transform="matrix(1.00, 0.00, 0.00, -1.00, 72.0, 284.1)"></path></g></g><g><clipPath id="clip-5238"><path d="M 69.5 131.6 L 308.5 131.6 L 308.5 196.6 L 69.5 196.6 Z M 69.5 131.6 "></path></clipPath><g clip-path="url(#clip-5238)"><path d="M 199.7 8.8 C 245.4 20.5 245.4 39.5 199.7 51.2 C 154.0 62.9 80.0 62.9 34.3 51.2 C -11.4 39.5 -11.4 20.5 34.3 8.8 C 80.0 -2.9 154.0 -2.9 199.7 8.8 Z M 199.7 8.8 " fill="none" stroke="#000000" stroke-width="3.00" stroke-linejoin="round" transform="matrix(1.00, 0.00, 0.00, -1.00, 72.0, 194.1)"></path></g></g><g><clipPath id="clip-5239"><path d="M 195.5 285.1 L 195.5 163.1 L 176.5 163.1 L 176.5 285.1 Z M 195.5 285.1 "></path></clipPath><g clip-path="url(#clip-5239)"><path d="M 9.8 0.0 L 11.3 0.0 L 120.0 0.0 " fill="none" stroke="#000000" stroke-width="3.00" stroke-linejoin="round" transform="matrix(0.00, -1.00, -1.00, 0.00, 186.0, 284.1)"></path><path d="M 177.5 274.6 L 186.0 284.1 L 194.5 274.6 Z M 177.5 274.6 " fill="#000000"></path></g></g><g><clipPath id="clip-5240"><path d="M 307.1 154.6 L 185.1 154.6 L 185.1 173.6 L 307.1 173.6 Z M 307.1 154.6 "></path></clipPath><g clip-path="url(#clip-5240)"><path d="M 9.8 0.0 L 11.3 0.0 L 120.0 0.0 " fill="none" stroke="#000000" stroke-width="3.00" stroke-linejoin="round" transform="matrix(-1.00, 0.00, 0.00, 1.00, 306.1, 164.1)"></path><path d="M 296.6 172.6 L 306.1 164.1 L 296.6 155.6 Z M 296.6 172.6 " fill="#000000"></path></g></g><g><clipPath id="clip-5241"><path d="M 195.5 165.1 L 195.5 133.1 L 176.5 133.1 L 176.5 165.1 Z M 195.5 165.1 "></path></clipPath><g clip-path="url(#clip-5241)"><path d="M 0.0 0.0 L 18.7 0.0 L 20.2 0.0 " fill="none" stroke="#000000" stroke-width="3.00" stroke-linejoin="round" transform="matrix(0.00, -1.00, -1.00, 0.00, 186.0, 164.1)"></path><path d="M 194.5 143.5 L 186.0 134.1 L 177.5 143.5 Z M 194.5 143.5 " fill="#000000"></path></g></g><g><clipPath id="clip-5242"><path d="M 597.6 304.1 L 669.0 232.7 L 453.4 17.0 L 382.0 88.4 Z M 597.6 304.1 "></path></clipPath><g clip-path="url(#clip-5242)"><path d="M 81.9 43.9 C 100.7 102.5 100.7 197.5 81.9 256.1 C 63.2 314.6 32.8 314.6 14.1 256.1 C -4.7 197.5 -4.7 102.5 14.1 43.9 C 32.8 -14.6 63.2 -14.6 81.9 43.9 Z M 81.9 43.9 " fill="none" stroke="#000000" stroke-width="3.00" stroke-linejoin="round" transform="matrix(0.71, -0.71, -0.71, -0.71, 597.6, 300.6)"></path></g></g><g><clipPath id="clip-5243"><path d="M 637.9 260.6 L 534.6 157.4 L 521.2 170.8 L 624.4 274.1 Z M 637.9 260.6 "></path></clipPath><g clip-path="url(#clip-5243)"><path d="M 9.8 0.0 L 11.3 0.0 L 144.0 0.0 " fill="none" stroke="#000000" stroke-width="3.00" stroke-linejoin="round" transform="matrix(-0.71, -0.71, -0.71, 0.71, 630.4, 266.6)"></path><path d="M 617.7 266.0 L 630.4 266.6 L 629.8 253.9 Z M 617.7 266.0 " fill="#000000"></path></g></g><g><clipPath id="clip-5244"><path d="M 557.2 121.5 L 521.0 157.7 L 534.4 171.2 L 570.7 134.9 Z M 557.2 121.5 "></path></clipPath><g clip-path="url(#clip-5244)"><path d="M 9.8 0.0 L 11.3 0.0 L 49.2 0.0 " fill="none" stroke="#000000" stroke-width="3.00" stroke-linejoin="round" transform="matrix(-0.71, 0.71, 0.71, 0.71, 563.2, 128.9)"></path><path d="M 562.6 141.6 L 563.2 128.9 L 550.5 129.6 Z M 562.6 141.6 " fill="#000000"></path></g></g><g><clipPath id="clip-5245"><path d="M 514.4 220.6 L 585.8 149.2 L 539.9 103.2 L 468.4 174.7 Z M 514.4 220.6 "></path></clipPath><g clip-path="url(#clip-5245)"><path d="M 81.9 8.8 C 100.7 20.5 100.7 39.5 81.9 51.2 C 63.2 62.9 32.8 62.9 14.1 51.2 C -4.7 39.5 -4.7 20.5 14.1 8.8 C 32.8 -2.9 63.2 -2.9 81.9 8.8 Z M 81.9 8.8 " fill="none" stroke="#000000" stroke-width="3.00" stroke-linejoin="round" transform="matrix(0.71, -0.71, -0.71, -0.71, 514.4, 217.1)"></path></g></g><g><clipPath id="clip-5246"><path d="M 496.8 145.8 L 522.0 171.0 L 535.4 157.6 L 510.2 132.4 Z M 496.8 145.8 "></path></clipPath><g clip-path="url(#clip-5246)"><path d="M 9.8 0.0 L 11.3 0.0 L 33.6 0.0 " fill="none" stroke="#000000" stroke-width="3.00" stroke-linejoin="round" transform="matrix(0.71, 0.71, 0.71, -0.71, 504.2, 139.8)"></path><path d="M 516.9 140.5 L 504.2 139.8 L 504.9 152.5 Z M 516.9 140.5 " fill="#000000"></path></g></g><text xml:space="preserve" font-family="Symbol" font-size="24.0" fill="#000000" transform="matrix(1.00, 0.00, -0.00, -1.00, 190.0, 234.0)">λ</text><text xml:space="preserve" font-family="ArialMT" font-size="16.0" fill="#000000" transform="matrix(1.00, 0.00, -0.00, -1.00, 203.2, 227.7)">1</text><text xml:space="preserve" font-family="Symbol" font-size="24.0" fill="#000000" transform="matrix(1.00, 0.00, -0.00, -1.00, 226.0, 174.0)">λ</text><text xml:space="preserve" font-family="ArialMT" font-size="16.0" fill="#000000" transform="matrix(1.00, 0.00, -0.00, -1.00, 239.2, 167.7)">2</text><text xml:space="preserve" font-family="Symbol" font-size="24.0" fill="#000000" transform="matrix(1.00, 0.00, -0.00, -1.00, 148.0, 144.0)">λ</text><text xml:space="preserve" font-family="ArialMT" font-size="16.0" fill="#000000" transform="matrix(1.00, 0.00, -0.00, -1.00, 161.2, 137.7)">3</text><text xml:space="preserve" font-family="Symbol" font-size="24.0" fill="#000000" transform="matrix(1.00, 0.00, -0.00, -1.00, 592.0, 210.0)">λ</text><text xml:space="preserve" font-family="ArialMT" font-size="16.0" fill="#000000" transform="matrix(1.00, 0.00, -0.00, -1.00, 605.2, 203.7)">1</text><text xml:space="preserve" font-family="Symbol" font-size="24.0" fill="#000000" transform="matrix(1.00, 0.00, -0.00, -1.00, 568.0, 114.0)">λ</text><text xml:space="preserve" font-family="ArialMT" font-size="16.0" fill="#000000" transform="matrix(1.00, 0.00, -0.00, -1.00, 581.2, 107.7)">2</text><text xml:space="preserve" font-family="Symbol" font-size="24.0" fill="#000000" transform="matrix(1.00, 0.00, -0.00, -1.00, 472.0, 120.0)">λ</text><text xml:space="preserve" font-family="ArialMT" font-size="16.0" fill="#000000" transform="matrix(1.00, 0.00, -0.00, -1.00, 485.2, 113.7)">3</text><text xml:space="preserve" font-family="ArialMT" font-size="24.0" fill="#000000" transform="matrix(1.00, 0.00, -0.00, -1.00, 88.0, 312.0)">I</text><text xml:space="preserve" font-family="ArialMT" font-size="24.0" fill="#000000" transform="matrix(1.00, 0.00, -0.00, -1.00, 94.7, 312.0)">s</text><text xml:space="preserve" font-family="ArialMT" font-size="24.0" fill="#000000" transform="matrix(1.00, 0.00, -0.00, -1.00, 106.7, 312.0)">o</text><text xml:space="preserve" font-family="ArialMT" font-size="24.0" fill="#000000" transform="matrix(1.00, 0.00, -0.00, -1.00, 120.0, 312.0)">t</text><text xml:space="preserve" font-family="ArialMT" font-size="24.0" fill="#000000" transform="matrix(1.00, 0.00, -0.00, -1.00, 126.7, 312.0)">r</text><text xml:space="preserve" font-family="ArialMT" font-size="24.0" fill="#000000" transform="matrix(1.00, 0.00, -0.00, -1.00, 134.7, 312.0)">o</text><text xml:space="preserve" font-family="ArialMT" font-size="24.0" fill="#000000" transform="matrix(1.00, 0.00, -0.00, -1.00, 148.0, 312.0)">p</text><text xml:space="preserve" font-family="ArialMT" font-size="24.0" fill="#000000" transform="matrix(1.00, 0.00, -0.00, -1.00, 161.4, 312.0)">i</text><text xml:space="preserve" font-family="ArialMT" font-size="24.0" fill="#000000" transform="matrix(1.00, 0.00, -0.00, -1.00, 166.7, 312.0)">c</text><text xml:space="preserve" font-family="ArialMT" font-size="24.0" fill="#000000" transform="matrix(1.00, 0.00, -0.00, -1.00, 178.7, 312.0)"> </text><text xml:space="preserve" font-family="ArialMT" font-size="24.0" fill="#000000" transform="matrix(1.00, 0.00, -0.00, -1.00, 185.4, 312.0)">D</text><text xml:space="preserve" font-family="ArialMT" font-size="24.0" fill="#000000" transform="matrix(1.00, 0.00, -0.00, -1.00, 202.7, 312.0)">i</text><text xml:space="preserve" font-family="ArialMT" font-size="24.0" fill="#000000" transform="matrix(1.00, 0.00, -0.00, -1.00, 208.0, 312.0)">f</text><text xml:space="preserve" font-family="ArialMT" font-size="24.0" fill="#000000" transform="matrix(1.00, 0.00, -0.00, -1.00, 214.3, 312.0)">f</text><text xml:space="preserve" font-family="ArialMT" font-size="24.0" fill="#000000" transform="matrix(1.00, 0.00, -0.00, -1.00, 220.9, 312.0)">u</text><text xml:space="preserve" font-family="ArialMT" font-size="24.0" fill="#000000" transform="matrix(1.00, 0.00, -0.00, -1.00, 234.3, 312.0)">s</text><text xml:space="preserve" font-family="ArialMT" font-size="24.0" fill="#000000" transform="matrix(1.00, 0.00, -0.00, -1.00, 246.3, 312.0)">i</text><text xml:space="preserve" font-family="ArialMT" font-size="24.0" fill="#000000" transform="matrix(1.00, 0.00, -0.00, -1.00, 251.6, 312.0)">o</text><text xml:space="preserve" font-family="ArialMT" font-size="24.0" fill="#000000" transform="matrix(1.00, 0.00, -0.00, -1.00, 265.0, 312.0)">n</text><text xml:space="preserve" font-family="ArialMT" font-size="24.0" fill="#000000" transform="matrix(1.00, 0.00, -0.00, -1.00, 430.0, 312.0)">A</text><text xml:space="preserve" font-family="ArialMT" font-size="24.0" fill="#000000" transform="matrix(1.00, 0.00, -0.00, -1.00, 446.0, 312.0)">n</text><text xml:space="preserve" font-family="ArialMT" font-size="24.0" fill="#000000" transform="matrix(1.00, 0.00, -0.00, -1.00, 459.4, 312.0)">i</text><text xml:space="preserve" font-family="ArialMT" font-size="24.0" fill="#000000" transform="matrix(1.00, 0.00, -0.00, -1.00, 464.7, 312.0)">s</text><text xml:space="preserve" font-family="ArialMT" font-size="24.0" fill="#000000" transform="matrix(1.00, 0.00, -0.00, -1.00, 476.7, 312.0)">o</text><text xml:space="preserve" font-family="ArialMT" font-size="24.0" fill="#000000" transform="matrix(1.00, 0.00, -0.00, -1.00, 490.0, 312.0)">t</text><text xml:space="preserve" font-family="ArialMT" font-size="24.0" fill="#000000" transform="matrix(1.00, 0.00, -0.00, -1.00, 496.7, 312.0)">r</text><text xml:space="preserve" font-family="ArialMT" font-size="24.0" fill="#000000" transform="matrix(1.00, 0.00, -0.00, -1.00, 504.7, 312.0)">o</text><text xml:space="preserve" font-family="ArialMT" font-size="24.0" fill="#000000" transform="matrix(1.00, 0.00, -0.00, -1.00, 518.1, 312.0)">p</text><text xml:space="preserve" font-family="ArialMT" font-size="24.0" fill="#000000" transform="matrix(1.00, 0.00, -0.00, -1.00, 531.4, 312.0)">i</text><text xml:space="preserve" font-family="ArialMT" font-size="24.0" fill="#000000" transform="matrix(1.00, 0.00, -0.00, -1.00, 536.7, 312.0)">c</text><text xml:space="preserve" font-family="ArialMT" font-size="24.0" fill="#000000" transform="matrix(1.00, 0.00, -0.00, -1.00, 548.7, 312.0)"> </text><text xml:space="preserve" font-family="ArialMT" font-size="24.0" fill="#000000" transform="matrix(1.00, 0.00, -0.00, -1.00, 555.4, 312.0)">D</text><text xml:space="preserve" font-family="ArialMT" font-size="24.0" fill="#000000" transform="matrix(1.00, 0.00, -0.00, -1.00, 572.7, 312.0)">i</text><text xml:space="preserve" font-family="ArialMT" font-size="24.0" fill="#000000" transform="matrix(1.00, 0.00, -0.00, -1.00, 578.1, 312.0)">f</text><text xml:space="preserve" font-family="ArialMT" font-size="24.0" fill="#000000" transform="matrix(1.00, 0.00, -0.00, -1.00, 584.3, 312.0)">f</text><text xml:space="preserve" font-family="ArialMT" font-size="24.0" fill="#000000" transform="matrix(1.00, 0.00, -0.00, -1.00, 591.0, 312.0)">u</text><text xml:space="preserve" font-family="ArialMT" font-size="24.0" fill="#000000" transform="matrix(1.00, 0.00, -0.00, -1.00, 604.3, 312.0)">s</text><text xml:space="preserve" font-family="ArialMT" font-size="24.0" fill="#000000" transform="matrix(1.00, 0.00, -0.00, -1.00, 616.3, 312.0)">i</text><text xml:space="preserve" font-family="ArialMT" font-size="24.0" fill="#000000" transform="matrix(1.00, 0.00, -0.00, -1.00, 621.7, 312.0)">o</text><text xml:space="preserve" font-family="ArialMT" font-size="24.0" fill="#000000" transform="matrix(1.00, 0.00, -0.00, -1.00, 635.0, 312.0)">n</text><text xml:space="preserve" font-family="Symbol" font-size="24.0" fill="#000000" transform="matrix(1.00, 0.00, -0.00, -1.00, 484.0, 18.0)">λ</text><text xml:space="preserve" font-family="ArialMT" font-size="16.0" fill="#000000" transform="matrix(1.00, 0.00, -0.00, -1.00, 497.2, 11.7)">1</text><text xml:space="preserve" font-family="ArialMT" font-size="16.0" fill="#000000" transform="matrix(1.00, 0.00, -0.00, -1.00, 506.1, 11.7)"> </text><text xml:space="preserve" font-family="ArialMT" font-size="24.0" fill="#000000" transform="matrix(1.00, 0.00, -0.00, -1.00, 510.5, 18.0)">&gt;</text><text xml:space="preserve" font-family="ArialMT" font-size="24.0" fill="#000000" transform="matrix(1.00, 0.00, -0.00, -1.00, 524.5, 18.0)"> </text><text xml:space="preserve" font-family="Symbol" font-size="24.0" fill="#000000" transform="matrix(1.00, 0.00, -0.00, -1.00, 531.2, 18.0)">λ</text><text xml:space="preserve" font-family="ArialMT" font-size="16.0" fill="#000000" transform="matrix(1.00, 0.00, -0.00, -1.00, 544.4, 11.7)">2</text><text xml:space="preserve" font-family="ArialMT" font-size="24.0" fill="#000000" transform="matrix(1.00, 0.00, -0.00, -1.00, 553.3, 18.0)"> </text><text xml:space="preserve" font-family="ArialMT" font-size="24.0" fill="#000000" transform="matrix(1.00, 0.00, -0.00, -1.00, 559.9, 18.0)">,</text><text xml:space="preserve" font-family="ArialMT" font-size="24.0" fill="#000000" transform="matrix(1.00, 0.00, -0.00, -1.00, 566.6, 18.0)"> </text><text xml:space="preserve" font-family="Symbol" font-size="24.0" fill="#000000" transform="matrix(1.00, 0.00, -0.00, -1.00, 573.3, 18.0)">λ</text><text xml:space="preserve" font-family="ArialMT" font-size="16.0" fill="#000000" transform="matrix(1.00, 0.00, -0.00, -1.00, 586.4, 11.7)">3</text><text xml:space="preserve" font-family="Symbol" font-size="24.0" fill="#000000" transform="matrix(1.00, 0.00, -0.00, -1.00, 130.0, 18.0)">λ</text><text xml:space="preserve" font-family="ArialMT" font-size="16.0" fill="#000000" transform="matrix(1.00, 0.00, -0.00, -1.00, 143.2, 11.7)">1</text><text xml:space="preserve" font-family="ArialMT" font-size="16.0" fill="#000000" transform="matrix(1.00, 0.00, -0.00, -1.00, 152.1, 11.7)"> </text><text xml:space="preserve" font-family="ArialMT" font-size="24.0" fill="#000000" transform="matrix(1.00, 0.00, -0.00, -1.00, 156.5, 18.0)">=</text><text xml:space="preserve" font-family="ArialMT" font-size="24.0" fill="#000000" transform="matrix(1.00, 0.00, -0.00, -1.00, 170.5, 18.0)"> </text><text xml:space="preserve" font-family="Symbol" font-size="24.0" fill="#000000" transform="matrix(1.00, 0.00, -0.00, -1.00, 177.2, 18.0)">λ</text><text xml:space="preserve" font-family="ArialMT" font-size="16.0" fill="#000000" transform="matrix(1.00, 0.00, -0.00, -1.00, 190.4, 11.7)">2</text><text xml:space="preserve" font-family="ArialMT" font-size="24.0" fill="#000000" transform="matrix(1.00, 0.00, -0.00, -1.00, 199.3, 18.0)"> </text><text xml:space="preserve" font-family="ArialMT" font-size="24.0" fill="#000000" transform="matrix(1.00, 0.00, -0.00, -1.00, 205.9, 18.0)">=</text><text xml:space="preserve" font-family="ArialMT" font-size="24.0" fill="#000000" transform="matrix(1.00, 0.00, -0.00, -1.00, 219.9, 18.0)"> </text><text xml:space="preserve" font-family="Symbol" font-size="24.0" fill="#000000" transform="matrix(1.00, 0.00, -0.00, -1.00, 226.6, 18.0)">λ</text><text xml:space="preserve" font-family="ArialMT" font-size="16.0" fill="#000000" transform="matrix(1.00, 0.00, -0.00, -1.00, 239.8, 11.7)">3</text><g><clipPath id="clip-5247"><path d="M -1.0 485.0 L 721.0 485.0 L 721.0 541.0 L -1.0 541.0 Z M -1.0 485.0 "></path></clipPath><g clip-path="url(#clip-5247)"><path d="M -0.0 540.0 L 720.0 540.0 L 720.0 486.0 L -0.0 486.0 Z M -0.0 540.0 " fill="#93B3D7"></path></g></g><g><clipPath id="clip-5248"><path d="M -5.7 490.1 L 725.7 490.1 L 725.7 545.7 L -5.7 545.7 Z M -5.7 490.1 "></path></clipPath><g clip-path="url(#clip-5248)"><text xml:space="preserve" font-family="TrebuchetMS-Bold" font-weight="bold" font-size="32.0" fill="#000000" transform="matrix(1.00, 0.00, -0.00, -1.00, 4.0, 507.0)">D</text><text xml:space="preserve" font-family="TrebuchetMS-Bold" font-weight="bold" font-size="32.0" fill="#000000" transform="matrix(1.00, 0.00, -0.00, -1.00, 24.5, 507.0)">i</text><text xml:space="preserve" font-family="TrebuchetMS-Bold" font-weight="bold" font-size="32.0" fill="#000000" transform="matrix(1.00, 0.00, -0.00, -1.00, 34.1, 507.0)">f</text><text xml:space="preserve" font-family="TrebuchetMS-Bold" font-weight="bold" font-size="32.0" fill="#000000" transform="matrix(1.00, 0.00, -0.00, -1.00, 45.9, 507.0)">f</text><text xml:space="preserve" font-family="TrebuchetMS-Bold" font-weight="bold" font-size="32.0" fill="#000000" transform="matrix(1.00, 0.00, -0.00, -1.00, 57.7, 507.0)">u</text><text xml:space="preserve" font-family="TrebuchetMS-Bold" font-weight="bold" font-size="32.0" fill="#000000" transform="matrix(1.00, 0.00, -0.00, -1.00, 76.6, 507.0)">s</text><text xml:space="preserve" font-family="TrebuchetMS-Bold" font-weight="bold" font-size="32.0" fill="#000000" transform="matrix(1.00, 0.00, -0.00, -1.00, 90.4, 507.0)">i</text><text xml:space="preserve" font-family="TrebuchetMS-Bold" font-weight="bold" font-size="32.0" fill="#000000" transform="matrix(1.00, 0.00, -0.00, -1.00, 100.0, 507.0)">o</text><text xml:space="preserve" font-family="TrebuchetMS-Bold" font-weight="bold" font-size="32.0" fill="#000000" transform="matrix(1.00, 0.00, -0.00, -1.00, 118.1, 507.0)">n</text><text xml:space="preserve" font-family="TrebuchetMS-Bold" font-weight="bold" font-size="32.0" fill="#000000" transform="matrix(1.00, 0.00, -0.00, -1.00, 137.0, 507.0)"> </text><text xml:space="preserve" font-family="TrebuchetMS-Bold" font-weight="bold" font-size="32.0" fill="#000000" transform="matrix(1.00, 0.00, -0.00, -1.00, 146.0, 507.0)">T</text><text xml:space="preserve" font-family="TrebuchetMS-Bold" font-weight="bold" font-size="32.0" fill="#000000" transform="matrix(1.00, 0.00, -0.00, -1.00, 162.1, 507.0)">e</text><text xml:space="preserve" font-family="TrebuchetMS-Bold" font-weight="bold" font-size="32.0" fill="#000000" transform="matrix(1.00, 0.00, -0.00, -1.00, 180.4, 507.0)">n</text><text xml:space="preserve" font-family="TrebuchetMS-Bold" font-weight="bold" font-size="32.0" fill="#000000" transform="matrix(1.00, 0.00, -0.00, -1.00, 199.3, 507.0)">s</text><text xml:space="preserve" font-family="TrebuchetMS-Bold" font-weight="bold" font-size="32.0" fill="#000000" transform="matrix(1.00, 0.00, -0.00, -1.00, 213.1, 507.0)">o</text><text xml:space="preserve" font-family="TrebuchetMS-Bold" font-weight="bold" font-size="32.0" fill="#000000" transform="matrix(1.00, 0.00, -0.00, -1.00, 231.2, 507.0)">r</text><text xml:space="preserve" font-family="TrebuchetMS-Bold" font-weight="bold" font-size="32.0" fill="#000000" transform="matrix(1.00, 0.00, -0.00, -1.00, 244.9, 507.0)"> </text><text xml:space="preserve" font-family="TrebuchetMS-Bold" font-weight="bold" font-size="32.0" fill="#000000" transform="matrix(1.00, 0.00, -0.00, -1.00, 254.6, 507.0)">I</text><text xml:space="preserve" font-family="TrebuchetMS-Bold" font-weight="bold" font-size="32.0" fill="#000000" transform="matrix(1.00, 0.00, -0.00, -1.00, 263.5, 507.0)">m</text><text xml:space="preserve" font-family="TrebuchetMS-Bold" font-weight="bold" font-size="32.0" fill="#000000" transform="matrix(1.00, 0.00, -0.00, -1.00, 291.0, 507.0)">a</text><text xml:space="preserve" font-family="TrebuchetMS-Bold" font-weight="bold" font-size="32.0" fill="#000000" transform="matrix(1.00, 0.00, -0.00, -1.00, 308.0, 507.0)">g</text><text xml:space="preserve" font-family="TrebuchetMS-Bold" font-weight="bold" font-size="32.0" fill="#000000" transform="matrix(1.00, 0.00, -0.00, -1.00, 324.1, 507.0)">i</text><text xml:space="preserve" font-family="TrebuchetMS-Bold" font-weight="bold" font-size="32.0" fill="#000000" transform="matrix(1.00, 0.00, -0.00, -1.00, 333.6, 507.0)">n</text><text xml:space="preserve" font-family="TrebuchetMS-Bold" font-weight="bold" font-size="32.0" fill="#000000" transform="matrix(1.00, 0.00, -0.00, -1.00, 352.5, 507.0)">g</text></g></g><path d="M 0.0 0.0 L 720.0 0.0 " fill="none" stroke="#000000" stroke-width="2.00" stroke-linejoin="round" transform="matrix(-1.00, 0.00, 0.00, 1.00, 720.0, 485.8)"></path></g></svg>