<?xml version="1.0" encoding="UTF-8" standalone="no"?><svg xmlns="http://www.w3.org/2000/svg" xmlns:xlink="http://www.w3.org/1999/xlink" clip-rule="evenodd" stroke-miterlimit="4.00" viewBox="0 0 720 540"><desc>SVG generated by Keynote</desc><defs></defs><g transform="matrix(1.00, 0.00, -0.00, -1.00, 0.0, 540.0)"><path d="M 0.0 540.0 L 720.0 540.0 L 720.0 0.0 L 0.0 0.0 Z M 0.0 540.0 " fill="#FFFFFF"></path><path d="M 0.0 0.0 L 624.0 0.0 " fill="none" stroke="#282828" stroke-width="3.00" stroke-linejoin="round" transform="matrix(1.00, 0.00, 0.00, -1.00, 42.0, 366.0)"></path><g><clipPath id="clip-5102"><path d="M 87.5 321.5 L 104.5 321.5 L 104.5 410.5 L 87.5 410.5 Z M 87.5 321.5 "></path></clipPath><g clip-path="url(#clip-5102)"><path d="M 10.2 12.3 C 12.6 28.7 12.6 55.3 10.2 71.7 C 7.9 88.1 4.1 88.1 1.8 71.7 C -0.6 55.3 -0.6 28.7 1.8 12.3 C 4.1 -4.1 7.9 -4.1 10.2 12.3 Z M 10.2 12.3 " fill="none" stroke="#282828" stroke-width="3.00" stroke-linejoin="round" transform="matrix(1.00, 0.00, 0.00, -1.00, 90.0, 408.0)"></path></g></g><g><clipPath id="clip-5103"><path d="M 99.5 339.5 L 110.5 339.5 L 110.5 386.5 L 99.5 386.5 Z M 99.5 339.5 "></path></clipPath><g clip-path="url(#clip-5103)"><path d="M 5.1 6.2 C 6.3 14.4 6.3 27.6 5.1 35.8 C 3.9 44.1 2.1 44.1 0.9 35.8 C -0.3 27.6 -0.3 14.4 0.9 6.2 C 2.1 -2.1 3.9 -2.1 5.1 6.2 Z M 5.1 6.2 " fill="none" stroke="#282828" stroke-width="3.00" stroke-linejoin="round" transform="matrix(1.00, 0.00, 0.00, -1.00, 102.0, 384.0)"></path></g></g><g><clipPath id="clip-5104"><path d="M 81.5 339.5 L 92.5 339.5 L 92.5 386.5 L 81.5 386.5 Z M 81.5 339.5 "></path></clipPath><g clip-path="url(#clip-5104)"><path d="M 5.1 6.2 C 6.3 14.4 6.3 27.6 5.1 35.8 C 3.9 44.1 2.1 44.1 0.9 35.8 C -0.3 27.6 -0.3 14.4 0.9 6.2 C 2.1 -2.1 3.9 -2.1 5.1 6.2 Z M 5.1 6.2 " fill="none" stroke="#282828" stroke-width="3.00" stroke-linejoin="round" transform="matrix(1.00, 0.00, 0.00, -1.00, 84.0, 384.0)"></path></g></g><g><clipPath id="clip-5105"><path d="M 353.1 312.4 L 373.2 312.4 L 373.2 422.5 L 353.1 422.5 Z M 353.1 312.4 "></path></clipPath><g clip-path="url(#clip-5105)"><path d="M 12.9 15.4 C 15.9 35.9 15.9 69.2 12.9 89.7 C 10.0 110.3 5.2 110.3 2.2 89.7 C -0.7 69.2 -0.7 35.9 2.2 15.4 C 5.2 -5.1 10.0 -5.1 12.9 15.4 Z M 12.9 15.4 " fill="none" stroke="#282828" stroke-width="3.00" stroke-linejoin="round" transform="matrix(1.00, 0.00, 0.00, -1.00, 355.6, 420.0)"></path></g></g><g><clipPath id="clip-5106"><path d="M 368.2 334.9 L 380.8 334.9 L 380.8 392.5 L 368.2 392.5 Z M 368.2 334.9 "></path></clipPath><g clip-path="url(#clip-5106)"><path d="M 6.5 7.7 C 7.9 18.0 7.9 34.6 6.5 44.9 C 5.0 55.1 2.6 55.1 1.1 44.9 C -0.4 34.6 -0.4 18.0 1.1 7.7 C 2.6 -2.6 5.0 -2.6 6.5 7.7 Z M 6.5 7.7 " fill="none" stroke="#282828" stroke-width="3.00" stroke-linejoin="round" transform="matrix(1.00, 0.00, 0.00, -1.00, 370.7, 390.0)"></path></g></g><g><clipPath id="clip-5107"><path d="M 345.5 334.9 L 358.1 334.9 L 358.1 392.5 L 345.5 392.5 Z M 345.5 334.9 "></path></clipPath><g clip-path="url(#clip-5107)"><path d="M 6.5 7.7 C 7.9 18.0 7.9 34.6 6.5 44.9 C 5.0 55.1 2.6 55.1 1.1 44.9 C -0.4 34.6 -0.4 18.0 1.1 7.7 C 2.6 -2.6 5.0 -2.6 6.5 7.7 Z M 6.5 7.7 " fill="none" stroke="#282828" stroke-width="3.00" stroke-linejoin="round" transform="matrix(1.00, 0.00, 0.00, -1.00, 348.0, 390.0)"></path></g></g><path d="M 210.0 414.0 L 306.0 414.0 L 306.0 366.0 L 210.0 366.0 Z M 210.0 414.0 " fill="#FF0000"></path><path d="M 0.0 0.0 L 96.0 0.0 L 96.0 48.0 L 0.0 48.0 Z M 0.0 0.0 " fill="none" stroke="#282828" stroke-width="3.00" stroke-miterlimit="8.00" transform="matrix(1.00, 0.00, 0.00, -1.00, 210.0, 414.0)"></path><path d="M 426.0 414.0 L 522.0 414.0 L 522.0 366.0 L 426.0 366.0 Z M 426.0 414.0 " fill="#FF0000"></path><path d="M 0.0 0.0 L 96.0 0.0 L 96.0 48.0 L 0.0 48.0 Z M 0.0 0.0 " fill="none" stroke="#282828" stroke-width="3.00" stroke-miterlimit="8.00" transform="matrix(1.00, 0.00, 0.00, -1.00, 426.0, 414.0)"></path><text xml:space="preserve" font-family="TimesNewRomanPSMT" font-size="14.0" fill="#282828" transform="matrix(1.00, 0.00, -0.00, -1.00, 76.0, 424.0)">π</text><text xml:space="preserve" font-family="ArialMT" font-size="18.0" fill="#282828" transform="matrix(1.00, 0.00, -0.00, -1.00, 83.1, 424.0)">/</text><text xml:space="preserve" font-family="ArialMT" font-size="18.0" fill="#282828" transform="matrix(1.00, 0.00, -0.00, -1.00, 88.1, 424.0)">2</text><text xml:space="preserve" font-family="TimesNewRomanPSMT" font-size="14.0" fill="#282828" transform="matrix(1.00, 0.00, -0.00, -1.00, 352.0, 440.0)">π</text><path d="M 666.0 366.0 L 618.0 348.0 L 618.0 384.0 Z M 666.0 366.0 " fill="#282828" fill-opacity="0.50"></path><path d="M 20.8 0.0 L 38.8 48.0 L 2.8 48.0 Z M 20.8 0.0 " fill="none" stroke="#282828" stroke-width="3.00" stroke-miterlimit="8.00" transform="matrix(0.00, -1.00, -1.00, 0.00, 666.0, 386.8)"></path><text xml:space="preserve" font-family="ArialMT" font-size="18.0" fill="#282828" transform="matrix(1.00, 0.00, -0.00, -1.00, 592.0, 400.0)">A</text><text xml:space="preserve" font-family="ArialMT" font-size="18.0" fill="#282828" transform="matrix(1.00, 0.00, -0.00, -1.00, 604.0, 400.0)">c</text><text xml:space="preserve" font-family="ArialMT" font-size="18.0" fill="#282828" transform="matrix(1.00, 0.00, -0.00, -1.00, 613.0, 400.0)">q</text><text xml:space="preserve" font-family="ArialMT" font-size="18.0" fill="#282828" transform="matrix(1.00, 0.00, -0.00, -1.00, 623.0, 400.0)">u</text><text xml:space="preserve" font-family="ArialMT" font-size="18.0" fill="#282828" transform="matrix(1.00, 0.00, -0.00, -1.00, 633.0, 400.0)">i</text><text xml:space="preserve" font-family="ArialMT" font-size="18.0" fill="#282828" transform="matrix(1.00, 0.00, -0.00, -1.00, 637.0, 400.0)">s</text><text xml:space="preserve" font-family="ArialMT" font-size="18.0" fill="#282828" transform="matrix(1.00, 0.00, -0.00, -1.00, 646.0, 400.0)">i</text><text xml:space="preserve" font-family="ArialMT" font-size="18.0" fill="#282828" transform="matrix(1.00, 0.00, -0.00, -1.00, 650.0, 400.0)">t</text><text xml:space="preserve" font-family="ArialMT" font-size="18.0" fill="#282828" transform="matrix(1.00, 0.00, -0.00, -1.00, 655.0, 400.0)">i</text><text xml:space="preserve" font-family="ArialMT" font-size="18.0" fill="#282828" transform="matrix(1.00, 0.00, -0.00, -1.00, 659.0, 400.0)">o</text><text xml:space="preserve" font-family="ArialMT" font-size="18.0" fill="#282828" transform="matrix(1.00, 0.00, -0.00, -1.00, 669.1, 400.0)">n</text><path d="M 0.0 0.0 L 78.0 0.0 " fill="none" stroke="#0000FF" stroke-width="3.00" stroke-linejoin="round" transform="matrix(0.00, -1.00, -1.00, 0.00, 210.0, 348.0)"></path><path d="M 0.0 0.0 L 78.0 0.0 " fill="none" stroke="#0000FF" stroke-width="3.00" stroke-linejoin="round" transform="matrix(0.00, -1.00, -1.00, 0.00, 426.0, 348.0)"></path><path d="M 0.0 0.0 L 42.0 0.0 " fill="none" stroke="#0000FF" stroke-width="3.00" stroke-linejoin="round" transform="matrix(0.00, -1.00, -1.00, 0.00, 306.0, 348.0)"></path><text xml:space="preserve" font-family="ArialMT" font-size="14.0" fill="#0000CC" transform="matrix(1.00, 0.00, -0.00, -1.00, 250.0, 332.0)">δ</text><text xml:space="preserve" font-family="ArialMT" font-size="14.0" fill="#0000CC" transform="matrix(1.00, 0.00, -0.00, -1.00, 304.0, 284.0)">Δ</text><path d="M 0.0 0.0 L 36.0 0.0 " fill="none" stroke="#0000FF" stroke-width="3.00" stroke-linejoin="round" transform="matrix(1.00, 0.00, 0.00, -1.00, 210.0, 330.0)"></path><path d="M 0.0 0.0 L 30.0 0.0 " fill="none" stroke="#0000FF" stroke-width="3.00" stroke-linejoin="round" transform="matrix(1.00, 0.00, 0.00, -1.00, 276.0, 330.0)"></path><path d="M 0.0 0.0 L 90.0 0.0 " fill="none" stroke="#0000FF" stroke-width="3.00" stroke-linejoin="round" transform="matrix(1.00, 0.00, 0.00, -1.00, 210.0, 282.0)"></path><path d="M 0.0 0.0 L 96.0 0.0 " fill="none" stroke="#0000FF" stroke-width="3.00" stroke-linejoin="round" transform="matrix(1.00, 0.00, 0.00, -1.00, 330.0, 282.0)"></path><path d="M 0.0 0.0 L 42.0 0.0 " fill="none" stroke="#FF0000" stroke-width="3.00" stroke-linejoin="round" transform="matrix(-1.00, 0.00, 0.00, 1.00, 204.0, 414.0)"></path><text xml:space="preserve" font-family="ArialMT" font-size="14.0" fill="#FF0000" transform="matrix(1.00, 0.00, -0.00, -1.00, 166.0, 392.0)">G</text><path d="M 0.0 0.0 L 12.0 0.0 " fill="none" stroke="#FF0000" stroke-width="3.00" stroke-linejoin="round" transform="matrix(0.00, -1.00, -1.00, 0.00, 180.0, 414.0)"></path><path d="M 0.0 0.0 L 12.0 0.0 " fill="none" stroke="#FF0000" stroke-width="3.00" stroke-linejoin="round" transform="matrix(0.00, -1.00, -1.00, 0.00, 180.0, 378.0)"></path><text xml:space="preserve" font-family="ArialMT" font-size="32.0" fill="#282828" transform="matrix(1.00, 0.00, -0.00, -1.00, 58.0, 201.0)">b</text><text xml:space="preserve" font-family="ArialMT" font-size="32.0" fill="#282828" transform="matrix(1.00, 0.00, -0.00, -1.00, 75.8, 201.0)"> </text><text xml:space="preserve" font-family="ArialMT" font-size="32.0" fill="#282828" transform="matrix(1.00, 0.00, -0.00, -1.00, 84.7, 201.0)">=</text><text xml:space="preserve" font-family="ArialMT" font-size="32.0" fill="#282828" transform="matrix(1.00, 0.00, -0.00, -1.00, 103.4, 201.0)"> </text><text xml:space="preserve" font-family="TimesNewRomanPSMT" font-size="32.0" fill="#282828" transform="matrix(1.00, 0.00, -0.00, -1.00, 112.3, 201.0)">γ</text><text xml:space="preserve" font-family="TimesNewRomanPSMT" font-size="21.3" fill="#282828" transform="matrix(1.00, 0.00, -0.00, -1.00, 126.4, 209.9)">2</text><text xml:space="preserve" font-family="TimesNewRomanPSMT" font-size="21.3" fill="#282828" transform="matrix(1.00, 0.00, -0.00, -1.00, 137.1, 209.9)"> </text><text xml:space="preserve" font-family="TimesNewRomanPSMT" font-size="32.0" fill="#282828" transform="matrix(1.00, 0.00, -0.00, -1.00, 142.4, 201.0)">G</text><text xml:space="preserve" font-family="TimesNewRomanPSMT" font-size="21.3" fill="#282828" transform="matrix(1.00, 0.00, -0.00, -1.00, 165.5, 209.9)">2</text><text xml:space="preserve" font-family="TimesNewRomanPSMT" font-size="21.3" fill="#282828" transform="matrix(1.00, 0.00, -0.00, -1.00, 176.2, 209.9)"> </text><text xml:space="preserve" font-family="TimesNewRomanPSMT" font-size="32.0" fill="#282828" transform="matrix(1.00, 0.00, -0.00, -1.00, 181.5, 201.0)">δ</text><text xml:space="preserve" font-family="TimesNewRomanPSMT" font-size="21.3" fill="#282828" transform="matrix(1.00, 0.00, -0.00, -1.00, 196.6, 209.9)">2</text><text xml:space="preserve" font-family="TimesNewRomanPSMT" font-size="21.3" fill="#282828" transform="matrix(1.00, 0.00, -0.00, -1.00, 207.3, 209.9)"> </text><text xml:space="preserve" font-family="TimesNewRomanPSMT" font-size="32.0" fill="#282828" transform="matrix(1.00, 0.00, -0.00, -1.00, 212.6, 201.0)">(</text><text xml:space="preserve" font-family="TimesNewRomanPSMT" font-size="32.0" fill="#282828" transform="matrix(1.00, 0.00, -0.00, -1.00, 223.3, 201.0)">Δ</text><text xml:space="preserve" font-family="TimesNewRomanPSMT" font-size="32.0" fill="#282828" transform="matrix(1.00, 0.00, -0.00, -1.00, 243.8, 201.0)">-</text><text xml:space="preserve" font-family="TimesNewRomanPSMT" font-size="32.0" fill="#282828" transform="matrix(1.00, 0.00, -0.00, -1.00, 254.5, 201.0)">δ</text><text xml:space="preserve" font-family="TimesNewRomanPSMT" font-size="32.0" fill="#282828" transform="matrix(1.00, 0.00, -0.00, -1.00, 269.6, 201.0)">/</text><text xml:space="preserve" font-family="TimesNewRomanPSMT" font-size="32.0" fill="#282828" transform="matrix(1.00, 0.00, -0.00, -1.00, 278.4, 201.0)">3</text><text xml:space="preserve" font-family="TimesNewRomanPSMT" font-size="32.0" fill="#282828" transform="matrix(1.00, 0.00, -0.00, -1.00, 294.4, 201.0)">)</text><g><clipPath id="clip-5108"><path d="M -1.0 485.0 L 721.0 485.0 L 721.0 541.0 L -1.0 541.0 Z M -1.0 485.0 "></path></clipPath><g clip-path="url(#clip-5108)"><path d="M -0.0 540.0 L 720.0 540.0 L 720.0 486.0 L -0.0 486.0 Z M -0.0 540.0 " fill="#93B3D7"></path></g></g><g><clipPath id="clip-5109"><path d="M -5.7 490.1 L 725.7 490.1 L 725.7 545.7 L -5.7 545.7 Z M -5.7 490.1 "></path></clipPath><g clip-path="url(#clip-5109)"><text xml:space="preserve" font-family="TrebuchetMS-Bold" font-weight="bold" font-size="32.0" fill="#000000" transform="matrix(1.00, 0.00, -0.00, -1.00, 4.0, 507.0)">T</text><text xml:space="preserve" font-family="TrebuchetMS-Bold" font-weight="bold" font-size="32.0" fill="#000000" transform="matrix(1.00, 0.00, -0.00, -1.00, 23.6, 507.0)">h</text><text xml:space="preserve" font-family="TrebuchetMS-Bold" font-weight="bold" font-size="32.0" fill="#000000" transform="matrix(1.00, 0.00, -0.00, -1.00, 42.5, 507.0)">e</text><text xml:space="preserve" font-family="TrebuchetMS-Bold" font-weight="bold" font-size="32.0" fill="#000000" transform="matrix(1.00, 0.00, -0.00, -1.00, 60.9, 507.0)"> </text><text xml:space="preserve" font-family="TrebuchetMS-Bold" font-weight="bold" font-size="32.0" fill="#000000" transform="matrix(1.00, 0.00, -0.00, -1.00, 70.6, 507.0)">D</text><text xml:space="preserve" font-family="TrebuchetMS-Bold" font-weight="bold" font-size="32.0" fill="#000000" transform="matrix(1.00, 0.00, -0.00, -1.00, 91.1, 507.0)">i</text><text xml:space="preserve" font-family="TrebuchetMS-Bold" font-weight="bold" font-size="32.0" fill="#000000" transform="matrix(1.00, 0.00, -0.00, -1.00, 100.7, 507.0)">f</text><text xml:space="preserve" font-family="TrebuchetMS-Bold" font-weight="bold" font-size="32.0" fill="#000000" transform="matrix(1.00, 0.00, -0.00, -1.00, 112.5, 507.0)">f</text><text xml:space="preserve" font-family="TrebuchetMS-Bold" font-weight="bold" font-size="32.0" fill="#000000" transform="matrix(1.00, 0.00, -0.00, -1.00, 124.4, 507.0)">u</text><text xml:space="preserve" font-family="TrebuchetMS-Bold" font-weight="bold" font-size="32.0" fill="#000000" transform="matrix(1.00, 0.00, -0.00, -1.00, 143.3, 507.0)">s</text><text xml:space="preserve" font-family="TrebuchetMS-Bold" font-weight="bold" font-size="32.0" fill="#000000" transform="matrix(1.00, 0.00, -0.00, -1.00, 157.0, 507.0)">i</text><text xml:space="preserve" font-family="TrebuchetMS-Bold" font-weight="bold" font-size="32.0" fill="#000000" transform="matrix(1.00, 0.00, -0.00, -1.00, 166.6, 507.0)">o</text><text xml:space="preserve" font-family="TrebuchetMS-Bold" font-weight="bold" font-size="32.0" fill="#000000" transform="matrix(1.00, 0.00, -0.00, -1.00, 184.7, 507.0)">n</text><text xml:space="preserve" font-family="TrebuchetMS-Bold" font-weight="bold" font-size="32.0" fill="#000000" transform="matrix(1.00, 0.00, -0.00, -1.00, 203.6, 507.0)"> </text><text xml:space="preserve" font-family="TrebuchetMS-Bold" font-weight="bold" font-size="32.0" fill="#000000" transform="matrix(1.00, 0.00, -0.00, -1.00, 213.3, 507.0)">P</text><text xml:space="preserve" font-family="TrebuchetMS-Bold" font-weight="bold" font-size="32.0" fill="#000000" transform="matrix(1.00, 0.00, -0.00, -1.00, 232.1, 507.0)">r</text><text xml:space="preserve" font-family="TrebuchetMS-Bold" font-weight="bold" font-size="32.0" fill="#000000" transform="matrix(1.00, 0.00, -0.00, -1.00, 245.7, 507.0)">o</text><text xml:space="preserve" font-family="TrebuchetMS-Bold" font-weight="bold" font-size="32.0" fill="#000000" transform="matrix(1.00, 0.00, -0.00, -1.00, 263.8, 507.0)">c</text><text xml:space="preserve" font-family="TrebuchetMS-Bold" font-weight="bold" font-size="32.0" fill="#000000" transform="matrix(1.00, 0.00, -0.00, -1.00, 280.2, 507.0)">e</text><text xml:space="preserve" font-family="TrebuchetMS-Bold" font-weight="bold" font-size="32.0" fill="#000000" transform="matrix(1.00, 0.00, -0.00, -1.00, 298.6, 507.0)">s</text><text xml:space="preserve" font-family="TrebuchetMS-Bold" font-weight="bold" font-size="32.0" fill="#000000" transform="matrix(1.00, 0.00, -0.00, -1.00, 312.4, 507.0)">s</text><text xml:space="preserve" font-family="TrebuchetMS-Bold" font-weight="bold" font-size="32.0" fill="#000000" transform="matrix(1.00, 0.00, -0.00, -1.00, 326.1, 507.0)"> </text><text xml:space="preserve" font-family="TrebuchetMS-Bold" font-weight="bold" font-size="32.0" fill="#000000" transform="matrix(1.00, 0.00, -0.00, -1.00, 335.8, 507.0)">-</text><text xml:space="preserve" font-family="TrebuchetMS-Bold" font-weight="bold" font-size="32.0" fill="#000000" transform="matrix(1.00, 0.00, -0.00, -1.00, 347.5, 507.0)"> </text><text xml:space="preserve" font-family="TrebuchetMS-Bold" font-weight="bold" font-size="32.0" fill="#000000" transform="matrix(1.00, 0.00, -0.00, -1.00, 357.2, 507.0)">D</text><text xml:space="preserve" font-family="TrebuchetMS-Bold" font-weight="bold" font-size="32.0" fill="#000000" transform="matrix(1.00, 0.00, -0.00, -1.00, 377.8, 507.0)">W</text><text xml:space="preserve" font-family="TrebuchetMS-Bold" font-weight="bold" font-size="32.0" fill="#000000" transform="matrix(1.00, 0.00, -0.00, -1.00, 406.0, 507.0)">I</text></g></g><path d="M 0.0 0.0 L 720.0 0.0 " fill="none" stroke="#000000" stroke-width="2.00" stroke-linejoin="round" transform="matrix(-1.00, 0.00, 0.00, 1.00, 720.0, 485.8)"></path></g></svg>