<?xml version="1.0" encoding="UTF-8" standalone="no"?><svg xmlns="http://www.w3.org/2000/svg" xmlns:xlink="http://www.w3.org/1999/xlink" clip-rule="evenodd" stroke-miterlimit="4.00" viewBox="0 0 720 540"><desc>SVG generated by Keynote</desc><defs></defs><g transform="matrix(1.00, 0.00, -0.00, -1.00, 0.0, 540.0)"><path d="M 0.0 540.0 L 720.0 540.0 L 720.0 0.0 L 0.0 0.0 Z M 0.0 540.0 " fill="#FFFFFF"></path><text xml:space="preserve" font-family="TrebuchetMS" font-size="12.0" fill="#888888" transform="matrix(1.00, 0.00, -0.00, -1.00, 264.0, 21.0)">M</text><text xml:space="preserve" font-family="TrebuchetMS" font-size="12.0" fill="#888888" transform="matrix(1.00, 0.00, -0.00, -1.00, 272.5, 21.0)">o</text><text xml:space="preserve" font-family="TrebuchetMS" font-size="12.0" fill="#888888" transform="matrix(1.00, 0.00, -0.00, -1.00, 279.0, 21.0)">u</text><text xml:space="preserve" font-family="TrebuchetMS" font-size="12.0" fill="#888888" transform="matrix(1.00, 0.00, -0.00, -1.00, 285.5, 21.0)">s</text><text xml:space="preserve" font-family="TrebuchetMS" font-size="12.0" fill="#888888" transform="matrix(1.00, 0.00, -0.00, -1.00, 290.4, 21.0)">e</text><text xml:space="preserve" font-family="TrebuchetMS" font-size="12.0" fill="#888888" transform="matrix(1.00, 0.00, -0.00, -1.00, 296.9, 21.0)"> </text><text xml:space="preserve" font-family="TrebuchetMS" font-size="12.0" fill="#888888" transform="matrix(1.00, 0.00, -0.00, -1.00, 300.5, 21.0)">I</text><text xml:space="preserve" font-family="TrebuchetMS" font-size="12.0" fill="#888888" transform="matrix(1.00, 0.00, -0.00, -1.00, 303.9, 21.0)">m</text><text xml:space="preserve" font-family="TrebuchetMS" font-size="12.0" fill="#888888" transform="matrix(1.00, 0.00, -0.00, -1.00, 313.8, 21.0)">a</text><text xml:space="preserve" font-family="TrebuchetMS" font-size="12.0" fill="#888888" transform="matrix(1.00, 0.00, -0.00, -1.00, 320.2, 21.0)">g</text><text xml:space="preserve" font-family="TrebuchetMS" font-size="12.0" fill="#888888" transform="matrix(1.00, 0.00, -0.00, -1.00, 326.2, 21.0)">i</text><text xml:space="preserve" font-family="TrebuchetMS" font-size="12.0" fill="#888888" transform="matrix(1.00, 0.00, -0.00, -1.00, 329.6, 21.0)">n</text><text xml:space="preserve" font-family="TrebuchetMS" font-size="12.0" fill="#888888" transform="matrix(1.00, 0.00, -0.00, -1.00, 336.2, 21.0)">g</text><text xml:space="preserve" font-family="TrebuchetMS" font-size="12.0" fill="#888888" transform="matrix(1.00, 0.00, -0.00, -1.00, 342.2, 21.0)"> </text><text xml:space="preserve" font-family="TrebuchetMS" font-size="12.0" fill="#888888" transform="matrix(1.00, 0.00, -0.00, -1.00, 345.8, 21.0)">S</text><text xml:space="preserve" font-family="TrebuchetMS" font-size="12.0" fill="#888888" transform="matrix(1.00, 0.00, -0.00, -1.00, 351.6, 21.0)">u</text><text xml:space="preserve" font-family="TrebuchetMS" font-size="12.0" fill="#888888" transform="matrix(1.00, 0.00, -0.00, -1.00, 358.1, 21.0)">m</text><text xml:space="preserve" font-family="TrebuchetMS" font-size="12.0" fill="#888888" transform="matrix(1.00, 0.00, -0.00, -1.00, 368.1, 21.0)">m</text><text xml:space="preserve" font-family="TrebuchetMS" font-size="12.0" fill="#888888" transform="matrix(1.00, 0.00, -0.00, -1.00, 378.1, 21.0)">e</text><text xml:space="preserve" font-family="TrebuchetMS" font-size="12.0" fill="#888888" transform="matrix(1.00, 0.00, -0.00, -1.00, 384.6, 21.0)">r</text><text xml:space="preserve" font-family="TrebuchetMS" font-size="12.0" fill="#888888" transform="matrix(1.00, 0.00, -0.00, -1.00, 389.3, 21.0)"> </text><text xml:space="preserve" font-family="TrebuchetMS" font-size="12.0" fill="#888888" transform="matrix(1.00, 0.00, -0.00, -1.00, 392.9, 21.0)">S</text><text xml:space="preserve" font-family="TrebuchetMS" font-size="12.0" fill="#888888" transform="matrix(1.00, 0.00, -0.00, -1.00, 398.7, 21.0)">c</text><text xml:space="preserve" font-family="TrebuchetMS" font-size="12.0" fill="#888888" transform="matrix(1.00, 0.00, -0.00, -1.00, 404.6, 21.0)">h</text><text xml:space="preserve" font-family="TrebuchetMS" font-size="12.0" fill="#888888" transform="matrix(1.00, 0.00, -0.00, -1.00, 411.2, 21.0)">o</text><text xml:space="preserve" font-family="TrebuchetMS" font-size="12.0" fill="#888888" transform="matrix(1.00, 0.00, -0.00, -1.00, 417.6, 21.0)">o</text><text xml:space="preserve" font-family="TrebuchetMS" font-size="12.0" fill="#888888" transform="matrix(1.00, 0.00, -0.00, -1.00, 424.0, 21.0)">l</text><text xml:space="preserve" font-family="TrebuchetMS" font-size="12.0" fill="#888888" transform="matrix(1.00, 0.00, -0.00, -1.00, 427.6, 21.0)"> </text><text xml:space="preserve" font-family="TrebuchetMS" font-size="12.0" fill="#888888" transform="matrix(1.00, 0.00, -0.00, -1.00, 431.2, 21.0)">2</text><text xml:space="preserve" font-family="TrebuchetMS" font-size="12.0" fill="#888888" transform="matrix(1.00, 0.00, -0.00, -1.00, 437.5, 21.0)">0</text><text xml:space="preserve" font-family="TrebuchetMS" font-size="12.0" fill="#888888" transform="matrix(1.00, 0.00, -0.00, -1.00, 443.8, 21.0)">1</text><text xml:space="preserve" font-family="TrebuchetMS" font-size="12.0" fill="#888888" transform="matrix(1.00, 0.00, -0.00, -1.00, 450.1, 21.0)">7</text><g><clipPath id="clip-5416"><path d="M 108.7 453.7 L 721.0 453.7 L 721.0 541.0 L 108.7 541.0 Z M 108.7 453.7 "></path></clipPath><g clip-path="url(#clip-5416)"><path d="M 109.7 540.0 L 720.0 540.0 L 720.0 454.7 L 109.7 454.7 Z M 109.7 540.0 " fill="#93B3D7"></path></g></g><g><clipPath id="clip-5417"><path d="M 104.0 490.1 L 725.7 490.1 L 725.7 545.7 L 104.0 545.7 Z M 104.0 490.1 "></path></clipPath><g clip-path="url(#clip-5417)"><text xml:space="preserve" font-family="TrebuchetMS-Bold" font-weight="bold" font-size="32.0" fill="#000000" transform="matrix(1.00, 0.00, -0.00, -1.00, 113.0, 507.0)">O</text><text xml:space="preserve" font-family="TrebuchetMS-Bold" font-weight="bold" font-size="32.0" fill="#000000" transform="matrix(1.00, 0.00, -0.00, -1.00, 135.5, 507.0)">u</text><text xml:space="preserve" font-family="TrebuchetMS-Bold" font-weight="bold" font-size="32.0" fill="#000000" transform="matrix(1.00, 0.00, -0.00, -1.00, 154.4, 507.0)">t</text><text xml:space="preserve" font-family="TrebuchetMS-Bold" font-weight="bold" font-size="32.0" fill="#000000" transform="matrix(1.00, 0.00, -0.00, -1.00, 167.1, 507.0)">l</text><text xml:space="preserve" font-family="TrebuchetMS-Bold" font-weight="bold" font-size="32.0" fill="#000000" transform="matrix(1.00, 0.00, -0.00, -1.00, 176.5, 507.0)">i</text><text xml:space="preserve" font-family="TrebuchetMS-Bold" font-weight="bold" font-size="32.0" fill="#000000" transform="matrix(1.00, 0.00, -0.00, -1.00, 186.1, 507.0)">n</text><text xml:space="preserve" font-family="TrebuchetMS-Bold" font-weight="bold" font-size="32.0" fill="#000000" transform="matrix(1.00, 0.00, -0.00, -1.00, 205.0, 507.0)">e</text></g></g><image xlink:href="../../11E978FA-FCFF-46C3-9412-4AEE41C64080/assets/5D3AE6C864802F0CC118C87FB0C84F5B.png" width="240.00" height="95.00" transform="matrix(0.41, 0.00, -0.00, -0.41, 0.0, 502.0)"></image><image xlink:href="../../11E978FA-FCFF-46C3-9412-4AEE41C64080/assets/6D8835745C7812B9191B39FDD8C55B36.jpeg" width="236.00" height="71.00" transform="matrix(0.40, 0.00, -0.00, -0.41, 0.0, 540.0)"></image><path d="M 0.0 0.0 L 720.0 0.0 " fill="none" stroke="#000000" stroke-width="2.00" stroke-linejoin="round" transform="matrix(-1.00, 0.00, 0.00, 1.00, 720.0, 454.6)"></path><path d="M 0.0 0.0 L 720.0 0.0 " fill="none" stroke="#000000" stroke-width="2.00" stroke-linejoin="round" transform="matrix(-1.00, 0.00, 0.00, 1.00, 720.0, 32.2)"></path><text xml:space="preserve" font-family="TrebuchetMS" font-size="12.0" fill="#878787" transform="matrix(1.00, 0.00, -0.00, -1.00, 674.1, 20.8)">2</text><text xml:space="preserve" font-family="TrebuchetMS" font-size="30.0" fill="#000000" transform="matrix(1.00, 0.00, -0.00, -1.00, 42.0, 396.3)">●</text><text xml:space="preserve" font-family="TrebuchetMS" font-size="30.0" fill="#000000" transform="matrix(1.00, 0.00, -0.00, -1.00, 75.0, 396.0)">P</text><text xml:space="preserve" font-family="TrebuchetMS" font-size="30.0" fill="#000000" transform="matrix(1.00, 0.00, -0.00, -1.00, 90.3, 396.0)">r</text><text xml:space="preserve" font-family="TrebuchetMS" font-size="30.0" fill="#000000" transform="matrix(1.00, 0.00, -0.00, -1.00, 102.0, 396.0)">o</text><text xml:space="preserve" font-family="TrebuchetMS" font-size="30.0" fill="#000000" transform="matrix(1.00, 0.00, -0.00, -1.00, 118.0, 396.0)">j</text><text xml:space="preserve" font-family="TrebuchetMS" font-size="30.0" fill="#000000" transform="matrix(1.00, 0.00, -0.00, -1.00, 129.0, 396.0)">e</text><text xml:space="preserve" font-family="TrebuchetMS" font-size="30.0" fill="#000000" transform="matrix(1.00, 0.00, -0.00, -1.00, 145.4, 396.0)">c</text><text xml:space="preserve" font-family="TrebuchetMS" font-size="30.0" fill="#000000" transform="matrix(1.00, 0.00, -0.00, -1.00, 160.3, 396.0)">t</text><text xml:space="preserve" font-family="TrebuchetMS" font-size="30.0" fill="#000000" transform="matrix(1.00, 0.00, -0.00, -1.00, 172.2, 396.0)"> </text><text xml:space="preserve" font-family="TrebuchetMS" font-size="30.0" fill="#000000" transform="matrix(1.00, 0.00, -0.00, -1.00, 181.2, 396.0)">S</text><text xml:space="preserve" font-family="TrebuchetMS" font-size="30.0" fill="#000000" transform="matrix(1.00, 0.00, -0.00, -1.00, 195.7, 396.0)">u</text><text xml:space="preserve" font-family="TrebuchetMS" font-size="30.0" fill="#000000" transform="matrix(1.00, 0.00, -0.00, -1.00, 212.1, 396.0)">m</text><text xml:space="preserve" font-family="TrebuchetMS" font-size="30.0" fill="#000000" transform="matrix(1.00, 0.00, -0.00, -1.00, 237.0, 396.0)">m</text><text xml:space="preserve" font-family="TrebuchetMS" font-size="30.0" fill="#000000" transform="matrix(1.00, 0.00, -0.00, -1.00, 261.9, 396.0)">a</text><text xml:space="preserve" font-family="TrebuchetMS" font-size="30.0" fill="#000000" transform="matrix(1.00, 0.00, -0.00, -1.00, 277.6, 396.0)">r</text><text xml:space="preserve" font-family="TrebuchetMS" font-size="30.0" fill="#000000" transform="matrix(1.00, 0.00, -0.00, -1.00, 289.3, 396.0)">y</text><text xml:space="preserve" font-family="TrebuchetMS" font-size="30.0" fill="#000000" transform="matrix(1.00, 0.00, -0.00, -1.00, 304.1, 396.0)"> </text><text xml:space="preserve" font-family="TrebuchetMS" font-size="30.0" fill="#000000" transform="matrix(1.00, 0.00, -0.00, -1.00, 42.0, 326.3)">●</text><text xml:space="preserve" font-family="TrebuchetMS" font-size="30.0" fill="#000000" transform="matrix(1.00, 0.00, -0.00, -1.00, 75.0, 326.0)">W</text><text xml:space="preserve" font-family="TrebuchetMS" font-size="30.0" fill="#000000" transform="matrix(1.00, 0.00, -0.00, -1.00, 100.6, 326.0)">h</text><text xml:space="preserve" font-family="TrebuchetMS" font-size="30.0" fill="#000000" transform="matrix(1.00, 0.00, -0.00, -1.00, 117.0, 326.0)">y</text><text xml:space="preserve" font-family="TrebuchetMS" font-size="30.0" fill="#000000" transform="matrix(1.00, 0.00, -0.00, -1.00, 131.8, 326.0)"> </text><text xml:space="preserve" font-family="TrebuchetMS" font-size="30.0" fill="#000000" transform="matrix(1.00, 0.00, -0.00, -1.00, 140.8, 326.0)">M</text><text xml:space="preserve" font-family="TrebuchetMS" font-size="30.0" fill="#000000" transform="matrix(1.00, 0.00, -0.00, -1.00, 162.1, 326.0)">R</text><text xml:space="preserve" font-family="TrebuchetMS" font-size="30.0" fill="#000000" transform="matrix(1.00, 0.00, -0.00, -1.00, 179.6, 326.0)">S</text><text xml:space="preserve" font-family="TrebuchetMS" font-size="30.0" fill="#000000" transform="matrix(1.00, 0.00, -0.00, -1.00, 194.0, 326.0)"> </text><text xml:space="preserve" font-family="TrebuchetMS" font-size="30.0" fill="#000000" transform="matrix(1.00, 0.00, -0.00, -1.00, 203.1, 326.0)">?</text><text xml:space="preserve" font-family="TrebuchetMS" font-size="30.0" fill="#000000" transform="matrix(1.00, 0.00, -0.00, -1.00, 214.1, 326.0)"> </text><text xml:space="preserve" font-family="TrebuchetMS" font-size="30.0" fill="#000000" transform="matrix(1.00, 0.00, -0.00, -1.00, 42.0, 256.3)">●</text><text xml:space="preserve" font-family="TrebuchetMS" font-size="30.0" fill="#000000" transform="matrix(1.00, 0.00, -0.00, -1.00, 75.0, 256.0)">M</text><text xml:space="preserve" font-family="TrebuchetMS" font-size="30.0" fill="#000000" transform="matrix(1.00, 0.00, -0.00, -1.00, 96.3, 256.0)">R</text><text xml:space="preserve" font-family="TrebuchetMS" font-size="30.0" fill="#000000" transform="matrix(1.00, 0.00, -0.00, -1.00, 113.8, 256.0)">S</text><text xml:space="preserve" font-family="TrebuchetMS" font-size="30.0" fill="#000000" transform="matrix(1.00, 0.00, -0.00, -1.00, 128.2, 256.0)">:</text><text xml:space="preserve" font-family="TrebuchetMS" font-size="30.0" fill="#000000" transform="matrix(1.00, 0.00, -0.00, -1.00, 139.2, 256.0)"> </text><text xml:space="preserve" font-family="TrebuchetMS" font-size="30.0" fill="#000000" transform="matrix(1.00, 0.00, -0.00, -1.00, 148.3, 256.0)">C</text><text xml:space="preserve" font-family="TrebuchetMS" font-size="30.0" fill="#000000" transform="matrix(1.00, 0.00, -0.00, -1.00, 166.2, 256.0)">h</text><text xml:space="preserve" font-family="TrebuchetMS" font-size="30.0" fill="#000000" transform="matrix(1.00, 0.00, -0.00, -1.00, 182.6, 256.0)">o</text><text xml:space="preserve" font-family="TrebuchetMS" font-size="30.0" fill="#000000" transform="matrix(1.00, 0.00, -0.00, -1.00, 198.7, 256.0)">l</text><text xml:space="preserve" font-family="TrebuchetMS" font-size="30.0" fill="#000000" transform="matrix(1.00, 0.00, -0.00, -1.00, 207.5, 256.0)">i</text><text xml:space="preserve" font-family="TrebuchetMS" font-size="30.0" fill="#000000" transform="matrix(1.00, 0.00, -0.00, -1.00, 216.1, 256.0)">n</text><text xml:space="preserve" font-family="TrebuchetMS" font-size="30.0" fill="#000000" transform="matrix(1.00, 0.00, -0.00, -1.00, 232.5, 256.0)">e</text><text xml:space="preserve" font-family="TrebuchetMS" font-size="30.0" fill="#000000" transform="matrix(1.00, 0.00, -0.00, -1.00, 248.9, 256.0)"> </text><text xml:space="preserve" font-family="TrebuchetMS" font-size="30.0" fill="#000000" transform="matrix(1.00, 0.00, -0.00, -1.00, 257.9, 256.0)">M</text><text xml:space="preserve" font-family="TrebuchetMS" font-size="30.0" fill="#000000" transform="matrix(1.00, 0.00, -0.00, -1.00, 279.2, 256.0)">e</text><text xml:space="preserve" font-family="TrebuchetMS" font-size="30.0" fill="#000000" transform="matrix(1.00, 0.00, -0.00, -1.00, 295.6, 256.0)">a</text><text xml:space="preserve" font-family="TrebuchetMS" font-size="30.0" fill="#000000" transform="matrix(1.00, 0.00, -0.00, -1.00, 311.4, 256.0)">s</text><text xml:space="preserve" font-family="TrebuchetMS" font-size="30.0" fill="#000000" transform="matrix(1.00, 0.00, -0.00, -1.00, 323.5, 256.0)">u</text><text xml:space="preserve" font-family="TrebuchetMS" font-size="30.0" fill="#000000" transform="matrix(1.00, 0.00, -0.00, -1.00, 339.9, 256.0)">r</text><text xml:space="preserve" font-family="TrebuchetMS" font-size="30.0" fill="#000000" transform="matrix(1.00, 0.00, -0.00, -1.00, 351.6, 256.0)">e</text><text xml:space="preserve" font-family="TrebuchetMS" font-size="30.0" fill="#000000" transform="matrix(1.00, 0.00, -0.00, -1.00, 367.9, 256.0)">m</text><text xml:space="preserve" font-family="TrebuchetMS" font-size="30.0" fill="#000000" transform="matrix(1.00, 0.00, -0.00, -1.00, 392.8, 256.0)">e</text><text xml:space="preserve" font-family="TrebuchetMS" font-size="30.0" fill="#000000" transform="matrix(1.00, 0.00, -0.00, -1.00, 409.2, 256.0)">n</text><text xml:space="preserve" font-family="TrebuchetMS" font-size="30.0" fill="#000000" transform="matrix(1.00, 0.00, -0.00, -1.00, 425.6, 256.0)">t</text><text xml:space="preserve" font-family="TrebuchetMS" font-size="30.0" fill="#000000" transform="matrix(1.00, 0.00, -0.00, -1.00, 437.5, 256.0)">s</text><text xml:space="preserve" font-family="TrebuchetMS" font-size="30.0" fill="#000000" transform="matrix(1.00, 0.00, -0.00, -1.00, 449.7, 256.0)"> </text><text xml:space="preserve" font-family="TrebuchetMS" font-size="30.0" fill="#000000" transform="matrix(1.00, 0.00, -0.00, -1.00, 458.7, 256.0)">W</text><text xml:space="preserve" font-family="TrebuchetMS" font-size="30.0" fill="#000000" transform="matrix(1.00, 0.00, -0.00, -1.00, 483.9, 256.0)">i</text><text xml:space="preserve" font-family="TrebuchetMS" font-size="30.0" fill="#000000" transform="matrix(1.00, 0.00, -0.00, -1.00, 492.4, 256.0)">t</text><text xml:space="preserve" font-family="TrebuchetMS" font-size="30.0" fill="#000000" transform="matrix(1.00, 0.00, -0.00, -1.00, 504.3, 256.0)">h</text><text xml:space="preserve" font-family="TrebuchetMS" font-size="30.0" fill="#000000" transform="matrix(1.00, 0.00, -0.00, -1.00, 520.7, 256.0)"> </text><text xml:space="preserve" font-family="TrebuchetMS" font-size="30.0" fill="#000000" transform="matrix(1.00, 0.00, -0.00, -1.00, 529.8, 256.0)">P</text><text xml:space="preserve" font-family="TrebuchetMS" font-size="30.0" fill="#000000" transform="matrix(1.00, 0.00, -0.00, -1.00, 546.5, 256.0)">R</text><text xml:space="preserve" font-family="TrebuchetMS" font-size="30.0" fill="#000000" transform="matrix(1.00, 0.00, -0.00, -1.00, 564.0, 256.0)">E</text><text xml:space="preserve" font-family="TrebuchetMS" font-size="30.0" fill="#000000" transform="matrix(1.00, 0.00, -0.00, -1.00, 580.0, 256.0)">S</text><text xml:space="preserve" font-family="TrebuchetMS" font-size="30.0" fill="#000000" transform="matrix(1.00, 0.00, -0.00, -1.00, 594.5, 256.0)">S</text><text xml:space="preserve" font-family="TrebuchetMS" font-size="30.0" fill="#000000" transform="matrix(1.00, 0.00, -0.00, -1.00, 608.9, 256.0)"> </text><text xml:space="preserve" font-family="TrebuchetMS" font-size="30.0" fill="#000000" transform="matrix(1.00, 0.00, -0.00, -1.00, 42.0, 186.3)">●</text><text xml:space="preserve" font-family="TrebuchetMS" font-size="30.0" fill="#000000" transform="matrix(1.00, 0.00, -0.00, -1.00, 75.0, 186.0)">R</text><text xml:space="preserve" font-family="TrebuchetMS" font-size="30.0" fill="#000000" transform="matrix(1.00, 0.00, -0.00, -1.00, 91.2, 186.0)">e</text><text xml:space="preserve" font-family="TrebuchetMS" font-size="30.0" fill="#000000" transform="matrix(1.00, 0.00, -0.00, -1.00, 107.6, 186.0)">s</text><text xml:space="preserve" font-family="TrebuchetMS" font-size="30.0" fill="#000000" transform="matrix(1.00, 0.00, -0.00, -1.00, 119.8, 186.0)">u</text><text xml:space="preserve" font-family="TrebuchetMS" font-size="30.0" fill="#000000" transform="matrix(1.00, 0.00, -0.00, -1.00, 136.2, 186.0)">l</text><text xml:space="preserve" font-family="TrebuchetMS" font-size="30.0" fill="#000000" transform="matrix(1.00, 0.00, -0.00, -1.00, 145.0, 186.0)">t</text><text xml:space="preserve" font-family="TrebuchetMS" font-size="30.0" fill="#000000" transform="matrix(1.00, 0.00, -0.00, -1.00, 156.9, 186.0)">s</text><text xml:space="preserve" font-family="TrebuchetMS" font-size="30.0" fill="#000000" transform="matrix(1.00, 0.00, -0.00, -1.00, 169.0, 186.0)"> </text><text xml:space="preserve" font-family="TrebuchetMS" font-size="30.0" fill="#000000" transform="matrix(1.00, 0.00, -0.00, -1.00, 42.0, 116.3)">●</text><text xml:space="preserve" font-family="TrebuchetMS" font-size="30.0" fill="#000000" transform="matrix(1.00, 0.00, -0.00, -1.00, 75.0, 116.0)">C</text><text xml:space="preserve" font-family="TrebuchetMS" font-size="30.0" fill="#000000" transform="matrix(1.00, 0.00, -0.00, -1.00, 92.9, 116.0)">h</text><text xml:space="preserve" font-family="TrebuchetMS" font-size="30.0" fill="#000000" transform="matrix(1.00, 0.00, -0.00, -1.00, 109.4, 116.0)">a</text><text xml:space="preserve" font-family="TrebuchetMS" font-size="30.0" fill="#000000" transform="matrix(1.00, 0.00, -0.00, -1.00, 125.1, 116.0)">l</text><text xml:space="preserve" font-family="TrebuchetMS" font-size="30.0" fill="#000000" transform="matrix(1.00, 0.00, -0.00, -1.00, 134.0, 116.0)">l</text><text xml:space="preserve" font-family="TrebuchetMS" font-size="30.0" fill="#000000" transform="matrix(1.00, 0.00, -0.00, -1.00, 142.8, 116.0)">e</text><text xml:space="preserve" font-family="TrebuchetMS" font-size="30.0" fill="#000000" transform="matrix(1.00, 0.00, -0.00, -1.00, 159.2, 116.0)">n</text><text xml:space="preserve" font-family="TrebuchetMS" font-size="30.0" fill="#000000" transform="matrix(1.00, 0.00, -0.00, -1.00, 175.6, 116.0)">g</text><text xml:space="preserve" font-family="TrebuchetMS" font-size="30.0" fill="#000000" transform="matrix(1.00, 0.00, -0.00, -1.00, 190.7, 116.0)">e</text><text xml:space="preserve" font-family="TrebuchetMS" font-size="30.0" fill="#000000" transform="matrix(1.00, 0.00, -0.00, -1.00, 207.0, 116.0)">s</text></g></svg>