<?xml version="1.0" encoding="UTF-8" standalone="no"?><svg xmlns="http://www.w3.org/2000/svg" xmlns:xlink="http://www.w3.org/1999/xlink" clip-rule="evenodd" stroke-miterlimit="4.00" viewBox="0 0 720 540"><desc>SVG generated by Keynote</desc><defs></defs><g transform="matrix(1.00, 0.00, -0.00, -1.00, 0.0, 540.0)"><path d="M 0.0 540.0 L 720.0 540.0 L 720.0 0.0 L 0.0 0.0 Z M 0.0 540.0 " fill="#FFFFFF"></path><g><clipPath id="clip-5262"><path d="M 298.0 308.0 L 704.0 308.0 L 704.0 391.0 L 298.0 391.0 Z M 298.0 308.0 "></path></clipPath><g clip-path="url(#clip-5262)"><path d="M 1182.0 704.0 L 1413.0 704.0 " fill="none" stroke="#000000" stroke-width="16.00" stroke-miterlimit="0.00" stroke-linecap="round" stroke-linejoin="round" transform="matrix(0.06, 0.00, 0.00, -0.06, 298.0, 391.0)"></path><path d="M 930.0 794.0 L 978.0 767.0 " fill="none" stroke="#000000" stroke-width="16.00" stroke-miterlimit="0.00" stroke-linecap="round" stroke-linejoin="round" transform="matrix(0.06, 0.00, 0.00, -0.06, 298.0, 391.0)"></path><path d="M 979.0 774.0 L 1050.0 1115.0 " fill="none" stroke="#000000" stroke-width="32.00" stroke-miterlimit="0.00" stroke-linecap="round" stroke-linejoin="round" transform="matrix(0.06, 0.00, 0.00, -0.06, 298.0, 391.0)"></path><path d="M 1058.0 1116.0 L 1152.0 193.0 " fill="none" stroke="#000000" stroke-width="16.00" stroke-miterlimit="0.00" stroke-linecap="round" stroke-linejoin="round" transform="matrix(0.06, 0.00, 0.00, -0.06, 298.0, 391.0)"></path><path d="M 1152.0 192.0 L 1445.0 192.0 " fill="none" stroke="#000000" stroke-width="16.00" stroke-miterlimit="0.00" stroke-linecap="round" stroke-linejoin="round" transform="matrix(0.06, 0.00, 0.00, -0.06, 298.0, 391.0)"></path><path d="M 2562.0 229.0 L 2777.0 229.0 " fill="none" stroke="#000000" stroke-width="16.00" stroke-miterlimit="0.00" stroke-linecap="round" stroke-linejoin="round" transform="matrix(0.06, 0.00, 0.00, -0.06, 298.0, 391.0)"></path><text xml:space="preserve" font-family="Symbol" font-size="600.0" fill="#000000" transform="matrix(0.06, 0.00, -0.00, -0.06, 406.7, 357.0)">(</text><text xml:space="preserve" font-family="Symbol" font-size="600.0" fill="#000000" transform="matrix(0.06, 0.00, -0.00, -0.06, 471.8, 357.0)">)</text><path d="M 4249.0 229.0 L 4464.0 229.0 " fill="none" stroke="#000000" stroke-width="16.00" stroke-miterlimit="0.00" stroke-linecap="round" stroke-linejoin="round" transform="matrix(0.06, 0.00, 0.00, -0.06, 298.0, 391.0)"></path><text xml:space="preserve" font-family="Symbol" font-size="600.0" fill="#000000" transform="matrix(0.06, 0.00, -0.00, -0.06, 508.6, 357.0)">(</text><text xml:space="preserve" font-family="Symbol" font-size="600.0" fill="#000000" transform="matrix(0.06, 0.00, -0.00, -0.06, 576.2, 357.0)">)</text><path d="M 5922.0 229.0 L 6137.0 229.0 " fill="none" stroke="#000000" stroke-width="16.00" stroke-miterlimit="0.00" stroke-linecap="round" stroke-linejoin="round" transform="matrix(0.06, 0.00, 0.00, -0.06, 298.0, 391.0)"></path><text xml:space="preserve" font-family="Symbol" font-size="600.0" fill="#000000" transform="matrix(0.06, 0.00, -0.00, -0.06, 613.0, 357.0)">(</text><text xml:space="preserve" font-family="Symbol" font-size="600.0" fill="#000000" transform="matrix(0.06, 0.00, -0.00, -0.06, 679.7, 357.0)">)</text><path d="M 1736.0 704.0 L 6438.0 704.0 " fill="none" stroke="#000000" stroke-width="16.00" stroke-miterlimit="0.00" stroke-linecap="round" stroke-linejoin="round" transform="matrix(0.06, 0.00, 0.00, -0.06, 298.0, 391.0)"></path><path d="M 1484.0 820.0 L 1532.0 793.0 " fill="none" stroke="#000000" stroke-width="16.00" stroke-miterlimit="0.00" stroke-linecap="round" stroke-linejoin="round" transform="matrix(0.06, 0.00, 0.00, -0.06, 298.0, 391.0)"></path><path d="M 1533.0 800.0 L 1604.0 1237.0 " fill="none" stroke="#000000" stroke-width="32.00" stroke-miterlimit="0.00" stroke-linecap="round" stroke-linejoin="round" transform="matrix(0.06, 0.00, 0.00, -0.06, 298.0, 391.0)"></path><path d="M 1612.0 1238.0 L 1706.0 73.0 " fill="none" stroke="#000000" stroke-width="16.00" stroke-miterlimit="0.00" stroke-linecap="round" stroke-linejoin="round" transform="matrix(0.06, 0.00, 0.00, -0.06, 298.0, 391.0)"></path><path d="M 1706.0 72.0 L 6470.0 72.0 " fill="none" stroke="#000000" stroke-width="16.00" stroke-miterlimit="0.00" stroke-linecap="round" stroke-linejoin="round" transform="matrix(0.06, 0.00, 0.00, -0.06, 298.0, 391.0)"></path><text xml:space="preserve" font-family="TimesNewRomanPSMT" font-size="224.0" fill="#000000" transform="matrix(0.06, 0.00, -0.00, -0.06, 607.0, 334.0)">2</text><text xml:space="preserve" font-family="TimesNewRomanPSMT" font-size="224.0" fill="#000000" transform="matrix(0.06, 0.00, -0.00, -0.06, 599.2, 315.7)">3</text><text xml:space="preserve" font-family="TimesNewRomanPSMT" font-size="224.0" fill="#000000" transform="matrix(0.06, 0.00, -0.00, -0.06, 556.1, 334.0)">2</text><text xml:space="preserve" font-family="TimesNewRomanPSMT" font-size="224.0" fill="#000000" transform="matrix(0.06, 0.00, -0.00, -0.06, 547.9, 315.7)">2</text><text xml:space="preserve" font-family="TimesNewRomanPSMT" font-size="224.0" fill="#000000" transform="matrix(0.06, 0.00, -0.00, -0.06, 504.4, 334.0)">2</text><text xml:space="preserve" font-family="TimesNewRomanPSMT" font-size="224.0" fill="#000000" transform="matrix(0.06, 0.00, -0.00, -0.06, 497.2, 315.7)">1</text><text xml:space="preserve" font-family="TimesNewRomanPSMT" font-size="224.0" fill="#000000" transform="matrix(0.06, 0.00, -0.00, -0.06, 686.1, 371.5)">2</text><text xml:space="preserve" font-family="TimesNewRomanPSMT" font-size="224.0" fill="#000000" transform="matrix(0.06, 0.00, -0.00, -0.06, 631.7, 350.7)">3</text><text xml:space="preserve" font-family="TimesNewRomanPSMT" font-size="224.0" fill="#000000" transform="matrix(0.06, 0.00, -0.00, -0.06, 582.5, 371.5)">2</text><text xml:space="preserve" font-family="TimesNewRomanPSMT" font-size="224.0" fill="#000000" transform="matrix(0.06, 0.00, -0.00, -0.06, 527.7, 350.7)">2</text><text xml:space="preserve" font-family="TimesNewRomanPSMT" font-size="224.0" fill="#000000" transform="matrix(0.06, 0.00, -0.00, -0.06, 478.1, 371.5)">2</text><text xml:space="preserve" font-family="TimesNewRomanPSMT" font-size="224.0" fill="#000000" transform="matrix(0.06, 0.00, -0.00, -0.06, 424.3, 350.7)">1</text><text xml:space="preserve" font-family="TimesNewRomanPSMT" font-size="384.0" fill="#000000" transform="matrix(0.06, 0.00, -0.00, -0.06, 372.8, 323.1)">2</text><text xml:space="preserve" font-family="TimesNewRomanPSMT" font-size="384.0" fill="#000000" transform="matrix(0.06, 0.00, -0.00, -0.06, 372.8, 356.5)">3</text><text xml:space="preserve" font-family="Symbol" font-size="384.0" fill="#000000" transform="matrix(0.06, 0.00, -0.00, -0.06, 586.5, 321.6)">λ</text><text xml:space="preserve" font-family="Symbol" font-size="384.0" fill="#000000" transform="matrix(0.06, 0.00, -0.00, -0.06, 534.8, 321.6)">λ</text><text xml:space="preserve" font-family="Symbol" font-size="384.0" fill="#000000" transform="matrix(0.06, 0.00, -0.00, -0.06, 485.7, 321.6)">λ</text><text xml:space="preserve" font-family="Symbol" font-size="384.0" fill="#000000" transform="matrix(0.06, 0.00, -0.00, -0.06, 661.2, 356.6)">λ</text><text xml:space="preserve" font-family="Symbol" font-size="384.0" fill="#000000" transform="matrix(0.06, 0.00, -0.00, -0.06, 619.0, 356.6)">λ</text><text xml:space="preserve" font-family="Symbol" font-size="384.0" fill="#000000" transform="matrix(0.06, 0.00, -0.00, -0.06, 557.7, 356.6)">λ</text><text xml:space="preserve" font-family="Symbol" font-size="384.0" fill="#000000" transform="matrix(0.06, 0.00, -0.00, -0.06, 514.6, 356.6)">λ</text><text xml:space="preserve" font-family="Symbol" font-size="384.0" fill="#000000" transform="matrix(0.06, 0.00, -0.00, -0.06, 453.3, 356.6)">λ</text><text xml:space="preserve" font-family="Symbol" font-size="384.0" fill="#000000" transform="matrix(0.06, 0.00, -0.00, -0.06, 412.8, 356.6)">λ</text><text xml:space="preserve" font-family="Symbol" font-size="384.0" fill="#000000" transform="matrix(0.06, 0.00, -0.00, -0.06, 569.5, 321.6)">+</text><text xml:space="preserve" font-family="Symbol" font-size="384.0" fill="#000000" transform="matrix(0.06, 0.00, -0.00, -0.06, 517.7, 321.6)">+</text><text xml:space="preserve" font-family="Symbol" font-size="384.0" fill="#000000" transform="matrix(0.06, 0.00, -0.00, -0.06, 644.5, 356.6)">−</text><text xml:space="preserve" font-family="Symbol" font-size="384.0" fill="#000000" transform="matrix(0.06, 0.00, -0.00, -0.06, 595.8, 356.6)">+</text><text xml:space="preserve" font-family="Symbol" font-size="384.0" fill="#000000" transform="matrix(0.06, 0.00, -0.00, -0.06, 541.0, 356.6)">−</text><text xml:space="preserve" font-family="Symbol" font-size="384.0" fill="#000000" transform="matrix(0.06, 0.00, -0.00, -0.06, 491.4, 356.6)">+</text><text xml:space="preserve" font-family="Symbol" font-size="384.0" fill="#000000" transform="matrix(0.06, 0.00, -0.00, -0.06, 436.6, 356.6)">−</text><text xml:space="preserve" font-family="Symbol" font-size="384.0" fill="#000000" transform="matrix(0.06, 0.00, -0.00, -0.06, 336.1, 341.6)">=</text><text xml:space="preserve" font-family="TimesNewRomanPS-ItalicMT" font-style="italic" font-size="384.0" fill="#000000" transform="matrix(0.06, 0.00, -0.00, -0.06, 302.3, 341.6)">F</text><text xml:space="preserve" font-family="TimesNewRomanPS-ItalicMT" font-style="italic" font-size="384.0" fill="#000000" transform="matrix(0.06, 0.00, -0.00, -0.06, 316.8, 341.6)">A</text></g></g><g><clipPath id="clip-5263"><path d="M 41.0 315.0 L 265.0 315.0 L 265.0 378.0 L 41.0 378.0 Z M 41.0 315.0 "></path></clipPath><g clip-path="url(#clip-5263)"><path d="M 1101.0 280.0 L 1316.0 280.0 " fill="none" stroke="#000000" stroke-width="16.00" stroke-miterlimit="0.00" stroke-linecap="round" stroke-linejoin="round" transform="matrix(0.06, 0.00, 0.00, -0.06, 41.0, 378.0)"></path><path d="M 1725.0 512.0 L 3472.0 512.0 " fill="none" stroke="#000000" stroke-width="16.00" stroke-miterlimit="0.00" stroke-linecap="round" stroke-linejoin="round" transform="matrix(0.06, 0.00, 0.00, -0.06, 41.0, 378.0)"></path><text xml:space="preserve" font-family="TimesNewRomanPSMT" font-size="384.0" fill="#000000" transform="matrix(0.06, 0.00, -0.00, -0.06, 199.2, 320.3)">3</text><text xml:space="preserve" font-family="TimesNewRomanPSMT" font-size="224.0" fill="#000000" transform="matrix(0.06, 0.00, -0.00, -0.06, 249.8, 348.7)">3</text><text xml:space="preserve" font-family="TimesNewRomanPSMT" font-size="224.0" fill="#000000" transform="matrix(0.06, 0.00, -0.00, -0.06, 206.0, 348.7)">2</text><text xml:space="preserve" font-family="TimesNewRomanPSMT" font-size="224.0" fill="#000000" transform="matrix(0.06, 0.00, -0.00, -0.06, 162.8, 348.7)">1</text><text xml:space="preserve" font-family="Symbol" font-size="384.0" fill="#000000" transform="matrix(0.06, 0.00, -0.00, -0.06, 236.9, 354.8)">λ</text><text xml:space="preserve" font-family="Symbol" font-size="384.0" fill="#000000" transform="matrix(0.06, 0.00, -0.00, -0.06, 192.7, 354.8)">λ</text><text xml:space="preserve" font-family="Symbol" font-size="384.0" fill="#000000" transform="matrix(0.06, 0.00, -0.00, -0.06, 151.0, 354.8)">λ</text><text xml:space="preserve" font-family="Symbol" font-size="384.0" fill="#000000" transform="matrix(0.06, 0.00, -0.00, -0.06, 107.1, 339.4)">λ</text><text xml:space="preserve" font-family="Symbol" font-size="384.0" fill="#000000" transform="matrix(0.06, 0.00, -0.00, -0.06, 219.5, 354.8)">+</text><text xml:space="preserve" font-family="Symbol" font-size="384.0" fill="#000000" transform="matrix(0.06, 0.00, -0.00, -0.06, 175.3, 354.8)">+</text><text xml:space="preserve" font-family="Symbol" font-size="384.0" fill="#000000" transform="matrix(0.06, 0.00, -0.00, -0.06, 130.5, 339.4)">=</text><text xml:space="preserve" font-family="Symbol" font-size="384.0" fill="#000000" transform="matrix(0.06, 0.00, -0.00, -0.06, 88.5, 339.4)">=</text><text xml:space="preserve" font-family="TimesNewRomanPS-ItalicMT" font-style="italic" font-size="384.0" fill="#000000" transform="matrix(0.06, 0.00, -0.00, -0.06, 45.0, 339.4)">M</text><text xml:space="preserve" font-family="TimesNewRomanPS-ItalicMT" font-style="italic" font-size="384.0" fill="#000000" transform="matrix(0.06, 0.00, -0.00, -0.06, 65.2, 339.4)">D</text></g></g><text xml:space="preserve" font-family="ArialMT" font-size="24.0" fill="#000000" transform="matrix(1.00, 0.00, -0.00, -1.00, 40.0, 418.0)">M</text><text xml:space="preserve" font-family="ArialMT" font-size="24.0" fill="#000000" transform="matrix(1.00, 0.00, -0.00, -1.00, 60.0, 418.0)">e</text><text xml:space="preserve" font-family="ArialMT" font-size="24.0" fill="#000000" transform="matrix(1.00, 0.00, -0.00, -1.00, 73.3, 418.0)">a</text><text xml:space="preserve" font-family="ArialMT" font-size="24.0" fill="#000000" transform="matrix(1.00, 0.00, -0.00, -1.00, 86.7, 418.0)">n</text><text xml:space="preserve" font-family="ArialMT" font-size="24.0" fill="#000000" transform="matrix(1.00, 0.00, -0.00, -1.00, 100.0, 418.0)"> </text><text xml:space="preserve" font-family="ArialMT" font-size="24.0" fill="#000000" transform="matrix(1.00, 0.00, -0.00, -1.00, 106.7, 418.0)">D</text><text xml:space="preserve" font-family="ArialMT" font-size="24.0" fill="#000000" transform="matrix(1.00, 0.00, -0.00, -1.00, 124.0, 418.0)">i</text><text xml:space="preserve" font-family="ArialMT" font-size="24.0" fill="#000000" transform="matrix(1.00, 0.00, -0.00, -1.00, 129.4, 418.0)">f</text><text xml:space="preserve" font-family="ArialMT" font-size="24.0" fill="#000000" transform="matrix(1.00, 0.00, -0.00, -1.00, 135.6, 418.0)">f</text><text xml:space="preserve" font-family="ArialMT" font-size="24.0" fill="#000000" transform="matrix(1.00, 0.00, -0.00, -1.00, 142.3, 418.0)">u</text><text xml:space="preserve" font-family="ArialMT" font-size="24.0" fill="#000000" transform="matrix(1.00, 0.00, -0.00, -1.00, 155.6, 418.0)">s</text><text xml:space="preserve" font-family="ArialMT" font-size="24.0" fill="#000000" transform="matrix(1.00, 0.00, -0.00, -1.00, 167.6, 418.0)">i</text><text xml:space="preserve" font-family="ArialMT" font-size="24.0" fill="#000000" transform="matrix(1.00, 0.00, -0.00, -1.00, 173.0, 418.0)">v</text><text xml:space="preserve" font-family="ArialMT" font-size="24.0" fill="#000000" transform="matrix(1.00, 0.00, -0.00, -1.00, 185.0, 418.0)">i</text><text xml:space="preserve" font-family="ArialMT" font-size="24.0" fill="#000000" transform="matrix(1.00, 0.00, -0.00, -1.00, 190.3, 418.0)">t</text><text xml:space="preserve" font-family="ArialMT" font-size="24.0" fill="#000000" transform="matrix(1.00, 0.00, -0.00, -1.00, 197.0, 418.0)">y</text><text xml:space="preserve" font-family="ArialMT" font-size="24.0" fill="#000000" transform="matrix(1.00, 0.00, -0.00, -1.00, 209.0, 418.0)"> </text><text xml:space="preserve" font-family="ArialMT" font-size="24.0" fill="#000000" transform="matrix(1.00, 0.00, -0.00, -1.00, 215.6, 418.0)">(</text><text xml:space="preserve" font-family="ArialMT" font-size="24.0" fill="#000000" transform="matrix(1.00, 0.00, -0.00, -1.00, 223.6, 418.0)">M</text><text xml:space="preserve" font-family="ArialMT" font-size="24.0" fill="#000000" transform="matrix(1.00, 0.00, -0.00, -1.00, 243.6, 418.0)">D</text><text xml:space="preserve" font-family="ArialMT" font-size="24.0" fill="#000000" transform="matrix(1.00, 0.00, -0.00, -1.00, 261.0, 418.0)">)</text><text xml:space="preserve" font-family="ArialMT" font-size="24.0" fill="#000000" transform="matrix(1.00, 0.00, -0.00, -1.00, 382.0, 418.0)">F</text><text xml:space="preserve" font-family="ArialMT" font-size="24.0" fill="#000000" transform="matrix(1.00, 0.00, -0.00, -1.00, 396.7, 418.0)">r</text><text xml:space="preserve" font-family="ArialMT" font-size="24.0" fill="#000000" transform="matrix(1.00, 0.00, -0.00, -1.00, 404.6, 418.0)">a</text><text xml:space="preserve" font-family="ArialMT" font-size="24.0" fill="#000000" transform="matrix(1.00, 0.00, -0.00, -1.00, 418.0, 418.0)">c</text><text xml:space="preserve" font-family="ArialMT" font-size="24.0" fill="#000000" transform="matrix(1.00, 0.00, -0.00, -1.00, 430.0, 418.0)">t</text><text xml:space="preserve" font-family="ArialMT" font-size="24.0" fill="#000000" transform="matrix(1.00, 0.00, -0.00, -1.00, 436.7, 418.0)">i</text><text xml:space="preserve" font-family="ArialMT" font-size="24.0" fill="#000000" transform="matrix(1.00, 0.00, -0.00, -1.00, 442.0, 418.0)">o</text><text xml:space="preserve" font-family="ArialMT" font-size="24.0" fill="#000000" transform="matrix(1.00, 0.00, -0.00, -1.00, 455.4, 418.0)">n</text><text xml:space="preserve" font-family="ArialMT" font-size="24.0" fill="#000000" transform="matrix(1.00, 0.00, -0.00, -1.00, 468.7, 418.0)">a</text><text xml:space="preserve" font-family="ArialMT" font-size="24.0" fill="#000000" transform="matrix(1.00, 0.00, -0.00, -1.00, 482.1, 418.0)">l</text><text xml:space="preserve" font-family="ArialMT" font-size="24.0" fill="#000000" transform="matrix(1.00, 0.00, -0.00, -1.00, 487.4, 418.0)"> </text><text xml:space="preserve" font-family="ArialMT" font-size="24.0" fill="#000000" transform="matrix(1.00, 0.00, -0.00, -1.00, 492.7, 418.0)">A</text><text xml:space="preserve" font-family="ArialMT" font-size="24.0" fill="#000000" transform="matrix(1.00, 0.00, -0.00, -1.00, 508.7, 418.0)">n</text><text xml:space="preserve" font-family="ArialMT" font-size="24.0" fill="#000000" transform="matrix(1.00, 0.00, -0.00, -1.00, 522.1, 418.0)">i</text><text xml:space="preserve" font-family="ArialMT" font-size="24.0" fill="#000000" transform="matrix(1.00, 0.00, -0.00, -1.00, 527.4, 418.0)">s</text><text xml:space="preserve" font-family="ArialMT" font-size="24.0" fill="#000000" transform="matrix(1.00, 0.00, -0.00, -1.00, 539.4, 418.0)">o</text><text xml:space="preserve" font-family="ArialMT" font-size="24.0" fill="#000000" transform="matrix(1.00, 0.00, -0.00, -1.00, 552.8, 418.0)">t</text><text xml:space="preserve" font-family="ArialMT" font-size="24.0" fill="#000000" transform="matrix(1.00, 0.00, -0.00, -1.00, 559.4, 418.0)">r</text><text xml:space="preserve" font-family="ArialMT" font-size="24.0" fill="#000000" transform="matrix(1.00, 0.00, -0.00, -1.00, 567.4, 418.0)">o</text><text xml:space="preserve" font-family="ArialMT" font-size="24.0" fill="#000000" transform="matrix(1.00, 0.00, -0.00, -1.00, 580.8, 418.0)">p</text><text xml:space="preserve" font-family="ArialMT" font-size="24.0" fill="#000000" transform="matrix(1.00, 0.00, -0.00, -1.00, 594.1, 418.0)">y</text><text xml:space="preserve" font-family="ArialMT" font-size="24.0" fill="#000000" transform="matrix(1.00, 0.00, -0.00, -1.00, 606.1, 418.0)"> </text><text xml:space="preserve" font-family="ArialMT" font-size="24.0" fill="#000000" transform="matrix(1.00, 0.00, -0.00, -1.00, 612.8, 418.0)">(</text><text xml:space="preserve" font-family="ArialMT" font-size="24.0" fill="#000000" transform="matrix(1.00, 0.00, -0.00, -1.00, 620.8, 418.0)">F</text><text xml:space="preserve" font-family="ArialMT" font-size="24.0" fill="#000000" transform="matrix(1.00, 0.00, -0.00, -1.00, 634.1, 418.0)">A</text><text xml:space="preserve" font-family="ArialMT" font-size="24.0" fill="#000000" transform="matrix(1.00, 0.00, -0.00, -1.00, 650.1, 418.0)">)</text><text xml:space="preserve" font-family="ArialMT" font-size="24.0" fill="#000000" transform="matrix(1.00, 0.00, -0.00, -1.00, 40.0, 238.0)">A</text><text xml:space="preserve" font-family="ArialMT" font-size="24.0" fill="#000000" transform="matrix(1.00, 0.00, -0.00, -1.00, 56.0, 238.0)">x</text><text xml:space="preserve" font-family="ArialMT" font-size="24.0" fill="#000000" transform="matrix(1.00, 0.00, -0.00, -1.00, 68.0, 238.0)">i</text><text xml:space="preserve" font-family="ArialMT" font-size="24.0" fill="#000000" transform="matrix(1.00, 0.00, -0.00, -1.00, 73.3, 238.0)">a</text><text xml:space="preserve" font-family="ArialMT" font-size="24.0" fill="#000000" transform="matrix(1.00, 0.00, -0.00, -1.00, 86.7, 238.0)">l</text><text xml:space="preserve" font-family="ArialMT" font-size="24.0" fill="#000000" transform="matrix(1.00, 0.00, -0.00, -1.00, 92.0, 238.0)"> </text><text xml:space="preserve" font-family="ArialMT" font-size="24.0" fill="#000000" transform="matrix(1.00, 0.00, -0.00, -1.00, 98.7, 238.0)">D</text><text xml:space="preserve" font-family="ArialMT" font-size="24.0" fill="#000000" transform="matrix(1.00, 0.00, -0.00, -1.00, 116.0, 238.0)">i</text><text xml:space="preserve" font-family="ArialMT" font-size="24.0" fill="#000000" transform="matrix(1.00, 0.00, -0.00, -1.00, 121.4, 238.0)">f</text><text xml:space="preserve" font-family="ArialMT" font-size="24.0" fill="#000000" transform="matrix(1.00, 0.00, -0.00, -1.00, 127.6, 238.0)">f</text><text xml:space="preserve" font-family="ArialMT" font-size="24.0" fill="#000000" transform="matrix(1.00, 0.00, -0.00, -1.00, 134.3, 238.0)">u</text><text xml:space="preserve" font-family="ArialMT" font-size="24.0" fill="#000000" transform="matrix(1.00, 0.00, -0.00, -1.00, 147.6, 238.0)">s</text><text xml:space="preserve" font-family="ArialMT" font-size="24.0" fill="#000000" transform="matrix(1.00, 0.00, -0.00, -1.00, 159.6, 238.0)">i</text><text xml:space="preserve" font-family="ArialMT" font-size="24.0" fill="#000000" transform="matrix(1.00, 0.00, -0.00, -1.00, 165.0, 238.0)">v</text><text xml:space="preserve" font-family="ArialMT" font-size="24.0" fill="#000000" transform="matrix(1.00, 0.00, -0.00, -1.00, 177.0, 238.0)">i</text><text xml:space="preserve" font-family="ArialMT" font-size="24.0" fill="#000000" transform="matrix(1.00, 0.00, -0.00, -1.00, 182.3, 238.0)">t</text><text xml:space="preserve" font-family="ArialMT" font-size="24.0" fill="#000000" transform="matrix(1.00, 0.00, -0.00, -1.00, 189.0, 238.0)">y</text><text xml:space="preserve" font-family="ArialMT" font-size="24.0" fill="#000000" transform="matrix(1.00, 0.00, -0.00, -1.00, 201.0, 238.0)"> </text><text xml:space="preserve" font-family="ArialMT" font-size="24.0" fill="#000000" transform="matrix(1.00, 0.00, -0.00, -1.00, 207.6, 238.0)">(</text><text xml:space="preserve" font-family="ArialMT" font-size="24.0" fill="#000000" transform="matrix(1.00, 0.00, -0.00, -1.00, 215.6, 238.0)">A</text><text xml:space="preserve" font-family="ArialMT" font-size="24.0" fill="#000000" transform="matrix(1.00, 0.00, -0.00, -1.00, 231.6, 238.0)">D</text><text xml:space="preserve" font-family="ArialMT" font-size="24.0" fill="#000000" transform="matrix(1.00, 0.00, -0.00, -1.00, 249.0, 238.0)">)</text><text xml:space="preserve" font-family="ArialMT" font-size="24.0" fill="#000000" transform="matrix(1.00, 0.00, -0.00, -1.00, 406.0, 238.0)">R</text><text xml:space="preserve" font-family="ArialMT" font-size="24.0" fill="#000000" transform="matrix(1.00, 0.00, -0.00, -1.00, 423.3, 238.0)">a</text><text xml:space="preserve" font-family="ArialMT" font-size="24.0" fill="#000000" transform="matrix(1.00, 0.00, -0.00, -1.00, 436.7, 238.0)">d</text><text xml:space="preserve" font-family="ArialMT" font-size="24.0" fill="#000000" transform="matrix(1.00, 0.00, -0.00, -1.00, 450.0, 238.0)">i</text><text xml:space="preserve" font-family="ArialMT" font-size="24.0" fill="#000000" transform="matrix(1.00, 0.00, -0.00, -1.00, 455.4, 238.0)">a</text><text xml:space="preserve" font-family="ArialMT" font-size="24.0" fill="#000000" transform="matrix(1.00, 0.00, -0.00, -1.00, 468.7, 238.0)">l</text><text xml:space="preserve" font-family="ArialMT" font-size="24.0" fill="#000000" transform="matrix(1.00, 0.00, -0.00, -1.00, 474.1, 238.0)"> </text><text xml:space="preserve" font-family="ArialMT" font-size="24.0" fill="#000000" transform="matrix(1.00, 0.00, -0.00, -1.00, 480.7, 238.0)">D</text><text xml:space="preserve" font-family="ArialMT" font-size="24.0" fill="#000000" transform="matrix(1.00, 0.00, -0.00, -1.00, 498.1, 238.0)">i</text><text xml:space="preserve" font-family="ArialMT" font-size="24.0" fill="#000000" transform="matrix(1.00, 0.00, -0.00, -1.00, 503.4, 238.0)">f</text><text xml:space="preserve" font-family="ArialMT" font-size="24.0" fill="#000000" transform="matrix(1.00, 0.00, -0.00, -1.00, 509.6, 238.0)">f</text><text xml:space="preserve" font-family="ArialMT" font-size="24.0" fill="#000000" transform="matrix(1.00, 0.00, -0.00, -1.00, 516.3, 238.0)">u</text><text xml:space="preserve" font-family="ArialMT" font-size="24.0" fill="#000000" transform="matrix(1.00, 0.00, -0.00, -1.00, 529.7, 238.0)">s</text><text xml:space="preserve" font-family="ArialMT" font-size="24.0" fill="#000000" transform="matrix(1.00, 0.00, -0.00, -1.00, 541.7, 238.0)">i</text><text xml:space="preserve" font-family="ArialMT" font-size="24.0" fill="#000000" transform="matrix(1.00, 0.00, -0.00, -1.00, 547.0, 238.0)">v</text><text xml:space="preserve" font-family="ArialMT" font-size="24.0" fill="#000000" transform="matrix(1.00, 0.00, -0.00, -1.00, 559.0, 238.0)">i</text><text xml:space="preserve" font-family="ArialMT" font-size="24.0" fill="#000000" transform="matrix(1.00, 0.00, -0.00, -1.00, 564.3, 238.0)">t</text><text xml:space="preserve" font-family="ArialMT" font-size="24.0" fill="#000000" transform="matrix(1.00, 0.00, -0.00, -1.00, 571.0, 238.0)">y</text><text xml:space="preserve" font-family="ArialMT" font-size="24.0" fill="#000000" transform="matrix(1.00, 0.00, -0.00, -1.00, 583.0, 238.0)"> </text><text xml:space="preserve" font-family="ArialMT" font-size="24.0" fill="#000000" transform="matrix(1.00, 0.00, -0.00, -1.00, 589.7, 238.0)">(</text><text xml:space="preserve" font-family="ArialMT" font-size="24.0" fill="#000000" transform="matrix(1.00, 0.00, -0.00, -1.00, 597.6, 238.0)">A</text><text xml:space="preserve" font-family="ArialMT" font-size="24.0" fill="#000000" transform="matrix(1.00, 0.00, -0.00, -1.00, 613.7, 238.0)">D</text><text xml:space="preserve" font-family="ArialMT" font-size="24.0" fill="#000000" transform="matrix(1.00, 0.00, -0.00, -1.00, 631.0, 238.0)">)</text><g><clipPath id="clip-5264"><path d="M 118.0 156.0 L 203.0 156.0 L 203.0 190.0 L 118.0 190.0 Z M 118.0 156.0 "></path></clipPath><g clip-path="url(#clip-5264)"><text xml:space="preserve" font-family="TimesNewRomanPSMT" font-size="224.0" fill="#000000" transform="matrix(0.06, 0.00, -0.00, -0.06, 192.2, 160.0)">1</text><text xml:space="preserve" font-family="Symbol" font-size="384.0" fill="#000000" transform="matrix(0.06, 0.00, -0.00, -0.06, 180.5, 166.0)">λ</text><text xml:space="preserve" font-family="Symbol" font-size="384.0" fill="#000000" transform="matrix(0.06, 0.00, -0.00, -0.06, 161.9, 166.0)">=</text><text xml:space="preserve" font-family="TimesNewRomanPS-ItalicMT" font-style="italic" font-size="384.0" fill="#000000" transform="matrix(0.06, 0.00, -0.00, -0.06, 123.6, 166.0)">A</text><text xml:space="preserve" font-family="TimesNewRomanPS-ItalicMT" font-style="italic" font-size="384.0" fill="#000000" transform="matrix(0.06, 0.00, -0.00, -0.06, 138.4, 166.0)">D</text></g></g><g><clipPath id="clip-5265"><path d="M 452.0 147.0 L 588.0 147.0 L 588.0 210.0 L 452.0 210.0 Z M 452.0 147.0 "></path></clipPath><g clip-path="url(#clip-5265)"><path d="M 982.0 512.0 L 2069.0 512.0 " fill="none" stroke="#000000" stroke-width="16.00" stroke-miterlimit="0.00" stroke-linecap="round" stroke-linejoin="round" transform="matrix(0.06, 0.00, 0.00, -0.06, 452.0, 210.0)"></path><text xml:space="preserve" font-family="TimesNewRomanPSMT" font-size="384.0" fill="#000000" transform="matrix(0.06, 0.00, -0.00, -0.06, 543.1, 152.3)">2</text><text xml:space="preserve" font-family="TimesNewRomanPSMT" font-size="224.0" fill="#000000" transform="matrix(0.06, 0.00, -0.00, -0.06, 573.0, 180.7)">3</text><text xml:space="preserve" font-family="TimesNewRomanPSMT" font-size="224.0" fill="#000000" transform="matrix(0.06, 0.00, -0.00, -0.06, 528.9, 180.7)">2</text><text xml:space="preserve" font-family="Symbol" font-size="384.0" fill="#000000" transform="matrix(0.06, 0.00, -0.00, -0.06, 560.1, 186.8)">λ</text><text xml:space="preserve" font-family="Symbol" font-size="384.0" fill="#000000" transform="matrix(0.06, 0.00, -0.00, -0.06, 515.6, 186.8)">λ</text><text xml:space="preserve" font-family="Symbol" font-size="384.0" fill="#000000" transform="matrix(0.06, 0.00, -0.00, -0.06, 542.6, 186.8)">+</text><text xml:space="preserve" font-family="Symbol" font-size="384.0" fill="#000000" transform="matrix(0.06, 0.00, -0.00, -0.06, 494.9, 171.4)">=</text><text xml:space="preserve" font-family="TimesNewRomanPS-ItalicMT" font-style="italic" font-size="384.0" fill="#000000" transform="matrix(0.06, 0.00, -0.00, -0.06, 456.4, 171.4)">R</text><text xml:space="preserve" font-family="TimesNewRomanPS-ItalicMT" font-style="italic" font-size="384.0" fill="#000000" transform="matrix(0.06, 0.00, -0.00, -0.06, 471.3, 171.4)">D</text></g></g><g><clipPath id="clip-5266"><path d="M -1.0 485.0 L 721.0 485.0 L 721.0 541.0 L -1.0 541.0 Z M -1.0 485.0 "></path></clipPath><g clip-path="url(#clip-5266)"><path d="M -0.0 540.0 L 720.0 540.0 L 720.0 486.0 L -0.0 486.0 Z M -0.0 540.0 " fill="#93B3D7"></path></g></g><g><clipPath id="clip-5267"><path d="M -5.7 490.1 L 725.7 490.1 L 725.7 545.7 L -5.7 545.7 Z M -5.7 490.1 "></path></clipPath><g clip-path="url(#clip-5267)"><text xml:space="preserve" font-family="TrebuchetMS-Bold" font-weight="bold" font-size="32.0" fill="#000000" transform="matrix(1.00, 0.00, -0.00, -1.00, 4.0, 507.0)">D</text><text xml:space="preserve" font-family="TrebuchetMS-Bold" font-weight="bold" font-size="32.0" fill="#000000" transform="matrix(1.00, 0.00, -0.00, -1.00, 24.5, 507.0)">i</text><text xml:space="preserve" font-family="TrebuchetMS-Bold" font-weight="bold" font-size="32.0" fill="#000000" transform="matrix(1.00, 0.00, -0.00, -1.00, 34.1, 507.0)">f</text><text xml:space="preserve" font-family="TrebuchetMS-Bold" font-weight="bold" font-size="32.0" fill="#000000" transform="matrix(1.00, 0.00, -0.00, -1.00, 45.9, 507.0)">f</text><text xml:space="preserve" font-family="TrebuchetMS-Bold" font-weight="bold" font-size="32.0" fill="#000000" transform="matrix(1.00, 0.00, -0.00, -1.00, 57.7, 507.0)">u</text><text xml:space="preserve" font-family="TrebuchetMS-Bold" font-weight="bold" font-size="32.0" fill="#000000" transform="matrix(1.00, 0.00, -0.00, -1.00, 76.6, 507.0)">s</text><text xml:space="preserve" font-family="TrebuchetMS-Bold" font-weight="bold" font-size="32.0" fill="#000000" transform="matrix(1.00, 0.00, -0.00, -1.00, 90.4, 507.0)">i</text><text xml:space="preserve" font-family="TrebuchetMS-Bold" font-weight="bold" font-size="32.0" fill="#000000" transform="matrix(1.00, 0.00, -0.00, -1.00, 100.0, 507.0)">o</text><text xml:space="preserve" font-family="TrebuchetMS-Bold" font-weight="bold" font-size="32.0" fill="#000000" transform="matrix(1.00, 0.00, -0.00, -1.00, 118.1, 507.0)">n</text><text xml:space="preserve" font-family="TrebuchetMS-Bold" font-weight="bold" font-size="32.0" fill="#000000" transform="matrix(1.00, 0.00, -0.00, -1.00, 137.0, 507.0)"> </text><text xml:space="preserve" font-family="TrebuchetMS-Bold" font-weight="bold" font-size="32.0" fill="#000000" transform="matrix(1.00, 0.00, -0.00, -1.00, 146.0, 507.0)">T</text><text xml:space="preserve" font-family="TrebuchetMS-Bold" font-weight="bold" font-size="32.0" fill="#000000" transform="matrix(1.00, 0.00, -0.00, -1.00, 162.1, 507.0)">e</text><text xml:space="preserve" font-family="TrebuchetMS-Bold" font-weight="bold" font-size="32.0" fill="#000000" transform="matrix(1.00, 0.00, -0.00, -1.00, 180.4, 507.0)">n</text><text xml:space="preserve" font-family="TrebuchetMS-Bold" font-weight="bold" font-size="32.0" fill="#000000" transform="matrix(1.00, 0.00, -0.00, -1.00, 199.3, 507.0)">s</text><text xml:space="preserve" font-family="TrebuchetMS-Bold" font-weight="bold" font-size="32.0" fill="#000000" transform="matrix(1.00, 0.00, -0.00, -1.00, 213.1, 507.0)">o</text><text xml:space="preserve" font-family="TrebuchetMS-Bold" font-weight="bold" font-size="32.0" fill="#000000" transform="matrix(1.00, 0.00, -0.00, -1.00, 231.2, 507.0)">r</text><text xml:space="preserve" font-family="TrebuchetMS-Bold" font-weight="bold" font-size="32.0" fill="#000000" transform="matrix(1.00, 0.00, -0.00, -1.00, 244.9, 507.0)"> </text><text xml:space="preserve" font-family="TrebuchetMS-Bold" font-weight="bold" font-size="32.0" fill="#000000" transform="matrix(1.00, 0.00, -0.00, -1.00, 254.6, 507.0)">I</text><text xml:space="preserve" font-family="TrebuchetMS-Bold" font-weight="bold" font-size="32.0" fill="#000000" transform="matrix(1.00, 0.00, -0.00, -1.00, 263.5, 507.0)">m</text><text xml:space="preserve" font-family="TrebuchetMS-Bold" font-weight="bold" font-size="32.0" fill="#000000" transform="matrix(1.00, 0.00, -0.00, -1.00, 291.0, 507.0)">a</text><text xml:space="preserve" font-family="TrebuchetMS-Bold" font-weight="bold" font-size="32.0" fill="#000000" transform="matrix(1.00, 0.00, -0.00, -1.00, 308.0, 507.0)">g</text><text xml:space="preserve" font-family="TrebuchetMS-Bold" font-weight="bold" font-size="32.0" fill="#000000" transform="matrix(1.00, 0.00, -0.00, -1.00, 324.1, 507.0)">i</text><text xml:space="preserve" font-family="TrebuchetMS-Bold" font-weight="bold" font-size="32.0" fill="#000000" transform="matrix(1.00, 0.00, -0.00, -1.00, 333.6, 507.0)">n</text><text xml:space="preserve" font-family="TrebuchetMS-Bold" font-weight="bold" font-size="32.0" fill="#000000" transform="matrix(1.00, 0.00, -0.00, -1.00, 352.5, 507.0)">g</text></g></g><path d="M 0.0 0.0 L 720.0 0.0 " fill="none" stroke="#000000" stroke-width="2.00" stroke-linejoin="round" transform="matrix(-1.00, 0.00, 0.00, 1.00, 720.0, 485.8)"></path></g></svg>