<?xml version="1.0" encoding="UTF-8" standalone="no"?><svg xmlns="http://www.w3.org/2000/svg" xmlns:xlink="http://www.w3.org/1999/xlink" clip-rule="evenodd" stroke-miterlimit="4.00" viewBox="0 0 720 540"><desc>SVG generated by Keynote</desc><defs></defs><g transform="matrix(1.00, 0.00, -0.00, -1.00, 0.0, 540.0)"><path d="M 0.0 540.0 L 720.0 540.0 L 720.0 0.0 L 0.0 0.0 Z M 0.0 540.0 " fill="#FFFFFF"></path><g><clipPath id="clip-2920"><path d="M -1.0 485.0 L 721.0 485.0 L 721.0 541.0 L -1.0 541.0 Z M -1.0 485.0 "></path></clipPath><g clip-path="url(#clip-2920)"><path d="M -0.0 540.0 L 720.0 540.0 L 720.0 486.0 L -0.0 486.0 Z M -0.0 540.0 " fill="#93B3D7"></path></g></g><g><clipPath id="clip-2921"><path d="M -5.7 490.1 L 725.7 490.1 L 725.7 545.7 L -5.7 545.7 Z M -5.7 490.1 "></path></clipPath><g clip-path="url(#clip-2921)"><text xml:space="preserve" font-family="TrebuchetMS-Bold" font-weight="bold" font-size="32.0" fill="#000000" transform="matrix(1.00, 0.00, -0.00, -1.00, 4.0, 507.0)">T</text><text xml:space="preserve" font-family="TrebuchetMS-Bold" font-weight="bold" font-size="32.0" fill="#000000" transform="matrix(1.00, 0.00, -0.00, -1.00, 23.6, 507.0)">h</text><text xml:space="preserve" font-family="TrebuchetMS-Bold" font-weight="bold" font-size="32.0" fill="#000000" transform="matrix(1.00, 0.00, -0.00, -1.00, 42.5, 507.0)">e</text><text xml:space="preserve" font-family="TrebuchetMS-Bold" font-weight="bold" font-size="32.0" fill="#000000" transform="matrix(1.00, 0.00, -0.00, -1.00, 60.9, 507.0)"> </text><text xml:space="preserve" font-family="TrebuchetMS-Bold" font-weight="bold" font-size="32.0" fill="#000000" transform="matrix(1.00, 0.00, -0.00, -1.00, 70.6, 507.0)">D</text><text xml:space="preserve" font-family="TrebuchetMS-Bold" font-weight="bold" font-size="32.0" fill="#000000" transform="matrix(1.00, 0.00, -0.00, -1.00, 91.1, 507.0)">i</text><text xml:space="preserve" font-family="TrebuchetMS-Bold" font-weight="bold" font-size="32.0" fill="#000000" transform="matrix(1.00, 0.00, -0.00, -1.00, 100.7, 507.0)">f</text><text xml:space="preserve" font-family="TrebuchetMS-Bold" font-weight="bold" font-size="32.0" fill="#000000" transform="matrix(1.00, 0.00, -0.00, -1.00, 112.5, 507.0)">f</text><text xml:space="preserve" font-family="TrebuchetMS-Bold" font-weight="bold" font-size="32.0" fill="#000000" transform="matrix(1.00, 0.00, -0.00, -1.00, 124.4, 507.0)">u</text><text xml:space="preserve" font-family="TrebuchetMS-Bold" font-weight="bold" font-size="32.0" fill="#000000" transform="matrix(1.00, 0.00, -0.00, -1.00, 143.3, 507.0)">s</text><text xml:space="preserve" font-family="TrebuchetMS-Bold" font-weight="bold" font-size="32.0" fill="#000000" transform="matrix(1.00, 0.00, -0.00, -1.00, 157.0, 507.0)">i</text><text xml:space="preserve" font-family="TrebuchetMS-Bold" font-weight="bold" font-size="32.0" fill="#000000" transform="matrix(1.00, 0.00, -0.00, -1.00, 166.6, 507.0)">o</text><text xml:space="preserve" font-family="TrebuchetMS-Bold" font-weight="bold" font-size="32.0" fill="#000000" transform="matrix(1.00, 0.00, -0.00, -1.00, 184.7, 507.0)">n</text><text xml:space="preserve" font-family="TrebuchetMS-Bold" font-weight="bold" font-size="32.0" fill="#000000" transform="matrix(1.00, 0.00, -0.00, -1.00, 203.6, 507.0)"> </text><text xml:space="preserve" font-family="TrebuchetMS-Bold" font-weight="bold" font-size="32.0" fill="#000000" transform="matrix(1.00, 0.00, -0.00, -1.00, 213.3, 507.0)">P</text><text xml:space="preserve" font-family="TrebuchetMS-Bold" font-weight="bold" font-size="32.0" fill="#000000" transform="matrix(1.00, 0.00, -0.00, -1.00, 232.1, 507.0)">r</text><text xml:space="preserve" font-family="TrebuchetMS-Bold" font-weight="bold" font-size="32.0" fill="#000000" transform="matrix(1.00, 0.00, -0.00, -1.00, 245.7, 507.0)">o</text><text xml:space="preserve" font-family="TrebuchetMS-Bold" font-weight="bold" font-size="32.0" fill="#000000" transform="matrix(1.00, 0.00, -0.00, -1.00, 263.8, 507.0)">c</text><text xml:space="preserve" font-family="TrebuchetMS-Bold" font-weight="bold" font-size="32.0" fill="#000000" transform="matrix(1.00, 0.00, -0.00, -1.00, 280.2, 507.0)">e</text><text xml:space="preserve" font-family="TrebuchetMS-Bold" font-weight="bold" font-size="32.0" fill="#000000" transform="matrix(1.00, 0.00, -0.00, -1.00, 298.6, 507.0)">s</text><text xml:space="preserve" font-family="TrebuchetMS-Bold" font-weight="bold" font-size="32.0" fill="#000000" transform="matrix(1.00, 0.00, -0.00, -1.00, 312.4, 507.0)">s</text></g></g><path d="M 0.0 0.0 L 624.0 0.0 " fill="none" stroke="#282828" stroke-width="3.00" stroke-linejoin="round" transform="matrix(1.00, 0.00, 0.00, -1.00, 42.0, 408.0)"></path><g><clipPath id="clip-2922"><path d="M 87.5 363.5 L 104.5 363.5 L 104.5 452.5 L 87.5 452.5 Z M 87.5 363.5 "></path></clipPath><g clip-path="url(#clip-2922)"><path d="M 10.2 12.3 C 12.6 28.7 12.6 55.3 10.2 71.7 C 7.9 88.1 4.1 88.1 1.8 71.7 C -0.6 55.3 -0.6 28.7 1.8 12.3 C 4.1 -4.1 7.9 -4.1 10.2 12.3 Z M 10.2 12.3 " fill="none" stroke="#282828" stroke-width="3.00" stroke-linejoin="round" transform="matrix(1.00, 0.00, 0.00, -1.00, 90.0, 450.0)"></path></g></g><g><clipPath id="clip-2923"><path d="M 99.5 381.5 L 110.5 381.5 L 110.5 428.5 L 99.5 428.5 Z M 99.5 381.5 "></path></clipPath><g clip-path="url(#clip-2923)"><path d="M 5.1 6.2 C 6.3 14.4 6.3 27.6 5.1 35.8 C 3.9 44.1 2.1 44.1 0.9 35.8 C -0.3 27.6 -0.3 14.4 0.9 6.2 C 2.1 -2.1 3.9 -2.1 5.1 6.2 Z M 5.1 6.2 " fill="none" stroke="#282828" stroke-width="3.00" stroke-linejoin="round" transform="matrix(1.00, 0.00, 0.00, -1.00, 102.0, 426.0)"></path></g></g><g><clipPath id="clip-2924"><path d="M 81.5 381.5 L 92.5 381.5 L 92.5 428.5 L 81.5 428.5 Z M 81.5 381.5 "></path></clipPath><g clip-path="url(#clip-2924)"><path d="M 5.1 6.2 C 6.3 14.4 6.3 27.6 5.1 35.8 C 3.9 44.1 2.1 44.1 0.9 35.8 C -0.3 27.6 -0.3 14.4 0.9 6.2 C 2.1 -2.1 3.9 -2.1 5.1 6.2 Z M 5.1 6.2 " fill="none" stroke="#282828" stroke-width="3.00" stroke-linejoin="round" transform="matrix(1.00, 0.00, 0.00, -1.00, 84.0, 426.0)"></path></g></g><g><clipPath id="clip-2925"><path d="M 353.1 354.4 L 373.2 354.4 L 373.2 464.5 L 353.1 464.5 Z M 353.1 354.4 "></path></clipPath><g clip-path="url(#clip-2925)"><path d="M 12.9 15.4 C 15.9 35.9 15.9 69.2 12.9 89.7 C 10.0 110.3 5.2 110.3 2.2 89.7 C -0.7 69.2 -0.7 35.9 2.2 15.4 C 5.2 -5.1 10.0 -5.1 12.9 15.4 Z M 12.9 15.4 " fill="none" stroke="#282828" stroke-width="3.00" stroke-linejoin="round" transform="matrix(1.00, 0.00, 0.00, -1.00, 355.6, 462.0)"></path></g></g><g><clipPath id="clip-2926"><path d="M 368.2 376.9 L 380.8 376.9 L 380.8 434.5 L 368.2 434.5 Z M 368.2 376.9 "></path></clipPath><g clip-path="url(#clip-2926)"><path d="M 6.5 7.7 C 7.9 18.0 7.9 34.6 6.5 44.9 C 5.0 55.1 2.6 55.1 1.1 44.9 C -0.4 34.6 -0.4 18.0 1.1 7.7 C 2.6 -2.6 5.0 -2.6 6.5 7.7 Z M 6.5 7.7 " fill="none" stroke="#282828" stroke-width="3.00" stroke-linejoin="round" transform="matrix(1.00, 0.00, 0.00, -1.00, 370.7, 432.0)"></path></g></g><g><clipPath id="clip-2927"><path d="M 345.5 376.9 L 358.1 376.9 L 358.1 434.5 L 345.5 434.5 Z M 345.5 376.9 "></path></clipPath><g clip-path="url(#clip-2927)"><path d="M 6.5 7.7 C 7.9 18.0 7.9 34.6 6.5 44.9 C 5.0 55.1 2.6 55.1 1.1 44.9 C -0.4 34.6 -0.4 18.0 1.1 7.7 C 2.6 -2.6 5.0 -2.6 6.5 7.7 Z M 6.5 7.7 " fill="none" stroke="#282828" stroke-width="3.00" stroke-linejoin="round" transform="matrix(1.00, 0.00, 0.00, -1.00, 348.0, 432.0)"></path></g></g><path d="M 210.0 444.0 L 306.0 444.0 L 306.0 408.0 L 210.0 408.0 Z M 210.0 444.0 " fill="#FF0000"></path><path d="M 0.0 0.0 L 96.0 0.0 L 96.0 36.0 L 0.0 36.0 Z M 0.0 0.0 " fill="none" stroke="#282828" stroke-width="3.00" stroke-miterlimit="8.00" transform="matrix(1.00, 0.00, 0.00, -1.00, 210.0, 444.0)"></path><path d="M 426.0 444.0 L 522.0 444.0 L 522.0 408.0 L 426.0 408.0 Z M 426.0 444.0 " fill="#FF0000"></path><path d="M 0.0 0.0 L 96.0 0.0 L 96.0 36.0 L 0.0 36.0 Z M 0.0 0.0 " fill="none" stroke="#282828" stroke-width="3.00" stroke-miterlimit="8.00" transform="matrix(1.00, 0.00, 0.00, -1.00, 426.0, 444.0)"></path><text xml:space="preserve" font-family="TimesNewRomanPSMT" font-size="14.0" fill="#282828" transform="matrix(1.00, 0.00, -0.00, -1.00, 76.0, 466.0)">π</text><text xml:space="preserve" font-family="ArialMT" font-size="18.0" fill="#282828" transform="matrix(1.00, 0.00, -0.00, -1.00, 83.1, 466.0)">/</text><text xml:space="preserve" font-family="ArialMT" font-size="18.0" fill="#282828" transform="matrix(1.00, 0.00, -0.00, -1.00, 88.1, 466.0)">2</text><path d="M 666.0 408.0 L 618.0 390.0 L 618.0 426.0 Z M 666.0 408.0 " fill="#282828" fill-opacity="0.50"></path><path d="M 20.8 0.0 L 38.8 48.0 L 2.8 48.0 Z M 20.8 0.0 " fill="none" stroke="#282828" stroke-width="3.00" stroke-miterlimit="8.00" transform="matrix(0.00, -1.00, -1.00, 0.00, 666.0, 428.8)"></path><text xml:space="preserve" font-family="ArialMT" font-size="18.0" fill="#282828" transform="matrix(1.00, 0.00, -0.00, -1.00, 592.0, 442.0)">A</text><text xml:space="preserve" font-family="ArialMT" font-size="18.0" fill="#282828" transform="matrix(1.00, 0.00, -0.00, -1.00, 604.0, 442.0)">c</text><text xml:space="preserve" font-family="ArialMT" font-size="18.0" fill="#282828" transform="matrix(1.00, 0.00, -0.00, -1.00, 613.0, 442.0)">q</text><text xml:space="preserve" font-family="ArialMT" font-size="18.0" fill="#282828" transform="matrix(1.00, 0.00, -0.00, -1.00, 623.0, 442.0)">u</text><text xml:space="preserve" font-family="ArialMT" font-size="18.0" fill="#282828" transform="matrix(1.00, 0.00, -0.00, -1.00, 633.0, 442.0)">i</text><text xml:space="preserve" font-family="ArialMT" font-size="18.0" fill="#282828" transform="matrix(1.00, 0.00, -0.00, -1.00, 637.0, 442.0)">s</text><text xml:space="preserve" font-family="ArialMT" font-size="18.0" fill="#282828" transform="matrix(1.00, 0.00, -0.00, -1.00, 646.0, 442.0)">i</text><text xml:space="preserve" font-family="ArialMT" font-size="18.0" fill="#282828" transform="matrix(1.00, 0.00, -0.00, -1.00, 650.0, 442.0)">t</text><text xml:space="preserve" font-family="ArialMT" font-size="18.0" fill="#282828" transform="matrix(1.00, 0.00, -0.00, -1.00, 655.0, 442.0)">i</text><text xml:space="preserve" font-family="ArialMT" font-size="18.0" fill="#282828" transform="matrix(1.00, 0.00, -0.00, -1.00, 659.0, 442.0)">o</text><text xml:space="preserve" font-family="ArialMT" font-size="18.0" fill="#282828" transform="matrix(1.00, 0.00, -0.00, -1.00, 669.1, 442.0)">n</text><path d="M 17.3 0.0 L 18.8 0.0 L 54.0 0.0 " fill="none" stroke="#0000FF" stroke-width="3.00" stroke-linejoin="round" transform="matrix(-1.00, 0.00, 0.00, 1.00, 96.0, 348.1)"></path><path d="M 79.0 356.6 L 96.0 348.1 L 79.0 339.5 Z M 79.0 356.6 " fill="#0000FF"></path><text xml:space="preserve" font-family="TimesNewRomanPSMT" font-size="14.0" fill="#282828" transform="matrix(1.00, 0.00, -0.00, -1.00, 356.0, 475.0)">π</text><image xlink:href="E040CE2B2D5FFCB3146F1C19231157B9.png" width="800.00" height="400.00" transform="matrix(0.75, 0.00, -0.00, -0.75, 54.7, 330.8)"></image><path d="M 0.0 0.0 L 720.0 0.0 " fill="none" stroke="#000000" stroke-width="2.00" stroke-linejoin="round" transform="matrix(-1.00, 0.00, 0.00, 1.00, 720.0, 485.8)"></path></g></svg>