<?xml version="1.0" encoding="UTF-8" standalone="no"?><svg xmlns="http://www.w3.org/2000/svg" xmlns:xlink="http://www.w3.org/1999/xlink" clip-rule="evenodd" stroke-miterlimit="4.00" viewBox="0 0 720 540"><desc>SVG generated by Keynote</desc><defs></defs><g transform="matrix(1.00, 0.00, -0.00, -1.00, 0.0, 540.0)"><path d="M 0.0 540.0 L 720.0 540.0 L 720.0 0.0 L 0.0 0.0 Z M 0.0 540.0 " fill="#FFFFFF"></path><text xml:space="preserve" font-family="TrebuchetMS" font-size="32.0" fill="#000000" transform="matrix(1.00, 0.00, -0.00, -1.00, 43.0, 377.0)">P</text><text xml:space="preserve" font-family="TrebuchetMS" font-size="32.0" fill="#000000" transform="matrix(1.00, 0.00, -0.00, -1.00, 59.3, 377.0)">r</text><text xml:space="preserve" font-family="TrebuchetMS" font-size="32.0" fill="#000000" transform="matrix(1.00, 0.00, -0.00, -1.00, 71.8, 377.0)">o</text><text xml:space="preserve" font-family="TrebuchetMS" font-size="32.0" fill="#000000" transform="matrix(1.00, 0.00, -0.00, -1.00, 88.9, 377.0)">s</text><text xml:space="preserve" font-family="TrebuchetMS" font-size="32.0" fill="#000000" transform="matrix(1.00, 0.00, -0.00, -1.00, 101.9, 377.0)"> </text><text xml:space="preserve" font-family="ArialMT" font-size="32.0" fill="#000000" transform="matrix(1.00, 0.00, -0.00, -1.00, 59.2, 334.1)">•</text><text xml:space="preserve" font-family="TrebuchetMS" font-size="32.0" fill="#000000" transform="matrix(1.00, 0.00, -0.00, -1.00, 70.0, 334.0)">F</text><text xml:space="preserve" font-family="TrebuchetMS" font-size="32.0" fill="#000000" transform="matrix(1.00, 0.00, -0.00, -1.00, 86.8, 334.0)">u</text><text xml:space="preserve" font-family="TrebuchetMS" font-size="32.0" fill="#000000" transform="matrix(1.00, 0.00, -0.00, -1.00, 104.3, 334.0)">l</text><text xml:space="preserve" font-family="TrebuchetMS" font-size="32.0" fill="#000000" transform="matrix(1.00, 0.00, -0.00, -1.00, 113.7, 334.0)">l</text><text xml:space="preserve" font-family="TrebuchetMS" font-size="32.0" fill="#000000" transform="matrix(1.00, 0.00, -0.00, -1.00, 123.2, 334.0)"> </text><text xml:space="preserve" font-family="TrebuchetMS" font-size="32.0" fill="#000000" transform="matrix(1.00, 0.00, -0.00, -1.00, 132.8, 334.0)">b</text><text xml:space="preserve" font-family="TrebuchetMS" font-size="32.0" fill="#000000" transform="matrix(1.00, 0.00, -0.00, -1.00, 150.6, 334.0)">r</text><text xml:space="preserve" font-family="TrebuchetMS" font-size="32.0" fill="#000000" transform="matrix(1.00, 0.00, -0.00, -1.00, 163.1, 334.0)">a</text><text xml:space="preserve" font-family="TrebuchetMS" font-size="32.0" fill="#000000" transform="matrix(1.00, 0.00, -0.00, -1.00, 179.9, 334.0)">i</text><text xml:space="preserve" font-family="TrebuchetMS" font-size="32.0" fill="#000000" transform="matrix(1.00, 0.00, -0.00, -1.00, 189.0, 334.0)">n</text><text xml:space="preserve" font-family="TrebuchetMS" font-size="32.0" fill="#000000" transform="matrix(1.00, 0.00, -0.00, -1.00, 206.5, 334.0)"> </text><text xml:space="preserve" font-family="TrebuchetMS" font-size="32.0" fill="#000000" transform="matrix(1.00, 0.00, -0.00, -1.00, 216.2, 334.0)">c</text><text xml:space="preserve" font-family="TrebuchetMS" font-size="32.0" fill="#000000" transform="matrix(1.00, 0.00, -0.00, -1.00, 232.0, 334.0)">o</text><text xml:space="preserve" font-family="TrebuchetMS" font-size="32.0" fill="#000000" transform="matrix(1.00, 0.00, -0.00, -1.00, 249.2, 334.0)">v</text><text xml:space="preserve" font-family="TrebuchetMS" font-size="32.0" fill="#000000" transform="matrix(1.00, 0.00, -0.00, -1.00, 264.8, 334.0)">e</text><text xml:space="preserve" font-family="TrebuchetMS" font-size="32.0" fill="#000000" transform="matrix(1.00, 0.00, -0.00, -1.00, 282.3, 334.0)">r</text><text xml:space="preserve" font-family="TrebuchetMS" font-size="32.0" fill="#000000" transform="matrix(1.00, 0.00, -0.00, -1.00, 294.7, 334.0)">a</text><text xml:space="preserve" font-family="TrebuchetMS" font-size="32.0" fill="#000000" transform="matrix(1.00, 0.00, -0.00, -1.00, 311.6, 334.0)">g</text><text xml:space="preserve" font-family="TrebuchetMS" font-size="32.0" fill="#000000" transform="matrix(1.00, 0.00, -0.00, -1.00, 327.6, 334.0)">e</text><text xml:space="preserve" font-family="TrebuchetMS" font-size="32.0" fill="#000000" transform="matrix(1.00, 0.00, -0.00, -1.00, 345.1, 334.0)"> </text><text xml:space="preserve" font-family="ArialMT" font-size="32.0" fill="#000000" transform="matrix(1.00, 0.00, -0.00, -1.00, 59.2, 291.1)">•</text><text xml:space="preserve" font-family="TrebuchetMS" font-size="32.0" fill="#000000" transform="matrix(1.00, 0.00, -0.00, -1.00, 70.0, 291.0)">H</text><text xml:space="preserve" font-family="TrebuchetMS" font-size="32.0" fill="#000000" transform="matrix(1.00, 0.00, -0.00, -1.00, 90.9, 291.0)">i</text><text xml:space="preserve" font-family="TrebuchetMS" font-size="32.0" fill="#000000" transform="matrix(1.00, 0.00, -0.00, -1.00, 100.1, 291.0)">g</text><text xml:space="preserve" font-family="TrebuchetMS" font-size="32.0" fill="#000000" transform="matrix(1.00, 0.00, -0.00, -1.00, 116.1, 291.0)">h</text><text xml:space="preserve" font-family="TrebuchetMS" font-size="32.0" fill="#000000" transform="matrix(1.00, 0.00, -0.00, -1.00, 133.6, 291.0)"> </text><text xml:space="preserve" font-family="TrebuchetMS" font-size="32.0" fill="#000000" transform="matrix(1.00, 0.00, -0.00, -1.00, 143.3, 291.0)">s</text><text xml:space="preserve" font-family="TrebuchetMS" font-size="32.0" fill="#000000" transform="matrix(1.00, 0.00, -0.00, -1.00, 156.2, 291.0)">e</text><text xml:space="preserve" font-family="TrebuchetMS" font-size="32.0" fill="#000000" transform="matrix(1.00, 0.00, -0.00, -1.00, 173.7, 291.0)">n</text><text xml:space="preserve" font-family="TrebuchetMS" font-size="32.0" fill="#000000" transform="matrix(1.00, 0.00, -0.00, -1.00, 191.2, 291.0)">s</text><text xml:space="preserve" font-family="TrebuchetMS" font-size="32.0" fill="#000000" transform="matrix(1.00, 0.00, -0.00, -1.00, 204.1, 291.0)">i</text><text xml:space="preserve" font-family="TrebuchetMS" font-size="32.0" fill="#000000" transform="matrix(1.00, 0.00, -0.00, -1.00, 213.3, 291.0)">t</text><text xml:space="preserve" font-family="TrebuchetMS" font-size="32.0" fill="#000000" transform="matrix(1.00, 0.00, -0.00, -1.00, 226.0, 291.0)">i</text><text xml:space="preserve" font-family="TrebuchetMS" font-size="32.0" fill="#000000" transform="matrix(1.00, 0.00, -0.00, -1.00, 235.1, 291.0)">v</text><text xml:space="preserve" font-family="TrebuchetMS" font-size="32.0" fill="#000000" transform="matrix(1.00, 0.00, -0.00, -1.00, 250.8, 291.0)">i</text><text xml:space="preserve" font-family="TrebuchetMS" font-size="32.0" fill="#000000" transform="matrix(1.00, 0.00, -0.00, -1.00, 259.9, 291.0)">t</text><text xml:space="preserve" font-family="TrebuchetMS" font-size="32.0" fill="#000000" transform="matrix(1.00, 0.00, -0.00, -1.00, 272.6, 291.0)">y</text><text xml:space="preserve" font-family="TrebuchetMS" font-size="32.0" fill="#000000" transform="matrix(1.00, 0.00, -0.00, -1.00, 288.4, 291.0)"> </text><text xml:space="preserve" font-family="TrebuchetMS" font-size="32.0" fill="#000000" transform="matrix(1.00, 0.00, -0.00, -1.00, 43.0, 248.0)">C</text><text xml:space="preserve" font-family="TrebuchetMS" font-size="32.0" fill="#000000" transform="matrix(1.00, 0.00, -0.00, -1.00, 62.1, 248.0)">o</text><text xml:space="preserve" font-family="TrebuchetMS" font-size="32.0" fill="#000000" transform="matrix(1.00, 0.00, -0.00, -1.00, 79.3, 248.0)">n</text><text xml:space="preserve" font-family="TrebuchetMS" font-size="32.0" fill="#000000" transform="matrix(1.00, 0.00, -0.00, -1.00, 96.8, 248.0)">s</text><text xml:space="preserve" font-family="TrebuchetMS" font-size="32.0" fill="#000000" transform="matrix(1.00, 0.00, -0.00, -1.00, 109.8, 248.0)"> </text><text xml:space="preserve" font-family="ArialMT" font-size="32.0" fill="#000000" transform="matrix(1.00, 0.00, -0.00, -1.00, 59.2, 205.1)">•</text><text xml:space="preserve" font-family="TrebuchetMS" font-size="32.0" fill="#000000" transform="matrix(1.00, 0.00, -0.00, -1.00, 70.0, 205.0)">N</text><text xml:space="preserve" font-family="TrebuchetMS" font-size="32.0" fill="#000000" transform="matrix(1.00, 0.00, -0.00, -1.00, 90.4, 205.0)">o</text><text xml:space="preserve" font-family="TrebuchetMS" font-size="32.0" fill="#000000" transform="matrix(1.00, 0.00, -0.00, -1.00, 107.6, 205.0)">t</text><text xml:space="preserve" font-family="TrebuchetMS" font-size="32.0" fill="#000000" transform="matrix(1.00, 0.00, -0.00, -1.00, 120.3, 205.0)"> </text><text xml:space="preserve" font-family="TrebuchetMS" font-size="32.0" fill="#000000" transform="matrix(1.00, 0.00, -0.00, -1.00, 129.9, 205.0)">v</text><text xml:space="preserve" font-family="TrebuchetMS" font-size="32.0" fill="#000000" transform="matrix(1.00, 0.00, -0.00, -1.00, 145.6, 205.0)">e</text><text xml:space="preserve" font-family="TrebuchetMS" font-size="32.0" fill="#000000" transform="matrix(1.00, 0.00, -0.00, -1.00, 163.0, 205.0)">r</text><text xml:space="preserve" font-family="TrebuchetMS" font-size="32.0" fill="#000000" transform="matrix(1.00, 0.00, -0.00, -1.00, 175.4, 205.0)">y</text><text xml:space="preserve" font-family="TrebuchetMS" font-size="32.0" fill="#000000" transform="matrix(1.00, 0.00, -0.00, -1.00, 191.2, 205.0)"> </text><text xml:space="preserve" font-family="TrebuchetMS" font-size="32.0" fill="#000000" transform="matrix(1.00, 0.00, -0.00, -1.00, 200.9, 205.0)">s</text><text xml:space="preserve" font-family="TrebuchetMS" font-size="32.0" fill="#000000" transform="matrix(1.00, 0.00, -0.00, -1.00, 213.8, 205.0)">p</text><text xml:space="preserve" font-family="TrebuchetMS" font-size="32.0" fill="#000000" transform="matrix(1.00, 0.00, -0.00, -1.00, 231.7, 205.0)">e</text><text xml:space="preserve" font-family="TrebuchetMS" font-size="32.0" fill="#000000" transform="matrix(1.00, 0.00, -0.00, -1.00, 249.1, 205.0)">c</text><text xml:space="preserve" font-family="TrebuchetMS" font-size="32.0" fill="#000000" transform="matrix(1.00, 0.00, -0.00, -1.00, 265.0, 205.0)">i</text><text xml:space="preserve" font-family="TrebuchetMS" font-size="32.0" fill="#000000" transform="matrix(1.00, 0.00, -0.00, -1.00, 274.1, 205.0)">f</text><text xml:space="preserve" font-family="TrebuchetMS" font-size="32.0" fill="#000000" transform="matrix(1.00, 0.00, -0.00, -1.00, 285.9, 205.0)">i</text><text xml:space="preserve" font-family="TrebuchetMS" font-size="32.0" fill="#000000" transform="matrix(1.00, 0.00, -0.00, -1.00, 295.0, 205.0)">c</text><text xml:space="preserve" font-family="TrebuchetMS" font-size="32.0" fill="#000000" transform="matrix(1.00, 0.00, -0.00, -1.00, 310.9, 205.0)"> </text><text xml:space="preserve" font-family="ArialMT" font-size="32.0" fill="#000000" transform="matrix(1.00, 0.00, -0.00, -1.00, 59.2, 162.1)">•</text><text xml:space="preserve" font-family="TrebuchetMS" font-size="32.0" fill="#000000" transform="matrix(1.00, 0.00, -0.00, -1.00, 70.0, 162.0)">R</text><text xml:space="preserve" font-family="TrebuchetMS" font-size="32.0" fill="#000000" transform="matrix(1.00, 0.00, -0.00, -1.00, 87.3, 162.0)">e</text><text xml:space="preserve" font-family="TrebuchetMS" font-size="32.0" fill="#000000" transform="matrix(1.00, 0.00, -0.00, -1.00, 104.8, 162.0)">v</text><text xml:space="preserve" font-family="TrebuchetMS" font-size="32.0" fill="#000000" transform="matrix(1.00, 0.00, -0.00, -1.00, 120.5, 162.0)">i</text><text xml:space="preserve" font-family="TrebuchetMS" font-size="32.0" fill="#000000" transform="matrix(1.00, 0.00, -0.00, -1.00, 129.6, 162.0)">e</text><text xml:space="preserve" font-family="TrebuchetMS" font-size="32.0" fill="#000000" transform="matrix(1.00, 0.00, -0.00, -1.00, 147.1, 162.0)">w</text><text xml:space="preserve" font-family="TrebuchetMS" font-size="32.0" fill="#000000" transform="matrix(1.00, 0.00, -0.00, -1.00, 170.9, 162.0)">e</text><text xml:space="preserve" font-family="TrebuchetMS" font-size="32.0" fill="#000000" transform="matrix(1.00, 0.00, -0.00, -1.00, 188.4, 162.0)">r</text><text xml:space="preserve" font-family="TrebuchetMS" font-size="32.0" fill="#000000" transform="matrix(1.00, 0.00, -0.00, -1.00, 200.8, 162.0)">s</text><text xml:space="preserve" font-family="TrebuchetMS" font-size="32.0" fill="#000000" transform="matrix(1.00, 0.00, -0.00, -1.00, 213.7, 162.0)"> </text><text xml:space="preserve" font-family="TrebuchetMS" font-size="32.0" fill="#000000" transform="matrix(1.00, 0.00, -0.00, -1.00, 223.4, 162.0)">c</text><text xml:space="preserve" font-family="TrebuchetMS" font-size="32.0" fill="#000000" transform="matrix(1.00, 0.00, -0.00, -1.00, 239.2, 162.0)">a</text><text xml:space="preserve" font-family="TrebuchetMS" font-size="32.0" fill="#000000" transform="matrix(1.00, 0.00, -0.00, -1.00, 256.1, 162.0)">n</text><text xml:space="preserve" font-family="TrebuchetMS" font-size="32.0" fill="#000000" transform="matrix(1.00, 0.00, -0.00, -1.00, 273.6, 162.0)"> </text><text xml:space="preserve" font-family="TrebuchetMS" font-size="32.0" fill="#000000" transform="matrix(1.00, 0.00, -0.00, -1.00, 283.2, 162.0)">b</text><text xml:space="preserve" font-family="TrebuchetMS" font-size="32.0" fill="#000000" transform="matrix(1.00, 0.00, -0.00, -1.00, 301.1, 162.0)">e</text><text xml:space="preserve" font-family="TrebuchetMS" font-size="32.0" fill="#000000" transform="matrix(1.00, 0.00, -0.00, -1.00, 318.5, 162.0)"> </text><text xml:space="preserve" font-family="TrebuchetMS" font-size="32.0" fill="#000000" transform="matrix(1.00, 0.00, -0.00, -1.00, 328.2, 162.0)">s</text><text xml:space="preserve" font-family="TrebuchetMS" font-size="32.0" fill="#000000" transform="matrix(1.00, 0.00, -0.00, -1.00, 341.1, 162.0)">k</text><text xml:space="preserve" font-family="TrebuchetMS" font-size="32.0" fill="#000000" transform="matrix(1.00, 0.00, -0.00, -1.00, 357.3, 162.0)">e</text><text xml:space="preserve" font-family="TrebuchetMS" font-size="32.0" fill="#000000" transform="matrix(1.00, 0.00, -0.00, -1.00, 374.8, 162.0)">p</text><text xml:space="preserve" font-family="TrebuchetMS" font-size="32.0" fill="#000000" transform="matrix(1.00, 0.00, -0.00, -1.00, 392.6, 162.0)">t</text><text xml:space="preserve" font-family="TrebuchetMS" font-size="32.0" fill="#000000" transform="matrix(1.00, 0.00, -0.00, -1.00, 405.3, 162.0)">i</text><text xml:space="preserve" font-family="TrebuchetMS" font-size="32.0" fill="#000000" transform="matrix(1.00, 0.00, -0.00, -1.00, 414.4, 162.0)">c</text><text xml:space="preserve" font-family="TrebuchetMS" font-size="32.0" fill="#000000" transform="matrix(1.00, 0.00, -0.00, -1.00, 430.3, 162.0)">a</text><text xml:space="preserve" font-family="TrebuchetMS" font-size="32.0" fill="#000000" transform="matrix(1.00, 0.00, -0.00, -1.00, 447.1, 162.0)">l</text><g><clipPath id="clip-5314"><path d="M -1.0 485.0 L 721.0 485.0 L 721.0 541.0 L -1.0 541.0 Z M -1.0 485.0 "></path></clipPath><g clip-path="url(#clip-5314)"><path d="M -0.0 540.0 L 720.0 540.0 L 720.0 486.0 L -0.0 486.0 Z M -0.0 540.0 " fill="#93B3D7"></path></g></g><g><clipPath id="clip-5315"><path d="M -5.7 490.1 L 725.7 490.1 L 725.7 545.7 L -5.7 545.7 Z M -5.7 490.1 "></path></clipPath><g clip-path="url(#clip-5315)"><text xml:space="preserve" font-family="TrebuchetMS-Bold" font-weight="bold" font-size="32.0" fill="#000000" transform="matrix(1.00, 0.00, -0.00, -1.00, 4.0, 507.0)">A</text><text xml:space="preserve" font-family="TrebuchetMS-Bold" font-weight="bold" font-size="32.0" fill="#000000" transform="matrix(1.00, 0.00, -0.00, -1.00, 24.3, 507.0)">n</text><text xml:space="preserve" font-family="TrebuchetMS-Bold" font-weight="bold" font-size="32.0" fill="#000000" transform="matrix(1.00, 0.00, -0.00, -1.00, 43.2, 507.0)">a</text><text xml:space="preserve" font-family="TrebuchetMS-Bold" font-weight="bold" font-size="32.0" fill="#000000" transform="matrix(1.00, 0.00, -0.00, -1.00, 60.2, 507.0)">t</text><text xml:space="preserve" font-family="TrebuchetMS-Bold" font-weight="bold" font-size="32.0" fill="#000000" transform="matrix(1.00, 0.00, -0.00, -1.00, 72.9, 507.0)">o</text><text xml:space="preserve" font-family="TrebuchetMS-Bold" font-weight="bold" font-size="32.0" fill="#000000" transform="matrix(1.00, 0.00, -0.00, -1.00, 91.0, 507.0)">m</text><text xml:space="preserve" font-family="TrebuchetMS-Bold" font-weight="bold" font-size="32.0" fill="#000000" transform="matrix(1.00, 0.00, -0.00, -1.00, 118.5, 507.0)">i</text><text xml:space="preserve" font-family="TrebuchetMS-Bold" font-weight="bold" font-size="32.0" fill="#000000" transform="matrix(1.00, 0.00, -0.00, -1.00, 128.1, 507.0)">c</text><text xml:space="preserve" font-family="TrebuchetMS-Bold" font-weight="bold" font-size="32.0" fill="#000000" transform="matrix(1.00, 0.00, -0.00, -1.00, 144.5, 507.0)">a</text><text xml:space="preserve" font-family="TrebuchetMS-Bold" font-weight="bold" font-size="32.0" fill="#000000" transform="matrix(1.00, 0.00, -0.00, -1.00, 161.5, 507.0)">l</text><text xml:space="preserve" font-family="TrebuchetMS-Bold" font-weight="bold" font-size="32.0" fill="#000000" transform="matrix(1.00, 0.00, -0.00, -1.00, 170.9, 507.0)"> </text><text xml:space="preserve" font-family="TrebuchetMS-Bold" font-weight="bold" font-size="32.0" fill="#000000" transform="matrix(1.00, 0.00, -0.00, -1.00, 180.6, 507.0)">P</text><text xml:space="preserve" font-family="TrebuchetMS-Bold" font-weight="bold" font-size="32.0" fill="#000000" transform="matrix(1.00, 0.00, -0.00, -1.00, 199.4, 507.0)">h</text><text xml:space="preserve" font-family="TrebuchetMS-Bold" font-weight="bold" font-size="32.0" fill="#000000" transform="matrix(1.00, 0.00, -0.00, -1.00, 218.3, 507.0)">e</text><text xml:space="preserve" font-family="TrebuchetMS-Bold" font-weight="bold" font-size="32.0" fill="#000000" transform="matrix(1.00, 0.00, -0.00, -1.00, 236.7, 507.0)">n</text><text xml:space="preserve" font-family="TrebuchetMS-Bold" font-weight="bold" font-size="32.0" fill="#000000" transform="matrix(1.00, 0.00, -0.00, -1.00, 255.6, 507.0)">o</text><text xml:space="preserve" font-family="TrebuchetMS-Bold" font-weight="bold" font-size="32.0" fill="#000000" transform="matrix(1.00, 0.00, -0.00, -1.00, 273.7, 507.0)">t</text><text xml:space="preserve" font-family="TrebuchetMS-Bold" font-weight="bold" font-size="32.0" fill="#000000" transform="matrix(1.00, 0.00, -0.00, -1.00, 286.4, 507.0)">y</text><text xml:space="preserve" font-family="TrebuchetMS-Bold" font-weight="bold" font-size="32.0" fill="#000000" transform="matrix(1.00, 0.00, -0.00, -1.00, 303.5, 507.0)">p</text><text xml:space="preserve" font-family="TrebuchetMS-Bold" font-weight="bold" font-size="32.0" fill="#000000" transform="matrix(1.00, 0.00, -0.00, -1.00, 322.1, 507.0)">i</text><text xml:space="preserve" font-family="TrebuchetMS-Bold" font-weight="bold" font-size="32.0" fill="#000000" transform="matrix(1.00, 0.00, -0.00, -1.00, 331.7, 507.0)">n</text><text xml:space="preserve" font-family="TrebuchetMS-Bold" font-weight="bold" font-size="32.0" fill="#000000" transform="matrix(1.00, 0.00, -0.00, -1.00, 350.6, 507.0)">g</text><text xml:space="preserve" font-family="TrebuchetMS-Bold" font-weight="bold" font-size="32.0" fill="#000000" transform="matrix(1.00, 0.00, -0.00, -1.00, 366.6, 507.0)"> </text><text xml:space="preserve" font-family="TrebuchetMS-Bold" font-weight="bold" font-size="32.0" fill="#000000" transform="matrix(1.00, 0.00, -0.00, -1.00, 376.3, 507.0)">-</text><text xml:space="preserve" font-family="TrebuchetMS-Bold" font-weight="bold" font-size="32.0" fill="#000000" transform="matrix(1.00, 0.00, -0.00, -1.00, 388.0, 507.0)"> </text><text xml:space="preserve" font-family="TrebuchetMS-Bold" font-weight="bold" font-size="32.0" fill="#000000" transform="matrix(1.00, 0.00, -0.00, -1.00, 397.7, 507.0)">M</text><text xml:space="preserve" font-family="TrebuchetMS-Bold" font-weight="bold" font-size="32.0" fill="#000000" transform="matrix(1.00, 0.00, -0.00, -1.00, 421.5, 507.0)">R</text><text xml:space="preserve" font-family="TrebuchetMS-Bold" font-weight="bold" font-size="32.0" fill="#000000" transform="matrix(1.00, 0.00, -0.00, -1.00, 441.1, 507.0)">I</text></g></g><path d="M 0.0 0.0 L 720.0 0.0 " fill="none" stroke="#000000" stroke-width="2.00" stroke-linejoin="round" transform="matrix(-1.00, 0.00, 0.00, 1.00, 720.0, 485.8)"></path></g></svg>