<?xml version="1.0" encoding="UTF-8" standalone="no"?><svg xmlns="http://www.w3.org/2000/svg" xmlns:xlink="http://www.w3.org/1999/xlink" clip-rule="evenodd" stroke-miterlimit="4.00" viewBox="0 0 720 540"><desc>SVG generated by Keynote</desc><defs></defs><g transform="matrix(1.00, 0.00, -0.00, -1.00, 0.0, 540.0)"><path d="M 0.0 540.0 L 720.0 540.0 L 720.0 0.0 L 0.0 0.0 Z M 0.0 540.0 " fill="#FFFFFF"></path><text xml:space="preserve" font-family="TrebuchetMS" font-size="32.0" fill="#000000" transform="matrix(1.00, 0.00, -0.00, -1.00, 43.0, 377.0)">P</text><text xml:space="preserve" font-family="TrebuchetMS" font-size="32.0" fill="#000000" transform="matrix(1.00, 0.00, -0.00, -1.00, 59.3, 377.0)">r</text><text xml:space="preserve" font-family="TrebuchetMS" font-size="32.0" fill="#000000" transform="matrix(1.00, 0.00, -0.00, -1.00, 71.8, 377.0)">o</text><text xml:space="preserve" font-family="TrebuchetMS" font-size="32.0" fill="#000000" transform="matrix(1.00, 0.00, -0.00, -1.00, 88.9, 377.0)">s</text><text xml:space="preserve" font-family="TrebuchetMS" font-size="32.0" fill="#000000" transform="matrix(1.00, 0.00, -0.00, -1.00, 101.9, 377.0)"> </text><text xml:space="preserve" font-family="ArialMT" font-size="24.0" fill="#000000" transform="matrix(1.00, 0.00, -0.00, -1.00, 59.2, 341.3)">•</text><text xml:space="preserve" font-family="TrebuchetMS" font-size="24.0" fill="#000000" transform="matrix(1.00, 0.00, -0.00, -1.00, 70.0, 341.0)">C</text><text xml:space="preserve" font-family="TrebuchetMS" font-size="24.0" fill="#000000" transform="matrix(1.00, 0.00, -0.00, -1.00, 84.4, 341.0)">e</text><text xml:space="preserve" font-family="TrebuchetMS" font-size="24.0" fill="#000000" transform="matrix(1.00, 0.00, -0.00, -1.00, 97.5, 341.0)">l</text><text xml:space="preserve" font-family="TrebuchetMS" font-size="24.0" fill="#000000" transform="matrix(1.00, 0.00, -0.00, -1.00, 104.5, 341.0)">l</text><text xml:space="preserve" font-family="TrebuchetMS" font-size="24.0" fill="#000000" transform="matrix(1.00, 0.00, -0.00, -1.00, 111.6, 341.0)">u</text><text xml:space="preserve" font-family="TrebuchetMS" font-size="24.0" fill="#000000" transform="matrix(1.00, 0.00, -0.00, -1.00, 124.7, 341.0)">l</text><text xml:space="preserve" font-family="TrebuchetMS" font-size="24.0" fill="#000000" transform="matrix(1.00, 0.00, -0.00, -1.00, 131.8, 341.0)">a</text><text xml:space="preserve" font-family="TrebuchetMS" font-size="24.0" fill="#000000" transform="matrix(1.00, 0.00, -0.00, -1.00, 144.4, 341.0)">r</text><text xml:space="preserve" font-family="TrebuchetMS" font-size="24.0" fill="#000000" transform="matrix(1.00, 0.00, -0.00, -1.00, 153.7, 341.0)"> </text><text xml:space="preserve" font-family="TrebuchetMS" font-size="24.0" fill="#000000" transform="matrix(1.00, 0.00, -0.00, -1.00, 161.0, 341.0)">R</text><text xml:space="preserve" font-family="TrebuchetMS" font-size="24.0" fill="#000000" transform="matrix(1.00, 0.00, -0.00, -1.00, 174.0, 341.0)">e</text><text xml:space="preserve" font-family="TrebuchetMS" font-size="24.0" fill="#000000" transform="matrix(1.00, 0.00, -0.00, -1.00, 187.1, 341.0)">s</text><text xml:space="preserve" font-family="TrebuchetMS" font-size="24.0" fill="#000000" transform="matrix(1.00, 0.00, -0.00, -1.00, 196.8, 341.0)">o</text><text xml:space="preserve" font-family="TrebuchetMS" font-size="24.0" fill="#000000" transform="matrix(1.00, 0.00, -0.00, -1.00, 209.6, 341.0)">l</text><text xml:space="preserve" font-family="TrebuchetMS" font-size="24.0" fill="#000000" transform="matrix(1.00, 0.00, -0.00, -1.00, 216.7, 341.0)">u</text><text xml:space="preserve" font-family="TrebuchetMS" font-size="24.0" fill="#000000" transform="matrix(1.00, 0.00, -0.00, -1.00, 229.8, 341.0)">t</text><text xml:space="preserve" font-family="TrebuchetMS" font-size="24.0" fill="#000000" transform="matrix(1.00, 0.00, -0.00, -1.00, 239.4, 341.0)">i</text><text xml:space="preserve" font-family="TrebuchetMS" font-size="24.0" fill="#000000" transform="matrix(1.00, 0.00, -0.00, -1.00, 246.2, 341.0)">o</text><text xml:space="preserve" font-family="TrebuchetMS" font-size="24.0" fill="#000000" transform="matrix(1.00, 0.00, -0.00, -1.00, 259.1, 341.0)">n</text><text xml:space="preserve" font-family="TrebuchetMS" font-size="24.0" fill="#000000" transform="matrix(1.00, 0.00, -0.00, -1.00, 272.2, 341.0)"> </text><text xml:space="preserve" font-family="ArialMT" font-size="24.0" fill="#000000" transform="matrix(1.00, 0.00, -0.00, -1.00, 59.2, 307.3)">•</text><text xml:space="preserve" font-family="TrebuchetMS" font-size="24.0" fill="#000000" transform="matrix(1.00, 0.00, -0.00, -1.00, 70.0, 307.0)">S</text><text xml:space="preserve" font-family="TrebuchetMS" font-size="24.0" fill="#000000" transform="matrix(1.00, 0.00, -0.00, -1.00, 81.5, 307.0)">p</text><text xml:space="preserve" font-family="TrebuchetMS" font-size="24.0" fill="#000000" transform="matrix(1.00, 0.00, -0.00, -1.00, 94.9, 307.0)">e</text><text xml:space="preserve" font-family="TrebuchetMS" font-size="24.0" fill="#000000" transform="matrix(1.00, 0.00, -0.00, -1.00, 108.0, 307.0)">c</text><text xml:space="preserve" font-family="TrebuchetMS" font-size="24.0" fill="#000000" transform="matrix(1.00, 0.00, -0.00, -1.00, 119.9, 307.0)">i</text><text xml:space="preserve" font-family="TrebuchetMS" font-size="24.0" fill="#000000" transform="matrix(1.00, 0.00, -0.00, -1.00, 126.7, 307.0)">f</text><text xml:space="preserve" font-family="TrebuchetMS" font-size="24.0" fill="#000000" transform="matrix(1.00, 0.00, -0.00, -1.00, 135.6, 307.0)">i</text><text xml:space="preserve" font-family="TrebuchetMS" font-size="24.0" fill="#000000" transform="matrix(1.00, 0.00, -0.00, -1.00, 142.5, 307.0)">c</text><text xml:space="preserve" font-family="TrebuchetMS" font-size="24.0" fill="#000000" transform="matrix(1.00, 0.00, -0.00, -1.00, 154.3, 307.0)">i</text><text xml:space="preserve" font-family="TrebuchetMS" font-size="24.0" fill="#000000" transform="matrix(1.00, 0.00, -0.00, -1.00, 161.2, 307.0)">t</text><text xml:space="preserve" font-family="TrebuchetMS" font-size="24.0" fill="#000000" transform="matrix(1.00, 0.00, -0.00, -1.00, 170.7, 307.0)">y</text><text xml:space="preserve" font-family="TrebuchetMS" font-size="24.0" fill="#000000" transform="matrix(1.00, 0.00, -0.00, -1.00, 182.6, 307.0)"> </text><text xml:space="preserve" font-family="TrebuchetMS" font-size="24.0" fill="#000000" transform="matrix(1.00, 0.00, -0.00, -1.00, 189.8, 307.0)">o</text><text xml:space="preserve" font-family="TrebuchetMS" font-size="24.0" fill="#000000" transform="matrix(1.00, 0.00, -0.00, -1.00, 202.7, 307.0)">f</text><text xml:space="preserve" font-family="TrebuchetMS" font-size="24.0" fill="#000000" transform="matrix(1.00, 0.00, -0.00, -1.00, 211.5, 307.0)"> </text><text xml:space="preserve" font-family="TrebuchetMS" font-size="24.0" fill="#000000" transform="matrix(1.00, 0.00, -0.00, -1.00, 218.8, 307.0)">c</text><text xml:space="preserve" font-family="TrebuchetMS" font-size="24.0" fill="#000000" transform="matrix(1.00, 0.00, -0.00, -1.00, 230.7, 307.0)">h</text><text xml:space="preserve" font-family="TrebuchetMS" font-size="24.0" fill="#000000" transform="matrix(1.00, 0.00, -0.00, -1.00, 243.8, 307.0)">a</text><text xml:space="preserve" font-family="TrebuchetMS" font-size="24.0" fill="#000000" transform="matrix(1.00, 0.00, -0.00, -1.00, 256.4, 307.0)">n</text><text xml:space="preserve" font-family="TrebuchetMS" font-size="24.0" fill="#000000" transform="matrix(1.00, 0.00, -0.00, -1.00, 269.5, 307.0)">g</text><text xml:space="preserve" font-family="TrebuchetMS" font-size="24.0" fill="#000000" transform="matrix(1.00, 0.00, -0.00, -1.00, 281.6, 307.0)">e</text><text xml:space="preserve" font-family="TrebuchetMS" font-size="24.0" fill="#000000" transform="matrix(1.00, 0.00, -0.00, -1.00, 294.7, 307.0)">s</text><text xml:space="preserve" font-family="TrebuchetMS" font-size="24.0" fill="#000000" transform="matrix(1.00, 0.00, -0.00, -1.00, 304.4, 307.0)">/</text><text xml:space="preserve" font-family="TrebuchetMS" font-size="24.0" fill="#000000" transform="matrix(1.00, 0.00, -0.00, -1.00, 317.0, 307.0)">d</text><text xml:space="preserve" font-family="TrebuchetMS" font-size="24.0" fill="#000000" transform="matrix(1.00, 0.00, -0.00, -1.00, 330.3, 307.0)">i</text><text xml:space="preserve" font-family="TrebuchetMS" font-size="24.0" fill="#000000" transform="matrix(1.00, 0.00, -0.00, -1.00, 337.2, 307.0)">f</text><text xml:space="preserve" font-family="TrebuchetMS" font-size="24.0" fill="#000000" transform="matrix(1.00, 0.00, -0.00, -1.00, 346.1, 307.0)">f</text><text xml:space="preserve" font-family="TrebuchetMS" font-size="24.0" fill="#000000" transform="matrix(1.00, 0.00, -0.00, -1.00, 354.9, 307.0)">e</text><text xml:space="preserve" font-family="TrebuchetMS" font-size="24.0" fill="#000000" transform="matrix(1.00, 0.00, -0.00, -1.00, 368.0, 307.0)">r</text><text xml:space="preserve" font-family="TrebuchetMS" font-size="24.0" fill="#000000" transform="matrix(1.00, 0.00, -0.00, -1.00, 377.3, 307.0)">e</text><text xml:space="preserve" font-family="TrebuchetMS" font-size="24.0" fill="#000000" transform="matrix(1.00, 0.00, -0.00, -1.00, 390.4, 307.0)">n</text><text xml:space="preserve" font-family="TrebuchetMS" font-size="24.0" fill="#000000" transform="matrix(1.00, 0.00, -0.00, -1.00, 403.6, 307.0)">c</text><text xml:space="preserve" font-family="TrebuchetMS" font-size="24.0" fill="#000000" transform="matrix(1.00, 0.00, -0.00, -1.00, 415.4, 307.0)">e</text><text xml:space="preserve" font-family="TrebuchetMS" font-size="24.0" fill="#000000" transform="matrix(1.00, 0.00, -0.00, -1.00, 428.5, 307.0)">s</text><text xml:space="preserve" font-family="TrebuchetMS" font-size="24.0" fill="#000000" transform="matrix(1.00, 0.00, -0.00, -1.00, 438.3, 307.0)"> </text><text xml:space="preserve" font-family="ArialMT" font-size="24.0" fill="#000000" transform="matrix(1.00, 0.00, -0.00, -1.00, 59.2, 273.3)">•</text><text xml:space="preserve" font-family="TrebuchetMS" font-size="24.0" fill="#000000" transform="matrix(1.00, 0.00, -0.00, -1.00, 70.0, 273.0)">M</text><text xml:space="preserve" font-family="TrebuchetMS" font-size="24.0" fill="#000000" transform="matrix(1.00, 0.00, -0.00, -1.00, 87.0, 273.0)">u</text><text xml:space="preserve" font-family="TrebuchetMS" font-size="24.0" fill="#000000" transform="matrix(1.00, 0.00, -0.00, -1.00, 100.2, 273.0)">l</text><text xml:space="preserve" font-family="TrebuchetMS" font-size="24.0" fill="#000000" transform="matrix(1.00, 0.00, -0.00, -1.00, 107.2, 273.0)">t</text><text xml:space="preserve" font-family="TrebuchetMS" font-size="24.0" fill="#000000" transform="matrix(1.00, 0.00, -0.00, -1.00, 116.8, 273.0)">i</text><text xml:space="preserve" font-family="TrebuchetMS" font-size="24.0" fill="#000000" transform="matrix(1.00, 0.00, -0.00, -1.00, 123.6, 273.0)">p</text><text xml:space="preserve" font-family="TrebuchetMS" font-size="24.0" fill="#000000" transform="matrix(1.00, 0.00, -0.00, -1.00, 137.0, 273.0)">l</text><text xml:space="preserve" font-family="TrebuchetMS" font-size="24.0" fill="#000000" transform="matrix(1.00, 0.00, -0.00, -1.00, 144.1, 273.0)">e</text><text xml:space="preserve" font-family="TrebuchetMS" font-size="24.0" fill="#000000" transform="matrix(1.00, 0.00, -0.00, -1.00, 157.2, 273.0)"> </text><text xml:space="preserve" font-family="TrebuchetMS" font-size="24.0" fill="#000000" transform="matrix(1.00, 0.00, -0.00, -1.00, 164.4, 273.0)">s</text><text xml:space="preserve" font-family="TrebuchetMS" font-size="24.0" fill="#000000" transform="matrix(1.00, 0.00, -0.00, -1.00, 174.1, 273.0)">t</text><text xml:space="preserve" font-family="TrebuchetMS" font-size="24.0" fill="#000000" transform="matrix(1.00, 0.00, -0.00, -1.00, 183.6, 273.0)">a</text><text xml:space="preserve" font-family="TrebuchetMS" font-size="24.0" fill="#000000" transform="matrix(1.00, 0.00, -0.00, -1.00, 196.3, 273.0)">i</text><text xml:space="preserve" font-family="TrebuchetMS" font-size="24.0" fill="#000000" transform="matrix(1.00, 0.00, -0.00, -1.00, 203.1, 273.0)">n</text><text xml:space="preserve" font-family="TrebuchetMS" font-size="24.0" fill="#000000" transform="matrix(1.00, 0.00, -0.00, -1.00, 216.2, 273.0)">s</text><text xml:space="preserve" font-family="TrebuchetMS" font-size="24.0" fill="#000000" transform="matrix(1.00, 0.00, -0.00, -1.00, 225.9, 273.0)"> </text><text xml:space="preserve" font-family="TrebuchetMS" font-size="24.0" fill="#000000" transform="matrix(1.00, 0.00, -0.00, -1.00, 233.2, 273.0)">f</text><text xml:space="preserve" font-family="TrebuchetMS" font-size="24.0" fill="#000000" transform="matrix(1.00, 0.00, -0.00, -1.00, 242.0, 273.0)">o</text><text xml:space="preserve" font-family="TrebuchetMS" font-size="24.0" fill="#000000" transform="matrix(1.00, 0.00, -0.00, -1.00, 254.9, 273.0)">r</text><text xml:space="preserve" font-family="TrebuchetMS" font-size="24.0" fill="#000000" transform="matrix(1.00, 0.00, -0.00, -1.00, 264.2, 273.0)"> </text><text xml:space="preserve" font-family="TrebuchetMS" font-size="24.0" fill="#000000" transform="matrix(1.00, 0.00, -0.00, -1.00, 271.5, 273.0)">m</text><text xml:space="preserve" font-family="TrebuchetMS" font-size="24.0" fill="#000000" transform="matrix(1.00, 0.00, -0.00, -1.00, 291.4, 273.0)">u</text><text xml:space="preserve" font-family="TrebuchetMS" font-size="24.0" fill="#000000" transform="matrix(1.00, 0.00, -0.00, -1.00, 304.5, 273.0)">l</text><text xml:space="preserve" font-family="TrebuchetMS" font-size="24.0" fill="#000000" transform="matrix(1.00, 0.00, -0.00, -1.00, 311.6, 273.0)">t</text><text xml:space="preserve" font-family="TrebuchetMS" font-size="24.0" fill="#000000" transform="matrix(1.00, 0.00, -0.00, -1.00, 321.1, 273.0)">i</text><text xml:space="preserve" font-family="TrebuchetMS" font-size="24.0" fill="#000000" transform="matrix(1.00, 0.00, -0.00, -1.00, 328.0, 273.0)">p</text><text xml:space="preserve" font-family="TrebuchetMS" font-size="24.0" fill="#000000" transform="matrix(1.00, 0.00, -0.00, -1.00, 341.4, 273.0)">l</text><text xml:space="preserve" font-family="TrebuchetMS" font-size="24.0" fill="#000000" transform="matrix(1.00, 0.00, -0.00, -1.00, 348.4, 273.0)">e</text><text xml:space="preserve" font-family="TrebuchetMS" font-size="24.0" fill="#000000" transform="matrix(1.00, 0.00, -0.00, -1.00, 361.5, 273.0)"> </text><text xml:space="preserve" font-family="TrebuchetMS" font-size="24.0" fill="#000000" transform="matrix(1.00, 0.00, -0.00, -1.00, 368.8, 273.0)">c</text><text xml:space="preserve" font-family="TrebuchetMS" font-size="24.0" fill="#000000" transform="matrix(1.00, 0.00, -0.00, -1.00, 380.7, 273.0)">e</text><text xml:space="preserve" font-family="TrebuchetMS" font-size="24.0" fill="#000000" transform="matrix(1.00, 0.00, -0.00, -1.00, 393.8, 273.0)">l</text><text xml:space="preserve" font-family="TrebuchetMS" font-size="24.0" fill="#000000" transform="matrix(1.00, 0.00, -0.00, -1.00, 400.8, 273.0)">l</text><text xml:space="preserve" font-family="TrebuchetMS" font-size="24.0" fill="#000000" transform="matrix(1.00, 0.00, -0.00, -1.00, 407.9, 273.0)">u</text><text xml:space="preserve" font-family="TrebuchetMS" font-size="24.0" fill="#000000" transform="matrix(1.00, 0.00, -0.00, -1.00, 421.0, 273.0)">l</text><text xml:space="preserve" font-family="TrebuchetMS" font-size="24.0" fill="#000000" transform="matrix(1.00, 0.00, -0.00, -1.00, 428.1, 273.0)">a</text><text xml:space="preserve" font-family="TrebuchetMS" font-size="24.0" fill="#000000" transform="matrix(1.00, 0.00, -0.00, -1.00, 440.7, 273.0)">r</text><text xml:space="preserve" font-family="TrebuchetMS" font-size="24.0" fill="#000000" transform="matrix(1.00, 0.00, -0.00, -1.00, 450.0, 273.0)"> </text><text xml:space="preserve" font-family="TrebuchetMS" font-size="24.0" fill="#000000" transform="matrix(1.00, 0.00, -0.00, -1.00, 457.3, 273.0)">t</text><text xml:space="preserve" font-family="TrebuchetMS" font-size="24.0" fill="#000000" transform="matrix(1.00, 0.00, -0.00, -1.00, 466.8, 273.0)">y</text><text xml:space="preserve" font-family="TrebuchetMS" font-size="24.0" fill="#000000" transform="matrix(1.00, 0.00, -0.00, -1.00, 478.6, 273.0)">p</text><text xml:space="preserve" font-family="TrebuchetMS" font-size="24.0" fill="#000000" transform="matrix(1.00, 0.00, -0.00, -1.00, 492.0, 273.0)">e</text><text xml:space="preserve" font-family="TrebuchetMS" font-size="24.0" fill="#000000" transform="matrix(1.00, 0.00, -0.00, -1.00, 505.1, 273.0)">s</text><text xml:space="preserve" font-family="TrebuchetMS" font-size="24.0" fill="#000000" transform="matrix(1.00, 0.00, -0.00, -1.00, 514.8, 273.0)"> </text><text xml:space="preserve" font-family="TrebuchetMS" font-size="32.0" fill="#000000" transform="matrix(1.00, 0.00, -0.00, -1.00, 43.0, 232.0)">C</text><text xml:space="preserve" font-family="TrebuchetMS" font-size="32.0" fill="#000000" transform="matrix(1.00, 0.00, -0.00, -1.00, 62.1, 232.0)">o</text><text xml:space="preserve" font-family="TrebuchetMS" font-size="32.0" fill="#000000" transform="matrix(1.00, 0.00, -0.00, -1.00, 79.3, 232.0)">n</text><text xml:space="preserve" font-family="TrebuchetMS" font-size="32.0" fill="#000000" transform="matrix(1.00, 0.00, -0.00, -1.00, 96.8, 232.0)">s</text><text xml:space="preserve" font-family="TrebuchetMS" font-size="32.0" fill="#000000" transform="matrix(1.00, 0.00, -0.00, -1.00, 109.7, 232.0)"> </text><text xml:space="preserve" font-family="ArialMT" font-size="24.0" fill="#000000" transform="matrix(1.00, 0.00, -0.00, -1.00, 59.2, 196.3)">•</text><text xml:space="preserve" font-family="TrebuchetMS" font-size="24.0" fill="#000000" transform="matrix(1.00, 0.00, -0.00, -1.00, 70.0, 196.0)">C</text><text xml:space="preserve" font-family="TrebuchetMS" font-size="24.0" fill="#000000" transform="matrix(1.00, 0.00, -0.00, -1.00, 84.4, 196.0)">a</text><text xml:space="preserve" font-family="TrebuchetMS" font-size="24.0" fill="#000000" transform="matrix(1.00, 0.00, -0.00, -1.00, 97.0, 196.0)">n</text><text xml:space="preserve" font-family="TrebuchetMS" font-size="24.0" fill="#000000" transform="matrix(1.00, 0.00, -0.00, -1.00, 110.1, 196.0)">’</text><text xml:space="preserve" font-family="TrebuchetMS" font-size="24.0" fill="#000000" transform="matrix(1.00, 0.00, -0.00, -1.00, 118.9, 196.0)">t</text><text xml:space="preserve" font-family="TrebuchetMS" font-size="24.0" fill="#000000" transform="matrix(1.00, 0.00, -0.00, -1.00, 128.4, 196.0)"> </text><text xml:space="preserve" font-family="TrebuchetMS" font-size="24.0" fill="#000000" transform="matrix(1.00, 0.00, -0.00, -1.00, 135.7, 196.0)">g</text><text xml:space="preserve" font-family="TrebuchetMS" font-size="24.0" fill="#000000" transform="matrix(1.00, 0.00, -0.00, -1.00, 147.7, 196.0)">e</text><text xml:space="preserve" font-family="TrebuchetMS" font-size="24.0" fill="#000000" transform="matrix(1.00, 0.00, -0.00, -1.00, 160.8, 196.0)">t</text><text xml:space="preserve" font-family="TrebuchetMS" font-size="24.0" fill="#000000" transform="matrix(1.00, 0.00, -0.00, -1.00, 170.4, 196.0)"> </text><text xml:space="preserve" font-family="TrebuchetMS" font-size="24.0" fill="#000000" transform="matrix(1.00, 0.00, -0.00, -1.00, 177.6, 196.0)">w</text><text xml:space="preserve" font-family="TrebuchetMS" font-size="24.0" fill="#000000" transform="matrix(1.00, 0.00, -0.00, -1.00, 195.5, 196.0)">h</text><text xml:space="preserve" font-family="TrebuchetMS" font-size="24.0" fill="#000000" transform="matrix(1.00, 0.00, -0.00, -1.00, 208.6, 196.0)">o</text><text xml:space="preserve" font-family="TrebuchetMS" font-size="24.0" fill="#000000" transform="matrix(1.00, 0.00, -0.00, -1.00, 221.4, 196.0)">l</text><text xml:space="preserve" font-family="TrebuchetMS" font-size="24.0" fill="#000000" transform="matrix(1.00, 0.00, -0.00, -1.00, 228.5, 196.0)">e</text><text xml:space="preserve" font-family="TrebuchetMS" font-size="24.0" fill="#000000" transform="matrix(1.00, 0.00, -0.00, -1.00, 241.6, 196.0)"> </text><text xml:space="preserve" font-family="TrebuchetMS" font-size="24.0" fill="#000000" transform="matrix(1.00, 0.00, -0.00, -1.00, 248.9, 196.0)">b</text><text xml:space="preserve" font-family="TrebuchetMS" font-size="24.0" fill="#000000" transform="matrix(1.00, 0.00, -0.00, -1.00, 262.2, 196.0)">r</text><text xml:space="preserve" font-family="TrebuchetMS" font-size="24.0" fill="#000000" transform="matrix(1.00, 0.00, -0.00, -1.00, 271.6, 196.0)">a</text><text xml:space="preserve" font-family="TrebuchetMS" font-size="24.0" fill="#000000" transform="matrix(1.00, 0.00, -0.00, -1.00, 284.2, 196.0)">i</text><text xml:space="preserve" font-family="TrebuchetMS" font-size="24.0" fill="#000000" transform="matrix(1.00, 0.00, -0.00, -1.00, 291.0, 196.0)">n</text><text xml:space="preserve" font-family="TrebuchetMS" font-size="24.0" fill="#000000" transform="matrix(1.00, 0.00, -0.00, -1.00, 304.1, 196.0)"> </text><text xml:space="preserve" font-family="TrebuchetMS" font-size="24.0" fill="#000000" transform="matrix(1.00, 0.00, -0.00, -1.00, 311.4, 196.0)">r</text><text xml:space="preserve" font-family="TrebuchetMS" font-size="24.0" fill="#000000" transform="matrix(1.00, 0.00, -0.00, -1.00, 320.7, 196.0)">e</text><text xml:space="preserve" font-family="TrebuchetMS" font-size="24.0" fill="#000000" transform="matrix(1.00, 0.00, -0.00, -1.00, 333.8, 196.0)">s</text><text xml:space="preserve" font-family="TrebuchetMS" font-size="24.0" fill="#000000" transform="matrix(1.00, 0.00, -0.00, -1.00, 343.5, 196.0)">o</text><text xml:space="preserve" font-family="TrebuchetMS" font-size="24.0" fill="#000000" transform="matrix(1.00, 0.00, -0.00, -1.00, 356.4, 196.0)">l</text><text xml:space="preserve" font-family="TrebuchetMS" font-size="24.0" fill="#000000" transform="matrix(1.00, 0.00, -0.00, -1.00, 363.5, 196.0)">u</text><text xml:space="preserve" font-family="TrebuchetMS" font-size="24.0" fill="#000000" transform="matrix(1.00, 0.00, -0.00, -1.00, 376.6, 196.0)">t</text><text xml:space="preserve" font-family="TrebuchetMS" font-size="24.0" fill="#000000" transform="matrix(1.00, 0.00, -0.00, -1.00, 386.1, 196.0)">i</text><text xml:space="preserve" font-family="TrebuchetMS" font-size="24.0" fill="#000000" transform="matrix(1.00, 0.00, -0.00, -1.00, 393.0, 196.0)">o</text><text xml:space="preserve" font-family="TrebuchetMS" font-size="24.0" fill="#000000" transform="matrix(1.00, 0.00, -0.00, -1.00, 405.8, 196.0)">n</text><text xml:space="preserve" font-family="TrebuchetMS" font-size="24.0" fill="#000000" transform="matrix(1.00, 0.00, -0.00, -1.00, 418.9, 196.0)"> </text><text xml:space="preserve" font-family="ArialMT" font-size="20.0" fill="#000000" transform="matrix(1.00, 0.00, -0.00, -1.00, 93.2, 167.4)">–</text><text xml:space="preserve" font-family="TrebuchetMS" font-size="20.0" fill="#000000" transform="matrix(1.00, 0.00, -0.00, -1.00, 104.0, 167.0)">O</text><text xml:space="preserve" font-family="TrebuchetMS" font-size="20.0" fill="#000000" transform="matrix(1.00, 0.00, -0.00, -1.00, 117.5, 167.0)">r</text><text xml:space="preserve" font-family="TrebuchetMS" font-size="20.0" fill="#000000" transform="matrix(1.00, 0.00, -0.00, -1.00, 125.2, 167.0)"> </text><text xml:space="preserve" font-family="TrebuchetMS" font-size="20.0" fill="#000000" transform="matrix(1.00, 0.00, -0.00, -1.00, 131.3, 167.0)">y</text><text xml:space="preserve" font-family="TrebuchetMS" font-size="20.0" fill="#000000" transform="matrix(1.00, 0.00, -0.00, -1.00, 141.1, 167.0)">o</text><text xml:space="preserve" font-family="TrebuchetMS" font-size="20.0" fill="#000000" transform="matrix(1.00, 0.00, -0.00, -1.00, 151.9, 167.0)">u</text><text xml:space="preserve" font-family="TrebuchetMS" font-size="20.0" fill="#000000" transform="matrix(1.00, 0.00, -0.00, -1.00, 162.8, 167.0)"> </text><text xml:space="preserve" font-family="TrebuchetMS" font-size="20.0" fill="#000000" transform="matrix(1.00, 0.00, -0.00, -1.00, 168.9, 167.0)">c</text><text xml:space="preserve" font-family="TrebuchetMS" font-size="20.0" fill="#000000" transform="matrix(1.00, 0.00, -0.00, -1.00, 178.8, 167.0)">a</text><text xml:space="preserve" font-family="TrebuchetMS" font-size="20.0" fill="#000000" transform="matrix(1.00, 0.00, -0.00, -1.00, 189.3, 167.0)">n</text><text xml:space="preserve" font-family="TrebuchetMS" font-size="20.0" fill="#000000" transform="matrix(1.00, 0.00, -0.00, -1.00, 200.2, 167.0)"> </text><text xml:space="preserve" font-family="TrebuchetMS" font-size="20.0" fill="#000000" transform="matrix(1.00, 0.00, -0.00, -1.00, 206.3, 167.0)">b</text><text xml:space="preserve" font-family="TrebuchetMS" font-size="20.0" fill="#000000" transform="matrix(1.00, 0.00, -0.00, -1.00, 217.4, 167.0)">u</text><text xml:space="preserve" font-family="TrebuchetMS" font-size="20.0" fill="#000000" transform="matrix(1.00, 0.00, -0.00, -1.00, 228.3, 167.0)">t</text><text xml:space="preserve" font-family="TrebuchetMS" font-size="20.0" fill="#000000" transform="matrix(1.00, 0.00, -0.00, -1.00, 236.3, 167.0)"> </text><text xml:space="preserve" font-family="TrebuchetMS" font-size="20.0" fill="#000000" transform="matrix(1.00, 0.00, -0.00, -1.00, 242.3, 167.0)">i</text><text xml:space="preserve" font-family="TrebuchetMS" font-size="20.0" fill="#000000" transform="matrix(1.00, 0.00, -0.00, -1.00, 248.0, 167.0)">t</text><text xml:space="preserve" font-family="TrebuchetMS" font-size="20.0" fill="#000000" transform="matrix(1.00, 0.00, -0.00, -1.00, 256.0, 167.0)"> </text><text xml:space="preserve" font-family="TrebuchetMS" font-size="20.0" fill="#000000" transform="matrix(1.00, 0.00, -0.00, -1.00, 262.0, 167.0)">w</text><text xml:space="preserve" font-family="TrebuchetMS" font-size="20.0" fill="#000000" transform="matrix(1.00, 0.00, -0.00, -1.00, 276.9, 167.0)">i</text><text xml:space="preserve" font-family="TrebuchetMS" font-size="20.0" fill="#000000" transform="matrix(1.00, 0.00, -0.00, -1.00, 282.6, 167.0)">l</text><text xml:space="preserve" font-family="TrebuchetMS" font-size="20.0" fill="#000000" transform="matrix(1.00, 0.00, -0.00, -1.00, 288.5, 167.0)">l</text><text xml:space="preserve" font-family="TrebuchetMS" font-size="20.0" fill="#000000" transform="matrix(1.00, 0.00, -0.00, -1.00, 294.4, 167.0)"> </text><text xml:space="preserve" font-family="TrebuchetMS" font-size="20.0" fill="#000000" transform="matrix(1.00, 0.00, -0.00, -1.00, 300.4, 167.0)">t</text><text xml:space="preserve" font-family="TrebuchetMS" font-size="20.0" fill="#000000" transform="matrix(1.00, 0.00, -0.00, -1.00, 308.4, 167.0)">a</text><text xml:space="preserve" font-family="TrebuchetMS" font-size="20.0" fill="#000000" transform="matrix(1.00, 0.00, -0.00, -1.00, 318.9, 167.0)">k</text><text xml:space="preserve" font-family="TrebuchetMS" font-size="20.0" fill="#000000" transform="matrix(1.00, 0.00, -0.00, -1.00, 329.0, 167.0)">e</text><text xml:space="preserve" font-family="TrebuchetMS" font-size="20.0" fill="#000000" transform="matrix(1.00, 0.00, -0.00, -1.00, 339.9, 167.0)"> </text><text xml:space="preserve" font-family="TrebuchetMS" font-size="20.0" fill="#000000" transform="matrix(1.00, 0.00, -0.00, -1.00, 346.0, 167.0)">f</text><text xml:space="preserve" font-family="TrebuchetMS" font-size="20.0" fill="#000000" transform="matrix(1.00, 0.00, -0.00, -1.00, 353.4, 167.0)">o</text><text xml:space="preserve" font-family="TrebuchetMS" font-size="20.0" fill="#000000" transform="matrix(1.00, 0.00, -0.00, -1.00, 364.1, 167.0)">r</text><text xml:space="preserve" font-family="TrebuchetMS" font-size="20.0" fill="#000000" transform="matrix(1.00, 0.00, -0.00, -1.00, 371.9, 167.0)">e</text><text xml:space="preserve" font-family="TrebuchetMS" font-size="20.0" fill="#000000" transform="matrix(1.00, 0.00, -0.00, -1.00, 382.8, 167.0)">v</text><text xml:space="preserve" font-family="TrebuchetMS" font-size="20.0" fill="#000000" transform="matrix(1.00, 0.00, -0.00, -1.00, 392.6, 167.0)">e</text><text xml:space="preserve" font-family="TrebuchetMS" font-size="20.0" fill="#000000" transform="matrix(1.00, 0.00, -0.00, -1.00, 403.5, 167.0)">r</text><text xml:space="preserve" font-family="TrebuchetMS" font-size="28.0" fill="#000000" transform="matrix(1.00, 0.00, -0.00, -1.00, 411.0, 167.0)"> </text><text xml:space="preserve" font-family="ArialMT" font-size="20.0" fill="#000000" transform="matrix(1.00, 0.00, -0.00, -1.00, 93.2, 139.4)">–</text><text xml:space="preserve" font-family="TrebuchetMS" font-size="20.0" fill="#000000" transform="matrix(1.00, 0.00, -0.00, -1.00, 104.0, 139.0)">D</text><text xml:space="preserve" font-family="TrebuchetMS" font-size="20.0" fill="#000000" transform="matrix(1.00, 0.00, -0.00, -1.00, 116.3, 139.0)">o</text><text xml:space="preserve" font-family="TrebuchetMS" font-size="20.0" fill="#000000" transform="matrix(1.00, 0.00, -0.00, -1.00, 127.0, 139.0)">n</text><text xml:space="preserve" font-family="TrebuchetMS" font-size="20.0" fill="#000000" transform="matrix(1.00, 0.00, -0.00, -1.00, 137.9, 139.0)">’</text><text xml:space="preserve" font-family="TrebuchetMS" font-size="20.0" fill="#000000" transform="matrix(1.00, 0.00, -0.00, -1.00, 145.3, 139.0)">t</text><text xml:space="preserve" font-family="TrebuchetMS" font-size="20.0" fill="#000000" transform="matrix(1.00, 0.00, -0.00, -1.00, 153.2, 139.0)"> </text><text xml:space="preserve" font-family="TrebuchetMS" font-size="20.0" fill="#000000" transform="matrix(1.00, 0.00, -0.00, -1.00, 159.2, 139.0)">k</text><text xml:space="preserve" font-family="TrebuchetMS" font-size="20.0" fill="#000000" transform="matrix(1.00, 0.00, -0.00, -1.00, 169.3, 139.0)">n</text><text xml:space="preserve" font-family="TrebuchetMS" font-size="20.0" fill="#000000" transform="matrix(1.00, 0.00, -0.00, -1.00, 180.3, 139.0)">o</text><text xml:space="preserve" font-family="TrebuchetMS" font-size="20.0" fill="#000000" transform="matrix(1.00, 0.00, -0.00, -1.00, 191.0, 139.0)">w</text><text xml:space="preserve" font-family="TrebuchetMS" font-size="20.0" fill="#000000" transform="matrix(1.00, 0.00, -0.00, -1.00, 205.9, 139.0)"> </text><text xml:space="preserve" font-family="TrebuchetMS" font-size="20.0" fill="#000000" transform="matrix(1.00, 0.00, -0.00, -1.00, 211.9, 139.0)">w</text><text xml:space="preserve" font-family="TrebuchetMS" font-size="20.0" fill="#000000" transform="matrix(1.00, 0.00, -0.00, -1.00, 226.8, 139.0)">h</text><text xml:space="preserve" font-family="TrebuchetMS" font-size="20.0" fill="#000000" transform="matrix(1.00, 0.00, -0.00, -1.00, 237.7, 139.0)">e</text><text xml:space="preserve" font-family="TrebuchetMS" font-size="20.0" fill="#000000" transform="matrix(1.00, 0.00, -0.00, -1.00, 248.6, 139.0)">r</text><text xml:space="preserve" font-family="TrebuchetMS" font-size="20.0" fill="#000000" transform="matrix(1.00, 0.00, -0.00, -1.00, 256.4, 139.0)">e</text><text xml:space="preserve" font-family="TrebuchetMS" font-size="20.0" fill="#000000" transform="matrix(1.00, 0.00, -0.00, -1.00, 267.3, 139.0)"> </text><text xml:space="preserve" font-family="TrebuchetMS" font-size="20.0" fill="#000000" transform="matrix(1.00, 0.00, -0.00, -1.00, 273.3, 139.0)">t</text><text xml:space="preserve" font-family="TrebuchetMS" font-size="20.0" fill="#000000" transform="matrix(1.00, 0.00, -0.00, -1.00, 281.3, 139.0)">o</text><text xml:space="preserve" font-family="TrebuchetMS" font-size="20.0" fill="#000000" transform="matrix(1.00, 0.00, -0.00, -1.00, 292.0, 139.0)"> </text><text xml:space="preserve" font-family="TrebuchetMS" font-size="20.0" fill="#000000" transform="matrix(1.00, 0.00, -0.00, -1.00, 298.0, 139.0)">l</text><text xml:space="preserve" font-family="TrebuchetMS" font-size="20.0" fill="#000000" transform="matrix(1.00, 0.00, -0.00, -1.00, 303.9, 139.0)">o</text><text xml:space="preserve" font-family="TrebuchetMS" font-size="20.0" fill="#000000" transform="matrix(1.00, 0.00, -0.00, -1.00, 314.7, 139.0)">o</text><text xml:space="preserve" font-family="TrebuchetMS" font-size="20.0" fill="#000000" transform="matrix(1.00, 0.00, -0.00, -1.00, 325.4, 139.0)">k</text><text xml:space="preserve" font-family="TrebuchetMS" font-size="28.0" fill="#000000" transform="matrix(1.00, 0.00, -0.00, -1.00, 335.4, 139.0)"> </text><text xml:space="preserve" font-family="ArialMT" font-size="24.0" fill="#000000" transform="matrix(1.00, 0.00, -0.00, -1.00, 59.2, 106.3)">•</text><text xml:space="preserve" font-family="TrebuchetMS" font-size="24.0" fill="#000000" transform="matrix(1.00, 0.00, -0.00, -1.00, 70.0, 106.0)">M</text><text xml:space="preserve" font-family="TrebuchetMS" font-size="24.0" fill="#000000" transform="matrix(1.00, 0.00, -0.00, -1.00, 87.0, 106.0)">u</text><text xml:space="preserve" font-family="TrebuchetMS" font-size="24.0" fill="#000000" transform="matrix(1.00, 0.00, -0.00, -1.00, 100.2, 106.0)">l</text><text xml:space="preserve" font-family="TrebuchetMS" font-size="24.0" fill="#000000" transform="matrix(1.00, 0.00, -0.00, -1.00, 107.2, 106.0)">t</text><text xml:space="preserve" font-family="TrebuchetMS" font-size="24.0" fill="#000000" transform="matrix(1.00, 0.00, -0.00, -1.00, 116.8, 106.0)">i</text><text xml:space="preserve" font-family="TrebuchetMS" font-size="24.0" fill="#000000" transform="matrix(1.00, 0.00, -0.00, -1.00, 123.6, 106.0)">p</text><text xml:space="preserve" font-family="TrebuchetMS" font-size="24.0" fill="#000000" transform="matrix(1.00, 0.00, -0.00, -1.00, 137.0, 106.0)">l</text><text xml:space="preserve" font-family="TrebuchetMS" font-size="24.0" fill="#000000" transform="matrix(1.00, 0.00, -0.00, -1.00, 144.1, 106.0)">e</text><text xml:space="preserve" font-family="TrebuchetMS" font-size="24.0" fill="#000000" transform="matrix(1.00, 0.00, -0.00, -1.00, 157.2, 106.0)"> </text><text xml:space="preserve" font-family="TrebuchetMS" font-size="24.0" fill="#000000" transform="matrix(1.00, 0.00, -0.00, -1.00, 164.4, 106.0)">s</text><text xml:space="preserve" font-family="TrebuchetMS" font-size="24.0" fill="#000000" transform="matrix(1.00, 0.00, -0.00, -1.00, 174.1, 106.0)">t</text><text xml:space="preserve" font-family="TrebuchetMS" font-size="24.0" fill="#000000" transform="matrix(1.00, 0.00, -0.00, -1.00, 183.6, 106.0)">a</text><text xml:space="preserve" font-family="TrebuchetMS" font-size="24.0" fill="#000000" transform="matrix(1.00, 0.00, -0.00, -1.00, 196.3, 106.0)">i</text><text xml:space="preserve" font-family="TrebuchetMS" font-size="24.0" fill="#000000" transform="matrix(1.00, 0.00, -0.00, -1.00, 203.1, 106.0)">n</text><text xml:space="preserve" font-family="TrebuchetMS" font-size="24.0" fill="#000000" transform="matrix(1.00, 0.00, -0.00, -1.00, 216.2, 106.0)">s</text><text xml:space="preserve" font-family="TrebuchetMS" font-size="24.0" fill="#000000" transform="matrix(1.00, 0.00, -0.00, -1.00, 225.9, 106.0)"> </text><text xml:space="preserve" font-family="TrebuchetMS" font-size="24.0" fill="#000000" transform="matrix(1.00, 0.00, -0.00, -1.00, 233.2, 106.0)">f</text><text xml:space="preserve" font-family="TrebuchetMS" font-size="24.0" fill="#000000" transform="matrix(1.00, 0.00, -0.00, -1.00, 242.0, 106.0)">o</text><text xml:space="preserve" font-family="TrebuchetMS" font-size="24.0" fill="#000000" transform="matrix(1.00, 0.00, -0.00, -1.00, 254.9, 106.0)">r</text><text xml:space="preserve" font-family="TrebuchetMS" font-size="24.0" fill="#000000" transform="matrix(1.00, 0.00, -0.00, -1.00, 264.2, 106.0)"> </text><text xml:space="preserve" font-family="TrebuchetMS" font-size="24.0" fill="#000000" transform="matrix(1.00, 0.00, -0.00, -1.00, 271.5, 106.0)">m</text><text xml:space="preserve" font-family="TrebuchetMS" font-size="24.0" fill="#000000" transform="matrix(1.00, 0.00, -0.00, -1.00, 291.4, 106.0)">u</text><text xml:space="preserve" font-family="TrebuchetMS" font-size="24.0" fill="#000000" transform="matrix(1.00, 0.00, -0.00, -1.00, 304.5, 106.0)">l</text><text xml:space="preserve" font-family="TrebuchetMS" font-size="24.0" fill="#000000" transform="matrix(1.00, 0.00, -0.00, -1.00, 311.6, 106.0)">t</text><text xml:space="preserve" font-family="TrebuchetMS" font-size="24.0" fill="#000000" transform="matrix(1.00, 0.00, -0.00, -1.00, 321.1, 106.0)">i</text><text xml:space="preserve" font-family="TrebuchetMS" font-size="24.0" fill="#000000" transform="matrix(1.00, 0.00, -0.00, -1.00, 328.0, 106.0)">p</text><text xml:space="preserve" font-family="TrebuchetMS" font-size="24.0" fill="#000000" transform="matrix(1.00, 0.00, -0.00, -1.00, 341.4, 106.0)">l</text><text xml:space="preserve" font-family="TrebuchetMS" font-size="24.0" fill="#000000" transform="matrix(1.00, 0.00, -0.00, -1.00, 348.4, 106.0)">e</text><text xml:space="preserve" font-family="TrebuchetMS" font-size="24.0" fill="#000000" transform="matrix(1.00, 0.00, -0.00, -1.00, 361.5, 106.0)"> </text><text xml:space="preserve" font-family="TrebuchetMS" font-size="24.0" fill="#000000" transform="matrix(1.00, 0.00, -0.00, -1.00, 368.8, 106.0)">c</text><text xml:space="preserve" font-family="TrebuchetMS" font-size="24.0" fill="#000000" transform="matrix(1.00, 0.00, -0.00, -1.00, 380.7, 106.0)">e</text><text xml:space="preserve" font-family="TrebuchetMS" font-size="24.0" fill="#000000" transform="matrix(1.00, 0.00, -0.00, -1.00, 393.8, 106.0)">l</text><text xml:space="preserve" font-family="TrebuchetMS" font-size="24.0" fill="#000000" transform="matrix(1.00, 0.00, -0.00, -1.00, 400.8, 106.0)">l</text><text xml:space="preserve" font-family="TrebuchetMS" font-size="24.0" fill="#000000" transform="matrix(1.00, 0.00, -0.00, -1.00, 407.9, 106.0)">u</text><text xml:space="preserve" font-family="TrebuchetMS" font-size="24.0" fill="#000000" transform="matrix(1.00, 0.00, -0.00, -1.00, 421.0, 106.0)">l</text><text xml:space="preserve" font-family="TrebuchetMS" font-size="24.0" fill="#000000" transform="matrix(1.00, 0.00, -0.00, -1.00, 428.1, 106.0)">a</text><text xml:space="preserve" font-family="TrebuchetMS" font-size="24.0" fill="#000000" transform="matrix(1.00, 0.00, -0.00, -1.00, 440.7, 106.0)">r</text><text xml:space="preserve" font-family="TrebuchetMS" font-size="24.0" fill="#000000" transform="matrix(1.00, 0.00, -0.00, -1.00, 450.0, 106.0)"> </text><text xml:space="preserve" font-family="TrebuchetMS" font-size="24.0" fill="#000000" transform="matrix(1.00, 0.00, -0.00, -1.00, 457.3, 106.0)">t</text><text xml:space="preserve" font-family="TrebuchetMS" font-size="24.0" fill="#000000" transform="matrix(1.00, 0.00, -0.00, -1.00, 466.8, 106.0)">y</text><text xml:space="preserve" font-family="TrebuchetMS" font-size="24.0" fill="#000000" transform="matrix(1.00, 0.00, -0.00, -1.00, 478.6, 106.0)">p</text><text xml:space="preserve" font-family="TrebuchetMS" font-size="24.0" fill="#000000" transform="matrix(1.00, 0.00, -0.00, -1.00, 492.0, 106.0)">e</text><text xml:space="preserve" font-family="TrebuchetMS" font-size="24.0" fill="#000000" transform="matrix(1.00, 0.00, -0.00, -1.00, 505.1, 106.0)">s</text><g><clipPath id="clip-5300"><path d="M -1.0 485.0 L 721.0 485.0 L 721.0 541.0 L -1.0 541.0 Z M -1.0 485.0 "></path></clipPath><g clip-path="url(#clip-5300)"><path d="M -0.0 540.0 L 720.0 540.0 L 720.0 486.0 L -0.0 486.0 Z M -0.0 540.0 " fill="#93B3D7"></path></g></g><g><clipPath id="clip-5301"><path d="M -5.7 490.1 L 725.7 490.1 L 725.7 545.7 L -5.7 545.7 Z M -5.7 490.1 "></path></clipPath><g clip-path="url(#clip-5301)"><text xml:space="preserve" font-family="TrebuchetMS-Bold" font-weight="bold" font-size="32.0" fill="#000000" transform="matrix(1.00, 0.00, -0.00, -1.00, 4.0, 507.0)">H</text><text xml:space="preserve" font-family="TrebuchetMS-Bold" font-weight="bold" font-size="32.0" fill="#000000" transform="matrix(1.00, 0.00, -0.00, -1.00, 25.9, 507.0)">i</text><text xml:space="preserve" font-family="TrebuchetMS-Bold" font-weight="bold" font-size="32.0" fill="#000000" transform="matrix(1.00, 0.00, -0.00, -1.00, 35.4, 507.0)">s</text><text xml:space="preserve" font-family="TrebuchetMS-Bold" font-weight="bold" font-size="32.0" fill="#000000" transform="matrix(1.00, 0.00, -0.00, -1.00, 49.2, 507.0)">t</text><text xml:space="preserve" font-family="TrebuchetMS-Bold" font-weight="bold" font-size="32.0" fill="#000000" transform="matrix(1.00, 0.00, -0.00, -1.00, 61.9, 507.0)">o</text><text xml:space="preserve" font-family="TrebuchetMS-Bold" font-weight="bold" font-size="32.0" fill="#000000" transform="matrix(1.00, 0.00, -0.00, -1.00, 80.0, 507.0)">l</text><text xml:space="preserve" font-family="TrebuchetMS-Bold" font-weight="bold" font-size="32.0" fill="#000000" transform="matrix(1.00, 0.00, -0.00, -1.00, 89.4, 507.0)">o</text><text xml:space="preserve" font-family="TrebuchetMS-Bold" font-weight="bold" font-size="32.0" fill="#000000" transform="matrix(1.00, 0.00, -0.00, -1.00, 107.5, 507.0)">g</text><text xml:space="preserve" font-family="TrebuchetMS-Bold" font-weight="bold" font-size="32.0" fill="#000000" transform="matrix(1.00, 0.00, -0.00, -1.00, 123.6, 507.0)">y</text><text xml:space="preserve" font-family="TrebuchetMS-Bold" font-weight="bold" font-size="32.0" fill="#000000" transform="matrix(1.00, 0.00, -0.00, -1.00, 140.7, 507.0)"> </text><text xml:space="preserve" font-family="TrebuchetMS-Bold" font-weight="bold" font-size="32.0" fill="#000000" transform="matrix(1.00, 0.00, -0.00, -1.00, 149.7, 507.0)">T</text><text xml:space="preserve" font-family="TrebuchetMS-Bold" font-weight="bold" font-size="32.0" fill="#000000" transform="matrix(1.00, 0.00, -0.00, -1.00, 165.8, 507.0)">e</text><text xml:space="preserve" font-family="TrebuchetMS-Bold" font-weight="bold" font-size="32.0" fill="#000000" transform="matrix(1.00, 0.00, -0.00, -1.00, 184.1, 507.0)">l</text><text xml:space="preserve" font-family="TrebuchetMS-Bold" font-weight="bold" font-size="32.0" fill="#000000" transform="matrix(1.00, 0.00, -0.00, -1.00, 193.6, 507.0)">l</text><text xml:space="preserve" font-family="TrebuchetMS-Bold" font-weight="bold" font-size="32.0" fill="#000000" transform="matrix(1.00, 0.00, -0.00, -1.00, 203.0, 507.0)">s</text><text xml:space="preserve" font-family="TrebuchetMS-Bold" font-weight="bold" font-size="32.0" fill="#000000" transform="matrix(1.00, 0.00, -0.00, -1.00, 216.8, 507.0)"> </text><text xml:space="preserve" font-family="TrebuchetMS-Bold" font-weight="bold" font-size="32.0" fill="#000000" transform="matrix(1.00, 0.00, -0.00, -1.00, 226.4, 507.0)">U</text><text xml:space="preserve" font-family="TrebuchetMS-Bold" font-weight="bold" font-size="32.0" fill="#000000" transform="matrix(1.00, 0.00, -0.00, -1.00, 248.1, 507.0)">s</text><text xml:space="preserve" font-family="TrebuchetMS-Bold" font-weight="bold" font-size="32.0" fill="#000000" transform="matrix(1.00, 0.00, -0.00, -1.00, 261.9, 507.0)"> </text><text xml:space="preserve" font-family="TrebuchetMS-Bold" font-weight="bold" font-size="32.0" fill="#000000" transform="matrix(1.00, 0.00, -0.00, -1.00, 271.5, 507.0)">W</text><text xml:space="preserve" font-family="TrebuchetMS-Bold" font-weight="bold" font-size="32.0" fill="#000000" transform="matrix(1.00, 0.00, -0.00, -1.00, 299.8, 507.0)">h</text><text xml:space="preserve" font-family="TrebuchetMS-Bold" font-weight="bold" font-size="32.0" fill="#000000" transform="matrix(1.00, 0.00, -0.00, -1.00, 318.8, 507.0)">a</text><text xml:space="preserve" font-family="TrebuchetMS-Bold" font-weight="bold" font-size="32.0" fill="#000000" transform="matrix(1.00, 0.00, -0.00, -1.00, 335.8, 507.0)">t</text><text xml:space="preserve" font-family="TrebuchetMS-Bold" font-weight="bold" font-size="32.0" fill="#000000" transform="matrix(1.00, 0.00, -0.00, -1.00, 348.5, 507.0)"> </text><text xml:space="preserve" font-family="TrebuchetMS-Bold" font-weight="bold" font-size="32.0" fill="#000000" transform="matrix(1.00, 0.00, -0.00, -1.00, 358.2, 507.0)">L</text><text xml:space="preserve" font-family="TrebuchetMS-Bold" font-weight="bold" font-size="32.0" fill="#000000" transform="matrix(1.00, 0.00, -0.00, -1.00, 375.8, 507.0)">i</text><text xml:space="preserve" font-family="TrebuchetMS-Bold" font-weight="bold" font-size="32.0" fill="#000000" transform="matrix(1.00, 0.00, -0.00, -1.00, 385.4, 507.0)">e</text><text xml:space="preserve" font-family="TrebuchetMS-Bold" font-weight="bold" font-size="32.0" fill="#000000" transform="matrix(1.00, 0.00, -0.00, -1.00, 403.8, 507.0)">s</text><text xml:space="preserve" font-family="TrebuchetMS-Bold" font-weight="bold" font-size="32.0" fill="#000000" transform="matrix(1.00, 0.00, -0.00, -1.00, 417.6, 507.0)"> </text><text xml:space="preserve" font-family="TrebuchetMS-Bold" font-weight="bold" font-size="32.0" fill="#000000" transform="matrix(1.00, 0.00, -0.00, -1.00, 427.2, 507.0)">B</text><text xml:space="preserve" font-family="TrebuchetMS-Bold" font-weight="bold" font-size="32.0" fill="#000000" transform="matrix(1.00, 0.00, -0.00, -1.00, 446.3, 507.0)">e</text><text xml:space="preserve" font-family="TrebuchetMS-Bold" font-weight="bold" font-size="32.0" fill="#000000" transform="matrix(1.00, 0.00, -0.00, -1.00, 464.6, 507.0)">n</text><text xml:space="preserve" font-family="TrebuchetMS-Bold" font-weight="bold" font-size="32.0" fill="#000000" transform="matrix(1.00, 0.00, -0.00, -1.00, 483.5, 507.0)">e</text><text xml:space="preserve" font-family="TrebuchetMS-Bold" font-weight="bold" font-size="32.0" fill="#000000" transform="matrix(1.00, 0.00, -0.00, -1.00, 501.9, 507.0)">a</text><text xml:space="preserve" font-family="TrebuchetMS-Bold" font-weight="bold" font-size="32.0" fill="#000000" transform="matrix(1.00, 0.00, -0.00, -1.00, 519.0, 507.0)">t</text><text xml:space="preserve" font-family="TrebuchetMS-Bold" font-weight="bold" font-size="32.0" fill="#000000" transform="matrix(1.00, 0.00, -0.00, -1.00, 531.7, 507.0)">h</text></g></g><path d="M 0.0 0.0 L 720.0 0.0 " fill="none" stroke="#000000" stroke-width="2.00" stroke-linejoin="round" transform="matrix(-1.00, 0.00, 0.00, 1.00, 720.0, 485.8)"></path></g></svg>