<?xml version="1.0" encoding="UTF-8" standalone="no"?><svg xmlns="http://www.w3.org/2000/svg" xmlns:xlink="http://www.w3.org/1999/xlink" clip-rule="evenodd" stroke-miterlimit="4.00" viewBox="0 0 720 540"><desc>SVG generated by Keynote</desc><defs></defs><g transform="matrix(1.00, 0.00, -0.00, -1.00, 0.0, 540.0)"><path d="M 0.0 540.0 L 720.0 540.0 L 720.0 0.0 L 0.0 0.0 Z M 0.0 540.0 " fill="#FFFFFF"></path><text xml:space="preserve" font-family="ArialMT" font-size="20.0" fill="#282828" transform="matrix(1.00, 0.00, -0.00, -1.00, 33.6, 398.3)">•</text><text xml:space="preserve" font-family="ArialMT" font-size="20.0" fill="#282828" transform="matrix(1.00, 0.00, -0.00, -1.00, 41.0, 398.0)"> </text><text xml:space="preserve" font-family="ArialMT" font-size="20.0" fill="#282828" transform="matrix(1.00, 0.00, -0.00, -1.00, 51.0, 398.0)">M</text><text xml:space="preserve" font-family="ArialMT" font-size="20.0" fill="#282828" transform="matrix(1.00, 0.00, -0.00, -1.00, 67.7, 398.0)">e</text><text xml:space="preserve" font-family="ArialMT" font-size="20.0" fill="#282828" transform="matrix(1.00, 0.00, -0.00, -1.00, 78.8, 398.0)">a</text><text xml:space="preserve" font-family="ArialMT" font-size="20.0" fill="#282828" transform="matrix(1.00, 0.00, -0.00, -1.00, 89.9, 398.0)">s</text><text xml:space="preserve" font-family="ArialMT" font-size="20.0" fill="#282828" transform="matrix(1.00, 0.00, -0.00, -1.00, 99.9, 398.0)">u</text><text xml:space="preserve" font-family="ArialMT" font-size="20.0" fill="#282828" transform="matrix(1.00, 0.00, -0.00, -1.00, 111.1, 398.0)">r</text><text xml:space="preserve" font-family="ArialMT" font-size="20.0" fill="#282828" transform="matrix(1.00, 0.00, -0.00, -1.00, 117.7, 398.0)">i</text><text xml:space="preserve" font-family="ArialMT" font-size="20.0" fill="#282828" transform="matrix(1.00, 0.00, -0.00, -1.00, 122.2, 398.0)">n</text><text xml:space="preserve" font-family="ArialMT" font-size="20.0" fill="#282828" transform="matrix(1.00, 0.00, -0.00, -1.00, 133.3, 398.0)">g</text><text xml:space="preserve" font-family="ArialMT" font-size="20.0" fill="#282828" transform="matrix(1.00, 0.00, -0.00, -1.00, 144.4, 398.0)"> </text><text xml:space="preserve" font-family="ArialMT" font-size="20.0" fill="#282828" transform="matrix(1.00, 0.00, -0.00, -1.00, 154.5, 398.0)">t</text><text xml:space="preserve" font-family="ArialMT" font-size="20.0" fill="#282828" transform="matrix(1.00, 0.00, -0.00, -1.00, 160.0, 398.0)">h</text><text xml:space="preserve" font-family="ArialMT" font-size="20.0" fill="#282828" transform="matrix(1.00, 0.00, -0.00, -1.00, 171.1, 398.0)">e</text><text xml:space="preserve" font-family="ArialMT" font-size="20.0" fill="#282828" transform="matrix(1.00, 0.00, -0.00, -1.00, 182.3, 398.0)"> </text><text xml:space="preserve" font-family="ArialMT" font-size="20.0" fill="#282828" transform="matrix(1.00, 0.00, -0.00, -1.00, 192.3, 398.0)">f</text><text xml:space="preserve" font-family="ArialMT" font-size="20.0" fill="#282828" transform="matrix(1.00, 0.00, -0.00, -1.00, 197.8, 398.0)">u</text><text xml:space="preserve" font-family="ArialMT" font-size="20.0" fill="#282828" transform="matrix(1.00, 0.00, -0.00, -1.00, 209.0, 398.0)">l</text><text xml:space="preserve" font-family="ArialMT" font-size="20.0" fill="#282828" transform="matrix(1.00, 0.00, -0.00, -1.00, 213.4, 398.0)">l</text><text xml:space="preserve" font-family="ArialMT" font-size="20.0" fill="#282828" transform="matrix(1.00, 0.00, -0.00, -1.00, 217.9, 398.0)"> </text><text xml:space="preserve" font-family="ArialMT" font-size="20.0" fill="#282828" transform="matrix(1.00, 0.00, -0.00, -1.00, 227.9, 398.0)">d</text><text xml:space="preserve" font-family="ArialMT" font-size="20.0" fill="#282828" transform="matrix(1.00, 0.00, -0.00, -1.00, 239.0, 398.0)">i</text><text xml:space="preserve" font-family="ArialMT" font-size="20.0" fill="#282828" transform="matrix(1.00, 0.00, -0.00, -1.00, 243.5, 398.0)">f</text><text xml:space="preserve" font-family="ArialMT" font-size="20.0" fill="#282828" transform="matrix(1.00, 0.00, -0.00, -1.00, 248.7, 398.0)">f</text><text xml:space="preserve" font-family="ArialMT" font-size="20.0" fill="#282828" transform="matrix(1.00, 0.00, -0.00, -1.00, 254.2, 398.0)">u</text><text xml:space="preserve" font-family="ArialMT" font-size="20.0" fill="#282828" transform="matrix(1.00, 0.00, -0.00, -1.00, 265.3, 398.0)">s</text><text xml:space="preserve" font-family="ArialMT" font-size="20.0" fill="#282828" transform="matrix(1.00, 0.00, -0.00, -1.00, 275.3, 398.0)">i</text><text xml:space="preserve" font-family="ArialMT" font-size="20.0" fill="#282828" transform="matrix(1.00, 0.00, -0.00, -1.00, 279.8, 398.0)">o</text><text xml:space="preserve" font-family="ArialMT" font-size="20.0" fill="#282828" transform="matrix(1.00, 0.00, -0.00, -1.00, 290.9, 398.0)">n</text><text xml:space="preserve" font-family="ArialMT" font-size="20.0" fill="#282828" transform="matrix(1.00, 0.00, -0.00, -1.00, 302.0, 398.0)"> </text><text xml:space="preserve" font-family="ArialMT" font-size="20.0" fill="#282828" transform="matrix(1.00, 0.00, -0.00, -1.00, 312.1, 398.0)">t</text><text xml:space="preserve" font-family="ArialMT" font-size="20.0" fill="#282828" transform="matrix(1.00, 0.00, -0.00, -1.00, 317.6, 398.0)">e</text><text xml:space="preserve" font-family="ArialMT" font-size="20.0" fill="#282828" transform="matrix(1.00, 0.00, -0.00, -1.00, 328.7, 398.0)">n</text><text xml:space="preserve" font-family="ArialMT" font-size="20.0" fill="#282828" transform="matrix(1.00, 0.00, -0.00, -1.00, 339.9, 398.0)">s</text><text xml:space="preserve" font-family="ArialMT" font-size="20.0" fill="#282828" transform="matrix(1.00, 0.00, -0.00, -1.00, 349.9, 398.0)">o</text><text xml:space="preserve" font-family="ArialMT" font-size="20.0" fill="#282828" transform="matrix(1.00, 0.00, -0.00, -1.00, 361.0, 398.0)">r</text><text xml:space="preserve" font-family="ArialMT" font-size="20.0" fill="#282828" transform="matrix(1.00, 0.00, -0.00, -1.00, 367.7, 398.0)"> </text><text xml:space="preserve" font-family="ArialMT" font-size="20.0" fill="#282828" transform="matrix(1.00, 0.00, -0.00, -1.00, 377.7, 398.0)">a</text><text xml:space="preserve" font-family="ArialMT" font-size="20.0" fill="#282828" transform="matrix(1.00, 0.00, -0.00, -1.00, 388.8, 398.0)">l</text><text xml:space="preserve" font-family="ArialMT" font-size="20.0" fill="#282828" transform="matrix(1.00, 0.00, -0.00, -1.00, 393.3, 398.0)">l</text><text xml:space="preserve" font-family="ArialMT" font-size="20.0" fill="#282828" transform="matrix(1.00, 0.00, -0.00, -1.00, 397.7, 398.0)">o</text><text xml:space="preserve" font-family="ArialMT" font-size="20.0" fill="#282828" transform="matrix(1.00, 0.00, -0.00, -1.00, 408.8, 398.0)">w</text><text xml:space="preserve" font-family="ArialMT" font-size="20.0" fill="#282828" transform="matrix(1.00, 0.00, -0.00, -1.00, 423.3, 398.0)">s</text><text xml:space="preserve" font-family="ArialMT" font-size="20.0" fill="#282828" transform="matrix(1.00, 0.00, -0.00, -1.00, 433.3, 398.0)"> </text><text xml:space="preserve" font-family="ArialMT" font-size="20.0" fill="#282828" transform="matrix(1.00, 0.00, -0.00, -1.00, 443.3, 398.0)">u</text><text xml:space="preserve" font-family="ArialMT" font-size="20.0" fill="#282828" transform="matrix(1.00, 0.00, -0.00, -1.00, 454.4, 398.0)">s</text><text xml:space="preserve" font-family="ArialMT" font-size="20.0" fill="#282828" transform="matrix(1.00, 0.00, -0.00, -1.00, 464.4, 398.0)"> </text><text xml:space="preserve" font-family="ArialMT" font-size="20.0" fill="#282828" transform="matrix(1.00, 0.00, -0.00, -1.00, 474.5, 398.0)">t</text><text xml:space="preserve" font-family="ArialMT" font-size="20.0" fill="#282828" transform="matrix(1.00, 0.00, -0.00, -1.00, 480.0, 398.0)">o</text><text xml:space="preserve" font-family="ArialMT" font-size="20.0" fill="#282828" transform="matrix(1.00, 0.00, -0.00, -1.00, 491.1, 398.0)"> </text><text xml:space="preserve" font-family="ArialMT" font-size="20.0" fill="#282828" transform="matrix(1.00, 0.00, -0.00, -1.00, 501.2, 398.0)">c</text><text xml:space="preserve" font-family="ArialMT" font-size="20.0" fill="#282828" transform="matrix(1.00, 0.00, -0.00, -1.00, 511.2, 398.0)">a</text><text xml:space="preserve" font-family="ArialMT" font-size="20.0" fill="#282828" transform="matrix(1.00, 0.00, -0.00, -1.00, 522.3, 398.0)">l</text><text xml:space="preserve" font-family="ArialMT" font-size="20.0" fill="#282828" transform="matrix(1.00, 0.00, -0.00, -1.00, 526.7, 398.0)">c</text><text xml:space="preserve" font-family="ArialMT" font-size="20.0" fill="#282828" transform="matrix(1.00, 0.00, -0.00, -1.00, 536.7, 398.0)">u</text><text xml:space="preserve" font-family="ArialMT" font-size="20.0" fill="#282828" transform="matrix(1.00, 0.00, -0.00, -1.00, 547.9, 398.0)">l</text><text xml:space="preserve" font-family="ArialMT" font-size="20.0" fill="#282828" transform="matrix(1.00, 0.00, -0.00, -1.00, 552.3, 398.0)">a</text><text xml:space="preserve" font-family="ArialMT" font-size="20.0" fill="#282828" transform="matrix(1.00, 0.00, -0.00, -1.00, 563.4, 398.0)">t</text><text xml:space="preserve" font-family="ArialMT" font-size="20.0" fill="#282828" transform="matrix(1.00, 0.00, -0.00, -1.00, 569.0, 398.0)">e</text><text xml:space="preserve" font-family="ArialMT" font-size="20.0" fill="#282828" transform="matrix(1.00, 0.00, -0.00, -1.00, 580.1, 398.0)"> </text><text xml:space="preserve" font-family="ArialMT" font-size="20.0" fill="#282828" transform="matrix(1.00, 0.00, -0.00, -1.00, 590.2, 398.0)">r</text><text xml:space="preserve" font-family="ArialMT" font-size="20.0" fill="#282828" transform="matrix(1.00, 0.00, -0.00, -1.00, 596.8, 398.0)">o</text><text xml:space="preserve" font-family="ArialMT" font-size="20.0" fill="#282828" transform="matrix(1.00, 0.00, -0.00, -1.00, 607.9, 398.0)">t</text><text xml:space="preserve" font-family="ArialMT" font-size="20.0" fill="#282828" transform="matrix(1.00, 0.00, -0.00, -1.00, 613.5, 398.0)">a</text><text xml:space="preserve" font-family="ArialMT" font-size="20.0" fill="#282828" transform="matrix(1.00, 0.00, -0.00, -1.00, 624.6, 398.0)">t</text><text xml:space="preserve" font-family="ArialMT" font-size="20.0" fill="#282828" transform="matrix(1.00, 0.00, -0.00, -1.00, 630.2, 398.0)">i</text><text xml:space="preserve" font-family="ArialMT" font-size="20.0" fill="#282828" transform="matrix(1.00, 0.00, -0.00, -1.00, 634.6, 398.0)">o</text><text xml:space="preserve" font-family="ArialMT" font-size="20.0" fill="#282828" transform="matrix(1.00, 0.00, -0.00, -1.00, 645.7, 398.0)">n</text><text xml:space="preserve" font-family="ArialMT" font-size="20.0" fill="#282828" transform="matrix(1.00, 0.00, -0.00, -1.00, 656.9, 398.0)">a</text><text xml:space="preserve" font-family="ArialMT" font-size="20.0" fill="#282828" transform="matrix(1.00, 0.00, -0.00, -1.00, 668.0, 398.0)">l</text><text xml:space="preserve" font-family="ArialMT" font-size="20.0" fill="#282828" transform="matrix(1.00, 0.00, -0.00, -1.00, 672.4, 398.0)">l</text><text xml:space="preserve" font-family="ArialMT" font-size="20.0" fill="#282828" transform="matrix(1.00, 0.00, -0.00, -1.00, 676.9, 398.0)">y</text><text xml:space="preserve" font-family="ArialMT" font-size="20.0" fill="#282828" transform="matrix(1.00, 0.00, -0.00, -1.00, 686.9, 398.0)"> </text><text xml:space="preserve" font-family="ArialMT" font-size="20.0" fill="#282828" transform="matrix(1.00, 0.00, -0.00, -1.00, 34.0, 375.0)">i</text><text xml:space="preserve" font-family="ArialMT" font-size="20.0" fill="#282828" transform="matrix(1.00, 0.00, -0.00, -1.00, 38.4, 375.0)">n</text><text xml:space="preserve" font-family="ArialMT" font-size="20.0" fill="#282828" transform="matrix(1.00, 0.00, -0.00, -1.00, 49.6, 375.0)">v</text><text xml:space="preserve" font-family="ArialMT" font-size="20.0" fill="#282828" transform="matrix(1.00, 0.00, -0.00, -1.00, 59.6, 375.0)">a</text><text xml:space="preserve" font-family="ArialMT" font-size="20.0" fill="#282828" transform="matrix(1.00, 0.00, -0.00, -1.00, 70.7, 375.0)">r</text><text xml:space="preserve" font-family="ArialMT" font-size="20.0" fill="#282828" transform="matrix(1.00, 0.00, -0.00, -1.00, 77.4, 375.0)">i</text><text xml:space="preserve" font-family="ArialMT" font-size="20.0" fill="#282828" transform="matrix(1.00, 0.00, -0.00, -1.00, 81.8, 375.0)">a</text><text xml:space="preserve" font-family="ArialMT" font-size="20.0" fill="#282828" transform="matrix(1.00, 0.00, -0.00, -1.00, 92.9, 375.0)">n</text><text xml:space="preserve" font-family="ArialMT" font-size="20.0" fill="#282828" transform="matrix(1.00, 0.00, -0.00, -1.00, 104.1, 375.0)">t</text><text xml:space="preserve" font-family="ArialMT" font-size="20.0" fill="#282828" transform="matrix(1.00, 0.00, -0.00, -1.00, 109.6, 375.0)"> </text><text xml:space="preserve" font-family="ArialMT" font-size="20.0" fill="#282828" transform="matrix(1.00, 0.00, -0.00, -1.00, 115.2, 375.0)">m</text><text xml:space="preserve" font-family="ArialMT" font-size="20.0" fill="#282828" transform="matrix(1.00, 0.00, -0.00, -1.00, 131.8, 375.0)">e</text><text xml:space="preserve" font-family="ArialMT" font-size="20.0" fill="#282828" transform="matrix(1.00, 0.00, -0.00, -1.00, 143.0, 375.0)">a</text><text xml:space="preserve" font-family="ArialMT" font-size="20.0" fill="#282828" transform="matrix(1.00, 0.00, -0.00, -1.00, 154.1, 375.0)">s</text><text xml:space="preserve" font-family="ArialMT" font-size="20.0" fill="#282828" transform="matrix(1.00, 0.00, -0.00, -1.00, 164.1, 375.0)">u</text><text xml:space="preserve" font-family="ArialMT" font-size="20.0" fill="#282828" transform="matrix(1.00, 0.00, -0.00, -1.00, 175.2, 375.0)">r</text><text xml:space="preserve" font-family="ArialMT" font-size="20.0" fill="#282828" transform="matrix(1.00, 0.00, -0.00, -1.00, 181.9, 375.0)">e</text><text xml:space="preserve" font-family="ArialMT" font-size="20.0" fill="#282828" transform="matrix(1.00, 0.00, -0.00, -1.00, 193.0, 375.0)">s</text><text xml:space="preserve" font-family="ArialMT" font-size="20.0" fill="#282828" transform="matrix(1.00, 0.00, -0.00, -1.00, 203.0, 375.0)"> </text><text xml:space="preserve" font-family="ArialMT" font-size="20.0" fill="#282828" transform="matrix(1.00, 0.00, -0.00, -1.00, 208.5, 375.0)">o</text><text xml:space="preserve" font-family="ArialMT" font-size="20.0" fill="#282828" transform="matrix(1.00, 0.00, -0.00, -1.00, 219.7, 375.0)">f</text><text xml:space="preserve" font-family="ArialMT" font-size="20.0" fill="#282828" transform="matrix(1.00, 0.00, -0.00, -1.00, 225.2, 375.0)"> </text><text xml:space="preserve" font-family="ArialMT" font-size="20.0" fill="#282828" transform="matrix(1.00, 0.00, -0.00, -1.00, 230.8, 375.0)">d</text><text xml:space="preserve" font-family="ArialMT" font-size="20.0" fill="#282828" transform="matrix(1.00, 0.00, -0.00, -1.00, 241.9, 375.0)">i</text><text xml:space="preserve" font-family="ArialMT" font-size="20.0" fill="#282828" transform="matrix(1.00, 0.00, -0.00, -1.00, 246.4, 375.0)">f</text><text xml:space="preserve" font-family="ArialMT" font-size="20.0" fill="#282828" transform="matrix(1.00, 0.00, -0.00, -1.00, 251.5, 375.0)">f</text><text xml:space="preserve" font-family="ArialMT" font-size="20.0" fill="#282828" transform="matrix(1.00, 0.00, -0.00, -1.00, 257.1, 375.0)">u</text><text xml:space="preserve" font-family="ArialMT" font-size="20.0" fill="#282828" transform="matrix(1.00, 0.00, -0.00, -1.00, 268.2, 375.0)">s</text><text xml:space="preserve" font-family="ArialMT" font-size="20.0" fill="#282828" transform="matrix(1.00, 0.00, -0.00, -1.00, 278.2, 375.0)">i</text><text xml:space="preserve" font-family="ArialMT" font-size="20.0" fill="#282828" transform="matrix(1.00, 0.00, -0.00, -1.00, 282.7, 375.0)">o</text><text xml:space="preserve" font-family="ArialMT" font-size="20.0" fill="#282828" transform="matrix(1.00, 0.00, -0.00, -1.00, 293.8, 375.0)">n</text><text xml:space="preserve" font-family="ArialMT" font-size="20.0" fill="#282828" transform="matrix(1.00, 0.00, -0.00, -1.00, 304.9, 375.0)">.</text><text xml:space="preserve" font-family="ArialMT" font-size="20.0" fill="#282828" transform="matrix(1.00, 0.00, -0.00, -1.00, 310.5, 375.0)"> </text><text xml:space="preserve" font-family="ArialMT" font-size="20.0" fill="#282828" transform="matrix(1.00, 0.00, -0.00, -1.00, 33.6, 340.3)">•</text><text xml:space="preserve" font-family="ArialMT" font-size="20.0" fill="#282828" transform="matrix(1.00, 0.00, -0.00, -1.00, 41.0, 340.0)"> </text><text xml:space="preserve" font-family="ArialMT" font-size="20.0" fill="#282828" transform="matrix(1.00, 0.00, -0.00, -1.00, 46.6, 340.0)">M</text><text xml:space="preserve" font-family="ArialMT" font-size="20.0" fill="#282828" transform="matrix(1.00, 0.00, -0.00, -1.00, 63.2, 340.0)">i</text><text xml:space="preserve" font-family="ArialMT" font-size="20.0" fill="#282828" transform="matrix(1.00, 0.00, -0.00, -1.00, 67.7, 340.0)">n</text><text xml:space="preserve" font-family="ArialMT" font-size="20.0" fill="#282828" transform="matrix(1.00, 0.00, -0.00, -1.00, 78.8, 340.0)">i</text><text xml:space="preserve" font-family="ArialMT" font-size="20.0" fill="#282828" transform="matrix(1.00, 0.00, -0.00, -1.00, 83.2, 340.0)">m</text><text xml:space="preserve" font-family="ArialMT" font-size="20.0" fill="#282828" transform="matrix(1.00, 0.00, -0.00, -1.00, 99.9, 340.0)">u</text><text xml:space="preserve" font-family="ArialMT" font-size="20.0" fill="#282828" transform="matrix(1.00, 0.00, -0.00, -1.00, 111.0, 340.0)">m</text><text xml:space="preserve" font-family="ArialMT" font-size="20.0" fill="#282828" transform="matrix(1.00, 0.00, -0.00, -1.00, 127.7, 340.0)"> </text><text xml:space="preserve" font-family="ArialMT" font-size="20.0" fill="#282828" transform="matrix(1.00, 0.00, -0.00, -1.00, 133.2, 340.0)">o</text><text xml:space="preserve" font-family="ArialMT" font-size="20.0" fill="#282828" transform="matrix(1.00, 0.00, -0.00, -1.00, 144.4, 340.0)">f</text><text xml:space="preserve" font-family="ArialMT" font-size="20.0" fill="#282828" transform="matrix(1.00, 0.00, -0.00, -1.00, 149.9, 340.0)"> </text><text xml:space="preserve" font-family="ArialMT" font-size="20.0" fill="#282828" transform="matrix(1.00, 0.00, -0.00, -1.00, 155.5, 340.0)">6</text><text xml:space="preserve" font-family="ArialMT" font-size="20.0" fill="#282828" transform="matrix(1.00, 0.00, -0.00, -1.00, 166.6, 340.0)"> </text><text xml:space="preserve" font-family="ArialMT" font-size="20.0" fill="#282828" transform="matrix(1.00, 0.00, -0.00, -1.00, 172.1, 340.0)">d</text><text xml:space="preserve" font-family="ArialMT" font-size="20.0" fill="#282828" transform="matrix(1.00, 0.00, -0.00, -1.00, 183.3, 340.0)">i</text><text xml:space="preserve" font-family="ArialMT" font-size="20.0" fill="#282828" transform="matrix(1.00, 0.00, -0.00, -1.00, 187.7, 340.0)">f</text><text xml:space="preserve" font-family="ArialMT" font-size="20.0" fill="#282828" transform="matrix(1.00, 0.00, -0.00, -1.00, 192.9, 340.0)">f</text><text xml:space="preserve" font-family="ArialMT" font-size="20.0" fill="#282828" transform="matrix(1.00, 0.00, -0.00, -1.00, 198.5, 340.0)">e</text><text xml:space="preserve" font-family="ArialMT" font-size="20.0" fill="#282828" transform="matrix(1.00, 0.00, -0.00, -1.00, 209.6, 340.0)">r</text><text xml:space="preserve" font-family="ArialMT" font-size="20.0" fill="#282828" transform="matrix(1.00, 0.00, -0.00, -1.00, 216.3, 340.0)">e</text><text xml:space="preserve" font-family="ArialMT" font-size="20.0" fill="#282828" transform="matrix(1.00, 0.00, -0.00, -1.00, 227.4, 340.0)">n</text><text xml:space="preserve" font-family="ArialMT" font-size="20.0" fill="#282828" transform="matrix(1.00, 0.00, -0.00, -1.00, 238.5, 340.0)">t</text><text xml:space="preserve" font-family="ArialMT" font-size="20.0" fill="#282828" transform="matrix(1.00, 0.00, -0.00, -1.00, 244.1, 340.0)"> </text><text xml:space="preserve" font-family="ArialMT" font-size="20.0" fill="#282828" transform="matrix(1.00, 0.00, -0.00, -1.00, 249.6, 340.0)">o</text><text xml:space="preserve" font-family="ArialMT" font-size="20.0" fill="#282828" transform="matrix(1.00, 0.00, -0.00, -1.00, 260.7, 340.0)">r</text><text xml:space="preserve" font-family="ArialMT" font-size="20.0" fill="#282828" transform="matrix(1.00, 0.00, -0.00, -1.00, 267.4, 340.0)">t</text><text xml:space="preserve" font-family="ArialMT" font-size="20.0" fill="#282828" transform="matrix(1.00, 0.00, -0.00, -1.00, 273.0, 340.0)">h</text><text xml:space="preserve" font-family="ArialMT" font-size="20.0" fill="#282828" transform="matrix(1.00, 0.00, -0.00, -1.00, 284.1, 340.0)">o</text><text xml:space="preserve" font-family="ArialMT" font-size="20.0" fill="#282828" transform="matrix(1.00, 0.00, -0.00, -1.00, 295.2, 340.0)">g</text><text xml:space="preserve" font-family="ArialMT" font-size="20.0" fill="#282828" transform="matrix(1.00, 0.00, -0.00, -1.00, 306.3, 340.0)">o</text><text xml:space="preserve" font-family="ArialMT" font-size="20.0" fill="#282828" transform="matrix(1.00, 0.00, -0.00, -1.00, 317.5, 340.0)">n</text><text xml:space="preserve" font-family="ArialMT" font-size="20.0" fill="#282828" transform="matrix(1.00, 0.00, -0.00, -1.00, 328.6, 340.0)">a</text><text xml:space="preserve" font-family="ArialMT" font-size="20.0" fill="#282828" transform="matrix(1.00, 0.00, -0.00, -1.00, 339.7, 340.0)">l</text><text xml:space="preserve" font-family="ArialMT" font-size="20.0" fill="#282828" transform="matrix(1.00, 0.00, -0.00, -1.00, 344.2, 340.0)"> </text><text xml:space="preserve" font-family="ArialMT" font-size="20.0" fill="#282828" transform="matrix(1.00, 0.00, -0.00, -1.00, 349.7, 340.0)">d</text><text xml:space="preserve" font-family="ArialMT" font-size="20.0" fill="#282828" transform="matrix(1.00, 0.00, -0.00, -1.00, 360.8, 340.0)">i</text><text xml:space="preserve" font-family="ArialMT" font-size="20.0" fill="#282828" transform="matrix(1.00, 0.00, -0.00, -1.00, 365.3, 340.0)">r</text><text xml:space="preserve" font-family="ArialMT" font-size="20.0" fill="#282828" transform="matrix(1.00, 0.00, -0.00, -1.00, 371.9, 340.0)">e</text><text xml:space="preserve" font-family="ArialMT" font-size="20.0" fill="#282828" transform="matrix(1.00, 0.00, -0.00, -1.00, 383.1, 340.0)">c</text><text xml:space="preserve" font-family="ArialMT" font-size="20.0" fill="#282828" transform="matrix(1.00, 0.00, -0.00, -1.00, 393.1, 340.0)">t</text><text xml:space="preserve" font-family="ArialMT" font-size="20.0" fill="#282828" transform="matrix(1.00, 0.00, -0.00, -1.00, 398.6, 340.0)">i</text><text xml:space="preserve" font-family="ArialMT" font-size="20.0" fill="#282828" transform="matrix(1.00, 0.00, -0.00, -1.00, 403.1, 340.0)">o</text><text xml:space="preserve" font-family="ArialMT" font-size="20.0" fill="#282828" transform="matrix(1.00, 0.00, -0.00, -1.00, 414.2, 340.0)">n</text><text xml:space="preserve" font-family="ArialMT" font-size="20.0" fill="#282828" transform="matrix(1.00, 0.00, -0.00, -1.00, 425.3, 340.0)">s</text><text xml:space="preserve" font-family="ArialMT" font-size="20.0" fill="#282828" transform="matrix(1.00, 0.00, -0.00, -1.00, 435.3, 340.0)"> </text><text xml:space="preserve" font-family="ArialMT" font-size="20.0" fill="#282828" transform="matrix(1.00, 0.00, -0.00, -1.00, 440.9, 340.0)">r</text><text xml:space="preserve" font-family="ArialMT" font-size="20.0" fill="#282828" transform="matrix(1.00, 0.00, -0.00, -1.00, 447.5, 340.0)">e</text><text xml:space="preserve" font-family="ArialMT" font-size="20.0" fill="#282828" transform="matrix(1.00, 0.00, -0.00, -1.00, 458.7, 340.0)">q</text><text xml:space="preserve" font-family="ArialMT" font-size="20.0" fill="#282828" transform="matrix(1.00, 0.00, -0.00, -1.00, 469.8, 340.0)">u</text><text xml:space="preserve" font-family="ArialMT" font-size="20.0" fill="#282828" transform="matrix(1.00, 0.00, -0.00, -1.00, 480.9, 340.0)">i</text><text xml:space="preserve" font-family="ArialMT" font-size="20.0" fill="#282828" transform="matrix(1.00, 0.00, -0.00, -1.00, 485.4, 340.0)">r</text><text xml:space="preserve" font-family="ArialMT" font-size="20.0" fill="#282828" transform="matrix(1.00, 0.00, -0.00, -1.00, 492.0, 340.0)">e</text><text xml:space="preserve" font-family="ArialMT" font-size="20.0" fill="#282828" transform="matrix(1.00, 0.00, -0.00, -1.00, 503.2, 340.0)">d</text><text xml:space="preserve" font-family="ArialMT" font-size="20.0" fill="#282828" transform="matrix(1.00, 0.00, -0.00, -1.00, 514.3, 340.0)">.</text><g><clipPath id="clip-5205"><path d="M 186.0 148.0 L 512.0 148.0 L 512.0 264.0 L 186.0 264.0 Z M 186.0 148.0 "></path></clipPath><g clip-path="url(#clip-5205)"><text xml:space="preserve" font-family="Symbol" font-size="384.0" fill="#000000" transform="matrix(0.06, 0.00, -0.00, -0.06, 498.2, 167.9)">⎥</text><text xml:space="preserve" font-family="Symbol" font-size="384.0" fill="#000000" transform="matrix(0.06, 0.00, -0.00, -0.06, 498.2, 190.9)">⎥</text><text xml:space="preserve" font-family="Symbol" font-size="384.0" fill="#000000" transform="matrix(0.06, 0.00, -0.00, -0.06, 498.2, 213.9)">⎥</text><text xml:space="preserve" font-family="Symbol" font-size="384.0" fill="#000000" transform="matrix(0.06, 0.00, -0.00, -0.06, 498.2, 154.8)">⎦</text><text xml:space="preserve" font-family="Symbol" font-size="384.0" fill="#000000" transform="matrix(0.06, 0.00, -0.00, -0.06, 498.2, 236.9)">⎤</text><text xml:space="preserve" font-family="Symbol" font-size="384.0" fill="#000000" transform="matrix(0.06, 0.00, -0.00, -0.06, 243.1, 167.9)">⎢</text><text xml:space="preserve" font-family="Symbol" font-size="384.0" fill="#000000" transform="matrix(0.06, 0.00, -0.00, -0.06, 243.1, 190.9)">⎢</text><text xml:space="preserve" font-family="Symbol" font-size="384.0" fill="#000000" transform="matrix(0.06, 0.00, -0.00, -0.06, 243.1, 213.9)">⎢</text><text xml:space="preserve" font-family="Symbol" font-size="384.0" fill="#000000" transform="matrix(0.06, 0.00, -0.00, -0.06, 243.1, 154.8)">⎣</text><text xml:space="preserve" font-family="Symbol" font-size="384.0" fill="#000000" transform="matrix(0.06, 0.00, -0.00, -0.06, 243.1, 236.9)">⎡</text><text xml:space="preserve" font-family="Symbol" font-size="384.0" fill="#000000" transform="matrix(0.06, 0.00, -0.00, -0.06, 223.9, 200.0)">=</text><text xml:space="preserve" font-family="TimesNewRomanPS-ItalicMT" font-style="italic" font-size="224.0" fill="#000000" transform="matrix(0.06, 0.00, -0.00, -0.06, 482.9, 158.0)">z</text><text xml:space="preserve" font-family="TimesNewRomanPS-ItalicMT" font-style="italic" font-size="224.0" fill="#000000" transform="matrix(0.06, 0.00, -0.00, -0.06, 488.4, 158.0)">z</text><text xml:space="preserve" font-family="TimesNewRomanPS-ItalicMT" font-style="italic" font-size="224.0" fill="#000000" transform="matrix(0.06, 0.00, -0.00, -0.06, 393.7, 158.0)">y</text><text xml:space="preserve" font-family="TimesNewRomanPS-ItalicMT" font-style="italic" font-size="224.0" fill="#000000" transform="matrix(0.06, 0.00, -0.00, -0.06, 399.9, 158.0)">z</text><text xml:space="preserve" font-family="TimesNewRomanPS-ItalicMT" font-style="italic" font-size="224.0" fill="#000000" transform="matrix(0.06, 0.00, -0.00, -0.06, 304.1, 158.0)">x</text><text xml:space="preserve" font-family="TimesNewRomanPS-ItalicMT" font-style="italic" font-size="224.0" fill="#000000" transform="matrix(0.06, 0.00, -0.00, -0.06, 310.3, 158.0)">z</text><text xml:space="preserve" font-family="TimesNewRomanPS-ItalicMT" font-style="italic" font-size="224.0" fill="#000000" transform="matrix(0.06, 0.00, -0.00, -0.06, 482.9, 194.0)">y</text><text xml:space="preserve" font-family="TimesNewRomanPS-ItalicMT" font-style="italic" font-size="224.0" fill="#000000" transform="matrix(0.06, 0.00, -0.00, -0.06, 489.2, 194.0)">z</text><text xml:space="preserve" font-family="TimesNewRomanPS-ItalicMT" font-style="italic" font-size="224.0" fill="#000000" transform="matrix(0.06, 0.00, -0.00, -0.06, 393.3, 194.0)">y</text><text xml:space="preserve" font-family="TimesNewRomanPS-ItalicMT" font-style="italic" font-size="224.0" fill="#000000" transform="matrix(0.06, 0.00, -0.00, -0.06, 399.5, 194.0)">y</text><text xml:space="preserve" font-family="TimesNewRomanPS-ItalicMT" font-style="italic" font-size="224.0" fill="#000000" transform="matrix(0.06, 0.00, -0.00, -0.06, 303.7, 194.0)">x</text><text xml:space="preserve" font-family="TimesNewRomanPS-ItalicMT" font-style="italic" font-size="224.0" fill="#000000" transform="matrix(0.06, 0.00, -0.00, -0.06, 309.9, 194.0)">y</text><text xml:space="preserve" font-family="TimesNewRomanPS-ItalicMT" font-style="italic" font-size="224.0" fill="#000000" transform="matrix(0.06, 0.00, -0.00, -0.06, 482.6, 230.0)">x</text><text xml:space="preserve" font-family="TimesNewRomanPS-ItalicMT" font-style="italic" font-size="224.0" fill="#000000" transform="matrix(0.06, 0.00, -0.00, -0.06, 488.8, 230.0)">z</text><text xml:space="preserve" font-family="TimesNewRomanPS-ItalicMT" font-style="italic" font-size="224.0" fill="#000000" transform="matrix(0.06, 0.00, -0.00, -0.06, 393.0, 230.0)">x</text><text xml:space="preserve" font-family="TimesNewRomanPS-ItalicMT" font-style="italic" font-size="224.0" fill="#000000" transform="matrix(0.06, 0.00, -0.00, -0.06, 399.2, 230.0)">y</text><text xml:space="preserve" font-family="TimesNewRomanPS-ItalicMT" font-style="italic" font-size="224.0" fill="#000000" transform="matrix(0.06, 0.00, -0.00, -0.06, 303.8, 230.0)">x</text><text xml:space="preserve" font-family="TimesNewRomanPS-ItalicMT" font-style="italic" font-size="224.0" fill="#000000" transform="matrix(0.06, 0.00, -0.00, -0.06, 310.0, 230.0)">x</text><text xml:space="preserve" font-family="TimesNewRomanPS-ItalicMT" font-style="italic" font-size="224.0" fill="#000000" transform="matrix(0.06, 0.00, -0.00, -0.06, 206.4, 194.0)">T</text><text xml:space="preserve" font-family="TimesNewRomanPS-ItalicMT" font-style="italic" font-size="384.0" fill="#000000" transform="matrix(0.06, 0.00, -0.00, -0.06, 433.9, 164.0)">A</text><text xml:space="preserve" font-family="TimesNewRomanPS-ItalicMT" font-style="italic" font-size="384.0" fill="#000000" transform="matrix(0.06, 0.00, -0.00, -0.06, 448.6, 164.0)">D</text><text xml:space="preserve" font-family="TimesNewRomanPS-ItalicMT" font-style="italic" font-size="384.0" fill="#000000" transform="matrix(0.06, 0.00, -0.00, -0.06, 465.9, 164.0)">C</text><text xml:space="preserve" font-family="TimesNewRomanPS-ItalicMT" font-style="italic" font-size="384.0" fill="#000000" transform="matrix(0.06, 0.00, -0.00, -0.06, 344.1, 164.0)">A</text><text xml:space="preserve" font-family="TimesNewRomanPS-ItalicMT" font-style="italic" font-size="384.0" fill="#000000" transform="matrix(0.06, 0.00, -0.00, -0.06, 358.7, 164.0)">D</text><text xml:space="preserve" font-family="TimesNewRomanPS-ItalicMT" font-style="italic" font-size="384.0" fill="#000000" transform="matrix(0.06, 0.00, -0.00, -0.06, 376.1, 164.0)">C</text><text xml:space="preserve" font-family="TimesNewRomanPS-ItalicMT" font-style="italic" font-size="384.0" fill="#000000" transform="matrix(0.06, 0.00, -0.00, -0.06, 255.1, 164.0)">A</text><text xml:space="preserve" font-family="TimesNewRomanPS-ItalicMT" font-style="italic" font-size="384.0" fill="#000000" transform="matrix(0.06, 0.00, -0.00, -0.06, 269.7, 164.0)">D</text><text xml:space="preserve" font-family="TimesNewRomanPS-ItalicMT" font-style="italic" font-size="384.0" fill="#000000" transform="matrix(0.06, 0.00, -0.00, -0.06, 287.1, 164.0)">C</text><text xml:space="preserve" font-family="TimesNewRomanPS-ItalicMT" font-style="italic" font-size="384.0" fill="#000000" transform="matrix(0.06, 0.00, -0.00, -0.06, 433.3, 200.0)">A</text><text xml:space="preserve" font-family="TimesNewRomanPS-ItalicMT" font-style="italic" font-size="384.0" fill="#000000" transform="matrix(0.06, 0.00, -0.00, -0.06, 448.0, 200.0)">D</text><text xml:space="preserve" font-family="TimesNewRomanPS-ItalicMT" font-style="italic" font-size="384.0" fill="#000000" transform="matrix(0.06, 0.00, -0.00, -0.06, 465.3, 200.0)">C</text><text xml:space="preserve" font-family="TimesNewRomanPS-ItalicMT" font-style="italic" font-size="384.0" fill="#000000" transform="matrix(0.06, 0.00, -0.00, -0.06, 343.7, 200.0)">A</text><text xml:space="preserve" font-family="TimesNewRomanPS-ItalicMT" font-style="italic" font-size="384.0" fill="#000000" transform="matrix(0.06, 0.00, -0.00, -0.06, 358.3, 200.0)">D</text><text xml:space="preserve" font-family="TimesNewRomanPS-ItalicMT" font-style="italic" font-size="384.0" fill="#000000" transform="matrix(0.06, 0.00, -0.00, -0.06, 375.7, 200.0)">C</text><text xml:space="preserve" font-family="TimesNewRomanPS-ItalicMT" font-style="italic" font-size="384.0" fill="#000000" transform="matrix(0.06, 0.00, -0.00, -0.06, 254.7, 200.0)">A</text><text xml:space="preserve" font-family="TimesNewRomanPS-ItalicMT" font-style="italic" font-size="384.0" fill="#000000" transform="matrix(0.06, 0.00, -0.00, -0.06, 269.3, 200.0)">D</text><text xml:space="preserve" font-family="TimesNewRomanPS-ItalicMT" font-style="italic" font-size="384.0" fill="#000000" transform="matrix(0.06, 0.00, -0.00, -0.06, 286.7, 200.0)">C</text><text xml:space="preserve" font-family="TimesNewRomanPS-ItalicMT" font-style="italic" font-size="384.0" fill="#000000" transform="matrix(0.06, 0.00, -0.00, -0.06, 433.6, 236.0)">A</text><text xml:space="preserve" font-family="TimesNewRomanPS-ItalicMT" font-style="italic" font-size="384.0" fill="#000000" transform="matrix(0.06, 0.00, -0.00, -0.06, 448.3, 236.0)">D</text><text xml:space="preserve" font-family="TimesNewRomanPS-ItalicMT" font-style="italic" font-size="384.0" fill="#000000" transform="matrix(0.06, 0.00, -0.00, -0.06, 465.6, 236.0)">C</text><text xml:space="preserve" font-family="TimesNewRomanPS-ItalicMT" font-style="italic" font-size="384.0" fill="#000000" transform="matrix(0.06, 0.00, -0.00, -0.06, 344.0, 236.0)">A</text><text xml:space="preserve" font-family="TimesNewRomanPS-ItalicMT" font-style="italic" font-size="384.0" fill="#000000" transform="matrix(0.06, 0.00, -0.00, -0.06, 358.7, 236.0)">D</text><text xml:space="preserve" font-family="TimesNewRomanPS-ItalicMT" font-style="italic" font-size="384.0" fill="#000000" transform="matrix(0.06, 0.00, -0.00, -0.06, 376.0, 236.0)">C</text><text xml:space="preserve" font-family="TimesNewRomanPS-ItalicMT" font-style="italic" font-size="384.0" fill="#000000" transform="matrix(0.06, 0.00, -0.00, -0.06, 254.8, 236.0)">A</text><text xml:space="preserve" font-family="TimesNewRomanPS-ItalicMT" font-style="italic" font-size="384.0" fill="#000000" transform="matrix(0.06, 0.00, -0.00, -0.06, 269.5, 236.0)">D</text><text xml:space="preserve" font-family="TimesNewRomanPS-ItalicMT" font-style="italic" font-size="384.0" fill="#000000" transform="matrix(0.06, 0.00, -0.00, -0.06, 286.8, 236.0)">C</text><text xml:space="preserve" font-family="TimesNewRomanPS-ItalicMT" font-style="italic" font-size="384.0" fill="#000000" transform="matrix(0.06, 0.00, -0.00, -0.06, 190.4, 200.0)">D</text></g></g><g><clipPath id="clip-5206"><path d="M -1.0 485.0 L 721.0 485.0 L 721.0 541.0 L -1.0 541.0 Z M -1.0 485.0 "></path></clipPath><g clip-path="url(#clip-5206)"><path d="M -0.0 540.0 L 720.0 540.0 L 720.0 486.0 L -0.0 486.0 Z M -0.0 540.0 " fill="#93B3D7"></path></g></g><g><clipPath id="clip-5207"><path d="M -5.7 490.1 L 725.7 490.1 L 725.7 545.7 L -5.7 545.7 Z M -5.7 490.1 "></path></clipPath><g clip-path="url(#clip-5207)"><text xml:space="preserve" font-family="TrebuchetMS-Bold" font-weight="bold" font-size="32.0" fill="#000000" transform="matrix(1.00, 0.00, -0.00, -1.00, 4.0, 507.0)">D</text><text xml:space="preserve" font-family="TrebuchetMS-Bold" font-weight="bold" font-size="32.0" fill="#000000" transform="matrix(1.00, 0.00, -0.00, -1.00, 24.5, 507.0)">i</text><text xml:space="preserve" font-family="TrebuchetMS-Bold" font-weight="bold" font-size="32.0" fill="#000000" transform="matrix(1.00, 0.00, -0.00, -1.00, 34.1, 507.0)">f</text><text xml:space="preserve" font-family="TrebuchetMS-Bold" font-weight="bold" font-size="32.0" fill="#000000" transform="matrix(1.00, 0.00, -0.00, -1.00, 45.9, 507.0)">f</text><text xml:space="preserve" font-family="TrebuchetMS-Bold" font-weight="bold" font-size="32.0" fill="#000000" transform="matrix(1.00, 0.00, -0.00, -1.00, 57.7, 507.0)">u</text><text xml:space="preserve" font-family="TrebuchetMS-Bold" font-weight="bold" font-size="32.0" fill="#000000" transform="matrix(1.00, 0.00, -0.00, -1.00, 76.6, 507.0)">s</text><text xml:space="preserve" font-family="TrebuchetMS-Bold" font-weight="bold" font-size="32.0" fill="#000000" transform="matrix(1.00, 0.00, -0.00, -1.00, 90.4, 507.0)">i</text><text xml:space="preserve" font-family="TrebuchetMS-Bold" font-weight="bold" font-size="32.0" fill="#000000" transform="matrix(1.00, 0.00, -0.00, -1.00, 100.0, 507.0)">o</text><text xml:space="preserve" font-family="TrebuchetMS-Bold" font-weight="bold" font-size="32.0" fill="#000000" transform="matrix(1.00, 0.00, -0.00, -1.00, 118.1, 507.0)">n</text><text xml:space="preserve" font-family="TrebuchetMS-Bold" font-weight="bold" font-size="32.0" fill="#000000" transform="matrix(1.00, 0.00, -0.00, -1.00, 137.0, 507.0)"> </text><text xml:space="preserve" font-family="TrebuchetMS-Bold" font-weight="bold" font-size="32.0" fill="#000000" transform="matrix(1.00, 0.00, -0.00, -1.00, 146.0, 507.0)">T</text><text xml:space="preserve" font-family="TrebuchetMS-Bold" font-weight="bold" font-size="32.0" fill="#000000" transform="matrix(1.00, 0.00, -0.00, -1.00, 162.1, 507.0)">e</text><text xml:space="preserve" font-family="TrebuchetMS-Bold" font-weight="bold" font-size="32.0" fill="#000000" transform="matrix(1.00, 0.00, -0.00, -1.00, 180.4, 507.0)">n</text><text xml:space="preserve" font-family="TrebuchetMS-Bold" font-weight="bold" font-size="32.0" fill="#000000" transform="matrix(1.00, 0.00, -0.00, -1.00, 199.3, 507.0)">s</text><text xml:space="preserve" font-family="TrebuchetMS-Bold" font-weight="bold" font-size="32.0" fill="#000000" transform="matrix(1.00, 0.00, -0.00, -1.00, 213.1, 507.0)">o</text><text xml:space="preserve" font-family="TrebuchetMS-Bold" font-weight="bold" font-size="32.0" fill="#000000" transform="matrix(1.00, 0.00, -0.00, -1.00, 231.2, 507.0)">r</text><text xml:space="preserve" font-family="TrebuchetMS-Bold" font-weight="bold" font-size="32.0" fill="#000000" transform="matrix(1.00, 0.00, -0.00, -1.00, 244.9, 507.0)"> </text><text xml:space="preserve" font-family="TrebuchetMS-Bold" font-weight="bold" font-size="32.0" fill="#000000" transform="matrix(1.00, 0.00, -0.00, -1.00, 254.6, 507.0)">I</text><text xml:space="preserve" font-family="TrebuchetMS-Bold" font-weight="bold" font-size="32.0" fill="#000000" transform="matrix(1.00, 0.00, -0.00, -1.00, 263.5, 507.0)">m</text><text xml:space="preserve" font-family="TrebuchetMS-Bold" font-weight="bold" font-size="32.0" fill="#000000" transform="matrix(1.00, 0.00, -0.00, -1.00, 291.0, 507.0)">a</text><text xml:space="preserve" font-family="TrebuchetMS-Bold" font-weight="bold" font-size="32.0" fill="#000000" transform="matrix(1.00, 0.00, -0.00, -1.00, 308.0, 507.0)">g</text><text xml:space="preserve" font-family="TrebuchetMS-Bold" font-weight="bold" font-size="32.0" fill="#000000" transform="matrix(1.00, 0.00, -0.00, -1.00, 324.1, 507.0)">i</text><text xml:space="preserve" font-family="TrebuchetMS-Bold" font-weight="bold" font-size="32.0" fill="#000000" transform="matrix(1.00, 0.00, -0.00, -1.00, 333.6, 507.0)">n</text><text xml:space="preserve" font-family="TrebuchetMS-Bold" font-weight="bold" font-size="32.0" fill="#000000" transform="matrix(1.00, 0.00, -0.00, -1.00, 352.5, 507.0)">g</text></g></g><path d="M 0.0 0.0 L 720.0 0.0 " fill="none" stroke="#000000" stroke-width="2.00" stroke-linejoin="round" transform="matrix(-1.00, 0.00, 0.00, 1.00, 720.0, 485.8)"></path></g></svg>